<svg width="24" height="20" viewBox="0 0 24 20" fill="none" xmlns="http://www.w3.org/2000/svg">
<g clip-path="url(#clip0_1654_7)">
<path d="M12 0C5.373 0 0 4.4775 0 10C0 15.5225 5.373 20 12 20C18.627 20 24 15.5225 24 10C24 4.4775 18.627 0 12 0ZM12.75 14.325V15C12.75 15.345 12.414 15.625 12 15.625C11.586 15.625 11.25 15.345 11.25 15V14.3225C10.482 14.2175 9.7785 13.9563 9.252 13.5675C8.9415 13.3375 8.9145 12.9437 9.189 12.685C9.4635 12.4262 9.9375 12.405 10.248 12.6325C10.671 12.945 11.31 13.125 12 13.125C13.2195 13.125 14.25 12.5525 14.25 11.875C14.25 11.1975 13.2195 10.625 12 10.625C9.933 10.625 8.25 9.50375 8.25 8.125C8.25 6.9175 9.54 5.9075 11.25 5.675V5C11.25 4.655 11.586 4.375 12 4.375C12.414 4.375 12.75 4.655 12.75 5V5.6775C13.518 5.7825 14.2215 6.04375 14.748 6.4325C15.057 6.6625 15.087 7.0575 14.811 7.315C14.535 7.5725 14.0625 7.595 13.752 7.3675C13.329 7.055 12.69 6.875 12 6.875C10.7805 6.875 9.75 7.4475 9.75 8.125C9.75 8.8025 10.7805 9.375 12 9.375C14.0685 9.375 15.75 10.4963 15.75 11.875C15.75 13.0825 14.46 14.0925 12.75 14.325Z" fill="#5F5F5F"/>
</g>
<defs>
<clipPath id="clip0_1654_7">
<rect width="24" height="20" fill="white"/>
</clipPath>
</defs>
</svg>
