<svg width="24" height="20" viewBox="0 0 24 20" fill="none" xmlns="http://www.w3.org/2000/svg">
<path d="M20.5353 10.6766H18.6792C18.8684 11.1082 18.9717 11.574 18.9717 12.0595V17.9052C18.9717 18.1077 18.9295 18.302 18.8525 18.4827H21.921C23.0673 18.4827 23.9998 17.7056 23.9998 16.7504V13.5636C23.9998 11.9717 22.4456 10.6766 20.5353 10.6766Z" fill="#5F5F5F"/>
<path d="M5.02806 12.0596C5.02806 11.5741 5.13142 11.1083 5.3206 10.6766H3.46454C1.55419 10.6766 0 11.9718 0 13.5638V16.7505C0 17.7057 0.932486 18.4828 2.07872 18.4828H5.14726C5.07034 18.302 5.02806 18.1077 5.02806 17.9053V12.0596Z" fill="#5F5F5F"/>
<path d="M14.1218 9.17246H9.8786C7.96825 9.17246 6.41406 10.4676 6.41406 12.0596V17.9053C6.41406 18.2242 6.72428 18.4827 7.10697 18.4827H16.8935C17.2761 18.4827 17.5864 18.2242 17.5864 17.9053V12.0596C17.5864 10.4676 16.0322 9.17246 14.1218 9.17246Z" fill="#5F5F5F"/>
<path d="M11.9998 1.5172C9.70235 1.5172 7.83325 3.07479 7.83325 4.98936C7.83325 6.28799 8.69336 7.42218 9.96358 8.01765C10.5661 8.30007 11.2607 8.46148 11.9998 8.46148C12.7389 8.46148 13.4335 8.30007 14.036 8.01765C15.3063 7.42218 16.1663 6.28796 16.1663 4.98936C16.1663 3.07482 14.2972 1.5172 11.9998 1.5172Z" fill="#5F5F5F"/>
<path d="M4.6835 4.75348C2.96529 4.75348 1.56747 5.91833 1.56747 7.35017C1.56747 8.78201 2.96529 9.94685 4.6835 9.94685C5.11934 9.94685 5.53437 9.87162 5.91139 9.73638C6.56323 9.50252 7.1007 9.08853 7.43328 8.56997C7.66672 8.20603 7.79952 7.79083 7.79952 7.35017C7.79952 5.91837 6.4017 4.75348 4.6835 4.75348Z" fill="#5F5F5F"/>
<path d="M19.3163 4.75348C17.5981 4.75348 16.2003 5.91833 16.2003 7.35017C16.2003 7.79087 16.3331 8.20607 16.5665 8.56997C16.8991 9.08857 17.4365 9.50255 18.0884 9.73638C18.4654 9.87162 18.8804 9.94685 19.3163 9.94685C21.0345 9.94685 22.4323 8.78201 22.4323 7.35017C22.4323 5.91833 21.0345 4.75348 19.3163 4.75348Z" fill="#5F5F5F"/>
</svg>
