<svg width="24" height="20" viewBox="0 0 24 20" fill="none" xmlns="http://www.w3.org/2000/svg">
<path d="M21.7391 1.88432C18.7234 -0.628804 13.8167 -0.628765 10.8009 1.88436C8.74099 3.60096 8.02549 6.13069 8.91743 8.4258L0.207023 15.6845C0.0751633 15.7944 0.00100708 15.9431 0.00100708 16.0988V19.4136C0.00100708 19.7374 0.315491 19.9995 0.704132 19.9995H4.68185C4.8686 19.9995 5.04715 19.9377 5.17896 19.8278L6.17322 18.9987C6.32496 18.8722 6.39912 18.6949 6.37441 18.5169L6.2508 17.6265L7.73121 17.5104C8.06768 17.484 8.33341 17.2626 8.36501 16.9822L8.50441 15.7485L9.57283 15.8521C9.77126 15.8744 9.97108 15.8189 10.1215 15.7079C10.2711 15.5964 10.357 15.4372 10.357 15.2702V14.1792H11.6424C11.8291 14.1792 12.0077 14.1174 12.1395 14.0075L13.9426 12.5248C16.6961 13.2687 19.6792 12.7173 21.7391 10.9996C24.7549 8.48647 24.7549 4.39745 21.7391 1.88432ZM19.75 6.02768C18.9274 6.71319 17.5898 6.71319 16.7672 6.02768C15.9446 5.34217 15.9446 4.22752 16.7672 3.54202C17.5898 2.85651 18.9274 2.85651 19.75 3.54202C20.5726 4.22752 20.5726 5.34217 19.75 6.02768Z" fill="#5F5F5F"/>
</svg>
