<svg width="24" height="24" viewBox="0 0 24 24" fill="none" xmlns="http://www.w3.org/2000/svg">
<g clip-path="url(#clip0_1654_34)">
<path d="M23.2654 5.14285C21.2398 5.14285 19.5919 6.79079 19.5919 8.81631V12.7347C19.5919 13.1404 19.9209 13.4694 20.3266 13.4694H22.5307V18.1224C22.5307 18.5281 22.8596 18.8571 23.2653 18.8571C23.671 18.8571 24 18.5282 24 18.1224V5.87752C24 5.47177 23.6711 5.14285 23.2654 5.14285Z" fill="#67833E"/>
<path d="M3.67345 5.14285C3.2677 5.14285 2.93878 5.47173 2.93878 5.87748V8.81593C2.93878 9.22131 2.6092 9.55102 2.20402 9.55102C1.79897 9.55102 1.46939 9.22131 1.46939 8.81602V5.87748C1.46939 5.47173 1.14042 5.14285 0.734719 5.14285C0.328969 5.14285 0 5.47177 0 5.87752V8.81607C0 9.77396 0.61425 10.5907 1.46939 10.894L1.46934 18.1225C1.46934 18.5282 1.79831 18.8572 2.20402 18.8572C2.60972 18.8572 2.93873 18.5282 2.93873 18.1225L2.93878 10.894C3.79392 10.5907 4.40817 9.77387 4.40817 8.81598V5.87752C4.40817 5.47177 4.0792 5.14285 3.67345 5.14285Z" fill="#67833E"/>
<path d="M11.7547 10.0408C10.6744 10.0408 9.79547 10.9197 9.79547 12C9.79547 13.0803 10.6744 13.9592 11.7547 13.9592C12.835 13.9592 13.7139 13.0803 13.7139 12C13.7138 10.9197 12.835 10.0408 11.7547 10.0408Z" fill="#67833E"/>
<path d="M11.7547 5.63261C8.2437 5.63261 5.38733 8.48899 5.38733 12C5.38733 15.511 8.24366 18.3674 11.7547 18.3674C15.2657 18.3674 18.122 15.511 18.122 12C18.122 8.48904 15.2657 5.63261 11.7547 5.63261ZM11.7547 15.4286C9.86413 15.4286 8.32611 13.8905 8.32611 12C8.32611 10.1095 9.86413 8.57144 11.7547 8.57144C13.6453 8.57144 15.1833 10.1095 15.1833 12C15.1832 13.8905 13.6453 15.4286 11.7547 15.4286Z" fill="#67833E"/>
</g>
<defs>
<clipPath id="clip0_1654_34">
<rect width="24" height="24" fill="white"/>
</clipPath>
</defs>
</svg>
