<svg width="20" height="20" viewBox="0 0 20 20" fill="none" xmlns="http://www.w3.org/2000/svg">
<g clip-path="url(#clip0_1654_50)">
<path d="M12.8883 15.6185H7.11053C6.74236 15.6185 6.44385 15.917 6.44385 16.2852C6.44385 16.6534 6.74232 16.9519 7.11053 16.9519H12.8883C13.2565 16.9519 13.555 16.6534 13.555 16.2852C13.555 15.917 13.2565 15.6185 12.8883 15.6185Z" fill="#5F5F5F"/>
<path d="M12.8883 13.5159H7.11053C6.74236 13.5159 6.44385 13.8143 6.44385 14.1825C6.44385 14.5508 6.74232 14.8492 7.11053 14.8492H12.8883C13.2565 14.8492 13.555 14.5508 13.555 14.1825C13.555 13.8143 13.2565 13.5159 12.8883 13.5159Z" fill="#5F5F5F"/>
<path d="M18.4445 5.23074H16.3232V1.37234C16.3232 1.00417 16.0248 0.705658 15.6566 0.705658H4.34344C3.97527 0.705658 3.67676 1.00413 3.67676 1.37234V5.23074H1.55555C0.697812 5.23074 0 5.92859 0 6.78632V13.4934C0 14.3512 0.697812 15.049 1.55555 15.049H3.67687V18.6277C3.67687 18.9958 3.97535 19.2943 4.34355 19.2943H15.6564C16.0246 19.2943 16.3231 18.9959 16.3231 18.6277V15.049H18.4445C19.3022 15.049 20 14.3512 20 13.4934V6.78632C20 5.92863 19.3022 5.23074 18.4445 5.23074ZM5.01008 2.03902H14.9899V5.23074H5.01008V2.03902ZM14.9898 17.961H5.01023C5.01023 17.8307 5.01023 12.6679 5.01023 12.5068H14.9898C14.9898 12.6719 14.9898 17.8357 14.9898 17.961ZM15.6566 9.14538H13.9596C13.5914 9.14538 13.2929 8.84691 13.2929 8.47871C13.2929 8.1105 13.5914 7.81203 13.9596 7.81203H15.6566C16.0247 7.81203 16.3232 8.1105 16.3232 8.47871C16.3232 8.84691 16.0248 9.14538 15.6566 9.14538Z" fill="#5F5F5F"/>
</g>
<defs>
<clipPath id="clip0_1654_50">
<rect width="20" height="20" fill="white"/>
</clipPath>
</defs>
</svg>
