<svg width="172" height="44" viewBox="0 0 172 44" fill="none" xmlns="http://www.w3.org/2000/svg">
<rect width="172" height="44" rx="4" fill="#67833E"/>
<path d="M43.336 28H41.512L36.024 19.696V28H34.2V16.864H36.024L41.512 25.152V16.864H43.336V28ZM53.8113 23.376C53.8113 23.7067 53.7899 24.0053 53.7473 24.272H47.0113C47.0646 24.976 47.3259 25.5413 47.7953 25.968C48.2646 26.3947 48.8406 26.608 49.5233 26.608C50.5046 26.608 51.1979 26.1973 51.6033 25.376H53.5712C53.3046 26.1867 52.8193 26.8533 52.1153 27.376C51.4219 27.888 50.5579 28.144 49.5233 28.144C48.6806 28.144 47.9233 27.9573 47.2513 27.584C46.5899 27.2 46.0673 26.6667 45.6833 25.984C45.3099 25.2907 45.1233 24.4907 45.1233 23.584C45.1233 22.6773 45.3046 21.8827 45.6673 21.2C46.0406 20.5067 46.5579 19.9733 47.2193 19.6C47.8913 19.2267 48.6593 19.04 49.5233 19.04C50.3553 19.04 51.0966 19.2213 51.7473 19.584C52.3979 19.9467 52.9046 20.4587 53.2673 21.12C53.6299 21.7707 53.8113 22.5227 53.8113 23.376ZM51.9073 22.8C51.8966 22.128 51.6566 21.5893 51.1873 21.184C50.7179 20.7787 50.1366 20.576 49.4433 20.576C48.8139 20.576 48.2753 20.7787 47.8273 21.184C47.3793 21.5787 47.1126 22.1173 47.0273 22.8H51.9073ZM67.4463 19.184L64.7103 28H62.7903L61.0143 21.488L59.2383 28H57.3183L54.5663 19.184H56.4223L58.2623 26.272L60.1343 19.184H62.0383L63.8303 26.24L65.6543 19.184H67.4463ZM84.6776 16.88V28H82.8536V20.384L79.4616 28H78.1976L74.7896 20.384V28H72.9656V16.88H74.9336L78.8376 25.6L82.7256 16.88H84.6776ZM95.155 23.376C95.155 23.7067 95.1337 24.0053 95.091 24.272H88.355C88.4083 24.976 88.6697 25.5413 89.139 25.968C89.6083 26.3947 90.1843 26.608 90.867 26.608C91.8483 26.608 92.5417 26.1973 92.947 25.376H94.915C94.6483 26.1867 94.163 26.8533 93.459 27.376C92.7657 27.888 91.9017 28.144 90.867 28.144C90.0243 28.144 89.267 27.9573 88.595 27.584C87.9337 27.2 87.411 26.6667 87.027 25.984C86.6537 25.2907 86.467 24.4907 86.467 23.584C86.467 22.6773 86.6483 21.8827 87.011 21.2C87.3843 20.5067 87.9017 19.9733 88.563 19.6C89.235 19.2267 90.003 19.04 90.867 19.04C91.699 19.04 92.4403 19.2213 93.091 19.584C93.7417 19.9467 94.2483 20.4587 94.611 21.12C94.9737 21.7707 95.155 22.5227 95.155 23.376ZM93.251 22.8C93.2403 22.128 93.0003 21.5893 92.531 21.184C92.0617 20.7787 91.4803 20.576 90.787 20.576C90.1577 20.576 89.619 20.7787 89.171 21.184C88.723 21.5787 88.4563 22.1173 88.371 22.8H93.251ZM101.398 19.04C102.091 19.04 102.71 19.184 103.254 19.472C103.809 19.76 104.241 20.1867 104.55 20.752C104.859 21.3173 105.014 22 105.014 22.8V28H103.206V23.072C103.206 22.2827 103.009 21.68 102.614 21.264C102.219 20.8373 101.681 20.624 100.998 20.624C100.315 20.624 99.7713 20.8373 99.366 21.264C98.9713 21.68 98.774 22.2827 98.774 23.072V28H96.95V19.184H98.774V20.192C99.0727 19.8293 99.4513 19.5467 99.91 19.344C100.379 19.1413 100.875 19.04 101.398 19.04ZM115.325 19.184V28H113.501V26.96C113.213 27.3227 112.834 27.6107 112.365 27.824C111.906 28.0267 111.415 28.128 110.893 28.128C110.199 28.128 109.575 27.984 109.021 27.696C108.477 27.408 108.045 26.9813 107.725 26.416C107.415 25.8507 107.261 25.168 107.261 24.368V19.184H109.069V24.096C109.069 24.8853 109.266 25.4933 109.661 25.92C110.055 26.336 110.594 26.544 111.277 26.544C111.959 26.544 112.498 26.336 112.893 25.92C113.298 25.4933 113.501 24.8853 113.501 24.096V19.184H115.325ZM123.712 16.88V28H121.888V16.88H123.712ZM128.234 20.672V25.552C128.234 25.8827 128.309 26.1227 128.458 26.272C128.618 26.4107 128.885 26.48 129.258 26.48H130.378V28H128.938C128.117 28 127.488 27.808 127.05 27.424C126.613 27.04 126.394 26.416 126.394 25.552V20.672H125.354V19.184H126.394V16.992H128.234V19.184H130.378V20.672H128.234ZM140.139 23.376C140.139 23.7067 140.118 24.0053 140.075 24.272H133.339C133.393 24.976 133.654 25.5413 134.123 25.968C134.593 26.3947 135.169 26.608 135.851 26.608C136.833 26.608 137.526 26.1973 137.931 25.376H139.899C139.633 26.1867 139.147 26.8533 138.443 27.376C137.75 27.888 136.886 28.144 135.851 28.144C135.009 28.144 134.251 27.9573 133.579 27.584C132.918 27.2 132.395 26.6667 132.011 25.984C131.638 25.2907 131.451 24.4907 131.451 23.584C131.451 22.6773 131.633 21.8827 131.995 21.2C132.369 20.5067 132.886 19.9733 133.547 19.6C134.219 19.2267 134.987 19.04 135.851 19.04C136.683 19.04 137.425 19.2213 138.075 19.584C138.726 19.9467 139.233 20.4587 139.595 21.12C139.958 21.7707 140.139 22.5227 140.139 23.376ZM138.235 22.8C138.225 22.128 137.985 21.5893 137.515 21.184C137.046 20.7787 136.465 20.576 135.771 20.576C135.142 20.576 134.603 20.7787 134.155 21.184C133.707 21.5787 133.441 22.1173 133.355 22.8H138.235ZM152.606 19.04C153.3 19.04 153.918 19.184 154.462 19.472C155.017 19.76 155.449 20.1867 155.758 20.752C156.078 21.3173 156.238 22 156.238 22.8V28H154.43V23.072C154.43 22.2827 154.233 21.68 153.838 21.264C153.444 20.8373 152.905 20.624 152.222 20.624C151.54 20.624 150.996 20.8373 150.59 21.264C150.196 21.68 149.998 22.2827 149.998 23.072V28H148.19V23.072C148.19 22.2827 147.993 21.68 147.598 21.264C147.204 20.8373 146.665 20.624 145.982 20.624C145.3 20.624 144.756 20.8373 144.35 21.264C143.956 21.68 143.758 22.2827 143.758 23.072V28H141.934V19.184H143.758V20.192C144.057 19.8293 144.436 19.5467 144.894 19.344C145.353 19.1413 145.844 19.04 146.366 19.04C147.07 19.04 147.7 19.1893 148.254 19.488C148.809 19.7867 149.236 20.2187 149.534 20.784C149.801 20.2507 150.217 19.8293 150.782 19.52C151.348 19.2 151.956 19.04 152.606 19.04Z" fill="white"/>
<path d="M27.2188 22.6192H18.7812V31.205C18.7812 31.6441 18.4315 32 18 32C17.5685 32 17.2188 31.6441 17.2188 31.205V22.6192H8.78125C8.34977 22.6192 8 22.2633 8 21.8242C8 21.3851 8.34977 21.0292 8.78125 21.0292H17.2188V12.4434C17.2188 12.0044 17.5685 11.6484 18 11.6484C18.4315 11.6484 18.7812 12.0044 18.7812 12.4434V21.0292H27.2188C27.6502 21.0292 28 21.3851 28 21.8242C28 22.2633 27.6502 22.6192 27.2188 22.6192Z" fill="white"/>
</svg>
