<svg width="13" height="22" viewBox="0 0 13 22" fill="none" xmlns="http://www.w3.org/2000/svg">
<path d="M12.7564 14.676C12.7564 15.508 12.5404 16.292 12.1084 17.028C11.6924 17.748 11.0684 18.348 10.2364 18.828C9.42044 19.292 8.45244 19.564 7.33244 19.644V21.588H5.79644V19.62C4.19644 19.476 2.90844 18.996 1.93244 18.18C0.956438 17.348 0.452438 16.228 0.420438 14.82H4.02044C4.11644 15.972 4.70844 16.668 5.79644 16.908V12.324C4.64444 12.036 3.71644 11.748 3.01244 11.46C2.30844 11.172 1.70044 10.708 1.18844 10.068C0.676438 9.428 0.420438 8.556 0.420438 7.452C0.420438 6.06 0.916438 4.924 1.90844 4.044C2.91644 3.164 4.21244 2.66 5.79644 2.532V0.587999H7.33244V2.532C8.86844 2.66 10.0924 3.124 11.0044 3.924C11.9324 4.724 12.4524 5.828 12.5644 7.236H8.94044C8.89244 6.772 8.72444 6.372 8.43644 6.036C8.16444 5.684 7.79644 5.436 7.33244 5.292V9.828C8.53244 10.132 9.47644 10.428 10.1644 10.716C10.8684 10.988 11.4764 11.444 11.9884 12.084C12.5004 12.708 12.7564 13.572 12.7564 14.676ZM3.92444 7.284C3.92444 7.812 4.08444 8.244 4.40444 8.58C4.72444 8.9 5.18844 9.164 5.79644 9.372V5.22C5.22044 5.3 4.76444 5.516 4.42844 5.868C4.09244 6.22 3.92444 6.692 3.92444 7.284ZM7.33244 16.956C7.94044 16.844 8.41244 16.596 8.74844 16.212C9.10044 15.828 9.27644 15.364 9.27644 14.82C9.27644 14.292 9.10844 13.868 8.77244 13.548C8.43644 13.228 7.95644 12.964 7.33244 12.756V16.956Z" fill="#67833E"/>
</svg>
