<svg width="12" height="17" viewBox="0 0 12 17" fill="none" xmlns="http://www.w3.org/2000/svg">
<path d="M1.03105 2.9804C1.18035 3.06732 1.34534 3.12391 1.51656 3.14692C1.68778 3.16994 1.86186 3.15892 2.02881 3.11451C2.19577 3.0701 2.35231 2.99317 2.48946 2.88812C2.62662 2.78308 2.74169 2.65199 2.82807 2.50238C2.91445 2.35276 2.97044 2.18757 2.99284 2.01627C3.01523 1.84497 3.00359 1.67093 2.95857 1.50414C2.91356 1.33734 2.83606 1.18108 2.73052 1.04431C2.62498 0.907533 2.49348 0.79294 2.34355 0.707102C2.04218 0.534552 1.6847 0.488473 1.34942 0.57896C1.01414 0.669446 0.728392 0.88912 0.554754 1.18987C0.381115 1.49062 0.333745 1.84792 0.423019 2.18353C0.512292 2.51913 0.730932 2.80567 1.03105 2.9804ZM1.03105 9.63665C1.18035 9.72357 1.34534 9.78016 1.51656 9.80317C1.68778 9.82619 1.86186 9.81517 2.02881 9.77076C2.19577 9.72635 2.35231 9.64942 2.48946 9.54437C2.62662 9.43933 2.74169 9.30824 2.82807 9.15863C2.91445 9.00901 2.97044 8.84382 2.99284 8.67252C3.01523 8.50122 3.00359 8.32718 2.95857 8.16039C2.91356 7.99359 2.83606 7.83733 2.73052 7.70056C2.62498 7.56378 2.49348 7.44919 2.34355 7.36335C2.04218 7.1908 1.6847 7.14472 1.34942 7.23521C1.01414 7.3257 0.728392 7.54537 0.554754 7.84612C0.381115 8.14687 0.333745 8.50417 0.423019 8.83978C0.512292 9.17538 0.730932 9.46192 1.03105 9.63665ZM8.9998 1.84375C8.9998 2.19185 9.13808 2.52569 9.38422 2.77183C9.63037 3.01797 9.9642 3.15625 10.3123 3.15625C10.6604 3.15625 10.9942 3.01797 11.2404 2.77183C11.4865 2.52569 11.6248 2.19185 11.6248 1.84375C11.6248 1.49565 11.4865 1.16181 11.2404 0.915672C10.9942 0.669531 10.6604 0.53125 10.3123 0.53125C9.9642 0.53125 9.63037 0.669531 9.38422 0.915672C9.13808 1.16181 8.9998 1.49565 8.9998 1.84375ZM8.9998 8.5C8.9998 8.8481 9.13808 9.18194 9.38422 9.42808C9.63037 9.67422 9.9642 9.8125 10.3123 9.8125C10.6604 9.8125 10.9942 9.67422 11.2404 9.42808C11.4865 9.18194 11.6248 8.8481 11.6248 8.5C11.6248 8.1519 11.4865 7.81806 11.2404 7.57192C10.9942 7.32578 10.6604 7.1875 10.3123 7.1875C9.9642 7.1875 9.63037 7.32578 9.38422 7.57192C9.13808 7.81806 8.9998 8.1519 8.9998 8.5ZM1.03105 16.2929C1.18035 16.3798 1.34534 16.4364 1.51656 16.4594C1.68778 16.4824 1.86186 16.4714 2.02881 16.427C2.19577 16.3826 2.35231 16.3057 2.48946 16.2006C2.62662 16.0956 2.74169 15.9645 2.82807 15.8149C2.91445 15.6653 2.97044 15.5001 2.99284 15.3288C3.01523 15.1575 3.00359 14.9834 2.95857 14.8166C2.91356 14.6498 2.83606 14.4936 2.73052 14.3568C2.62498 14.22 2.49348 14.1054 2.34355 14.0196C2.04218 13.8471 1.6847 13.801 1.34942 13.8915C1.01414 13.9819 0.728392 14.2016 0.554754 14.5024C0.381115 14.8031 0.333745 15.1604 0.423019 15.496C0.512292 15.8316 0.730932 16.1182 1.03105 16.2929ZM8.9998 15.1562C8.9998 15.5043 9.13808 15.8382 9.38422 16.0843C9.63037 16.3305 9.9642 16.4688 10.3123 16.4688C10.6604 16.4688 10.9942 16.3305 11.2404 16.0843C11.4865 15.8382 11.6248 15.5043 11.6248 15.1562C11.6248 14.8082 11.4865 14.4743 11.2404 14.2282C10.9942 13.982 10.6604 13.8438 10.3123 13.8438C9.9642 13.8438 9.63037 13.982 9.38422 14.2282C9.13808 14.4743 8.9998 14.8082 8.9998 15.1562Z" fill="#5F5F5F"/>
</svg>
