<svg width="30" height="27" viewBox="0 0 30 27" fill="none" xmlns="http://www.w3.org/2000/svg">
<path d="M14.8465 17.4904C14.4516 17.4899 14.0462 17.3597 13.7233 17.0816L14.8465 17.4904ZM14.8465 17.4904L14.8467 17.4915C15.2643 17.4915 15.6903 17.3454 16.0183 17.0416L16.0185 17.0415C16.6814 16.4271 16.6569 15.4249 15.9736 14.8369L15.9736 14.8369L13.3476 12.5775M14.8465 17.4904L13.3476 12.5775M13.3476 12.5775C12.262 11.6092 10.5151 11.6055 9.44148 12.5631L6.79939 14.8369C6.79938 14.8369 6.79937 14.8369 6.79936 14.837C6.11615 15.4249 6.09163 16.427 6.75438 17.0414C6.75426 17.0413 6.75414 17.0411 6.75401 17.041L13.3476 12.5775ZM21.7655 5.79988C21.5454 5.74549 21.3977 5.62214 21.3261 5.48568L21.3251 5.48385C19.4213 1.89499 15.0527 -0.0670838 10.7241 0.645053L21.7655 5.79988ZM21.7655 5.79988L21.8272 5.81088C26.0557 6.56448 29.1923 9.93221 29.1923 13.8902C29.1923 16.5407 27.7925 18.8802 25.6628 20.3779L25.337 20.607L25.0409 20.3408C24.4971 19.8519 23.7712 19.5663 22.9803 19.5528H22.9222H22.4222V19.0528V13.3785C22.4222 11.9993 21.1471 10.7834 19.4608 10.7834C18.0035 10.7834 16.842 11.7015 16.5661 12.8429L16.374 13.6378L15.7541 13.1045L14.3222 11.8726L14.3149 11.8664L14.315 11.8663C13.5431 11.1761 12.5085 10.7873 11.3937 10.7834H11.3773C10.2605 10.7834 9.23221 11.1691 8.50234 11.8235L8.49477 11.8303L8.4947 11.8303L5.8502 14.1062L5.84975 14.1066C5.28299 14.5932 4.97635 15.2332 4.96127 15.909C4.9462 16.5844 5.22482 17.2338 5.76724 17.7371L5.76787 17.7377C6.31114 18.2436 7.05309 18.5384 7.86274 18.5538M21.7655 5.79988L7.86274 18.5538M7.86274 18.5538H7.92279H8.42279V19.0538V21.63V22.13H7.92279H7.34589C3.62428 22.13 0.5 19.411 0.5 15.9557C0.5 14.199 1.33366 12.5303 2.76259 11.3687L2.76274 11.3686C2.97558 11.1957 3.00701 11.018 2.98859 10.9332L2.98849 10.9327C2.76314 9.89 2.74866 8.82011 2.94761 7.7538C3.6226 4.12549 6.77065 1.2934 10.7238 0.645099L7.86274 18.5538ZM24.0951 21.0683L24.0951 21.0683C23.4656 20.4849 22.4493 20.4672 21.7997 21.0274C21.799 21.0279 21.7984 21.0284 21.7978 21.0289L21.1169 21.608V13.3816C21.1169 12.4851 20.3235 11.8499 19.4631 11.8499C18.6026 11.8499 17.8093 12.4851 17.8093 13.3816V21.615L17.1274 21.0282L17.1274 21.0281C16.4767 20.4683 15.4597 20.4835 14.8299 21.0683C14.167 21.6826 14.1916 22.6849 14.8748 23.2728L15.2009 22.8938L14.8748 23.2728L17.5009 25.5323C18.0535 26.0247 18.7673 26.2619 19.4677 26.2619C20.1608 26.2619 20.8669 26.0287 21.4079 25.5468L24.0502 23.2728C24.0502 23.2728 24.0502 23.2728 24.0502 23.2728C24.7334 22.6848 24.7579 21.6826 24.0951 21.0683ZM13.0414 16.4947L13.723 17.0813L6.75447 17.0415C7.3832 17.6252 8.40178 17.6421 9.051 17.0824C9.05163 17.0819 9.05227 17.0813 9.0529 17.0808L9.73385 16.5017V24.7281C9.73385 25.6259 10.5275 26.2598 11.3876 26.2598C12.2478 26.2598 13.0414 25.6259 13.0414 24.7281V16.4947Z" fill="#2E7D32" stroke="white"/>
</svg>
