<svg width="20" height="22" viewBox="0 0 20 22" fill="none" xmlns="http://www.w3.org/2000/svg">
<path d="M13.6009 11.4885C13.6009 11.9646 13.2149 12.3504 12.7389 12.3504C12.2628 12.3504 11.8769 11.9645 11.8769 11.4885L11.877 7.7532L11.877 6.02923H10.9575H8.19904L8.19904 7.7532V8.97221V13.2124C8.19904 13.6884 7.8131 14.0744 7.33706 14.0744H3.09685H1.87784H0.15387L0.15387 20.6829C0.15387 21.1589 0.539808 21.5449 1.01585 21.5449H18.2555C18.7316 21.5449 19.1175 21.1589 19.1175 20.6829V6.89121C19.1175 6.41511 18.7316 6.02923 18.2555 6.02923H15.3632L13.6009 6.02923L13.6009 7.7532L13.6009 11.4885Z" fill="#67833E"/>
<path d="M12.6549 0.459084C12.642 0.460348 12.6295 0.46276 12.6167 0.4646C12.6016 0.466783 12.5865 0.468507 12.5716 0.471495C12.557 0.474426 12.5429 0.478334 12.5286 0.481954C12.5157 0.485287 12.5026 0.488104 12.4897 0.492012C12.4758 0.496207 12.4623 0.501436 12.4488 0.50632C12.4358 0.510975 12.4228 0.515227 12.41 0.520457C12.3973 0.525743 12.3852 0.531892 12.3729 0.537754C12.3597 0.543902 12.3465 0.549765 12.3336 0.556661C12.3218 0.562982 12.3106 0.570164 12.2991 0.57706C12.2864 0.584645 12.2737 0.59183 12.2613 0.600047C12.2487 0.608437 12.2369 0.61786 12.2248 0.626883C12.2144 0.634698 12.2037 0.641939 12.1936 0.650214C12.1726 0.667453 12.1525 0.685613 12.1333 0.704691C12.1324 0.70561 12.1314 0.706301 12.1304 0.707278L9.97539 2.86218C9.63882 3.19875 9.63882 3.74456 9.97539 4.08119C10.312 4.41783 10.8578 4.41783 11.1944 4.08125L11.878 3.39781V4.52649V6.02893H13.6019V5.29263V3.39776L14.2854 4.08119C14.622 4.41783 15.1677 4.41783 15.5044 4.08119C15.6728 3.91293 15.7569 3.69227 15.7569 3.47171C15.7569 3.25105 15.6728 3.03049 15.5044 2.86218L13.3495 0.707334C13.349 0.706874 13.3485 0.706529 13.3482 0.706069C13.3284 0.686416 13.3079 0.667856 13.2864 0.650214C13.2762 0.641824 13.2655 0.634583 13.255 0.62671C13.2429 0.617746 13.2312 0.608437 13.2186 0.599989C13.2062 0.591657 13.1933 0.584473 13.1806 0.576888C13.1692 0.570164 13.1581 0.562982 13.1463 0.556661C13.1334 0.549707 13.12 0.543846 13.1068 0.537582C13.0946 0.531778 13.0825 0.525686 13.0699 0.520457C13.057 0.515112 13.0439 0.510859 13.0309 0.506205C13.0174 0.50132 13.0041 0.496149 12.9902 0.492012C12.9773 0.488104 12.9641 0.485172 12.951 0.481896C12.9368 0.478276 12.9228 0.474312 12.9084 0.471439C12.8934 0.468451 12.8783 0.466727 12.8631 0.464543C12.8504 0.462705 12.8379 0.460348 12.825 0.459026C12.7971 0.456268 12.7691 0.454831 12.7411 0.454831C12.7407 0.454831 12.7403 0.454716 12.7399 0.454716C12.7395 0.454716 12.739 0.454831 12.7385 0.454831C12.7105 0.454889 12.6827 0.456326 12.6549 0.459084Z" fill="#67833E"/>
<path d="M7.52793 6.25466L0.146484 13.6361H3.2406H7.52793V9.34882L7.52793 6.25466Z" fill="#67833E"/>
</svg>
