<svg width="22" height="24" viewBox="0 0 22 24" fill="none" xmlns="http://www.w3.org/2000/svg">
<g clip-path="url(#clip0_1207_15352)">
<path d="M17.0582 5.8488H13.1825V1.97354L17.0582 5.8488ZM20.5735 14.2759L17.6734 11.3761L16.4342 12.6151L18.4555 14.6274H11.4249V16.3849H18.4555L16.443 18.3973L17.6822 19.6363L20.5823 16.7364C21.259 16.0598 21.259 14.9438 20.5823 14.2672L20.5735 14.2759ZM9.6584 18.1512V12.8787H13.6922L17.5679 9.00349V7.60628H11.4161V1.45508H2.6365C1.17764 1.45508 0 2.63259 0 4.09131V22.5449H17.5767V22.0265L13.701 18.1512H9.66718H9.6584Z" fill="#67833E"/>
</g>
<defs>
<clipPath id="clip0_1207_15352">
<rect width="21.0898" height="22.5963" fill="white" transform="translate(0 0.701904)"/>
</clipPath>
</defs>
</svg>
