<svg width="126" height="55" viewBox="0 0 126 55" fill="none" xmlns="http://www.w3.org/2000/svg">
<path d="M60.356 2.43113C49.2155 2.43113 41.2168 9.58673 41.2168 26.2831C41.2168 45.2057 49.2155 50.2146 60.356 50.2146C71.4964 50.2146 79.9716 44.7286 79.9716 26.2831C79.9716 6.56548 71.4964 2.43113 60.356 2.43113ZM60.4292 43.9336C52.7131 43.9336 48.6819 39.4015 48.6819 26.2953C48.6819 14.731 52.8781 8.63265 60.5942 8.63265C68.3103 8.63265 72.5066 12.6384 72.5066 26.2953C72.5065 39.0711 68.1453 43.9336 60.4292 43.9336Z" fill="#707070"/>
<path d="M34.5458 37.0165H29.9397V23.4371C29.9397 22.7159 29.6535 22.0242 29.1441 21.5141C28.6346 21.0041 27.9437 20.7176 27.2233 20.7176H26.144C25.7873 20.7176 25.434 20.788 25.1045 20.9246C24.7749 21.0613 24.4755 21.2616 24.2232 21.5141C23.971 21.7667 23.7709 22.0665 23.6344 22.3964C23.4979 22.7264 23.4276 23.08 23.4276 23.4371V37.0165H10.4353C10.1681 37.0165 9.90533 36.9473 9.67261 36.8157C9.4399 36.6841 9.24511 36.4945 9.10716 36.2653C8.9692 36.0361 8.89275 35.7751 8.88523 35.5077C8.8777 35.2402 8.93937 34.9753 9.06423 34.7387L22.8151 8.68286C22.9865 8.35801 23.0904 8.00175 23.1205 7.63559C23.1507 7.26942 23.1063 6.90095 22.9903 6.5524C22.8742 6.20385 22.6888 5.88246 22.4453 5.60763C22.2017 5.3328 21.9051 5.11022 21.5732 4.95333L20.7615 4.56957C20.1312 4.27159 19.4106 4.22758 18.7488 4.44667C18.087 4.66577 17.5346 5.13118 17.206 5.74662L0.434998 37.1559C0.149411 37.6907 -5.63751e-08 38.2878 0 38.8943C0 39.3786 0.0952733 39.8581 0.280381 40.3055C0.465488 40.7529 0.736804 41.1594 1.07884 41.5019C1.42087 41.8443 1.82692 42.1159 2.27381 42.3012C2.7207 42.4865 3.19967 42.5819 3.68338 42.5819H23.4276V51.1686C23.4276 51.5967 23.5118 52.0206 23.6755 52.4161C23.8391 52.8116 24.0789 53.171 24.3813 53.4737C24.6836 53.7763 25.0426 54.0165 25.4376 54.1803C25.8326 54.3441 26.2561 54.4284 26.6836 54.4284H26.6836C27.1112 54.4284 27.5346 54.3441 27.9297 54.1803C28.3247 54.0165 28.6837 53.7763 28.986 53.4737C29.2884 53.171 29.5282 52.8116 29.6918 52.4161C29.8555 52.0206 29.9397 51.5967 29.9397 51.1686V42.5819H34.5458C35.283 42.5819 35.99 42.2888 36.5112 41.7669C37.0325 41.245 37.3253 40.5372 37.3253 39.7992C37.3253 39.0612 37.0325 38.3534 36.5112 37.8315C35.99 37.3097 35.283 37.0165 34.5458 37.0165Z" fill="#67833E"/>
<path d="M119.839 37.0165H115.232V23.4371C115.232 22.7159 114.946 22.0242 114.437 21.5141C113.927 21.0041 113.236 20.7176 112.516 20.7176H111.437C111.08 20.7176 110.727 20.788 110.397 20.9246C110.068 21.0613 109.768 21.2616 109.516 21.5141C109.264 21.7667 109.064 22.0665 108.927 22.3964C108.791 22.7264 108.72 23.08 108.72 23.4371V37.0165H95.7281C95.4608 37.0165 95.198 36.9473 94.9653 36.8157C94.7326 36.6841 94.5378 36.4945 94.3999 36.2653C94.2619 36.0361 94.1855 35.7751 94.1779 35.5077C94.1704 35.2402 94.2321 34.9753 94.3569 34.7387L108.108 8.68287C108.279 8.35802 108.383 8.00176 108.413 7.63559C108.443 7.26943 108.399 6.90095 108.283 6.5524C108.167 6.20385 107.982 5.88246 107.738 5.60763C107.494 5.3328 107.198 5.11022 106.866 4.95333L106.054 4.56957C105.424 4.27159 104.703 4.22758 104.041 4.44667C103.38 4.66577 102.827 5.13118 102.499 5.74662L85.7277 37.1559C85.4421 37.6907 85.2927 38.2878 85.2927 38.8943C85.2927 39.8723 85.6808 40.8103 86.3716 41.5019C87.0623 42.1934 87.9992 42.5819 88.9761 42.5819H108.72V51.1686C108.72 52.0332 109.063 52.8623 109.674 53.4737C110.285 54.085 111.113 54.4284 111.976 54.4284C112.84 54.4284 113.668 54.085 114.279 53.4737C114.889 52.8623 115.232 52.0332 115.232 51.1686V42.5819H119.838C120.576 42.5819 121.283 42.2888 121.804 41.7669C122.325 41.245 122.618 40.5372 122.618 39.7992C122.618 39.0612 122.325 38.3534 121.804 37.8315C121.283 37.3097 120.576 37.0165 119.839 37.0165Z" fill="#67833E"/>
<path d="M35.8168 35.4263H31.2107V21.847C31.2107 21.4898 31.1404 21.1362 31.0039 20.8062C30.8674 20.4763 30.6673 20.1765 30.4151 19.924C30.1628 19.6714 29.8634 19.4711 29.5338 19.3345C29.2042 19.1978 28.851 19.1274 28.4943 19.1274H27.415C26.6946 19.1274 26.0036 19.414 25.4942 19.924C24.9848 20.434 24.6986 21.1257 24.6986 21.847V35.4263H11.7063C11.4391 35.4263 11.1763 35.3571 10.9436 35.2255C10.7109 35.0939 10.5161 34.9043 10.3782 34.6751C10.2402 34.446 10.1637 34.185 10.1562 33.9175C10.1487 33.65 10.2104 33.3851 10.3352 33.1485L24.0861 7.0927C24.2575 6.76785 24.3614 6.41158 24.3915 6.04542C24.4217 5.67925 24.3773 5.31077 24.2613 4.96223C24.1452 4.61368 23.9598 4.29229 23.7163 4.01746C23.4727 3.74262 23.1761 3.52005 22.8442 3.36316L22.0325 2.9794C21.4022 2.68141 20.6816 2.63741 20.0198 2.8565C19.358 3.07559 18.8056 3.541 18.477 4.15644L1.70599 35.5657C1.42041 36.1006 1.271 36.6977 1.271 37.3042V37.3042C1.271 38.2822 1.65907 39.2201 2.34983 39.9117C3.0406 40.6032 3.97748 40.9918 4.95438 40.9918H24.6986V49.5785C24.6986 50.0066 24.7828 50.4304 24.9464 50.8259C25.1101 51.2214 25.3499 51.5808 25.6523 51.8835C25.9546 52.1862 26.3136 52.4263 26.7086 52.5901C27.1036 52.7539 27.527 52.8382 27.9546 52.8382H27.9546C28.8182 52.8382 29.6464 52.4948 30.257 51.8835C30.8676 51.2722 31.2107 50.443 31.2107 49.5785V40.9918H35.8168C36.1818 40.9918 36.5432 40.9198 36.8805 40.7799C37.2177 40.6401 37.5241 40.4351 37.7822 40.1767C38.0403 39.9183 38.2451 39.6116 38.3847 39.2739C38.5244 38.9363 38.5963 38.5745 38.5963 38.209V38.209C38.5963 37.8436 38.5244 37.4817 38.3847 37.1441C38.2451 36.8065 38.0403 36.4997 37.7822 36.2413C37.5241 35.9829 37.2177 35.778 36.8805 35.6381C36.5432 35.4983 36.1818 35.4263 35.8168 35.4263V35.4263Z" stroke="#3F3D56" stroke-miterlimit="10"/>
<path d="M122.221 35.4263H117.614V21.847C117.614 21.1257 117.328 20.434 116.819 19.924C116.309 19.414 115.619 19.1274 114.898 19.1274H113.819C113.462 19.1274 113.109 19.1978 112.779 19.3345C112.45 19.4711 112.15 19.6714 111.898 19.924C111.646 20.1765 111.446 20.4763 111.309 20.8062C111.173 21.1362 111.102 21.4898 111.102 21.847V35.4263H98.1101C97.8429 35.4263 97.5801 35.3571 97.3474 35.2255C97.1147 35.0939 96.9199 34.9043 96.782 34.6751C96.644 34.446 96.5676 34.185 96.56 33.9175C96.5525 33.65 96.6142 33.3851 96.739 33.1485L110.49 7.0927C110.661 6.76785 110.765 6.41158 110.795 6.04542C110.825 5.67925 110.781 5.31077 110.665 4.96223C110.549 4.61368 110.364 4.29229 110.12 4.01746C109.877 3.74262 109.58 3.52005 109.248 3.36316L108.436 2.9794C107.806 2.68141 107.085 2.63741 106.424 2.8565C105.762 3.07559 105.209 3.541 104.881 4.15644L88.1098 35.5657C87.8242 36.1006 87.6748 36.6977 87.6748 37.3042C87.6748 38.2822 88.0629 39.2201 88.7536 39.9117C89.4444 40.6032 90.3813 40.9918 91.3582 40.9918H111.102V49.5785C111.102 50.443 111.445 51.2722 112.056 51.8835C112.667 52.4948 113.495 52.8382 114.358 52.8382V52.8382C115.222 52.8382 116.05 52.4948 116.661 51.8835C117.271 51.2722 117.614 50.443 117.614 49.5785V40.9918H122.221C122.586 40.9918 122.947 40.9198 123.284 40.7799C123.621 40.6401 123.928 40.4351 124.186 40.1767C124.444 39.9183 124.649 39.6116 124.789 39.2739C124.928 38.9363 125 38.5745 125 38.209V38.209C125 37.471 124.707 36.7632 124.186 36.2413C123.665 35.7195 122.958 35.4263 122.221 35.4263V35.4263Z" stroke="#3F3D56" stroke-miterlimit="10"/>
<path d="M62.8972 1C51.7568 1 43.7581 8.1556 43.7581 24.852C43.7581 43.7746 51.7568 48.7835 62.8972 48.7835C74.0377 48.7835 82.5129 43.2975 82.5129 24.852C82.5129 5.13435 74.0377 1 62.8972 1ZM62.9705 42.5025C55.2543 42.5025 51.2231 37.9704 51.2231 24.8642C51.2231 13.2999 55.4193 7.20152 63.1355 7.20152C70.8516 7.20152 75.0478 11.2073 75.0478 24.8642C75.0478 37.64 70.6866 42.5025 62.9705 42.5025V42.5025Z" stroke="#484848" stroke-miterlimit="10"/>
<path d="M55.2383 25.0253C56.4553 25.0253 57.4419 23.7471 57.4419 22.1703C57.4419 20.5936 56.4553 19.3153 55.2383 19.3153C54.0213 19.3153 53.0347 20.5936 53.0347 22.1703C53.0347 23.7471 54.0213 25.0253 55.2383 25.0253Z" fill="#2F2E41"/>
<path d="M67.2288 25.0903C68.4458 25.0903 69.4324 23.812 69.4324 22.2353C69.4324 20.6585 68.4458 19.3803 67.2288 19.3803C66.0117 19.3803 65.0251 20.6585 65.0251 22.2353C65.0251 23.812 66.0117 25.0903 67.2288 25.0903Z" fill="#2F2E41"/>
<path d="M65.5433 30.6705C65.5433 31.9605 63.7441 33.0064 61.525 33.0064C59.3058 33.0064 57.5066 31.9605 57.5066 30.6705C57.5066 29.5532 58.856 28.6188 60.6591 28.3904C60.9461 28.3525 61.2354 28.3339 61.525 28.3346C62.0101 28.333 62.494 28.3853 62.9677 28.4903C64.4739 28.8265 65.5433 29.6765 65.5433 30.6705Z" fill="#2F2E41"/>
<path d="M55.7573 24.3764C56.9743 24.3764 57.9609 23.0982 57.9609 21.5214C57.9609 19.9447 56.9743 18.6664 55.7573 18.6664C54.5403 18.6664 53.5537 19.9447 53.5537 21.5214C53.5537 23.0982 54.5403 24.3764 55.7573 24.3764Z" stroke="#3F3D56" stroke-miterlimit="10"/>
<path d="M67.7473 24.4415C68.9643 24.4415 69.9509 23.1632 69.9509 21.5865C69.9509 20.0097 68.9643 18.7315 67.7473 18.7315C66.5303 18.7315 65.5437 20.0097 65.5437 21.5865C65.5437 23.1632 66.5303 24.4415 67.7473 24.4415Z" stroke="#3F3D56" stroke-miterlimit="10"/>
<path d="M62.0437 32.3575C64.263 32.3575 66.0621 31.3117 66.0621 30.0216C66.0621 28.7315 64.263 27.6857 62.0437 27.6857C59.8245 27.6857 58.0254 28.7315 58.0254 30.0216C58.0254 31.3117 59.8245 32.3575 62.0437 32.3575Z" stroke="#3F3D56" stroke-miterlimit="10"/>
<path d="M63.0159 28.6849C63.0169 28.8481 62.9557 29.0055 62.8448 29.1251C62.7924 29.1823 62.7287 29.2281 62.6577 29.2596C62.5868 29.291 62.5101 29.3074 62.4326 29.3078H61.1363C60.9766 29.3022 60.8256 29.2336 60.7163 29.1168C60.607 29.0001 60.5483 28.8448 60.553 28.6849C60.5523 28.5583 60.5893 28.4345 60.6593 28.3291C60.9461 28.2887 61.2355 28.2688 61.5252 28.2696C62.0109 28.268 62.4952 28.3238 62.9679 28.4357C62.9999 28.5149 63.0162 28.5995 63.0159 28.6849Z" fill="white"/>
<path d="M55.757 21.3916C56.115 21.3916 56.4051 21.1011 56.4051 20.7427C56.4051 20.3844 56.115 20.0939 55.757 20.0939C55.3991 20.0939 55.1089 20.3844 55.1089 20.7427C55.1089 21.1011 55.3991 21.3916 55.757 21.3916Z" fill="white"/>
<path d="M67.8117 21.3916C68.1696 21.3916 68.4598 21.1011 68.4598 20.7427C68.4598 20.3844 68.1696 20.0939 67.8117 20.0939C67.4537 20.0939 67.1636 20.3844 67.1636 20.7427C67.1636 21.1011 67.4537 21.3916 67.8117 21.3916Z" fill="white"/>
<path opacity="0.3" d="M68.4601 27.491C68.8181 27.491 69.1083 27.2005 69.1083 26.8421C69.1083 26.4838 68.8181 26.1933 68.4601 26.1933C68.1022 26.1933 67.812 26.4838 67.812 26.8421C67.812 27.2005 68.1022 27.491 68.4601 27.491Z" fill="#67833E"/>
<path opacity="0.3" d="M52.6462 27.491C53.0041 27.491 53.2943 27.2005 53.2943 26.8421C53.2943 26.4838 53.0041 26.1933 52.6462 26.1933C52.2882 26.1933 51.998 26.4838 51.998 26.8421C51.998 27.2005 52.2882 27.491 52.6462 27.491Z" fill="#67833E"/>
</svg>
