<svg width="34" height="34" viewBox="0 0 34 34" fill="none" xmlns="http://www.w3.org/2000/svg">
<path d="M32.6719 18.3281H18.3281V32.6719C18.3281 33.4054 17.7335 34 17 34C16.2665 34 15.6719 33.4054 15.6719 32.6719V18.3281H1.32812C0.594602 18.3281 0 17.7335 0 17C0 16.2665 0.594602 15.6719 1.32812 15.6719H15.6719V1.32812C15.6719 0.594601 16.2665 0 17 0C17.7335 0 18.3281 0.594601 18.3281 1.32812V15.6719H32.6719C33.4054 15.6719 34 16.2665 34 17C34 17.7335 33.4054 18.3281 32.6719 18.3281Z" fill="white"/>
</svg>
