<svg width="78" height="78" viewBox="0 0 78 78" fill="none" xmlns="http://www.w3.org/2000/svg">
<circle cx="39" cy="39" r="38" stroke="#67833E" stroke-width="2"/>
<g>
<path d="M54.6328 37.1328L39.8672 37.1328L39.8672 22.3672C39.8672 21.6121 39.2551 21 38.5 21C37.7449 21 37.1328 21.6121 37.1328 22.3672L37.1328 37.1328L22.3672 37.1328C21.6121 37.1328 21 37.7449 21 38.5C21 39.2551 21.6121 39.8672 22.3672 39.8672L37.1328 39.8672L37.1328 54.6328C37.1328 55.3879 37.7449 56 38.5 56C39.2551 56 39.8672 55.3879 39.8672 54.6328L39.8672 39.8672L54.6328 39.8672C55.3879 39.8672 56 39.2551 56 38.5C56 37.7449 55.3879 37.1328 54.6328 37.1328Z" fill="#67833E"/>
</g>
<defs>
<clipPath id="clip0">
<rect width="35" height="35" fill="white" transform="translate(21 21)"/>
</clipPath>
</defs>
</svg>
