<svg width="14" height="15" viewBox="0 0 14 15" fill="none" xmlns="http://www.w3.org/2000/svg">
<g opacity="0.9" clip-path="url(#clip0)">
<path d="M7.03762 3.55999C5.01864 3.73912 3.53006 2.24171 3.70775 0.2118C5.72673 0.0326644 7.21531 1.53008 7.03762 3.55999Z" fill="#7FB241"/>
<path d="M7.1146 4.97414C6.94047 4.93036 6.80365 4.78205 6.78277 4.59219C6.68726 3.72242 6.9347 2.86784 7.47842 2.18525C8.02259 1.50266 8.79864 1.0738 9.6631 0.978205C9.90564 0.951848 10.1233 1.12741 10.1495 1.37087C10.1762 1.61434 10.0016 1.83323 9.75949 1.86048C9.12914 1.93017 8.56365 2.24243 8.16696 2.74008C7.77027 3.23773 7.59036 3.86046 7.65966 4.49436C7.68632 4.73827 7.51174 4.95716 7.26919 4.98441C7.21589 4.99067 7.16391 4.98665 7.1146 4.97414Z" fill="#8E6D53"/>
<path d="M10.3862 3.55467C9.90466 3.42557 9.40669 3.45237 8.91805 3.61051C7.66268 4.01748 6.3278 4.01748 5.07244 3.61051C4.5838 3.45237 4.08583 3.42557 3.60429 3.55467C1.68171 4.06974 0.754177 6.86668 1.53201 9.8021C2.30983 12.7375 4.49851 14.6991 6.42109 14.184C6.42331 14.1836 6.42509 14.1831 6.42731 14.1822C6.8009 14.0808 7.19003 14.0808 7.56362 14.1822C7.56584 14.1827 7.56762 14.1831 7.56984 14.184C9.49198 14.6991 11.6811 12.7371 12.4589 9.8021C13.2363 6.86668 12.3083 4.06974 10.3862 3.55467Z" fill="#E14B4B"/>
<path d="M12.4584 9.80188C11.681 12.7369 9.49101 14.698 7.56754 14.1842H7.5631C7.18995 14.0815 6.79904 14.0815 6.42589 14.1842H6.42145C5.69737 14.3763 4.93776 14.22 4.23145 13.7956C8.00288 12.3303 10.8281 8.63146 11.4189 4.12402C12.6139 5.20063 13.0803 7.45658 12.4584 9.80188Z" fill="#D03F3F"/>
</g>
<defs>
<clipPath id="clip0">
<rect width="13.99" height="14.0688" fill="white" transform="translate(0 0.197266)"/>
</clipPath>
</defs>
</svg>
