<svg width="14" height="15" viewBox="0 0 14 15" fill="none" xmlns="http://www.w3.org/2000/svg">
<g opacity="0.8" clip-path="url(#clip0)">
<path d="M1.40096 8.42098L1.29303 9.03292L0.743267 9.42888C0.541067 9.27857 0.30444 9.09557 0.300887 8.97549C0.294876 8.77325 0.545986 8.44955 0.545986 8.44955C0.713483 8.35366 1.15859 8.43252 1.40096 8.42098Z" fill="#434343"/>
<path d="M10.9674 3.39662L11.1505 3.02539C11.4554 3.13393 11.7407 3.16443 11.9238 3.26115C12.9574 3.80522 13.6687 5.45308 13.6876 6.43845C13.7359 8.97358 12.7167 10.7805 11.4773 11.936C11.0068 12.3746 10.1696 13.0236 8.81946 13.1085C8.75333 13.1126 8.6689 13.122 8.57818 13.131L8.85607 12.4042L8.44238 11.8827C8.71481 11.5181 9.09762 11.1106 9.37906 10.727C10.0794 10.1005 10.6731 9.2316 11.0636 8.01515C11.3896 6.99955 11.553 5.13544 10.8592 4.15145C10.7365 3.97696 10.4892 3.81511 10.2605 3.57276L10.9152 3.50241L10.9674 3.39662Z" fill="#FFF27D"/>
<path d="M13.6875 6.43848C13.6686 5.45308 12.9574 3.80522 11.9237 3.26115C11.7406 3.16443 11.4553 3.13393 11.1504 3.02539L10.9673 3.39662L10.9152 3.50241L10.9135 3.5026C11.5268 4.20651 11.9399 5.21598 11.9893 5.912C12.1683 8.4412 11.2437 10.2989 10.0656 11.5175C9.79892 11.7931 9.40597 12.1504 8.84741 12.4267L8.57812 13.1311C8.66881 13.122 8.75327 13.1126 8.8194 13.1085C10.1695 13.0236 11.0067 12.3746 11.4772 11.936C12.7167 10.7805 13.7358 8.97361 13.6875 6.43848Z" fill="#FFE33B"/>
<path d="M3.91019 10.9471L3.64351 10.4481C4.1583 10.2047 5.14224 9.84855 5.5379 9.71226C7.07051 9.1844 8.39492 7.34914 8.7627 5.78755C8.85697 5.38692 8.96408 5.01899 9.35318 3.88359C9.36712 3.84246 9.37638 3.79987 9.38078 3.75664L9.82234 3.9009L10.2606 3.57227H10.2609C10.4896 3.81462 10.7369 3.97647 10.8596 4.15096C11.5533 5.13495 11.3899 6.99907 11.0639 8.01466C10.6735 9.23111 10.0797 10.1 9.37941 10.7265C8.64548 11.3829 7.79461 11.7739 6.93744 12.0207C6.30134 12.204 4.80206 12.2999 3.41699 11.752L3.91019 10.9471Z" fill="#FFF27D"/>
<path d="M10.8596 4.15096C10.7369 3.97647 10.4896 3.81462 10.2609 3.57227H10.2606L9.96765 3.79209C10.2909 4.83926 10.0504 6.299 9.72662 7.1433C9.26935 8.33599 8.62835 9.17019 7.89439 9.75647C7.12522 10.3708 6.25398 10.7135 5.38447 10.9118C5.06145 10.9855 4.52362 11.0253 3.89732 10.9682L3.41699 11.7521C4.80208 12.3 6.30136 12.2041 6.93744 12.0208C7.79461 11.7741 8.64551 11.383 9.37941 10.7266C10.0797 10.1001 10.6735 9.2312 11.064 8.01477C11.3899 6.99904 11.5534 5.13492 10.8596 4.15096Z" fill="#F9D438"/>
<path d="M1.29293 9.0325L1.40086 8.42056C1.42643 8.41965 1.45191 8.41689 1.47709 8.41231C1.9222 8.32658 2.97719 8.23206 3.47804 8.18232C4.73441 8.05784 6.77034 6.79247 7.50755 5.42461C7.69663 5.07371 7.82424 4.7044 8.47428 3.74129C8.49768 3.70628 8.51676 3.66854 8.53111 3.62891L9.31832 3.75393L9.37953 3.75613L9.3809 3.75668C9.3765 3.79991 9.36724 3.8425 9.3533 3.88363C8.9642 5.01903 8.85709 5.38696 8.76282 5.78759C8.39504 7.34918 7.07063 9.18445 5.53802 9.71231C5.14236 9.8486 4.15842 10.2047 3.64363 10.4482C3.52641 10.5037 3.28705 10.5402 3.07693 10.5927C2.51569 10.4798 1.65962 10.1564 0.936893 9.57492C0.88525 9.53342 0.816393 9.48314 0.743164 9.42846L1.29293 9.0325Z" fill="#F8EE4F"/>
<path d="M8.53115 3.62891C8.51643 3.66902 7.6967 5.07371 7.50762 5.42463C6.77038 6.79246 4.73448 8.05783 3.47809 8.18231C2.97723 8.23204 1.92227 8.32657 1.47713 8.4123C1.45196 8.4169 1.42649 8.41965 1.40093 8.42054L1.29297 9.03248C1.29297 9.03248 2.71574 9.38398 3.81816 9.11178C5.0442 8.80903 7.11046 7.72191 7.84767 6.35408C8.03675 6.00318 9.06633 3.71392 9.06633 3.71392L8.53115 3.62891Z" fill="#FFFAC1"/>
<path d="M8.44241 11.8828L8.8561 12.4044L8.57822 13.1312C8.32793 13.1564 8.03037 13.1809 7.94757 13.0943C7.80795 12.9487 7.77734 12.5395 7.77734 12.5395C7.84429 12.3335 8.31344 12.0551 8.44241 11.8828Z" fill="#434343"/>
<path d="M10.2611 3.57242H10.2608L9.8225 3.90106L9.38094 3.7568C9.43586 3.26247 8.9667 2.58843 8.9667 2.58843L8.96752 2.22737C8.96752 2.22737 8.67215 1.78195 8.86998 1.42034C8.8806 1.40435 8.89493 1.39119 8.91173 1.382C8.92853 1.37281 8.94731 1.36786 8.96643 1.36758C8.96643 1.36731 8.9667 1.36758 8.9667 1.36758C9.16235 1.34313 9.55363 1.51761 9.55363 1.51761C9.57112 1.53657 9.58751 1.55498 9.60254 1.5734C9.85638 1.88362 9.75719 2.12213 9.76293 2.3469C9.77769 2.93796 10.008 3.30451 10.2611 3.57242Z" fill="#434343"/>
<path d="M8.96614 2.58853C8.96614 2.58853 9.4353 3.26256 9.38038 3.7569L9.37901 3.75635L9.3178 3.75415L8.53059 3.62912C8.69617 3.17986 8.36719 2.42393 8.36719 2.42393L8.52949 2.09007C8.52949 2.09007 8.365 1.59629 8.64152 1.30859L8.96587 1.36767C8.94674 1.36795 8.92797 1.3729 8.91117 1.38209C8.89436 1.39128 8.88003 1.40444 8.86941 1.42043C8.67158 1.78204 8.96696 2.22746 8.96696 2.22746L8.96614 2.58853Z" fill="#6C6548"/>
<path d="M3.92473 11.1122C3.91454 11.1122 3.9085 11.1122 3.90683 11.1122C3.86335 11.1113 3.82199 11.0931 3.79185 11.0616C3.76172 11.0301 3.74527 10.9878 3.74613 10.9441C3.74698 10.9004 3.76508 10.8588 3.79643 10.8285C3.82779 10.7982 3.86983 10.7816 3.91331 10.7825C4.17834 10.7785 4.44237 10.7487 4.70172 10.6936C4.72283 10.6894 4.74456 10.6894 4.76569 10.6936C4.78681 10.6978 4.8069 10.7061 4.82482 10.7181C4.84274 10.7301 4.85813 10.7455 4.87011 10.7635C4.88209 10.7815 4.89044 10.8017 4.89466 10.8229C4.89889 10.8442 4.89892 10.866 4.89475 10.8873C4.89057 10.9085 4.88228 10.9287 4.87034 10.9467C4.8584 10.9647 4.84305 10.9802 4.82516 10.9923C4.80727 11.0043 4.7872 11.0127 4.76609 11.017C4.48923 11.0752 4.20753 11.107 3.92473 11.1122Z" fill="#FFE33B"/>
<path d="M12.449 4.91526C12.418 4.91528 12.3876 4.90645 12.3614 4.8898C12.3352 4.87315 12.3142 4.84936 12.3009 4.8212C11.8446 3.85702 11.43 3.61963 10.9476 3.55995C10.9262 3.5573 10.9056 3.55044 10.8868 3.53977C10.8681 3.5291 10.8517 3.51482 10.8384 3.49775C10.8252 3.48068 10.8154 3.46116 10.8096 3.44029C10.8039 3.41942 10.8023 3.39762 10.8049 3.37614C10.8076 3.35465 10.8144 3.33389 10.825 3.31505C10.8356 3.29621 10.8498 3.27966 10.8668 3.26634C10.8838 3.25302 10.9032 3.24319 10.9239 3.23742C10.9447 3.23164 10.9664 3.23003 10.9877 3.23269C11.851 3.33966 12.2713 3.99131 12.597 4.67958C12.6089 4.70471 12.6142 4.73246 12.6126 4.76024C12.611 4.78802 12.6024 4.81493 12.5876 4.83847C12.5728 4.862 12.5524 4.8814 12.5281 4.89484C12.5039 4.90828 12.4767 4.91534 12.449 4.91534V4.91526Z" fill="#F9D438"/>
<path d="M11.151 3.02544L10.9679 3.39667L10.9157 3.50246L10.2611 3.5728C10.008 3.30489 9.77769 2.93833 9.76293 2.34728C9.75719 2.1225 9.85638 1.88399 9.60254 1.57377L9.63451 1.5625C10.0556 1.71528 10.0709 1.98347 10.1807 2.18625C10.4534 2.6902 10.8141 2.90536 11.151 3.02544Z" fill="#6C6548"/>
<path d="M3.0771 10.5928C3.28722 10.5403 3.52658 10.5037 3.6438 10.4482L3.91048 10.9472L3.41728 11.7521C3.17929 11.6578 2.67325 11.4919 2.62461 11.3308C2.5645 11.1313 2.7279 10.7409 2.7279 10.7409C2.79323 10.6752 2.92794 10.6299 3.0771 10.5928Z" fill="#434343"/>
</g>
<defs>
<clipPath id="clip0">
<rect width="13.99" height="14.0688" fill="white" transform="translate(0 0.197266)"/>
</clipPath>
</defs>
</svg>
