<svg width="14" height="15" viewBox="0 0 14 15" fill="none" xmlns="http://www.w3.org/2000/svg">
<g opacity="0.8" clip-path="url(#clip0)">
<path d="M6.17172 8.37925C5.7045 8.37925 5.34048 8.49954 5.01963 8.60573C4.7188 8.7055 4.45959 8.79119 4.12356 8.79119C3.78753 8.79119 3.52832 8.7055 3.22749 8.60573C2.90668 8.49954 2.54266 8.37925 2.07544 8.37925C0.945771 8.37925 0 9.30327 0 10.4389C0 10.4679 0.0745247 13.3225 4.12356 13.3225C8.1726 13.3225 8.21982 10.4679 8.21982 10.4389C8.21985 9.30327 7.30139 8.37925 6.17172 8.37925ZM3.11234 7.08592C3.83055 6.66913 4.0944 6.04027 4.68123 5.69965C5.26746 5.35953 5.93859 5.44475 6.65975 5.02625C7.63559 4.4599 7.97495 3.1976 7.40939 2.21272C7.39579 2.18696 5.9349 -0.262503 2.42829 1.77503C-1.07833 3.81135 0.273657 6.30709 0.288049 6.33205C0.853141 7.31817 2.13909 7.65142 3.11234 7.08592ZM13.1859 6.39077C11.7664 3.91859 9.8051 3.60146 8.62789 4.26514C7.65205 4.83149 7.31269 6.09379 7.87825 7.07867C8.29331 7.80126 8.92244 8.07209 9.25675 8.65602C9.61053 9.27271 9.48758 9.88127 9.92558 10.6457C9.92558 10.6461 9.92638 10.6461 9.92638 10.6461C10.4871 11.6246 11.769 11.9694 12.7515 11.4C12.7762 11.3855 15.2108 9.91716 13.1859 6.39077Z" fill="url(#paint0_linear)"/>
<path d="M5.53209 10.171C5.17205 10.2905 4.72324 10.439 4.12398 10.439C3.89757 10.439 3.71436 10.6232 3.71436 10.8509C3.71436 11.0786 3.89757 11.2628 4.12398 11.2628C4.85522 11.2628 5.41687 11.077 5.7881 10.9539C6.00332 10.8827 6.12012 10.6498 6.04892 10.4337C5.97773 10.2177 5.74572 10.0998 5.53209 10.171ZM4.01281 3.71044C3.89921 3.51293 3.64879 3.44535 3.45277 3.55918C2.81914 3.92646 2.42551 4.37017 2.16548 4.66344C2.01507 4.83321 2.02949 5.09388 2.19828 5.24514C2.368 5.39668 2.62604 5.38168 2.77673 5.21216C3.01595 4.94265 3.34236 4.57416 3.8624 4.27284C4.05842 4.1594 4.12562 3.90757 4.01281 3.71044ZM11.3853 7.42026C11.018 6.78105 10.578 6.38642 10.2868 6.12533C10.1172 5.97448 9.85795 5.98896 9.70833 6.15911C9.55791 6.32888 9.57233 6.58914 9.74113 6.74082C10.0091 6.98018 10.3748 7.30802 10.6764 7.83219C10.7909 8.0317 11.0434 8.09542 11.2356 7.98304C11.4317 7.86918 11.4989 7.61697 11.3853 7.42026Z" fill="url(#paint1_linear)"/>
</g>
<defs>
<linearGradient id="paint0_linear" x1="6.99504" y1="13.3225" x2="6.99504" y2="0.965828" gradientUnits="userSpaceOnUse">
<stop stop-color="#9E5E2F"/>
<stop offset="1" stop-color="#AE632C"/>
</linearGradient>
<linearGradient id="paint1_linear" x1="6.75102" y1="11.2628" x2="6.75102" y2="3.5039" gradientUnits="userSpaceOnUse">
<stop stop-color="#EA9B58"/>
<stop offset="0.9973" stop-color="#EA9B58"/>
</linearGradient>
<clipPath id="clip0">
<rect width="13.99" height="14.0688" fill="white" transform="translate(0 0.109863)"/>
</clipPath>
</defs>
</svg>
