<svg width="14" height="20" viewBox="0 0 14 20" fill="none" xmlns="http://www.w3.org/2000/svg">
<path d="M13.1014 0H0.899148C0.549285 0 0.265625 0.28366 0.265625 0.633523V19.3657C0.265625 19.8962 0.881726 20.1922 1.29577 19.8597L2.58669 18.8232L3.58481 19.8151C3.82638 20.0551 4.21449 20.0612 4.46351 19.8289L5.5205 18.8429L6.56613 19.827C6.81562 20.0618 7.20658 20.0557 7.44867 19.8132L8.38988 18.8705L9.33541 19.8141C9.57699 20.0552 9.96617 20.0615 10.2155 19.8284L11.3132 18.8024L12.7181 19.87C13.1343 20.1863 13.735 19.8889 13.735 19.3656V0.633523C13.735 0.28366 13.4513 0 13.1014 0V0ZM3.54442 9.50245H7.98716C8.33702 9.50245 8.62068 9.78611 8.62068 10.136C8.62068 10.4858 8.33702 10.7695 7.98716 10.7695H3.54442C3.19456 10.7695 2.9109 10.4858 2.9109 10.136C2.9109 9.78611 3.19456 9.50245 3.54442 9.50245ZM2.9109 7.15382C2.9109 6.80396 3.19456 6.5203 3.54442 6.5203H6.2831C6.63296 6.5203 6.91662 6.80396 6.91662 7.15382C6.91662 7.50368 6.63296 7.78734 6.2831 7.78734H3.54442C3.19456 7.78734 2.9109 7.50372 2.9109 7.15382ZM9.44783 13.7516H3.54442C3.19456 13.7516 2.9109 13.4679 2.9109 13.1181C2.9109 12.7682 3.19456 12.4846 3.54442 12.4846H9.44783C9.79769 12.4846 10.0813 12.7682 10.0813 13.1181C10.0813 13.4679 9.79769 13.7516 9.44783 13.7516ZM10.2694 4.80523H3.54442C3.19456 4.80523 2.9109 4.52157 2.9109 4.17171C2.9109 3.82185 3.19456 3.53819 3.54442 3.53819H10.2694C10.6193 3.53819 10.9029 3.82185 10.9029 4.17171C10.9029 4.52157 10.6193 4.80523 10.2694 4.80523Z" fill="#67833E"/>
</svg>
