<svg width="18" height="24" viewBox="0 0 18 24" fill="none" xmlns="http://www.w3.org/2000/svg">
<path d="M16.3217 0H1.67893C1.25909 0 0.918701 0.340392 0.918701 0.760227V23.2388C0.918701 23.8755 1.65802 24.2306 2.15488 23.8316L3.70398 22.5879L4.90172 23.7781C5.19161 24.0661 5.65734 24.0735 5.95616 23.7947L7.22455 22.6114L8.47931 23.7924C8.77869 24.0741 9.24785 24.0669 9.53835 23.7759L10.6678 22.6446L11.8025 23.7769C12.0923 24.0662 12.5594 24.0738 12.8586 23.7941L14.1758 22.5629L15.8617 23.844C16.3612 24.2235 17.0819 23.8667 17.0819 23.2387V0.760227C17.0819 0.340392 16.7416 0 16.3217 0V0ZM4.85326 11.4029H10.1845C10.6044 11.4029 10.9448 11.7433 10.9448 12.1632C10.9448 12.583 10.6044 12.9234 10.1845 12.9234H4.85326C4.43342 12.9234 4.09303 12.583 4.09303 12.1632C4.09303 11.7433 4.43342 11.4029 4.85326 11.4029ZM4.09303 8.58458C4.09303 8.16475 4.43342 7.82436 4.85326 7.82436H8.13967C8.55951 7.82436 8.8999 8.16475 8.8999 8.58458C8.8999 9.00442 8.55951 9.34481 8.13967 9.34481H4.85326C4.43342 9.34481 4.09303 9.00447 4.09303 8.58458ZM11.9373 16.5019H4.85326C4.43342 16.5019 4.09303 16.1615 4.09303 15.7417C4.09303 15.3219 4.43342 14.9815 4.85326 14.9815H11.9373C12.3572 14.9815 12.6976 15.3219 12.6976 15.7417C12.6976 16.1615 12.3572 16.5019 11.9373 16.5019ZM12.9233 5.76628H4.85326C4.43342 5.76628 4.09303 5.42589 4.09303 5.00605C4.09303 4.58621 4.43342 4.24582 4.85326 4.24582H12.9233C13.3431 4.24582 13.6835 4.58621 13.6835 5.00605C13.6835 5.42589 13.3431 5.76628 12.9233 5.76628Z" fill="#67833E"/>
</svg>
