<svg width="15" height="16" viewBox="0 0 15 16" fill="none" xmlns="http://www.w3.org/2000/svg">
<g opacity="0.7" clip-path="url(#clip0)">
<path d="M4.92805 4.71649L7.36583 4.49615L6.76575 2.86844L8.45475 1.16992L9.45763 1.33814C10.12 1.44881 10.7571 1.66132 11.3518 1.96878L11.6991 2.14868L11.537 2.50644C11.4882 2.61348 11.4638 2.72818 11.4638 2.84772C11.4638 3.30208 11.8316 3.67194 12.2834 3.67194C12.4651 3.67194 12.6364 3.61358 12.7796 3.50371L13.0902 3.26466L13.3419 3.5657C14.0399 4.39917 14.5486 5.4057 14.7695 6.55669L8.18543 8.4642L0.781726 8.85869L4.92805 4.71649Z" fill="#FEDB41"/>
<path d="M1.05506 11.1365L0.781726 11.0395V8.85865L14.7695 6.55664V12.6682L12.3182 13.1254L12.2806 12.6698C12.2462 12.2461 11.8872 11.914 11.4638 11.914C11.012 11.914 10.6442 12.2839 10.6442 12.7383C10.6442 12.8179 10.6554 12.8968 10.6778 12.9717L10.8131 13.4297L6.46353 14.0522L4.90704 12.7383L3.54107 14.4705L0.781726 14.8616V12.7886L1.05506 12.6916C1.24515 12.624 1.40364 12.4884 1.50087 12.31C1.56769 12.1877 1.60132 12.0545 1.60132 11.914C1.60132 11.5655 1.38162 11.2528 1.05506 11.1365Z" fill="#FCBF29"/>
<path d="M7.77549 11.9141C8.4534 11.9141 9.00488 11.3595 9.00488 10.6777C9.00488 9.99599 8.4534 9.44141 7.77549 9.44141C7.09757 9.44141 6.54609 9.99599 6.54609 10.6777C6.54609 11.3595 7.09757 11.9141 7.77549 11.9141Z" fill="#FE9923"/>
<path d="M4.90647 11.9141C5.5692 11.9141 6.16267 12.3113 6.4188 12.9262C6.56982 13.2887 6.57411 13.6761 6.46297 14.0523L3.54051 14.4706C3.36864 14.2099 3.26728 13.8981 3.26728 13.5625C3.26728 12.6534 4.00243 11.9141 4.90647 11.9141Z" fill="#FE9923"/>
<path d="M11.4633 8.61717C12.3674 8.61717 13.1025 7.87788 13.1025 6.96874C13.1025 6.05961 12.3674 5.32031 11.4633 5.32031C10.5593 5.32031 9.82415 6.05961 9.82415 6.96874C9.82415 7.87788 10.5593 8.61717 11.4633 8.61717Z" fill="#FE9923"/>
<path d="M8.18555 4.49588C8.18555 5.40501 7.45039 6.14431 6.54635 6.14431C5.91884 6.14431 5.35578 5.79297 5.07684 5.22712C4.99641 5.06382 4.95128 4.89153 4.92816 4.71622L6.76587 2.86816C6.94006 2.89152 7.11119 2.9371 7.27353 3.01809C7.83618 3.2986 8.18555 3.86483 8.18555 4.49588Z" fill="#FEA832"/>
</g>
<defs>
<clipPath id="clip0">
<rect width="13.9878" height="14.0666" fill="white" transform="matrix(-1 0 0 1 14.7695 0.982422)"/>
</clipPath>
</defs>
</svg>
