<svg width="23" height="12" viewBox="0 0 23 12" fill="none" xmlns="http://www.w3.org/2000/svg">
<path d="M22.7693 6.94123C22.6478 7.04584 22.4995 7.09683 22.3522 7.09683C22.1677 7.09683 21.9843 7.01671 21.8561 6.86111L20.1573 4.79971C19.4166 5.48767 18.4817 6.17232 17.3228 6.73431L18.2919 9.1329C18.4285 9.47092 18.271 9.85811 17.9402 9.99765C17.8591 10.0318 17.7754 10.048 17.693 10.048C17.4385 10.048 17.1969 9.89369 17.0937 9.63828L16.124 7.23852C14.9391 7.66246 13.5603 7.94983 11.966 8.01207V10.5755C11.966 10.9412 11.6758 11.2377 11.3179 11.2377C10.96 11.2377 10.6697 10.9412 10.6697 10.5755V8.01207C9.21644 7.95529 7.94446 7.70997 6.83289 7.34596L5.90669 9.63828C5.80348 9.89369 5.56204 10.048 5.30732 10.048C5.22484 10.048 5.14123 10.0318 5.06021 9.99765C4.72934 9.85811 4.57184 9.47092 4.70843 9.1329L5.61956 6.87783C4.42698 6.34116 3.46011 5.67174 2.68752 4.98842L1.14429 6.86111C1.01611 7.01654 0.83269 7.09683 0.64813 7.09683C0.500677 7.09683 0.352576 7.04568 0.231049 6.94123C-0.042792 6.70567 -0.077954 6.28803 0.152624 6.00827L1.75419 4.0649C0.593848 2.77605 0.0989893 1.6438 0.052809 1.53405C-0.0884866 1.19818 0.0635037 0.808676 0.392437 0.66433C0.721209 0.519653 1.10248 0.675255 1.24378 1.01129C1.28769 1.11392 1.79243 2.25131 3.00219 3.48255C3.01888 3.49431 3.03654 3.50391 3.05242 3.51748C3.09504 3.55423 3.12988 3.59644 3.16083 3.64064C3.99402 4.45209 5.13605 5.28539 6.65595 5.87784C6.67636 5.88413 6.69694 5.8881 6.7172 5.89654C6.7253 5.90002 6.73211 5.90531 6.74005 5.90912C7.99842 6.38818 9.50957 6.70269 11.3177 6.70269C18.9098 6.70269 21.3677 1.0679 21.3915 1.01096C21.5328 0.67509 21.9143 0.519156 22.2429 0.663999C22.5718 0.808345 22.7238 1.19785 22.5825 1.53372C22.5389 1.63734 22.0946 2.65273 21.0691 3.8502L22.8473 6.00794C23.0783 6.28803 23.0432 6.70567 22.7693 6.94123Z" fill="#535353"/>
</svg>
