<svg width="16" height="16" viewBox="0 0 16 16" fill="none" xmlns="http://www.w3.org/2000/svg">
<path d="M7.11607 8.00076L0.183054 1.06771C-0.061039 0.823614 -0.061039 0.427865 0.183054 0.183803C0.427147 -0.0602597 0.822896 -0.060291 1.06696 0.183803L8.00001 7.11686L14.933 0.183803C15.1771 -0.060291 15.5729 -0.060291 15.8169 0.183803C16.061 0.427896 16.061 0.823646 15.8169 1.06771L8.88391 8.00073L15.8169 14.9338C16.061 15.1779 16.061 15.5736 15.8169 15.8177C15.6949 15.9397 15.5349 16.0007 15.375 16.0007C15.215 16.0007 15.0551 15.9397 14.933 15.8177L8.00001 8.88467L1.06699 15.8177C0.944959 15.9397 0.78499 16.0007 0.625022 16.0007C0.465054 16.0007 0.305116 15.9397 0.183054 15.8177C-0.061039 15.5736 -0.061039 15.1778 0.183054 14.9338L7.11607 8.00076Z" fill="#777777"/>
</svg>
