<svg width="16" height="16" viewBox="0 0 16 16" fill="none" xmlns="http://www.w3.org/2000/svg">
<path d="M11.4286 2.85693H1.71428C0.767511 2.85693 0 3.62444 0 4.57122V14.2855C0 15.2323 0.767511 15.9998 1.71428 15.9998H11.4286C12.3753 15.9998 13.1428 15.2323 13.1428 14.2855V4.57122C13.1428 3.62444 12.3753 2.85693 11.4286 2.85693Z" fill="#67833E" fill-opacity="0.9"/>
<path d="M14.2861 1.10693e-09H4.00042C3.05877 -3.3481e-05 2.29336 0.759508 2.28613 1.70113C2.28613 1.70571 2.28613 1.7097 2.28613 1.71428H11.429C13.0062 1.71616 14.2842 2.99424 14.2861 4.57141V13.7143C14.2907 13.7143 14.2947 13.7143 14.2993 13.7143C15.2409 13.707 16.0004 12.9416 16.0004 12V1.71428C16.0004 0.767511 15.2329 1.10693e-09 14.2861 1.10693e-09Z" fill="#67833E" fill-opacity="0.9"/>
</svg>
