<svg width="20" height="20" viewBox="0 0 20 20" fill="none" xmlns="http://www.w3.org/2000/svg">
<path d="M10 4.07825e-05C15.5228 4.07825e-05 20 4.4772 20 10C20 15.5228 15.5228 20 10 20C4.4772 20 4.14787e-05 15.5228 4.14787e-05 10C-0.0156734 4.49286 4.43598 0.0157556 9.94308 4.07825e-05C9.96206 -1.35942e-05 9.98104 -1.35942e-05 10 4.07825e-05Z" fill="#DADADA"/>
<path fill-rule="evenodd" clip-rule="evenodd" d="M14.5878 3C14.4072 3 14.2194 3.07222 14.0822 3.20944L12.7606 4.53111L15.4689 7.23944L16.7906 5.91778C17.0722 5.63611 17.0722 5.18111 16.7906 4.89944L15.1006 3.20944C14.9561 3.065 14.7756 3 14.5878 3ZM11.9878 7.34779L12.6522 8.01224L6.10889 14.5556H5.44444V13.8911L11.9878 7.34779ZM4 13.2916L11.9878 5.30385L14.6961 8.01218L6.70833 16H4V13.2916Z" fill="black" fill-opacity="0.54"/>
</svg>
