<svg width="20" height="20" viewBox="0 0 20 20" fill="none" xmlns="http://www.w3.org/2000/svg">
<path d="M17.1131 10.6766H15.5664C15.7241 11.1082 15.8102 11.574 15.8102 12.0595V17.9052C15.8102 18.1077 15.775 18.302 15.7109 18.4827H18.2679C19.2231 18.4827 20.0002 17.7056 20.0002 16.7504V13.5636C20.0002 11.9717 18.7051 10.6766 17.1131 10.6766Z" fill="#67833E"/>
<path d="M4.19005 12.0596C4.19005 11.5741 4.27618 11.1083 4.43384 10.6766H2.88712C1.29516 10.6766 0 11.9718 0 13.5637V16.7505C0 17.7057 0.777072 18.4828 1.73227 18.4828H4.28938C4.22528 18.302 4.19005 18.1077 4.19005 17.9053V12.0596Z" fill="#67833E"/>
<path d="M11.7688 9.17245H8.23282C6.64086 9.17245 5.3457 10.4676 5.3457 12.0596V17.9053C5.3457 18.2242 5.60422 18.4827 5.92313 18.4827H14.0785C14.3974 18.4827 14.656 18.2242 14.656 17.9053V12.0596C14.656 10.4676 13.3608 9.17245 11.7688 9.17245Z" fill="#67833E"/>
<path d="M9.99946 1.51721C8.08492 1.51721 6.52734 3.07479 6.52734 4.98937C6.52734 6.288 7.2441 7.42218 8.30262 8.01765C8.80469 8.30008 9.38352 8.46148 9.99946 8.46148C10.6154 8.46148 11.1942 8.30008 11.6963 8.01765C12.7549 7.42218 13.4716 6.28796 13.4716 4.98937C13.4716 3.07483 11.914 1.51721 9.99946 1.51721Z" fill="#67833E"/>
<path d="M3.90333 4.75348C2.47149 4.75348 1.30664 5.91833 1.30664 7.35016C1.30664 8.782 2.47149 9.94685 3.90333 9.94685C4.26653 9.94685 4.61239 9.87161 4.92657 9.73638C5.46977 9.50251 5.91767 9.08853 6.19481 8.56997C6.38935 8.20603 6.50001 7.79083 6.50001 7.35016C6.50001 5.91836 5.33516 4.75348 3.90333 4.75348Z" fill="#67833E"/>
<path d="M16.0967 4.75348C14.6648 4.75348 13.5 5.91833 13.5 7.35016C13.5 7.79087 13.6107 8.20606 13.8052 8.56997C14.0823 9.08857 14.5302 9.50255 15.0734 9.73638C15.3876 9.87161 15.7335 9.94685 16.0967 9.94685C17.5285 9.94685 18.6934 8.782 18.6934 7.35016C18.6934 5.91833 17.5285 4.75348 16.0967 4.75348Z" fill="#67833E"/>
</svg>
