<svg width="16" height="16" viewBox="0 0 16 16" fill="none" xmlns="http://www.w3.org/2000/svg">
<g clip-path="url(#clip0)">
<path d="M11.0083 8.37057C11.0083 8.73177 10.7155 9.02452 10.3544 9.02452C9.99321 9.02452 9.70042 8.73173 9.70042 8.37057L9.70046 5.53679V4.22888H9.00291H6.91018V5.53679V6.4616L6.91018 9.67847C6.91018 10.0396 6.61739 10.3324 6.25623 10.3324H3.03936H2.11454H0.806641L0.806641 15.346C0.806641 15.7072 1.09944 16 1.46059 16H14.5396C14.9008 16 15.1936 15.7072 15.1936 15.346V4.88283C15.1936 4.52164 14.9008 4.22888 14.5396 4.22888H12.3453H11.0084V5.53679L11.0083 8.37057Z" fill="#67833E"/>
<path d="M10.2907 0.00314426C10.2809 0.00410366 10.2715 0.00593376 10.2618 0.00732851C10.2503 0.00898552 10.2389 0.010293 10.2275 0.0125599C10.2165 0.0147834 10.2058 0.0177484 10.195 0.0204949C10.1851 0.0230236 10.1752 0.0251608 10.1654 0.0281253C10.1549 0.0313077 10.1447 0.035275 10.1344 0.0389805C10.1246 0.0425119 10.1147 0.0457382 10.105 0.0497055C10.0953 0.0537162 10.0861 0.0583811 10.0768 0.0628281C10.0668 0.0674925 10.0568 0.0719399 10.047 0.0771718C10.0381 0.0819674 10.0296 0.0874162 10.0208 0.0926476C10.0112 0.0984025 10.0015 0.103853 9.99215 0.110087C9.9826 0.116453 9.97362 0.123601 9.96447 0.130446C9.95653 0.136375 9.94842 0.141869 9.94075 0.148147C9.92484 0.161226 9.90962 0.175002 9.89502 0.189476C9.89432 0.190174 9.89358 0.190698 9.89284 0.191439L8.25792 1.82627C8.00257 2.08162 8.00257 2.4957 8.25792 2.75109C8.51326 3.00648 8.92734 3.00648 9.18273 2.75113L9.70132 2.23264V3.08892V4.22876H11.0092V3.67015V2.2326L11.5277 2.75109C11.7831 3.00648 12.1971 3.00648 12.4525 2.75109C12.5803 2.62344 12.6441 2.45603 12.6441 2.2887C12.6441 2.12129 12.5803 1.95397 12.4525 1.82627L10.8177 0.191482C10.8173 0.191133 10.817 0.190871 10.8167 0.190522C10.8017 0.175612 10.7861 0.161531 10.7698 0.148147C10.7621 0.141782 10.754 0.136289 10.746 0.130316C10.7369 0.123515 10.7279 0.116452 10.7184 0.110044C10.709 0.103722 10.6992 0.0982718 10.6896 0.0925174C10.6809 0.0874162 10.6725 0.0819674 10.6636 0.0771718C10.6538 0.0718966 10.6436 0.0674496 10.6336 0.0626974C10.6243 0.0582943 10.6151 0.0536728 10.6056 0.0497055C10.5958 0.045651 10.5859 0.0424242 10.576 0.0388927C10.5658 0.0351868 10.5556 0.0312643 10.5451 0.0281253C10.5353 0.0251608 10.5253 0.0229363 10.5154 0.0204511C10.5046 0.0177045 10.494 0.0146976 10.483 0.0125175C10.4717 0.0102506 10.4602 0.0089426 10.4487 0.00728607C10.4391 0.00589085 10.4296 0.00410318 10.4198 0.0031004C10.3986 0.00100803 10.3774 -8.2016e-05 10.3561 -8.2016e-05C10.3558 -8.2016e-05 10.3555 -0.000169754 10.3553 -0.000169754C10.3549 -0.000169754 10.3545 -8.2016e-05 10.3542 -8.2016e-05C10.3329 -3.86238e-05 10.3118 0.0010519 10.2907 0.00314426Z" fill="#67833E"/>
<path d="M6.40078 4.4L0.800781 10H3.14816H6.40078V6.74741V4.4Z" fill="#67833E"/>
</g>
<defs>
<clipPath id="clip0">
<rect width="16" height="16" fill="white" transform="translate(0 16) rotate(-90)"/>
</clipPath>
</defs>
</svg>
