<svg width="20" height="20" viewBox="0 0 20 20" fill="none" xmlns="http://www.w3.org/2000/svg">
<path d="M18.1171 1.88432C15.6039 -0.628804 11.515 -0.628765 9.00187 1.88436C7.28527 3.60096 6.68902 6.13069 7.4323 8.4258L0.173633 15.6845C0.06375 15.7944 0.00195312 15.9431 0.00195312 16.0988V19.4136C0.00195312 19.7374 0.264023 19.9995 0.587891 19.9995H3.90266C4.05828 19.9995 4.20707 19.9377 4.31691 19.8278L5.14547 18.9987C5.27191 18.8722 5.33371 18.6949 5.31312 18.5169L5.21012 17.6265L6.44379 17.5104C6.72418 17.484 6.94562 17.2626 6.97195 16.9822L7.08812 15.7485L7.97848 15.8521C8.14383 15.8744 8.31035 15.8189 8.43566 15.7079C8.56039 15.5964 8.63191 15.4372 8.63191 15.2702V14.1792H9.70308C9.85871 14.1792 10.0075 14.1174 10.1173 14.0075L11.62 12.5248C13.9145 13.2687 16.4005 12.7173 18.1171 10.9996C20.6302 8.48647 20.6302 4.39745 18.1171 1.88432ZM16.4595 6.02768C15.7739 6.71319 14.6593 6.71319 13.9738 6.02768C13.2883 5.34217 13.2883 4.22752 13.9738 3.54202C14.6593 2.85651 15.7739 2.85651 16.4595 3.54202C17.145 4.22752 17.1449 5.34217 16.4595 6.02768Z" fill="#5F5F5F"/>
</svg>
