<svg width="79" height="38" viewBox="0 0 79 38" fill="none" xmlns="http://www.w3.org/2000/svg">
<path d="M13.6758 34H11.1621V25C11.1621 24.8242 11.127 24.6602 11.0566 24.5078C10.9922 24.3555 10.9014 24.2236 10.7842 24.1123C10.6729 23.9951 10.541 23.9043 10.3887 23.8398C10.2363 23.7754 10.0723 23.7432 9.89648 23.7432C9.7207 23.7432 9.55664 23.7754 9.4043 23.8398C9.25195 23.9043 9.11719 23.9951 9 24.1123C8.88867 24.2236 8.80078 24.3555 8.73633 24.5078C8.67188 24.6602 8.63965 24.8242 8.63965 25V34H6.11719V25C6.11719 24.8242 6.08496 24.6602 6.02051 24.5078C5.95605 24.3555 5.86523 24.2236 5.74805 24.1123C5.63672 23.9951 5.50488 23.9043 5.35254 23.8398C5.2002 23.7754 5.03613 23.7432 4.86035 23.7432C4.68457 23.7432 4.52051 23.7754 4.36816 23.8398C4.21582 23.9043 4.08105 23.9951 3.96387 24.1123C3.85254 24.2236 3.76465 24.3555 3.7002 24.5078C3.63574 24.6602 3.60352 24.8242 3.60352 25V34H1.08105V25C1.08105 24.4785 1.17773 23.9893 1.37109 23.5322C1.57031 23.0693 1.83984 22.668 2.17969 22.3281C2.52539 21.9824 2.92676 21.7129 3.38379 21.5195C3.84668 21.3203 4.33887 21.2207 4.86035 21.2207C5.3291 21.2207 5.78027 21.3057 6.21387 21.4756C6.64746 21.6396 7.03711 21.8799 7.38281 22.1963C7.72852 21.8799 8.11523 21.6396 8.54297 21.4756C8.97656 21.3057 9.42773 21.2207 9.89648 21.2207C10.418 21.2207 10.9072 21.3203 11.3643 21.5195C11.8271 21.7129 12.2285 21.9824 12.5684 22.3281C12.9141 22.668 13.1836 23.0693 13.377 23.5322C13.5762 23.9893 13.6758 24.4785 13.6758 25V34ZM24.6885 34H24.1084L23.1768 32.708C22.9482 32.9131 22.7051 33.1064 22.4473 33.2881C22.1953 33.4639 21.9287 33.6191 21.6475 33.7539C21.3662 33.8828 21.0762 33.9854 20.7773 34.0615C20.4844 34.1377 20.1855 34.1758 19.8809 34.1758C19.2188 34.1758 18.5947 34.0645 18.0088 33.8418C17.4287 33.6191 16.9189 33.2969 16.4795 32.875C16.0459 32.4473 15.7031 31.9258 15.4512 31.3105C15.1992 30.6953 15.0732 29.9951 15.0732 29.21C15.0732 28.4775 15.1992 27.8066 15.4512 27.1973C15.7031 26.582 16.0459 26.0547 16.4795 25.6152C16.9189 25.1758 17.4287 24.8359 18.0088 24.5957C18.5947 24.3496 19.2188 24.2266 19.8809 24.2266C20.1855 24.2266 20.4873 24.2646 20.7861 24.3408C21.085 24.417 21.375 24.5225 21.6562 24.6572C21.9375 24.792 22.2041 24.9502 22.4561 25.1318C22.7139 25.3135 22.9541 25.5098 23.1768 25.7207L24.1084 24.6045H24.6885V34ZM22.2715 29.21C22.2715 28.8818 22.207 28.5654 22.0781 28.2607C21.9551 27.9502 21.7852 27.6777 21.5684 27.4434C21.3516 27.2031 21.0967 27.0127 20.8037 26.8721C20.5166 26.7256 20.209 26.6523 19.8809 26.6523C19.5527 26.6523 19.2422 26.708 18.9492 26.8193C18.6621 26.9307 18.4102 27.0947 18.1934 27.3115C17.9824 27.5283 17.8154 27.7979 17.6924 28.1201C17.5693 28.4365 17.5078 28.7998 17.5078 29.21C17.5078 29.6201 17.5693 29.9863 17.6924 30.3086C17.8154 30.625 17.9824 30.8916 18.1934 31.1084C18.4102 31.3252 18.6621 31.4893 18.9492 31.6006C19.2422 31.7119 19.5527 31.7676 19.8809 31.7676C20.209 31.7676 20.5166 31.6973 20.8037 31.5566C21.0967 31.4102 21.3516 31.2197 21.5684 30.9854C21.7852 30.7451 21.9551 30.4727 22.0781 30.168C22.207 29.8574 22.2715 29.5381 22.2715 29.21ZM33.2227 29.21C33.2227 28.8818 33.1582 28.5654 33.0293 28.2607C32.9062 27.9502 32.7363 27.6777 32.5195 27.4434C32.3027 27.2031 32.0479 27.0127 31.7549 26.8721C31.4678 26.7256 31.1602 26.6523 30.832 26.6523C30.5039 26.6523 30.1934 26.708 29.9004 26.8193C29.6133 26.9307 29.3613 27.0947 29.1445 27.3115C28.9336 27.5283 28.7666 27.7979 28.6436 28.1201C28.5205 28.4365 28.459 28.7998 28.459 29.21C28.459 29.6025 28.5205 29.957 28.6436 30.2734C28.7666 30.584 28.9336 30.8506 29.1445 31.0732C29.3613 31.2959 29.6133 31.4688 29.9004 31.5918C30.1934 31.709 30.5039 31.7676 30.832 31.7676C31.1602 31.7676 31.4678 31.6973 31.7549 31.5566C32.0479 31.4102 32.3027 31.2197 32.5195 30.9854C32.7363 30.7451 32.9062 30.4727 33.0293 30.168C33.1582 29.8574 33.2227 29.5381 33.2227 29.21ZM35.6396 32.8135C35.6396 33.4756 35.5137 34.0967 35.2617 34.6768C35.0098 35.2568 34.6641 35.7637 34.2246 36.1973C33.791 36.6309 33.2812 36.9736 32.6953 37.2256C32.1152 37.4775 31.4941 37.6035 30.832 37.6035L29.6279 37.5859V35.1865L30.8145 35.2041C31.1895 35.2041 31.5088 35.1543 31.7725 35.0547C32.0361 34.9609 32.2588 34.8291 32.4404 34.6592C32.6221 34.4951 32.7656 34.3047 32.8711 34.0879C32.9824 33.8711 33.0703 33.6426 33.1348 33.4023C33.041 33.5547 32.9062 33.6807 32.7305 33.7803C32.5547 33.874 32.3584 33.9502 32.1416 34.0088C31.9307 34.0732 31.708 34.1172 31.4736 34.1406C31.2451 34.1641 31.0312 34.1758 30.832 34.1758C30.1699 34.1758 29.5459 34.0615 28.96 33.833C28.3799 33.6045 27.8701 33.2793 27.4307 32.8574C26.9971 32.4297 26.6543 31.9082 26.4023 31.293C26.1504 30.6777 26.0244 29.9834 26.0244 29.21C26.0244 28.501 26.1504 27.8418 26.4023 27.2324C26.6543 26.623 26.9971 26.0957 27.4307 25.6504C27.8701 25.2051 28.3799 24.8564 28.96 24.6045C29.5459 24.3525 30.1699 24.2266 30.832 24.2266C31.1367 24.2266 31.4385 24.2646 31.7373 24.3408C32.0361 24.417 32.3262 24.5225 32.6074 24.6572C32.8887 24.792 33.1553 24.9502 33.4072 25.1318C33.665 25.3135 33.9053 25.5098 34.1279 25.7207L35.0596 24.6045H35.6396V32.8135ZM40.3066 22.0293C40.3066 22.252 40.2627 22.46 40.1748 22.6533C40.0928 22.8467 39.9785 23.0166 39.832 23.1631C39.6855 23.3037 39.5127 23.418 39.3135 23.5059C39.1201 23.5879 38.9121 23.6289 38.6895 23.6289C38.4668 23.6289 38.2559 23.5879 38.0566 23.5059C37.8633 23.418 37.6934 23.3037 37.5469 23.1631C37.4062 23.0166 37.292 22.8467 37.2041 22.6533C37.1221 22.46 37.0811 22.252 37.0811 22.0293C37.0811 21.8125 37.1221 21.6074 37.2041 21.4141C37.292 21.2148 37.4062 21.0449 37.5469 20.9043C37.6934 20.7578 37.8633 20.6436 38.0566 20.5615C38.2559 20.4736 38.4668 20.4297 38.6895 20.4297C38.9121 20.4297 39.1201 20.4736 39.3135 20.5615C39.5127 20.6436 39.6855 20.7578 39.832 20.9043C39.9785 21.0449 40.0928 21.2148 40.1748 21.4141C40.2627 21.6074 40.3066 21.8125 40.3066 22.0293ZM39.8936 34H37.4766V24.5869H39.8936V34ZM44.1475 34H41.7305V20.8428H44.1475V34ZM48.7617 34H46.2393V21.3965H48.7617V26.4414H53.7979V21.3965H56.3203V34H53.7979V28.9639H48.7617V34ZM65.2061 32.9014C65.0127 33.0771 64.8047 33.2441 64.582 33.4023C64.3652 33.5547 64.1367 33.6895 63.8965 33.8066C63.6562 33.918 63.4072 34.0059 63.1494 34.0703C62.8975 34.1406 62.6396 34.1758 62.376 34.1758C61.7959 34.1758 61.251 34.0732 60.7412 33.8682C60.2314 33.6631 59.7832 33.373 59.3965 32.998C59.0156 32.6172 58.7139 32.1572 58.4912 31.6182C58.2744 31.0732 58.166 30.4639 58.166 29.79V24.5869H60.5566V29.79C60.5566 30.1064 60.6035 30.3906 60.6973 30.6426C60.7969 30.8887 60.9287 31.0967 61.0928 31.2666C61.2568 31.4365 61.4473 31.5654 61.6641 31.6533C61.8867 31.7412 62.124 31.7852 62.376 31.7852C62.6221 31.7852 62.8535 31.7295 63.0703 31.6182C63.293 31.501 63.4863 31.3486 63.6504 31.1611C63.8145 30.9736 63.9434 30.7627 64.0371 30.5283C64.1309 30.2881 64.1777 30.042 64.1777 29.79V24.5869H66.5771V34H65.9971L65.2061 32.9014ZM77.8359 29.21C77.8359 29.9482 77.71 30.6221 77.458 31.2314C77.2061 31.8408 76.8633 32.3652 76.4297 32.8047C75.9961 33.2383 75.4863 33.5752 74.9004 33.8154C74.3203 34.0557 73.6963 34.1758 73.0283 34.1758C72.3662 34.1758 71.7422 34.0527 71.1562 33.8066C70.5762 33.5605 70.0664 33.2178 69.627 32.7783C69.1934 32.3389 68.8506 31.8174 68.5986 31.2139C68.3467 30.6045 68.2207 29.9365 68.2207 29.21V20.8428H70.6289V25.2373C70.7578 25.0732 70.9131 24.9268 71.0947 24.7979C71.2822 24.6689 71.4814 24.5635 71.6924 24.4814C71.9092 24.3994 72.1318 24.3379 72.3604 24.2969C72.5889 24.25 72.8115 24.2266 73.0283 24.2266C73.6963 24.2266 74.3203 24.3525 74.9004 24.6045C75.4863 24.8506 75.9961 25.1963 76.4297 25.6416C76.8633 26.0869 77.2061 26.6143 77.458 27.2236C77.71 27.8271 77.8359 28.4893 77.8359 29.21ZM75.4189 29.21C75.4189 28.8467 75.3545 28.5098 75.2256 28.1992C75.1025 27.8828 74.9326 27.6104 74.7158 27.3818C74.499 27.1533 74.2441 26.9746 73.9512 26.8457C73.6641 26.7168 73.3564 26.6523 73.0283 26.6523C72.7002 26.6523 72.3896 26.7256 72.0967 26.8721C71.8096 27.0127 71.5576 27.2031 71.3408 27.4434C71.124 27.6777 70.9541 27.9502 70.8311 28.2607C70.708 28.5654 70.6465 28.8818 70.6465 29.21C70.6465 29.5732 70.708 29.9102 70.8311 30.2207C70.9541 30.5312 71.124 30.8008 71.3408 31.0293C71.5576 31.2578 71.8096 31.4395 72.0967 31.5742C72.3896 31.7031 72.7002 31.7676 73.0283 31.7676C73.3564 31.7676 73.6641 31.7031 73.9512 31.5742C74.2441 31.4395 74.499 31.2578 74.7158 31.0293C74.9326 30.8008 75.1025 30.5312 75.2256 30.2207C75.3545 29.9102 75.4189 29.5732 75.4189 29.21Z" fill="#373737"/>
<path d="M6.516 7.084C6.516 7.78 6.276 8.36 5.796 8.824C5.324 9.28 4.6 9.508 3.624 9.508H2.016V13H0.924V4.636H3.624C4.568 4.636 5.284 4.864 5.772 5.32C6.268 5.776 6.516 6.364 6.516 7.084ZM3.624 8.608C4.232 8.608 4.68 8.476 4.968 8.212C5.256 7.948 5.4 7.572 5.4 7.084C5.4 6.052 4.808 5.536 3.624 5.536H2.016V8.608H3.624ZM10.7412 13.108C10.1252 13.108 9.56522 12.968 9.06122 12.688C8.56522 12.408 8.17322 12.012 7.88522 11.5C7.60522 10.98 7.46522 10.38 7.46522 9.7C7.46522 9.028 7.60922 8.436 7.89722 7.924C8.19322 7.404 8.59322 7.008 9.09722 6.736C9.60122 6.456 10.1652 6.316 10.7892 6.316C11.4132 6.316 11.9772 6.456 12.4812 6.736C12.9852 7.008 13.3812 7.4 13.6692 7.912C13.9652 8.424 14.1132 9.02 14.1132 9.7C14.1132 10.38 13.9612 10.98 13.6572 11.5C13.3612 12.012 12.9572 12.408 12.4452 12.688C11.9332 12.968 11.3652 13.108 10.7412 13.108ZM10.7412 12.148C11.1332 12.148 11.5012 12.056 11.8452 11.872C12.1892 11.688 12.4652 11.412 12.6732 11.044C12.8892 10.676 12.9972 10.228 12.9972 9.7C12.9972 9.172 12.8932 8.724 12.6852 8.356C12.4772 7.988 12.2052 7.716 11.8692 7.54C11.5332 7.356 11.1692 7.264 10.7772 7.264C10.3772 7.264 10.0092 7.356 9.67322 7.54C9.34522 7.716 9.08122 7.988 8.88122 8.356C8.68122 8.724 8.58122 9.172 8.58122 9.7C8.58122 10.236 8.67722 10.688 8.86922 11.056C9.06922 11.424 9.33322 11.7 9.66122 11.884C9.98922 12.06 10.3492 12.148 10.7412 12.148ZM24.309 6.424L22.257 13H21.129L19.545 7.78L17.961 13H16.833L14.769 6.424H15.885L17.397 11.944L19.029 6.424H20.145L21.741 11.956L23.229 6.424H24.309ZM31.3928 9.46C31.3928 9.668 31.3808 9.888 31.3568 10.12H26.1008C26.1408 10.768 26.3608 11.276 26.7608 11.644C27.1688 12.004 27.6608 12.184 28.2368 12.184C28.7088 12.184 29.1008 12.076 29.4128 11.86C29.7328 11.636 29.9568 11.34 30.0848 10.972H31.2608C31.0848 11.604 30.7328 12.12 30.2048 12.52C29.6768 12.912 29.0208 13.108 28.2368 13.108C27.6128 13.108 27.0528 12.968 26.5568 12.688C26.0688 12.408 25.6848 12.012 25.4048 11.5C25.1248 10.98 24.9848 10.38 24.9848 9.7C24.9848 9.02 25.1208 8.424 25.3928 7.912C25.6648 7.4 26.0448 7.008 26.5328 6.736C27.0288 6.456 27.5968 6.316 28.2368 6.316C28.8608 6.316 29.4128 6.452 29.8928 6.724C30.3728 6.996 30.7408 7.372 30.9968 7.852C31.2608 8.324 31.3928 8.86 31.3928 9.46ZM30.2648 9.232C30.2648 8.816 30.1728 8.46 29.9888 8.164C29.8048 7.86 29.5528 7.632 29.2328 7.48C28.9208 7.32 28.5728 7.24 28.1888 7.24C27.6368 7.24 27.1648 7.416 26.7728 7.768C26.3888 8.12 26.1688 8.608 26.1128 9.232H30.2648ZM33.9262 7.492C34.1182 7.116 34.3902 6.824 34.7422 6.616C35.1022 6.408 35.5382 6.304 36.0502 6.304V7.432H35.7622C34.5382 7.432 33.9262 8.096 33.9262 9.424V13H32.8342V6.424H33.9262V7.492ZM43.3107 9.46C43.3107 9.668 43.2987 9.888 43.2747 10.12H38.0187C38.0587 10.768 38.2787 11.276 38.6787 11.644C39.0867 12.004 39.5787 12.184 40.1547 12.184C40.6267 12.184 41.0187 12.076 41.3307 11.86C41.6507 11.636 41.8747 11.34 42.0027 10.972H43.1787C43.0027 11.604 42.6507 12.12 42.1227 12.52C41.5947 12.912 40.9387 13.108 40.1547 13.108C39.5307 13.108 38.9707 12.968 38.4747 12.688C37.9867 12.408 37.6027 12.012 37.3227 11.5C37.0427 10.98 36.9027 10.38 36.9027 9.7C36.9027 9.02 37.0387 8.424 37.3107 7.912C37.5827 7.4 37.9627 7.008 38.4507 6.736C38.9467 6.456 39.5147 6.316 40.1547 6.316C40.7787 6.316 41.3307 6.452 41.8107 6.724C42.2907 6.996 42.6587 7.372 42.9147 7.852C43.1787 8.324 43.3107 8.86 43.3107 9.46ZM42.1827 9.232C42.1827 8.816 42.0907 8.46 41.9067 8.164C41.7227 7.86 41.4707 7.632 41.1507 7.48C40.8387 7.32 40.4907 7.24 40.1067 7.24C39.5547 7.24 39.0827 7.416 38.6907 7.768C38.3067 8.12 38.0867 8.608 38.0307 9.232H42.1827ZM44.3441 9.688C44.3441 9.016 44.4801 8.428 44.7521 7.924C45.0241 7.412 45.3961 7.016 45.8681 6.736C46.3481 6.456 46.8841 6.316 47.4761 6.316C47.9881 6.316 48.4641 6.436 48.9041 6.676C49.3441 6.908 49.6801 7.216 49.9121 7.6V4.12H51.0161V13H49.9121V11.764C49.6961 12.156 49.3761 12.48 48.9521 12.736C48.5281 12.984 48.0321 13.108 47.4641 13.108C46.8801 13.108 46.3481 12.964 45.8681 12.676C45.3961 12.388 45.0241 11.984 44.7521 11.464C44.4801 10.944 44.3441 10.352 44.3441 9.688ZM49.9121 9.7C49.9121 9.204 49.8121 8.772 49.6121 8.404C49.4121 8.036 49.1401 7.756 48.7961 7.564C48.4601 7.364 48.0881 7.264 47.6801 7.264C47.2721 7.264 46.9001 7.36 46.5641 7.552C46.2281 7.744 45.9601 8.024 45.7601 8.392C45.5601 8.76 45.4601 9.192 45.4601 9.688C45.4601 10.192 45.5601 10.632 45.7601 11.008C45.9601 11.376 46.2281 11.66 46.5641 11.86C46.9001 12.052 47.2721 12.148 47.6801 12.148C48.0881 12.148 48.4601 12.052 48.7961 11.86C49.1401 11.66 49.4121 11.376 49.6121 11.008C49.8121 10.632 49.9121 10.196 49.9121 9.7ZM57.1527 7.648C57.3767 7.256 57.7047 6.936 58.1367 6.688C58.5687 6.44 59.0607 6.316 59.6127 6.316C60.2047 6.316 60.7367 6.456 61.2087 6.736C61.6807 7.016 62.0527 7.412 62.3247 7.924C62.5967 8.428 62.7327 9.016 62.7327 9.688C62.7327 10.352 62.5967 10.944 62.3247 11.464C62.0527 11.984 61.6767 12.388 61.1967 12.676C60.7247 12.964 60.1967 13.108 59.6127 13.108C59.0447 13.108 58.5447 12.984 58.1127 12.736C57.6887 12.488 57.3687 12.172 57.1527 11.788V13H56.0607V4.12H57.1527V7.648ZM61.6167 9.688C61.6167 9.192 61.5167 8.76 61.3167 8.392C61.1167 8.024 60.8447 7.744 60.5007 7.552C60.1647 7.36 59.7927 7.264 59.3847 7.264C58.9847 7.264 58.6127 7.364 58.2687 7.564C57.9327 7.756 57.6607 8.04 57.4527 8.416C57.2527 8.784 57.1527 9.212 57.1527 9.7C57.1527 10.196 57.2527 10.632 57.4527 11.008C57.6607 11.376 57.9327 11.66 58.2687 11.86C58.6127 12.052 58.9847 12.148 59.3847 12.148C59.7927 12.148 60.1647 12.052 60.5007 11.86C60.8447 11.66 61.1167 11.376 61.3167 11.008C61.5167 10.632 61.6167 10.192 61.6167 9.688ZM69.8341 6.424L65.8741 16.096H64.7461L66.0421 12.928L63.3901 6.424H64.6021L66.6661 11.752L68.7061 6.424H69.8341Z" fill="#2F2F2F"/>
</svg>
