<svg width="16" height="15" viewBox="0 0 16 15" fill="none" xmlns="http://www.w3.org/2000/svg">
<g opacity="0.9">
<path d="M7.50103 9.19332C7.1594 9.14526 6.888 9.0905 6.56261 9.02906C6.46427 9.01049 6.39579 8.91947 6.40434 8.8192C6.44566 8.33441 6.5616 7.80816 6.73873 7.37695C6.27472 7.37695 5.96374 7.37695 5.45246 7.37695L4.65961 12.5087C4.6044 12.6807 4.57422 12.864 4.57422 13.0545C4.57422 14.035 5.36462 14.8298 6.33961 14.8298C7.53389 14.8298 8.38833 13.6573 8.0196 12.5087L7.50103 9.19332Z" fill="#E0B377"/>
<path d="M5.20242 13.0545C5.20242 12.864 5.23257 12.6807 5.28778 12.5087L6.08062 7.37695C5.89107 7.37695 5.6942 7.37695 5.45243 7.37695L4.65958 12.5087C4.60437 12.6807 4.57422 12.864 4.57422 13.0545C4.57422 14.035 5.36462 14.8298 6.33961 14.8298C6.44804 14.8298 6.5536 14.82 6.65575 14.8016C5.82967 14.6533 5.20242 13.9278 5.20242 13.0545Z" fill="#CC9A5E"/>
<path d="M12.2026 13.1327L11.6232 9.42822C11.1539 9.42822 10.7956 9.42822 10.3264 9.42822L9.74691 13.1327C9.47767 13.9714 10.101 14.8291 10.9748 14.8291C11.8476 14.8291 12.4721 13.9722 12.2026 13.1327Z" fill="#E0B377"/>
<path d="M10.3751 13.1327L10.9546 9.42822C10.7544 9.42822 10.5533 9.42822 10.3264 9.42822L9.74691 13.1327C9.47767 13.9714 10.101 14.8291 10.9748 14.8291C11.0837 14.8291 11.1889 14.8157 11.2888 14.7907C10.5876 14.6153 10.1395 13.8667 10.3751 13.1327Z" fill="#CC9A5E"/>
<path d="M12.2237 4.71867C11.2698 2.39563 8.99528 0.760742 6.34079 0.760742C3.01233 0.760742 0.280962 3.33105 0.00196022 6.60562C-0.00972845 6.74278 0.0839641 6.86735 0.218521 6.89277C2.32825 7.29116 4.53134 7.45962 6.67714 7.43973C7.56511 5.27795 9.92757 4.07653 12.2237 4.71867Z" fill="#A06E4B"/>
<path d="M0.679384 6.74333C0.948926 3.50538 3.50725 0.940436 6.68153 0.770041C6.56837 0.764026 6.45447 0.760742 6.33982 0.760742C3.01132 0.760742 0.279986 3.33105 0.000983659 6.60562C-0.010705 6.74278 0.0829875 6.86735 0.217545 6.89277C0.409935 6.9291 0.603332 6.96286 0.797156 6.99539C0.718571 6.9411 0.67087 6.84575 0.679384 6.74333Z" fill="#93603E"/>
<path d="M14.1452 5.78094C11.3151 3.1431 6.65761 4.92506 6.32599 8.81728C6.31668 8.92639 6.39023 9.02386 6.49702 9.044C9.34322 9.58148 12.6296 9.58019 15.4743 9.03976C15.5679 9.02199 15.6326 8.93612 15.6249 8.84006C15.5308 7.66899 15.0053 6.58258 14.1452 5.78094Z" fill="#93603E"/>
<path d="M6.97079 9.004C7.18369 6.39655 9.17937 4.69687 11.3298 4.54213C8.94926 4.37462 6.56007 6.07013 6.32599 8.81737C6.31668 8.92648 6.39023 9.02395 6.49702 9.04408C6.66231 9.07529 6.82924 9.10451 6.99734 9.1321C6.97708 9.09445 6.967 9.05028 6.97079 9.004Z" fill="#7F573C"/>
<path d="M3.38586 2.69335C2.291 3.60793 1.71999 4.7684 1.43376 5.58085C1.19254 6.26552 1.10776 6.81753 1.08105 7.04163C1.23615 7.06612 1.3917 7.08923 1.54753 7.11139C1.59734 6.68946 1.93341 4.52263 3.68696 3.05783C3.78703 2.97423 3.80076 2.82489 3.71763 2.72422C3.6345 2.62356 3.48596 2.60975 3.38586 2.69335Z" fill="#93603E"/>
<path d="M3.15066 5.7909C3.03362 5.73378 2.89268 5.78295 2.83589 5.90068C2.8267 5.91974 2.61792 6.36024 2.48926 7.2313C2.64545 7.24874 2.8018 7.26522 2.95836 7.28041C3.07482 6.50734 3.25622 6.11515 3.2601 6.10683C3.31644 5.98922 3.26755 5.84789 3.15066 5.7909Z" fill="#93603E"/>
<path d="M14.2225 7.69913C14.1699 7.57959 14.031 7.5256 13.9121 7.5783C13.7931 7.63099 13.7392 7.77076 13.7914 7.89042C13.7941 7.89656 14.0411 8.4713 14.093 9.25603C14.2499 9.23645 14.4058 9.21509 14.5609 9.1925C14.4993 8.33817 14.2347 7.72687 14.2225 7.69913Z" fill="#7F573C"/>
</g>
</svg>
