<svg width="32" height="20" viewBox="0 0 32 20" fill="none" xmlns="http://www.w3.org/2000/svg">
<path fill-rule="evenodd" clip-rule="evenodd" d="M1.59995 19.8C0.839951 19.8 0.199951 19.16 0.199951 18.4V1.60001C0.199951 0.840012 0.839951 0.200012 1.59995 0.200012H30.4C31.16 0.200012 31.7999 0.840012 31.7999 1.60001V18.4C31.7999 19.16 31.16 19.8 30.4 19.8H1.59995Z" fill="white"/>
<path d="M30.4 0.4C31.06 0.4 31.6 0.94 31.6 1.6V18.4C31.6 19.06 31.06 19.6 30.4 19.6H1.6C0.94 19.6 0.4 19.06 0.4 18.4V1.6C0.4 0.94 0.94 0.4 1.6 0.4H30.4ZM30.4 0H1.6C0.72 0 0 0.72 0 1.6V18.4C0 19.28 0.72 20 1.6 20H30.4C31.28 20 32 19.28 32 18.4V1.6C32 0.72 31.28 0 30.4 0Z" fill="#E6E6E6"/>
<path d="M15.88 6.29999L14.3 13.7H12.38L13.96 6.29999H15.88ZM23.94 11.08L24.94 8.29999L25.52 11.08H23.94ZM26.08 13.72H27.86L26.32 6.31999H24.68C24.32 6.31999 24 6.53999 23.86 6.85999L20.98 13.72H23L23.4 12.62H25.86L26.08 13.72ZM21.08 11.3C21.08 9.33999 18.38 9.23999 18.4 8.35999C18.4 8.09999 18.66 7.81999 19.22 7.73999C19.5 7.69999 20.26 7.67999 21.1 8.07999L21.44 6.49999C20.98 6.33999 20.38 6.17999 19.64 6.17999C17.74 6.17999 16.42 7.17999 16.4 8.61999C16.38 9.67999 17.36 10.28 18.08 10.64C18.82 11 19.08 11.24 19.08 11.56C19.08 12.06 18.48 12.28 17.94 12.28C16.98 12.3 16.42 12.02 15.98 11.82L15.64 13.44C16.08 13.64 16.92 13.82 17.78 13.84C19.76 13.82 21.08 12.84 21.08 11.3ZM13.14 6.29999L10.04 13.7H8.01999L6.47999 7.79999C6.37999 7.43999 6.29999 7.29999 6.01999 7.13999C5.55999 6.89999 4.79999 6.65999 4.12 6.51999L4.15999 6.29999H7.41999C7.83999 6.29999 8.19999 6.57999 8.29999 7.05999L9.09999 11.34L11.1 6.29999H13.14Z" fill="url(#paint0_linear)"/>
<path fill-rule="evenodd" clip-rule="evenodd" d="M1.59995 19.8C0.839951 19.8 0.199951 19.16 0.199951 18.4V1.60001C0.199951 0.840012 0.839951 0.200012 1.59995 0.200012H30.4C31.16 0.200012 31.7999 0.840012 31.7999 1.60001V18.4C31.7999 19.16 31.16 19.8 30.4 19.8H1.59995Z" fill="black"/>
<path d="M30.4 0.4C31.06 0.4 31.6 0.94 31.6 1.6V18.4C31.6 19.06 31.06 19.6 30.4 19.6H1.6C0.94 19.6 0.4 19.06 0.4 18.4V1.6C0.4 0.94 0.94 0.4 1.6 0.4H30.4ZM30.4 0H1.6C0.72 0 0 0.72 0 1.6V18.4C0 19.28 0.72 20 1.6 20H30.4C31.28 20 32 19.28 32 18.4V1.6C32 0.72 31.28 0 30.4 0Z" fill="#E6E6E6"/>
<path d="M10.04 17.24V16.28C10.04 15.92 9.8 15.68 9.44 15.66C9.24 15.66 9.04 15.72 8.9 15.94C8.8 15.76 8.62 15.66 8.4 15.66C8.24 15.66 8.08 15.7 7.96 15.88V15.7H7.62V17.24H7.96V16.4C7.96 16.14 8.1 16 8.34 16C8.56 16 8.68 16.14 8.68 16.4V17.26H9V16.4C9 16.14 9.16 16 9.38 16C9.6 16 9.72 16.14 9.72 16.4V17.26H10.04V17.24ZM15.04 15.7H14.5V15.24H14.16V15.7H13.84V16H14.16V16.7C14.16 17.06 14.3 17.26 14.7 17.26C14.84 17.26 15.02 17.22 15.12 17.14L15.02 16.86C14.92 16.92 14.82 16.94 14.72 16.94C14.56 16.94 14.5 16.84 14.5 16.68V15.98H15.04V15.7ZM17.88 15.66C17.68 15.66 17.56 15.76 17.48 15.88V15.7H17.14V17.24H17.48V16.38C17.48 16.12 17.58 15.98 17.8 15.98C17.86 15.98 17.94 15.98 18 16.02L18.1 15.7C18.06 15.68 17.96 15.66 17.88 15.66ZM13.58 15.82C13.42 15.72 13.2 15.66 12.96 15.66C12.58 15.66 12.32 15.84 12.32 16.16C12.32 16.42 12.5 16.56 12.84 16.62L13 16.64C13.18 16.66 13.26 16.72 13.26 16.8C13.26 16.92 13.14 16.98 12.92 16.98C12.68 16.98 12.52 16.9 12.4 16.82L12.24 17.08C12.42 17.22 12.66 17.28 12.9 17.28C13.34 17.28 13.6 17.08 13.6 16.78C13.6 16.52 13.4 16.36 13.06 16.32L12.9 16.3C12.76 16.28 12.64 16.26 12.64 16.14C12.64 16.02 12.74 15.96 12.94 15.96C13.14 15.96 13.32 16.04 13.42 16.1L13.58 15.82ZM22.54 15.66C22.34 15.66 22.22 15.76 22.14 15.88V15.7H21.8V17.24H22.14V16.38C22.14 16.12 22.24 15.98 22.46 15.98C22.52 15.98 22.6 15.98 22.66 16.02L22.76 15.7C22.7 15.68 22.6 15.66 22.54 15.66ZM18.22 16.48C18.22 16.94 18.54 17.28 19.04 17.28C19.28 17.28 19.42 17.22 19.6 17.1L19.44 16.84C19.32 16.94 19.18 16.98 19.04 16.98C18.78 16.98 18.58 16.78 18.58 16.48C18.58 16.18 18.78 16 19.04 15.98C19.18 15.98 19.32 16.02 19.44 16.12L19.6 15.86C19.44 15.72 19.28 15.68 19.04 15.68C18.56 15.66 18.22 16 18.22 16.48ZM21.36 16.48V15.72H21.02V15.9C20.92 15.76 20.76 15.68 20.54 15.68C20.1 15.68 19.78 16.02 19.78 16.48C19.78 16.94 20.12 17.28 20.54 17.28C20.76 17.28 20.92 17.2 21.02 17.06V17.24H21.36V16.48ZM20.12 16.48C20.12 16.22 20.3 15.98 20.58 15.98C20.86 15.98 21.04 16.2 21.04 16.48C21.04 16.76 20.86 16.98 20.58 16.98C20.28 16.96 20.12 16.74 20.12 16.48ZM16.08 15.66C15.64 15.66 15.32 15.98 15.32 16.46C15.32 16.94 15.64 17.26 16.1 17.26C16.34 17.26 16.54 17.2 16.72 17.04L16.56 16.8C16.44 16.9 16.26 16.96 16.12 16.96C15.9 16.96 15.7 16.86 15.66 16.58H16.8V16.46C16.8 16 16.52 15.66 16.08 15.66ZM16.08 15.96C16.3 15.96 16.44 16.1 16.46 16.34H15.66C15.7 16.12 15.84 15.96 16.08 15.96ZM24.46 16.48V15.1H24.12V15.9C24.02 15.76 23.86 15.68 23.64 15.68C23.2 15.68 22.88 16.02 22.88 16.48C22.88 16.94 23.22 17.28 23.64 17.28C23.86 17.28 24.02 17.2 24.12 17.06V17.24H24.46V16.48ZM23.22 16.48C23.22 16.22 23.4 15.98 23.68 15.98C23.96 15.98 24.14 16.2 24.14 16.48C24.14 16.76 23.96 16.98 23.68 16.98C23.38 16.96 23.22 16.74 23.22 16.48ZM11.92 16.48V15.72H11.6V15.9C11.5 15.76 11.34 15.68 11.12 15.68C10.68 15.68 10.36 16.02 10.36 16.48C10.36 16.94 10.7 17.28 11.12 17.28C11.34 17.28 11.5 17.2 11.6 17.06V17.24H11.94V16.48H11.92ZM10.68 16.48C10.68 16.22 10.86 15.98 11.14 15.98C11.42 15.98 11.6 16.2 11.6 16.48C11.6 16.76 11.42 16.98 11.14 16.98C10.86 16.96 10.68 16.74 10.68 16.48ZM25.02 17.02C25.04 17.02 25.06 17.02 25.08 17.04C25.1 17.04 25.12 17.06 25.12 17.08C25.14 17.1 25.14 17.12 25.16 17.12C25.16 17.14 25.18 17.16 25.18 17.18C25.18 17.2 25.18 17.22 25.16 17.24C25.16 17.26 25.14 17.28 25.12 17.28C25.1 17.3 25.08 17.3 25.08 17.32C25.06 17.32 25.04 17.34 25.02 17.34C25 17.34 24.98 17.34 24.96 17.32C24.94 17.32 24.92 17.3 24.92 17.28L24.88 17.24C24.88 17.22 24.86 17.2 24.86 17.18C24.86 17.16 24.86 17.14 24.88 17.12C24.88 17.1 24.9 17.08 24.92 17.08C24.94 17.06 24.96 17.06 24.96 17.04C24.98 17.02 25 17.02 25.02 17.02ZM25.02 17.3H25.06C25.08 17.3 25.08 17.28 25.1 17.28C25.12 17.26 25.12 17.26 25.12 17.24V17.16C25.12 17.14 25.1 17.14 25.1 17.12C25.08 17.1 25.08 17.1 25.06 17.1H24.98C24.96 17.1 24.96 17.12 24.94 17.12C24.92 17.14 24.92 17.14 24.92 17.16V17.24C24.92 17.26 24.94 17.26 24.94 17.28C24.96 17.3 24.96 17.3 24.98 17.3C24.98 17.28 25 17.3 25.02 17.3ZM25.02 17.1C25.04 17.1 25.06 17.1 25.06 17.12C25.06 17.12 25.08 17.14 25.08 17.16C25.08 17.18 25.08 17.18 25.06 17.18C25.06 17.18 25.04 17.2 25.02 17.2L25.06 17.26H25.02L24.98 17.2H24.96V17.26H24.92V17.12H25.02V17.1ZM24.98 17.12V17.16H25.04V17.12H24.98Z" fill="white"/>
<path d="M13.46 4H18.52V13.1H13.46V4Z" fill="#F16522"/>
<path d="M13.8 8.53995C13.8 6.69995 14.66 5.05995 16 3.99995C15.02 3.21995 13.78 2.75995 12.42 2.75995C9.22001 2.75995 6.64001 5.33995 6.64001 8.53995C6.64001 11.7399 9.22001 14.3199 12.42 14.3199C13.76 14.3199 15.02 13.8599 16 13.0799C14.66 12.0399 13.8 10.3999 13.8 8.53995Z" fill="#E41B24"/>
<path d="M25.36 8.53995C25.36 11.7399 22.78 14.3199 19.58 14.3199C18.24 14.3199 16.98 13.8599 16 13.0799C17.34 12.0199 18.2 10.3799 18.2 8.53995C18.2 6.69995 17.34 5.05995 16 3.99995C16.98 3.21995 18.22 2.75995 19.58 2.75995C22.76 2.75995 25.36 5.35995 25.36 8.53995ZM24.8 12.1399V11.9599H24.88V11.9199H24.68V11.9599H24.76V12.1399H24.8ZM25.18 12.1399V11.9199H25.12L25.06 12.0799L25 11.9199H24.94V12.1399H24.98V11.9799L25.04 12.1199H25.08L25.14 11.9799V12.1399H25.18Z" fill="#F89E1C"/>
<defs>
<linearGradient id="paint0_linear" x1="6.70139" y1="11.801" x2="26.6936" y2="7.95939" gradientUnits="userSpaceOnUse">
<stop stop-color="#22275D"/>
<stop offset="1" stop-color="#24479B"/>
</linearGradient>
</defs>
</svg>
