<svg width="278" height="212" viewBox="0 0 278 212" fill="none" xmlns="http://www.w3.org/2000/svg">
<g clip-path="url(#clip0)">
<path d="M278 177.037H86.3586V177.722H278V177.037Z" fill="#3F3D56"/>
<path d="M212.17 211.315H20.5286V212H212.17V211.315Z" fill="#3F3D56"/>
<path d="M224.161 140.506C250.434 169.629 174.274 211.6 112.736 211.6C51.1969 211.6 8.62168 179.08 1.30986 140.506C-16.4188 46.9778 152.362 -12.4685 112.736 69.4127C54.9751 188.764 203.471 117.571 224.161 140.506Z" fill="#3F3D56"/>
<path d="M81.5263 49.8676C82.7624 49.8676 83.7644 48.8631 83.7644 47.6241C83.7644 46.3851 82.7624 45.3807 81.5263 45.3807C80.2902 45.3807 79.2881 46.3851 79.2881 47.6241C79.2881 48.8631 80.2902 49.8676 81.5263 49.8676Z" fill="#D3DBC7"/>
<path d="M51.1867 184.225C52.4228 184.225 53.4248 183.221 53.4248 181.982C53.4248 180.743 52.4228 179.738 51.1867 179.738C49.9506 179.738 48.9485 180.743 48.9485 181.982C48.9485 183.221 49.9506 184.225 51.1867 184.225Z" fill="#D3DBC7"/>
<path d="M85.5052 81.5251C86.0546 81.5251 86.5 81.0787 86.5 80.528C86.5 79.9773 86.0546 79.5309 85.5052 79.5309C84.9559 79.5309 84.5105 79.9773 84.5105 80.528C84.5105 81.0787 84.9559 81.5251 85.5052 81.5251Z" fill="#D3DBC7"/>
<path d="M33.2814 133.374C33.8307 133.374 34.2761 132.927 34.2761 132.377C34.2761 131.826 33.8307 131.38 33.2814 131.38C32.732 131.38 32.2866 131.826 32.2866 132.377C32.2866 132.927 32.732 133.374 33.2814 133.374Z" fill="#D3DBC7"/>
<path d="M164.09 170.764C164.639 170.764 165.085 170.318 165.085 169.767C165.085 169.217 164.639 168.77 164.09 168.77C163.541 168.77 163.095 169.217 163.095 169.767C163.095 170.318 163.541 170.764 164.09 170.764Z" fill="#D3DBC7"/>
<path d="M30.0484 82.5222C30.5978 82.5222 31.0432 82.0758 31.0432 81.5251C31.0432 80.9744 30.5978 80.528 30.0484 80.528C29.4991 80.528 29.0537 80.9744 29.0537 81.5251C29.0537 82.0758 29.4991 82.5222 30.0484 82.5222Z" fill="#D3DBC7"/>
<path d="M90.479 55.1024H89.9817V54.6037H89.7329V55.1024H89.2356V55.3515H89.7329V55.8502H89.9817V55.3515H90.479V55.1024Z" fill="#D3DBC7"/>
<path d="M52.4299 63.3284H51.9326V62.8297H51.6838V63.3284H51.1865V63.5775H51.6838V64.076H51.9326V63.5775H52.4299V63.3284Z" fill="#D3DBC7"/>
<path d="M27.5615 110.191H27.0642V109.693H26.8154V110.191H26.3181V110.441H26.8154V110.939H27.0642V110.441H27.5615V110.191Z" fill="#D3DBC7"/>
<path d="M97.442 192.202C97.9914 192.202 98.4368 191.755 98.4368 191.205C98.4368 190.654 97.9914 190.208 97.442 190.208C96.8926 190.208 96.4473 190.654 96.4473 191.205C96.4473 191.755 96.8926 192.202 97.442 192.202Z" fill="#D3DBC7"/>
<path d="M94.2093 141.35C94.7587 141.35 95.2041 140.904 95.2041 140.353C95.2041 139.803 94.7587 139.356 94.2093 139.356C93.66 139.356 93.2146 139.803 93.2146 140.353C93.2146 140.904 93.66 141.35 94.2093 141.35Z" fill="#D3DBC7"/>
<path d="M211.837 159.797C212.387 159.797 212.832 159.35 212.832 158.799C212.832 158.249 212.387 157.802 211.837 157.802C211.288 157.802 210.843 158.249 210.843 158.799C210.843 159.35 211.288 159.797 211.837 159.797Z" fill="#D3DBC7"/>
<path d="M91.7224 169.02H91.2251V168.521H90.9766V169.02H90.479V169.269H90.9766V169.767H91.2251V169.269H91.7224V169.02Z" fill="#D3DBC7"/>
<path d="M139.968 186.718H139.47V186.219H139.221V186.718H138.724V186.967H139.221V187.466H139.47V186.967H139.968V186.718Z" fill="#D3DBC7"/>
<path d="M18.1113 142.347H17.614V141.849H17.3652V142.347H16.8679V142.597H17.3652V143.095H17.614V142.597H18.1113V142.347Z" fill="#D3DBC7"/>
<path d="M87.2461 106.452H86.7488V105.954H86.5V106.452H86.0027V106.702H86.5V107.2H86.7488V106.702H87.2461V106.452Z" fill="#D3DBC7"/>
<path d="M56.6577 77.0381H56.1604V76.5396H55.9116V77.0381H55.4143V77.2875H55.9116V77.786H56.1604V77.2875H56.6577V77.0381Z" fill="#D3DBC7"/>
<path d="M77.0498 126.145H76.5525V125.646H76.3037V126.145H75.8064V126.394H76.3037V126.893H76.5525V126.394H77.0498V126.145Z" fill="#D3DBC7"/>
<path d="M47.2077 157.055H46.7104V156.556H46.4617V157.055H45.9644V157.304H46.4617V157.802H46.7104V157.304H47.2077V157.055Z" fill="#D3DBC7"/>
<path d="M57.4039 114.928C65.5073 114.928 72.0764 113.923 72.0764 112.684C72.0764 111.445 65.5073 110.441 57.4039 110.441C49.3005 110.441 42.7314 111.445 42.7314 112.684C42.7314 113.923 49.3005 114.928 57.4039 114.928Z" fill="#67833E"/>
<path d="M58.8957 113.432C52.8979 113.432 43.9746 112.768 43.9746 110.939C43.9746 109.11 52.8979 108.446 58.8957 108.446C64.8936 108.446 73.8169 109.11 73.8169 110.939C73.8169 112.768 64.8936 113.432 58.8957 113.432ZM58.8957 108.945C54.9887 108.945 51.3174 109.177 48.5583 109.599C45.326 110.093 44.472 110.692 44.472 110.939C44.472 111.186 45.326 111.785 48.5583 112.279C51.3174 112.701 54.9887 112.933 58.8957 112.933C62.8028 112.933 66.4741 112.701 69.2332 112.279C72.4655 111.785 73.3195 111.186 73.3195 110.939C73.3195 110.692 72.4655 110.093 69.2332 109.599C66.4741 109.177 62.8028 108.945 58.8957 108.945Z" fill="#D3DBC7"/>
<path d="M58.8959 74.5455C53.6767 74.5455 49.4458 75.7951 49.4458 81.0266C49.4458 86.258 53.6767 107.2 58.8959 107.2C64.115 107.2 68.3459 86.258 68.3459 81.0266C68.3459 75.7951 64.115 74.5455 58.8959 74.5455ZM58.8959 88.0062C58.1089 88.0062 57.3396 87.7723 56.6853 87.334C56.0309 86.8958 55.5209 86.2729 55.2198 85.5441C54.9186 84.8153 54.8398 84.0134 54.9934 83.2397C55.1469 82.4661 55.5258 81.7554 56.0823 81.1976C56.6388 80.6398 57.3478 80.26 58.1196 80.1061C58.8915 79.9522 59.6915 80.0312 60.4186 80.3331C61.1456 80.6349 61.7671 81.1461 62.2043 81.802C62.6415 82.4579 62.8748 83.229 62.8748 84.0178C62.8748 84.5416 62.7719 85.0602 62.572 85.5441C62.372 86.028 62.0789 86.4677 61.7094 86.838C61.3399 87.2084 60.9013 87.5021 60.4185 87.7026C59.9358 87.903 59.4184 88.0062 58.8959 88.0062Z" fill="#67833E"/>
<path d="M235.522 131.584C214.832 108.649 66.3357 179.841 124.096 60.49C149.843 7.28902 87.6101 13.7508 45.7175 50.4577C86.2848 22.5364 135.252 21.7317 111.911 69.9623C54.1501 189.314 202.646 118.121 223.337 141.056C232.964 151.728 228.836 164.125 216.714 175.549C237.549 161.861 247.894 145.298 235.522 131.584Z" fill="#D3DBC7"/>
<path d="M113.759 211.144L113.439 211.024C113.368 210.997 106.371 208.31 103.093 202.217C99.8153 196.124 101.42 188.787 101.437 188.714L101.512 188.38L101.832 188.5C101.903 188.527 108.9 191.214 112.178 197.307C115.456 203.4 113.851 210.737 113.834 210.81L113.759 211.144ZM103.618 201.933C106.389 207.085 111.919 209.726 113.32 210.329C113.586 208.824 114.422 202.737 111.653 197.59C108.884 192.444 103.353 189.799 101.951 189.195C101.685 190.701 100.849 196.787 103.618 201.933H103.618Z" fill="#D3DBC7"/>
<path d="M105.598 200.378C111.489 203.931 113.758 210.987 113.758 210.987C113.758 210.987 106.476 212.283 100.585 208.731C94.6942 205.179 92.4255 198.123 92.4255 198.123C92.4255 198.123 99.7075 196.826 105.598 200.378Z" fill="#67833E"/>
<path d="M188.252 71.3834C188.252 71.3834 174.754 84.6423 180.423 86.2658C186.092 87.8893 192.571 74.0893 192.571 74.0893L188.252 71.3834Z" fill="#FFB9B9"/>
<path d="M201.75 116.031L200.13 123.607L212.278 124.148L210.388 116.031H201.75Z" fill="#FFB9B9"/>
<path d="M240.083 162.843L238.463 170.419L250.611 170.96L248.721 162.843H240.083Z" fill="#FFB9B9"/>
<path d="M218.757 65.4304L219.837 69.7598C219.837 69.7598 189.872 63.8069 191.492 78.9599C193.111 94.1129 200.13 108.725 200.13 108.725C200.13 108.725 199.59 113.595 200.67 114.407C201.75 115.219 200.67 117.925 200.67 117.925C200.67 117.925 210.658 119.278 210.928 116.842C211.073 115.214 210.982 113.574 210.658 111.972C210.658 111.972 211.198 111.972 210.658 109.266C210.118 106.56 207.937 84.7376 206.318 81.7612C206.318 81.7612 220.647 92.7599 228.205 91.407C228.205 91.407 227.125 102.231 231.445 116.572C235.764 130.913 235.764 132.537 235.764 132.537C235.764 132.537 240.893 159.866 239.543 163.113L239.273 164.466H249.262C249.262 164.466 248.452 150.125 249.262 148.231C250.071 146.337 250.071 130.101 245.482 121.984C242.232 116.235 242.838 99.5667 244.615 92.9784C246.108 87.4457 246.485 83.1875 245.61 77.5235C244.674 71.4666 241.88 68.3005 238.463 65.4304H218.757Z" fill="#2F2E41"/>
<path d="M226.72 24.7067C232.088 24.7067 236.439 20.3454 236.439 14.9655C236.439 9.58554 232.088 5.22424 226.72 5.22424C221.353 5.22424 217.002 9.58554 217.002 14.9655C217.002 20.3454 221.353 24.7067 226.72 24.7067Z" fill="#FFB9B9"/>
<path d="M224.156 21.8655C224.156 21.8655 227.125 30.5243 226.855 32.1479C226.585 33.7714 235.494 28.9008 235.494 28.9008C235.494 28.9008 231.984 20.2419 233.064 17.8066L224.156 21.8655Z" fill="#FFB9B9"/>
<path d="M234.954 25.9243L225.506 29.7126L226.045 32.9597C226.045 32.9597 225.236 34.042 225.506 34.5832C225.775 35.1244 221.996 37.2891 222.536 38.1009C223.076 38.9126 219.297 42.1597 219.567 42.9715C219.837 43.7833 210.928 48.6539 215.787 58.1245C215.787 58.1245 218.307 61.4074 217.991 65.2896C217.98 65.426 217.965 65.5632 217.947 65.701C217.407 69.7599 238.463 65.1598 238.463 65.1598V60.5598C238.463 60.5598 240.353 59.748 240.083 56.2304C239.813 52.7127 238.193 54.3362 240.083 52.4421C241.973 50.548 241.973 50.8186 241.703 49.195C241.595 48.5467 241.573 46.2156 241.586 43.649C241.611 38.2261 239.849 32.9466 236.574 28.6302L234.954 25.9243Z" fill="#D3DBC7"/>
<path d="M229.825 32.9597L212.278 51.3597L186.632 71.654L192.301 76.254L239.543 44.595C239.543 44.595 243.592 27.2773 229.825 32.9597Z" fill="#D3DBC7"/>
<path d="M202.56 120.089C202.56 120.089 200.67 116.842 199.32 117.925L189.872 125.501C189.872 125.501 173.135 130.372 189.332 134.16C189.332 134.16 198.24 135.513 200.13 134.16C202.02 132.807 204.989 133.078 205.799 133.619C206.609 134.16 216.867 133.348 216.867 131.184C216.867 129.019 211.209 119.558 211.209 119.558C211.209 119.558 207.959 123.337 202.56 120.089Z" fill="#2F2E41"/>
<path d="M240.893 166.901C240.893 166.901 239.003 163.654 237.653 164.737L228.205 172.313C228.205 172.313 211.468 177.184 227.665 180.972C227.665 180.972 236.573 182.325 238.463 180.972C240.353 179.619 243.322 179.89 244.132 180.431C244.942 180.972 255.2 180.16 255.2 177.996C255.2 175.831 249.542 166.37 249.542 166.37C249.542 166.37 246.292 170.149 240.893 166.901Z" fill="#2F2E41"/>
<path d="M215.074 11.1023C215.074 11.1023 216.717 -3.37605 230.771 0.73481C230.771 0.73481 240.713 -1.29221 244.224 11.1543L247.788 24.2036L246.157 23.3537L245.436 25.0175L242.832 25.732L241.67 23.5261L241.18 26.2415L223.199 29.8855C223.199 29.8855 229.28 22.9211 229.237 12.721L227.446 14.6927L215.074 11.1023Z" fill="#2F2E41"/>
<path d="M150.164 139.356C164.722 139.356 176.524 137.794 176.524 135.866C176.524 133.939 164.722 132.377 150.164 132.377C135.605 132.377 123.803 133.939 123.803 135.866C123.803 137.794 135.605 139.356 150.164 139.356Z" fill="#2F2E41"/>
<path d="M164.484 93.669H164.172V85.1C164.172 84.4487 164.044 83.8038 163.796 83.2021C163.547 82.6004 163.182 82.0536 162.723 81.5931C162.264 81.1326 161.718 80.7673 161.118 80.518C160.517 80.2688 159.874 80.1405 159.224 80.1405H141.112C140.463 80.1405 139.819 80.2688 139.219 80.518C138.619 80.7673 138.073 81.1326 137.614 81.5931C137.154 82.0536 136.79 82.6004 136.541 83.2021C136.293 83.8038 136.165 84.4487 136.165 85.1V132.11C136.165 132.762 136.293 133.407 136.541 134.008C136.79 134.61 137.154 135.157 137.614 135.617C138.073 136.078 138.619 136.443 139.219 136.692C139.819 136.942 140.463 137.07 141.112 137.07H159.224C159.874 137.07 160.517 136.942 161.118 136.692C161.718 136.443 162.264 136.078 162.723 135.617C163.182 135.157 163.547 134.61 163.796 134.008C164.044 133.407 164.172 132.762 164.172 132.11V99.7686H164.484V93.669Z" fill="#3F3D56"/>
<path d="M159.307 81.5481H156.943C157.052 81.8153 157.093 82.1052 157.064 82.3923C157.034 82.6793 156.935 82.9547 156.774 83.1942C156.614 83.4337 156.397 83.6299 156.143 83.7656C155.889 83.9013 155.605 83.9723 155.317 83.9723H144.941C144.653 83.9723 144.37 83.9013 144.116 83.7656C143.862 83.6299 143.645 83.4337 143.484 83.1942C143.324 82.9547 143.225 82.6793 143.195 82.3923C143.166 82.1052 143.207 81.8153 143.316 81.5481H141.108C140.623 81.5481 140.142 81.6439 139.694 81.8301C139.246 82.0162 138.838 82.289 138.495 82.6329C138.152 82.9769 137.88 83.3851 137.694 83.8345C137.508 84.2839 137.413 84.7655 137.413 85.2518V132.193C137.413 132.68 137.508 133.161 137.694 133.611C137.88 134.06 138.152 134.468 138.495 134.812C138.838 135.156 139.246 135.429 139.694 135.615C140.142 135.801 140.623 135.897 141.108 135.897H159.307C159.792 135.897 160.273 135.801 160.721 135.615C161.169 135.429 161.577 135.156 161.92 134.812C162.263 134.468 162.535 134.06 162.721 133.611C162.906 133.161 163.002 132.68 163.002 132.193V85.2518C163.002 84.7655 162.906 84.2839 162.721 83.8345C162.535 83.3851 162.263 82.9769 161.92 82.6329C161.577 82.289 161.169 82.0162 160.721 81.8301C160.273 81.6439 159.792 81.5481 159.307 81.5481Z" fill="#67833E"/>
<path d="M146.185 103.461C149.069 103.461 151.407 101.117 151.407 98.2264C151.407 95.3353 149.069 92.9917 146.185 92.9917C143.3 92.9917 140.962 95.3353 140.962 98.2264C140.962 101.117 143.3 103.461 146.185 103.461Z" fill="#D3DBC7"/>
<path d="M159.76 105.823L153.443 99.4917C154.219 98.3061 154.528 96.8742 154.312 95.473C154.096 94.0718 153.368 92.8008 152.271 91.906C151.174 91.0111 149.784 90.5559 148.372 90.6285C146.959 90.7011 145.623 91.2962 144.623 92.2988C143.623 93.3015 143.029 94.6403 142.957 96.0563C142.884 97.4724 143.338 98.865 144.231 99.9649C145.124 101.065 146.392 101.794 147.79 102.011C149.188 102.228 150.616 101.917 151.799 101.139L158.116 107.471L159.76 105.823ZM145.787 99.2324C145.218 98.6621 144.83 97.9355 144.673 97.1444C144.516 96.3534 144.597 95.5335 144.905 94.7883C145.213 94.0432 145.734 93.4063 146.403 92.9582C147.072 92.5101 147.859 92.271 148.664 92.271C149.468 92.271 150.255 92.5101 150.924 92.9582C151.593 93.4063 152.114 94.0432 152.422 94.7883C152.73 95.5335 152.811 96.3534 152.654 97.1444C152.497 97.9355 152.109 98.6621 151.54 99.2324C151.163 99.6111 150.714 99.9115 150.221 100.116C149.727 100.321 149.198 100.427 148.664 100.427C148.129 100.427 147.6 100.321 147.107 100.116C146.613 99.9115 146.165 99.6111 145.787 99.2324Z" fill="#3F3D56"/>
<path d="M160.36 111.936H139.967V114.429H160.36V111.936Z" fill="#3F3D56"/>
</g>
<defs>
<clipPath id="clip0">
<rect width="278" height="212" fill="white"/>
</clipPath>
</defs>
</svg>
