<svg width="23" height="14" viewBox="0 0 23 14" fill="none" xmlns="http://www.w3.org/2000/svg">
<path d="M11.352 0C7.01402 0 3.08002 2.373 0.177022 6.228C0.0618299 6.38316 -0.000366211 6.57126 -0.000366211 6.7645C-0.000366211 6.95774 0.0618299 7.14585 0.177022 7.301C3.07702 11.161 7.01402 13.534 11.352 13.534C15.69 13.534 19.624 11.161 22.527 7.306C22.6422 7.15085 22.7044 6.96274 22.7044 6.7695C22.7044 6.57626 22.6422 6.38815 22.527 6.233C19.624 2.375 15.69 0 11.352 0ZM11.663 11.532C10.6942 11.5952 9.72906 11.3616 8.89639 10.8622C8.06372 10.3629 7.40305 9.62158 7.00248 8.73715C6.60191 7.85272 6.48047 6.86719 6.65435 5.91197C6.82823 4.95675 7.28918 4.07724 7.97572 3.39069C8.66226 2.70415 9.54177 2.24321 10.497 2.06933C11.4522 1.89545 12.4377 2.01689 13.3222 2.41746C14.2066 2.81803 14.9479 3.4787 15.4473 4.31137C15.9466 5.14404 16.1802 6.10915 16.117 7.078C16.0409 8.23427 15.5473 9.32349 14.7279 10.1429C13.9085 10.9622 12.8193 11.4559 11.663 11.532ZM11.519 9.332C10.9975 9.36567 10.4781 9.2396 10.03 8.9706C9.58193 8.70159 9.22648 8.30242 9.01102 7.82628C8.79556 7.35014 8.73032 6.81963 8.82401 6.30547C8.91769 5.79132 9.16584 5.31792 9.53539 4.94837C9.90494 4.57882 10.3783 4.33067 10.8925 4.23698C11.4067 4.1433 11.9372 4.20854 12.4133 4.424C12.8894 4.63945 13.2886 4.99491 13.5576 5.44298C13.8266 5.89105 13.9527 6.41046 13.919 6.932C13.8794 7.55542 13.6138 8.143 13.172 8.58463C12.7302 9.02625 12.1425 9.29162 11.519 9.331V9.332Z" fill="#535353"/>
</svg>
