<svg width="20" height="22" viewBox="0 0 20 22" fill="none" xmlns="http://www.w3.org/2000/svg">
<path d="M19.2188 11.946H10.7812V20.5318C10.7812 20.9709 10.4315 21.3268 10 21.3268C9.56852 21.3268 9.21875 20.9709 9.21875 20.5318V11.946H0.78125C0.349766 11.946 0 11.5901 0 11.151C0 10.7119 0.349766 10.356 0.78125 10.356H9.21875V1.7702C9.21875 1.33113 9.56852 0.97522 10 0.97522C10.4315 0.97522 10.7812 1.33113 10.7812 1.7702V10.356H19.2188C19.6502 10.356 20 10.7119 20 11.151C20 11.5901 19.6502 11.946 19.2188 11.946Z" fill="white"/>
</svg>
