<svg width="16" height="16" viewBox="0 0 16 16" fill="none" xmlns="http://www.w3.org/2000/svg">
<path d="M11.1204 0.278891L7.42787 5.04685C7.05622 5.53966 7.3919 6.27888 8.00333 6.27888H9.23819C9.63382 6.27888 9.98149 6.54993 9.98149 6.9565V14.5335C9.98149 14.9401 10.2692 15.2727 10.6768 15.2727H12.619C13.0027 15.2727 13.3384 14.9401 13.3384 14.5335V6.9565C13.3384 6.54993 13.6502 6.27888 14.0457 6.27888H15.2806C15.88 6.27888 16.2157 5.53966 15.844 5.05917L12.2474 0.303531C11.9716 -0.0907192 11.4082 -0.10304 11.1204 0.278891Z" fill="#67833E"/>
<path d="M4.87957 15.7211L8.57213 10.9532C8.94378 10.4603 8.6081 9.72112 7.99667 9.72112H6.76181C6.36618 9.72112 6.01851 9.45007 6.01851 9.0435L6.01851 1.46651C6.01851 1.05994 5.73077 0.727295 5.32315 0.727295L3.38096 0.727295C2.99732 0.727295 2.66163 1.05994 2.66163 1.46651L2.66163 9.0435C2.66163 9.45007 2.3498 9.72112 1.95429 9.72112H0.71944C0.119997 9.72112 -0.215691 10.4603 0.155963 10.9408L3.75262 15.6965C4.02836 16.0907 4.59183 16.103 4.87957 15.7211Z" fill="#67833E"/>
</svg>
