<svg width="19" height="18" viewBox="0 0 19 18" fill="none" xmlns="http://www.w3.org/2000/svg">
<g opacity="0.8" clip-path="url(#clip0)">
<path d="M12.2473 12.9542L8.99821 15.3035C8.78448 15.4581 8.5378 15.5603 8.27783 15.6021C8.01785 15.6438 7.75177 15.624 7.50079 15.544C7.24981 15.4641 7.02087 15.3263 6.83222 15.1416C6.64357 14.9569 6.50043 14.7305 6.41419 14.4803L5.10272 10.6783C4.82078 9.86098 4.80881 8.97396 5.06861 8.14926C5.38853 7.13401 6.09637 6.28814 7.03643 5.7977C7.97648 5.30725 9.07177 5.2124 10.0814 5.53402L11.122 5.86554C11.622 6.02479 12.0858 6.28152 12.4871 6.62104C12.8884 6.96057 13.2192 7.37626 13.4608 7.84437C13.7023 8.31248 13.8498 8.82385 13.8948 9.34928C13.9398 9.8747 13.8814 10.4039 13.7231 10.9066C13.4633 11.7312 12.9457 12.4493 12.2473 12.9542Z" fill="#EF5350"/>
<path d="M8.58294 5.35717C9.08953 5.31939 9.59863 5.37946 10.0828 5.53414L11.1235 5.86566C11.6078 6.01963 12.0584 6.26542 12.4508 6.58977C12.9397 6.43812 13.3848 6.16953 13.7478 5.80702C14.1109 5.44451 14.3812 4.99888 14.5355 4.50832C14.134 4.37994 13.7111 4.33358 13.2916 4.37197C12.8721 4.41036 12.4645 4.53272 12.0927 4.73185C12.1335 3.95756 11.9674 3.1864 11.6115 2.49853C10.9269 2.85475 10.3496 3.38887 9.9396 4.04539C9.74956 3.66739 9.48627 3.33142 9.16524 3.05723C8.8442 2.78304 8.47189 2.57616 8.0702 2.44877C7.91559 2.93913 7.88147 3.45988 7.97077 3.9664C8.06007 4.47293 8.27012 4.95014 8.58294 5.35717Z" fill="#77BC4D"/>
<path d="M8.34915 7.25405C8.30079 7.23864 8.2605 7.20455 8.23714 7.15927C8.21378 7.11398 8.20926 7.06122 8.22458 7.01259L8.40611 6.4363C8.42143 6.38766 8.45533 6.34714 8.50036 6.32365C8.54538 6.30015 8.59785 6.29561 8.64621 6.31102C8.69457 6.32642 8.73486 6.36051 8.75822 6.40579C8.78159 6.45108 8.78611 6.50384 8.77079 6.55247L8.58925 7.12876C8.57394 7.1774 8.54003 7.21792 8.49501 7.24141C8.44998 7.26491 8.39751 7.26945 8.34915 7.25405Z" fill="#E53935"/>
<path d="M9.95169 7.76381C9.90333 7.7484 9.86304 7.71431 9.83968 7.66903C9.81631 7.62375 9.8118 7.57099 9.82711 7.52236L10.0086 6.94606C10.024 6.89743 10.0579 6.85691 10.1029 6.83341C10.1479 6.80992 10.2004 6.80538 10.2487 6.82078C10.2971 6.83619 10.3374 6.87028 10.3608 6.91556C10.3841 6.96084 10.3886 7.0136 10.3733 7.06223L10.1918 7.63853C10.1765 7.68716 10.1426 7.72768 10.0975 7.75118C10.0525 7.77467 10.0001 7.77922 9.95169 7.76381Z" fill="#E53935"/>
<path d="M11.5533 8.27455C11.5049 8.25915 11.4646 8.22505 11.4412 8.17977C11.4179 8.13449 11.4134 8.08173 11.4287 8.0331L11.6102 7.4568C11.6255 7.40817 11.6594 7.36765 11.7045 7.34416C11.7495 7.32066 11.8019 7.31612 11.8503 7.33152C11.8987 7.34693 11.939 7.38102 11.9623 7.4263C11.9857 7.47158 11.9902 7.52434 11.9749 7.57298L11.7934 8.14927C11.778 8.1979 11.7441 8.23842 11.6991 8.26192C11.6541 8.28541 11.6016 8.28996 11.5533 8.27455Z" fill="#E53935"/>
<path d="M6.10404 8.78723C6.05568 8.77183 6.01539 8.73774 5.99203 8.69245C5.96866 8.64717 5.96414 8.59441 5.97946 8.54578L6.16099 7.9695C6.17631 7.92087 6.21021 7.88035 6.25524 7.85685C6.30027 7.83336 6.35273 7.82881 6.40109 7.84422C6.44945 7.85962 6.48974 7.89372 6.51311 7.939C6.53647 7.98428 6.54099 8.03704 6.52567 8.08567L6.34414 8.66195C6.32882 8.71059 6.29492 8.75111 6.24989 8.7746C6.20487 8.79809 6.1524 8.80264 6.10404 8.78723Z" fill="#E53935"/>
<path d="M7.7056 9.297C7.65725 9.28159 7.61695 9.2475 7.59359 9.20222C7.57022 9.15694 7.56571 9.10418 7.58102 9.05555L7.76255 8.47926C7.77787 8.43063 7.81177 8.39011 7.8568 8.36662C7.90183 8.34312 7.95429 8.33858 8.00265 8.35398C8.05101 8.36939 8.09131 8.40348 8.11467 8.44876C8.13803 8.49404 8.14255 8.5468 8.12723 8.59543L7.9457 9.17172C7.93039 9.22035 7.89648 9.26087 7.85146 9.28437C7.80643 9.30786 7.75396 9.3124 7.7056 9.297Z" fill="#E53935"/>
<path d="M9.30814 9.80774C9.25978 9.79234 9.21949 9.75824 9.19613 9.71296C9.17276 9.66768 9.16824 9.61492 9.18356 9.56629L9.36509 8.99C9.38041 8.94137 9.41431 8.90085 9.45934 8.87736C9.50437 8.85387 9.55683 8.84932 9.60519 8.86473C9.65355 8.88013 9.69384 8.91422 9.71721 8.9595C9.74057 9.00479 9.74509 9.05754 9.72977 9.10618L9.54824 9.68246C9.53292 9.73109 9.49902 9.77161 9.45399 9.79511C9.40897 9.8186 9.3565 9.82315 9.30814 9.80774Z" fill="#E53935"/>
<path d="M10.9097 10.3175C10.8613 10.3021 10.8211 10.268 10.7977 10.2227C10.7743 10.1774 10.7698 10.1247 10.7851 10.0761L10.9667 9.49977C10.982 9.45114 11.0159 9.41062 11.0609 9.38713C11.1059 9.36363 11.1584 9.35909 11.2068 9.37449C11.2551 9.3899 11.2954 9.42399 11.3188 9.46927C11.3421 9.51455 11.3467 9.56731 11.3313 9.61594L11.1498 10.1922C11.1345 10.2409 11.1006 10.2814 11.0556 10.3049C11.0105 10.3284 10.9581 10.3329 10.9097 10.3175Z" fill="#E53935"/>
<path d="M7.23978 13.5734C7.19142 13.558 7.15113 13.5239 7.12776 13.4786C7.1044 13.4333 7.09988 13.3806 7.1152 13.3319L7.29673 12.7556C7.31205 12.707 7.34595 12.6665 7.39098 12.643C7.43601 12.6195 7.48847 12.6149 7.53683 12.6304C7.58519 12.6458 7.62549 12.6799 7.64885 12.7251C7.67221 12.7704 7.67673 12.8232 7.66141 12.8718L7.47988 13.4481C7.47231 13.4722 7.46009 13.4945 7.44392 13.5139C7.42775 13.5332 7.40795 13.5492 7.38565 13.5608C7.36335 13.5724 7.33899 13.5795 7.31396 13.5817C7.28893 13.5838 7.26372 13.581 7.23978 13.5734Z" fill="#E53935"/>
<path d="M8.84232 14.0831C8.79396 14.0677 8.75367 14.0336 8.7303 13.9884C8.70694 13.9431 8.70242 13.8903 8.71774 13.8417L8.89927 13.2654C8.91459 13.2168 8.94849 13.1762 8.99352 13.1528C9.03855 13.1293 9.09101 13.1247 9.13937 13.1401C9.18773 13.1555 9.22803 13.1896 9.25139 13.2349C9.27475 13.2802 9.27927 13.3329 9.26395 13.3816L9.08242 13.9579C9.07485 13.982 9.06263 14.0043 9.04646 14.0236C9.03029 14.043 9.01049 14.0589 8.98819 14.0706C8.96589 14.0822 8.94153 14.0893 8.9165 14.0915C8.89147 14.0936 8.86626 14.0908 8.84232 14.0831Z" fill="#E53935"/>
<path d="M6.70853 11.3722C6.66017 11.3568 6.61988 11.3227 6.59651 11.2774C6.57315 11.2321 6.56863 11.1794 6.58395 11.1308L6.76548 10.5545C6.7808 10.5058 6.8147 10.4653 6.85973 10.4418C6.90476 10.4183 6.95722 10.4138 7.00558 10.4292C7.05394 10.4446 7.09424 10.4787 7.1176 10.524C7.14096 10.5692 7.14548 10.622 7.13016 10.6706L6.94863 11.2469C6.93331 11.2956 6.89941 11.3361 6.85438 11.3596C6.80935 11.3831 6.75689 11.3876 6.70853 11.3722Z" fill="#E53935"/>
<path d="M8.62259 11.9816C8.57423 11.9662 8.53394 11.9321 8.51058 11.8868C8.48721 11.8415 8.48269 11.7888 8.49801 11.7401L8.67954 11.1638C8.69486 11.1152 8.72877 11.0747 8.77379 11.0512C8.81882 11.0277 8.87128 11.0231 8.91964 11.0386C8.968 11.054 9.0083 11.0881 9.03166 11.1333C9.05502 11.1786 9.05954 11.2314 9.04422 11.28L8.86269 11.8563C8.84737 11.9049 8.81347 11.9455 8.76844 11.969C8.72342 11.9924 8.67095 11.997 8.62259 11.9816Z" fill="#E53935"/>
<path d="M10.5376 12.5919C10.4893 12.5765 10.449 12.5424 10.4256 12.4972C10.4023 12.4519 10.3977 12.3991 10.4131 12.3505L10.5946 11.7742C10.6099 11.7256 10.6438 11.685 10.6888 11.6615C10.7339 11.638 10.7863 11.6335 10.8347 11.6489C10.883 11.6643 10.9233 11.6984 10.9467 11.7437C10.9701 11.789 10.9746 11.8417 10.9593 11.8904L10.7777 12.4667C10.7624 12.5153 10.7285 12.5558 10.6835 12.5793C10.6385 12.6028 10.586 12.6073 10.5376 12.5919Z" fill="#E53935"/>
<path d="M12.5122 10.8282C12.4639 10.8128 12.4236 10.7788 12.4002 10.7335C12.3769 10.6882 12.3723 10.6354 12.3877 10.5868L12.5692 10.0105C12.5845 9.96188 12.6184 9.92136 12.6634 9.89787C12.7085 9.87437 12.7609 9.86983 12.8093 9.88523C12.8577 9.90064 12.8979 9.93473 12.9213 9.98001C12.9447 10.0253 12.9492 10.0781 12.9339 10.1267L12.7523 10.703C12.737 10.7516 12.7031 10.7921 12.6581 10.8156C12.6131 10.8391 12.5606 10.8437 12.5122 10.8282Z" fill="#E53935"/>
</g>
<defs>
<clipPath id="clip0">
<rect width="13.9972" height="14.0616" fill="white" transform="matrix(0.952823 0.303528 -0.300445 0.953799 5 0.191406)"/>
</clipPath>
</defs>
</svg>
