<svg width="9" height="20" viewBox="0 0 9 20" fill="none" xmlns="http://www.w3.org/2000/svg">
<mask id="path-1-inside-1_1130_188" fill="white">
<path d="M5 0L0 12H4.5L4 20L9 8H4.5L5 0Z"/>
</mask>
<path d="M5 0L13.9825 0.561405C14.2567 -3.82606 11.3212 -7.76963 7.03957 -8.76585C2.75792 -9.76207 -1.61691 -7.5194 -3.30769 -3.46154L5 0ZM0 12L-8.30769 8.53846C-9.46507 11.3162 -9.15764 14.4885 -7.48845 16.9923C-5.81926 19.4961 -3.00918 21 0 21V12ZM4.5 12L13.4825 12.5614C13.6374 10.0818 12.7605 7.64844 11.0594 5.83772C9.35836 4.027 6.98443 3 4.5 3V12ZM4 20L-4.98247 19.4386C-5.25669 23.8261 -2.32122 27.7696 1.96043 28.7659C6.24208 29.7621 10.6169 27.5194 12.3077 23.4615L4 20ZM9 8L17.3077 11.4615C18.4651 8.68384 18.1576 5.51149 16.4885 3.0077C14.8193 0.50391 12.0092 -1 9 -1V8ZM4.5 8L-4.48247 7.4386C-4.63745 9.91819 -3.76053 12.3516 -2.05945 14.1623C-0.358359 15.973 2.01557 17 4.5 17V8ZM-3.30769 -3.46154L-8.30769 8.53846L8.30769 15.4615L13.3077 3.46154L-3.30769 -3.46154ZM0 21H4.5V3H0V21ZM-4.48247 11.4386L-4.98247 19.4386L12.9825 20.5614L13.4825 12.5614L-4.48247 11.4386ZM12.3077 23.4615L17.3077 11.4615L0.692308 4.53846L-4.30769 16.5385L12.3077 23.4615ZM9 -1H4.5V17H9V-1ZM13.4825 8.5614L13.9825 0.561405L-3.98247 -0.561405L-4.48247 7.4386L13.4825 8.5614Z" fill="#67833E" mask="url(#path-1-inside-1_1130_188)"/>
</svg>
