<svg width="34" height="34" viewBox="0 0 34 34" fill="none" xmlns="http://www.w3.org/2000/svg">
<path d="M4.93457 8.82617H7.65921H29.4563" stroke="#5B5B5B" stroke-width="2.72464" stroke-linecap="round" stroke-linejoin="round"/>
<path d="M26.7316 8.82623V27.8987C26.7316 28.6213 26.4446 29.3143 25.9336 29.8253C25.4226 30.3363 24.7296 30.6233 24.007 30.6233H10.3838C9.6612 30.6233 8.96818 30.3363 8.45721 29.8253C7.94624 29.3143 7.65918 28.6213 7.65918 27.8987V8.82623M11.7461 8.82623V6.10159C11.7461 5.37897 12.0332 4.68595 12.5442 4.17498C13.0551 3.66401 13.7482 3.37695 14.4708 3.37695H19.92C20.6427 3.37695 21.3357 3.66401 21.8467 4.17498C22.3576 4.68595 22.6447 5.37897 22.6447 6.10159V8.82623" stroke="#5B5B5B" stroke-width="2.72464" stroke-linecap="round" stroke-linejoin="round"/>
<path d="M14.4707 15.6377V23.8116" stroke="#5B5B5B" stroke-width="2.72464" stroke-linecap="round" stroke-linejoin="round"/>
<path d="M19.9199 15.6377V23.8116" stroke="#5B5B5B" stroke-width="2.72464" stroke-linecap="round" stroke-linejoin="round"/>
</svg>
