<svg width="16" height="16" viewBox="0 0 16 16" fill="none" xmlns="http://www.w3.org/2000/svg">
<circle cx="8" cy="8" r="8" fill="#E8E8E8"/>
<path d="M12.4078 8.1204C12.4078 8.1204 10.2411 7.05193 9.37448 7.05193C10.3592 6.38302 11.1078 6.19715 11.1078 3.20542C11.1078 1.16179 9.92986 0 7.85781 0C5.78576 0 4.60781 1.16179 4.60781 3.20542C4.60781 6.19715 5.35642 6.38302 6.34115 7.05193C5.69115 7.05193 3.52448 8.1204 3.52448 8.1204C2.29679 9.33128 2 10.8814 2 12.5938V13.0781C2 13.0781 4.14219 16 8 16C11.8578 16 14 13.0781 14 13.0781V12.5938C14 10.8814 13.6355 9.33128 12.4078 8.1204Z" fill="#67833E"/>
</svg>
