<svg width="12" height="18" viewBox="0 0 12 18" fill="none" xmlns="http://www.w3.org/2000/svg">
<path d="M2.42753 6.28817L4.74967 3.96603V16.25C4.74967 16.5484 4.8682 16.8346 5.07917 17.0455C5.29015 17.2565 5.5763 17.375 5.87467 17.375C6.17304 17.375 6.45918 17.2565 6.67016 17.0455C6.88114 16.8346 6.99967 16.5484 6.99967 16.25V3.96603L9.3218 6.28817C9.42616 6.3931 9.55021 6.47641 9.68682 6.53332C9.82343 6.59023 9.96993 6.61963 10.1179 6.61984C10.2659 6.62004 10.4125 6.59104 10.5493 6.53449C10.686 6.47795 10.8103 6.39498 10.9149 6.29033C11.0196 6.18568 11.1026 6.06142 11.1591 5.92465C11.2157 5.78788 11.2447 5.6413 11.2445 5.49331C11.2443 5.34531 11.2149 5.19881 11.1579 5.0622C11.101 4.92559 11.0177 4.80154 10.9128 4.69718L6.67018 0.454525C6.56572 0.350053 6.44169 0.267181 6.3052 0.210641C6.1687 0.154101 6.02241 0.125 5.87467 0.125C5.72693 0.125 5.58063 0.154101 5.44414 0.210641C5.30764 0.267181 5.18362 0.350053 5.07915 0.454525L0.836554 4.69718C0.731622 4.80154 0.648313 4.92559 0.591399 5.0622C0.534485 5.19881 0.505085 5.34531 0.504884 5.49331C0.504683 5.6413 0.533684 5.78788 0.590226 5.92465C0.646768 6.06142 0.729739 6.18568 0.834387 6.29033C0.939035 6.39498 1.0633 6.47795 1.20007 6.53449C1.33684 6.59104 1.48342 6.62004 1.63141 6.61984C1.7794 6.61963 1.9259 6.59023 2.06252 6.53332C2.19913 6.47641 2.32317 6.3931 2.42753 6.28817Z" fill="white"/>
</svg>
