<svg width="23" height="24" viewBox="0 0 23 24" fill="none" xmlns="http://www.w3.org/2000/svg">
<g filter="url(#filter0_d_543_2958)">
<ellipse cx="11.4909" cy="11.5498" rx="10.4909" ry="10.55" fill="white"/>
</g>
<g opacity="0.9" clip-path="url(#clip0_543_2958)">
<path d="M11.0377 7.3792C9.01876 7.55834 7.53018 6.06092 7.70787 4.03101C9.72685 3.85188 11.2154 5.34929 11.0377 7.3792Z" fill="#7FB241"/>
<path d="M11.1148 8.79348C10.9407 8.7497 10.8039 8.60139 10.783 8.41153C10.6875 7.54176 10.9349 6.68718 11.4787 6.00459C12.0228 5.32199 12.7989 4.89314 13.6633 4.79754C13.9059 4.77118 14.1236 4.94675 14.1498 5.19021C14.1764 5.43367 14.0018 5.65257 13.7597 5.67982C13.1294 5.74951 12.5639 6.06177 12.1672 6.55942C11.7705 7.05706 11.5906 7.6798 11.6599 8.3137C11.6866 8.55761 11.512 8.7765 11.2694 8.80375C11.2161 8.81 11.1642 8.80598 11.1148 8.79348Z" fill="#8E6D53"/>
<path d="M14.3857 7.37376C13.9042 7.24466 13.4062 7.27146 12.9176 7.4296C11.6622 7.83657 10.3273 7.83657 9.07195 7.4296C8.58331 7.27146 8.08534 7.24466 7.6038 7.37376C5.68122 7.88884 4.75369 10.6858 5.53152 13.6212C6.30935 16.5566 8.49802 18.5182 10.4206 18.0031C10.4228 18.0027 10.4246 18.0022 10.4268 18.0013C10.8004 17.8999 11.1895 17.8999 11.5631 18.0013C11.5654 18.0018 11.5671 18.0022 11.5694 18.0031C13.4915 18.5182 15.6806 16.5562 16.4584 13.6212C17.2358 10.6858 16.3078 7.88884 14.3857 7.37376Z" fill="#E14B4B"/>
<path d="M16.458 13.6209C15.6807 16.5558 13.4906 18.5169 11.5672 18.0032H11.5627C11.1896 17.9005 10.7987 17.9005 10.4255 18.0032H10.4211C9.69701 18.1953 8.93739 18.0389 8.23108 17.6146C12.0025 16.1493 14.8278 12.4504 15.4186 7.94299C16.6135 9.0196 17.0799 11.2756 16.458 13.6209Z" fill="#D03F3F"/>
</g>
<defs>
<filter id="filter0_d_543_2958" x="0" y="-0.00012207" width="22.9817" height="23.0999" filterUnits="userSpaceOnUse" color-interpolation-filters="sRGB">
<feFlood flood-opacity="0" result="BackgroundImageFix"/>
<feColorMatrix in="SourceAlpha" type="matrix" values="0 0 0 0 0 0 0 0 0 0 0 0 0 0 0 0 0 0 127 0" result="hardAlpha"/>
<feOffset/>
<feGaussianBlur stdDeviation="0.5"/>
<feColorMatrix type="matrix" values="0 0 0 0 0 0 0 0 0 0 0 0 0 0 0 0 0 0 0.25 0"/>
<feBlend mode="normal" in2="BackgroundImageFix" result="effect1_dropShadow_543_2958"/>
<feBlend mode="normal" in="SourceGraphic" in2="effect1_dropShadow_543_2958" result="shape"/>
</filter>
<clipPath id="clip0_543_2958">
<rect width="13.99" height="14.0688" fill="white" transform="translate(4 4.01648)"/>
</clipPath>
</defs>
</svg>
