<svg width="23" height="24" viewBox="0 0 23 24" fill="none" xmlns="http://www.w3.org/2000/svg">
<g filter="url(#filter0_d_543_3254)">
<ellipse cx="11.4909" cy="11.5498" rx="10.4909" ry="10.55" fill="white"/>
</g>
<g opacity="0.8" clip-path="url(#clip0_543_3254)">
<path d="M11.1717 12.286C10.7045 12.286 10.3405 12.4063 10.0196 12.5125C9.7188 12.6122 9.45959 12.6979 9.12356 12.6979C8.78753 12.6979 8.52832 12.6122 8.22749 12.5125C7.90668 12.4063 7.54266 12.286 7.07544 12.286C5.94577 12.286 5 13.21 5 14.3457C5 14.3746 5.07452 17.2292 9.12356 17.2292C13.1726 17.2292 13.2198 14.3746 13.2198 14.3457C13.2198 13.21 12.3014 12.286 11.1717 12.286ZM8.11234 10.9927C8.83055 10.5759 9.0944 9.94701 9.68123 9.60639C10.2675 9.26627 10.9386 9.35149 11.6597 8.93299C12.6356 8.36664 12.9749 7.10434 12.4094 6.11946C12.3958 6.0937 10.9349 3.64424 7.42829 5.68177C3.92167 7.71809 5.27366 10.2138 5.28805 10.2388C5.85314 11.2249 7.13909 11.5582 8.11234 10.9927ZM18.1859 10.2975C16.7664 7.82533 14.8051 7.5082 13.6279 8.17188C12.6521 8.73823 12.3127 10.0005 12.8782 10.9854C13.2933 11.708 13.9224 11.9788 14.2567 12.5628C14.6105 13.1794 14.4876 13.788 14.9256 14.5524C14.9256 14.5528 14.9264 14.5528 14.9264 14.5528C15.4871 15.5313 16.769 15.8762 17.7515 15.3067C17.7762 15.2922 20.2108 13.8239 18.1859 10.2975Z" fill="url(#paint0_linear_543_3254)"/>
<path d="M10.5316 14.0778C10.1716 14.1973 9.72275 14.3457 9.1235 14.3457C8.89708 14.3457 8.71387 14.5299 8.71387 14.7576C8.71387 14.9853 8.89708 15.1696 9.1235 15.1696C9.85473 15.1696 10.4164 14.9837 10.7876 14.8606C11.0028 14.7894 11.1196 14.5565 11.0484 14.3405C10.9772 14.1245 10.7452 14.0066 10.5316 14.0778ZM9.01232 7.61718C8.89872 7.41967 8.6483 7.35209 8.45228 7.46592C7.81865 7.8332 7.42502 8.27691 7.16499 8.57017C7.01458 8.73995 7.029 9.00062 7.19779 9.15188C7.36751 9.30342 7.62555 9.28842 7.77624 9.1189C8.01546 8.84938 8.34188 8.4809 8.86191 8.17958C9.05793 8.06613 9.12513 7.81431 9.01232 7.61718ZM16.3848 11.327C16.0176 10.6878 15.5775 10.2932 15.2863 10.0321C15.1167 9.88122 14.8575 9.89569 14.7078 10.0658C14.5574 10.2356 14.5718 10.4959 14.7406 10.6476C15.0086 10.8869 15.3743 11.2148 15.6759 11.7389C15.7905 11.9384 16.0429 12.0022 16.2351 11.8898C16.4312 11.7759 16.4984 11.5237 16.3848 11.327Z" fill="url(#paint1_linear_543_3254)"/>
</g>
<defs>
<filter id="filter0_d_543_3254" x="0" y="-0.00012207" width="22.9817" height="23.0999" filterUnits="userSpaceOnUse" color-interpolation-filters="sRGB">
<feFlood flood-opacity="0" result="BackgroundImageFix"/>
<feColorMatrix in="SourceAlpha" type="matrix" values="0 0 0 0 0 0 0 0 0 0 0 0 0 0 0 0 0 0 127 0" result="hardAlpha"/>
<feOffset/>
<feGaussianBlur stdDeviation="0.5"/>
<feColorMatrix type="matrix" values="0 0 0 0 0 0 0 0 0 0 0 0 0 0 0 0 0 0 0.25 0"/>
<feBlend mode="normal" in2="BackgroundImageFix" result="effect1_dropShadow_543_3254"/>
<feBlend mode="normal" in="SourceGraphic" in2="effect1_dropShadow_543_3254" result="shape"/>
</filter>
<linearGradient id="paint0_linear_543_3254" x1="11.995" y1="17.2292" x2="11.995" y2="4.87257" gradientUnits="userSpaceOnUse">
<stop stop-color="#4A1F00"/>
<stop offset="1" stop-color="#411B00"/>
</linearGradient>
<linearGradient id="paint1_linear_543_3254" x1="11.7505" y1="15.1696" x2="11.7505" y2="7.41064" gradientUnits="userSpaceOnUse">
<stop stop-color="#EEEEEE"/>
<stop offset="0.9973" stop-color="#E5E5E5"/>
</linearGradient>
<clipPath id="clip0_543_3254">
<rect width="13.99" height="14.0688" fill="white" transform="translate(5 4.01648)"/>
</clipPath>
</defs>
</svg>
