<svg width="23" height="24" viewBox="0 0 23 24" fill="none" xmlns="http://www.w3.org/2000/svg">
<g filter="url(#filter0_d_543_3177)">
<ellipse cx="11.4909" cy="11.5498" rx="10.4909" ry="10.55" fill="white"/>
</g>
<g opacity="0.8">
<path d="M8.84552 6.98269C8.85278 7.14076 8.91978 7.28992 9.0326 7.39918C9.14542 7.50845 9.29539 7.56941 9.45135 7.56941H9.6735C9.82034 7.31193 10.0476 7.11149 10.3194 6.99984C10.5911 6.88818 10.8918 6.87167 11.1739 6.95293C11.0038 6.41929 10.7381 6.01489 10.155 6.01489C9.52971 6.01489 9.02784 6.60738 8.8418 6.70976V6.90319L8.84552 6.98269Z" fill="#D61919"/>
<path d="M6.87231 7.49901C7.13304 7.68106 7.4314 7.8001 7.74451 7.847V6.70976C7.55847 6.60738 7.0566 6.01489 6.43129 6.01489C5.84734 6.01489 5.58185 6.42018 5.41113 6.95471C5.68009 6.8763 5.96667 6.88678 6.22937 6.98464C6.49206 7.08249 6.71725 7.26265 6.87231 7.49901Z" fill="#D61919"/>
<path d="M8.87353 7.1337C9.08037 6.99202 9.56188 6.45904 10.155 6.45904C10.317 6.45335 10.4775 6.49264 10.6191 6.57267C10.7608 6.6527 10.8782 6.77043 10.9587 6.91318C11.0315 6.92085 11.1037 6.93414 11.1745 6.95293C11.0038 6.41929 10.7381 6.01489 10.155 6.01489C9.52971 6.01489 9.02784 6.60738 8.8418 6.70976V6.90319L8.84552 6.98269C8.84852 7.03403 8.85794 7.08477 8.87353 7.1337Z" fill="#E81B1B"/>
<path d="M6.43129 6.01489C5.84734 6.01489 5.58185 6.42018 5.41113 6.95471C5.47001 6.93937 5.52982 6.92794 5.59017 6.92051C5.6664 6.76129 5.78633 6.62781 5.93555 6.53609C6.08476 6.44438 6.2569 6.39835 6.43129 6.40352C7.0566 6.40352 7.55847 6.99579 7.74451 7.09839V6.70976C7.55847 6.60738 7.0566 6.01489 6.43129 6.01489Z" fill="#E81B1B"/>
<path d="M12.5734 8.88181C12.5634 8.53389 12.47 8.19368 12.3012 7.89062C12.1325 7.58757 11.8935 7.3308 11.6049 7.14254C11.4711 7.05886 11.3262 6.99507 11.1746 6.95311C10.8925 6.87168 10.5917 6.88811 10.3198 6.99977C10.0479 7.11144 9.82048 7.31197 9.67361 7.56958C7.89113 8.33085 6.87207 7.49919 6.87207 7.49919C6.71701 7.26282 6.49183 7.08267 6.22913 6.98481C5.96643 6.88695 5.67985 6.87647 5.41089 6.95488C5.25094 6.99944 5.0985 7.06816 4.95871 7.15875C4.67824 7.34694 4.44638 7.60069 4.28261 7.89866C4.11884 8.19664 4.02795 8.53014 4.01757 8.87115C3.8451 12.6035 4.94273 16.8967 7.30981 16.8967C7.52486 16.8968 7.73665 16.8433 7.92653 16.7409C8.11641 16.6385 8.27856 16.4903 8.39869 16.3093H8.40964C8.52977 16.4903 8.69192 16.6385 8.8818 16.7409C9.07168 16.8433 9.28347 16.8968 9.49852 16.8967C9.80498 16.8971 10.1067 16.8197 10.3762 16.6717C12.0825 15.7465 12.7262 12.1077 12.5734 8.88181Z" fill="#D61919"/>
<path d="M9.67361 7.56953H9.45146C9.29549 7.56953 9.14553 7.50857 9.03271 7.39931C8.91988 7.29005 8.85288 7.14089 8.84562 6.98282L8.8419 6.90331V6.45917C8.8419 6.16468 8.9572 5.88225 9.16243 5.67402C9.36766 5.46578 9.64602 5.3488 9.93626 5.3488C9.6955 5.3488 9.49851 5.05055 9.49851 4.68258C9.49851 4.3146 9.6955 4.01636 9.93626 4.01636C9.35578 4.01636 8.79907 4.25033 8.38861 4.6668C7.97815 5.08326 7.74755 5.64812 7.74755 6.23709V6.90331C7.74754 6.98823 7.73021 7.07222 7.69666 7.15001C7.66311 7.2278 7.61407 7.2977 7.5526 7.35533C7.49114 7.41296 7.41859 7.45706 7.33952 7.48487C7.26044 7.51267 7.17656 7.52358 7.09313 7.5169L6.87207 7.49914C6.87207 7.49914 7.89179 8.3308 9.67361 7.56953Z" fill="#548513"/>
<path d="M9.95847 7.34727C10.8403 7.34727 11.9064 7.79142 11.9064 8.90179C11.9064 8.90179 12.1253 12.8991 11.5271 15.3959C12.3709 13.8178 12.6854 11.24 12.5738 8.88158C12.5637 8.53365 12.4703 8.19344 12.3015 7.89039C12.1328 7.58733 11.8938 7.33057 11.6053 7.1423C11.4715 7.05862 11.3266 6.99483 11.175 6.95287C10.9355 6.88425 10.6818 6.8859 10.4433 6.95763C10.2047 7.02936 9.99107 7.16824 9.82715 7.35815C9.87061 7.35138 9.9145 7.34775 9.95847 7.34727Z" fill="#E81B1B"/>
<path d="M4.68325 9.34599C4.68325 7.5694 5.87632 7.35221 6.75574 7.34733C6.59047 7.16038 6.37671 7.02439 6.13887 6.95488C5.90104 6.88537 5.64873 6.88515 5.41078 6.95426C5.25082 6.99881 5.09839 7.06753 4.95859 7.15812C4.67812 7.34631 4.44626 7.60006 4.28249 7.89803C4.11872 8.19601 4.02783 8.52952 4.01745 8.87053C3.8997 11.4268 4.37793 14.2447 5.45127 15.7686C4.46438 12.6771 4.68325 9.34599 4.68325 9.34599Z" fill="#E81B1B"/>
<path d="M9.09426 7.4488C8.54743 7.61048 7.9664 7.60986 7.4199 7.44702C7.3197 7.50124 7.20638 7.5255 7.09313 7.51697L6.87207 7.49921C6.87207 7.49921 7.89179 8.33087 9.67361 7.56961H9.45146C9.32272 7.56916 9.19751 7.52682 9.09426 7.4488Z" fill="#526B2F"/>
<path d="M9.59165 5.08911C9.37391 5.16178 9.18427 5.30221 9.04967 5.49045C8.91506 5.67869 8.84233 5.90518 8.8418 6.13774V6.45886C8.8418 6.16437 8.95709 5.88195 9.16232 5.67371C9.36756 5.46548 9.64591 5.34849 9.93615 5.34849C9.86076 5.34161 9.78871 5.31375 9.72792 5.26799C9.66714 5.22222 9.61998 5.16033 9.59165 5.08911Z" fill="#526B2F"/>
<path d="M9.93676 5.3488C10.1785 5.3488 10.3745 5.05052 10.3745 4.68258C10.3745 4.31463 10.1785 4.01636 9.93676 4.01636C9.69501 4.01636 9.49902 4.31463 9.49902 4.68258C9.49902 5.05052 9.69501 5.3488 9.93676 5.3488Z" fill="#587A29"/>
<path d="M11.2492 8.93396C11.2492 8.18024 10.4425 7.56909 9.71713 7.56909C9.26013 7.56909 8.63919 8.11095 8.40391 8.47959C8.16862 8.11095 7.54769 7.56909 7.09069 7.56909C6.36535 7.56909 5.55859 8.18024 5.55859 8.93396C5.55859 8.93396 5.58333 15.637 6.43408 16.6688V16.6741C6.70354 16.8198 7.0042 16.8961 7.30956 16.8962C7.52603 16.8955 7.73893 16.8401 7.92903 16.735C8.11914 16.63 8.28046 16.4785 8.39844 16.2944H8.40938C8.52736 16.4785 8.68868 16.63 8.87878 16.735C9.06889 16.8401 9.28178 16.8955 9.49826 16.8962C9.80539 16.8964 10.1075 16.8171 10.3759 16.6657C11.687 15.0687 11.2492 8.93396 11.2492 8.93396Z" fill="#E81B1B"/>
<path d="M10.3012 8.80865C10.3863 8.64618 10.2821 8.42119 10.0686 8.30612C9.85511 8.19106 9.61308 8.22949 9.52803 8.39197C9.44297 8.55444 9.54711 8.77943 9.76062 8.8945C9.97412 9.00956 10.2162 8.97113 10.3012 8.80865Z" fill="#F23D3D"/>
<path d="M10.5714 9.37444C10.6923 9.37444 10.7903 9.27502 10.7903 9.15237C10.7903 9.02972 10.6923 8.9303 10.5714 8.9303C10.4505 8.9303 10.3525 9.02972 10.3525 9.15237C10.3525 9.27502 10.4505 9.37444 10.5714 9.37444Z" fill="#F23D3D"/>
<path d="M7.04616 8.88797C7.25967 8.77291 7.36381 8.54792 7.27875 8.38544C7.1937 8.22296 6.95167 8.18453 6.73816 8.29959C6.52465 8.41466 6.42051 8.63965 6.50557 8.80212C6.59062 8.9646 6.83265 9.00303 7.04616 8.88797Z" fill="#F23D3D"/>
<path d="M6.23645 9.37396C6.35733 9.37396 6.45532 9.27453 6.45532 9.15188C6.45532 9.02924 6.35733 8.92981 6.23645 8.92981C6.11557 8.92981 6.01758 9.02924 6.01758 9.15188C6.01758 9.27453 6.11557 9.37396 6.23645 9.37396Z" fill="#F23D3D"/>
<path d="M8.39895 16.2946H8.40989C8.46607 16.3807 8.53172 16.4599 8.60556 16.5309C8.6172 16.5028 8.62322 16.4726 8.62329 16.4421V8.20581C8.54243 8.29036 8.46918 8.38207 8.40442 8.47985C8.33963 8.38222 8.26639 8.29066 8.18555 8.20625V16.4414C8.18561 16.4719 8.19164 16.5021 8.20328 16.5302C8.27708 16.4595 8.34272 16.3804 8.39895 16.2946Z" fill="#D61919"/>
<path d="M12.7082 8.44072C12.7854 8.73419 12.8464 9.03178 12.8911 9.3321L12.859 9.37349C12.5174 9.3652 12.1786 9.43715 11.8691 9.58373L11.8518 9.54761C11.84 9.38464 11.831 9.22546 11.8221 9.07187C11.7504 7.82455 11.6872 6.9273 10.2249 7.03448L10.1317 6.50418C11.6797 6.16453 12.3707 7.18072 12.7082 8.44072Z" fill="#4B651A"/>
<path d="M12.7082 8.44072C12.3707 7.18072 11.6797 6.16453 10.1317 6.50418L10.1335 6.51425C11.3579 6.45807 11.9416 7.38901 12.2431 8.51443C12.3202 8.8079 12.3813 9.10549 12.426 9.40581L12.4254 9.40659C12.4383 9.40432 12.4512 9.40182 12.4643 9.39975C12.5947 9.37876 12.7269 9.36997 12.859 9.37349L12.8911 9.3321C12.8464 9.03178 12.7854 8.73419 12.7082 8.44072Z" fill="#689B2D"/>
<path d="M12.3114 16.6624C12.0944 17.0425 11.8759 17.2809 11.7369 17.3029C10.5883 17.4849 9.93572 16.0548 9.67658 14.3712C9.47131 13.0376 8.17553 12.0835 8.35565 10.7876C8.43988 10.1805 8.88292 9.78323 9.34751 9.61736C9.5949 9.52899 9.85875 9.52066 10.128 9.58217C10.477 9.66174 10.8352 9.859 11.1782 10.1519C11.3606 9.90983 11.5971 9.71523 11.8682 9.5841C12.1778 9.43752 12.5166 9.36557 12.8581 9.37386C13.2351 9.38243 13.601 9.50455 13.9094 9.72469C14.1671 9.30715 14.4751 8.99073 14.813 8.81122C15.0225 8.69595 15.2579 8.63798 15.4962 8.64302C15.9885 8.65725 16.5298 8.89855 16.7925 9.45069C17.3535 10.6291 16.4061 11.9387 16.6114 13.2723C16.8706 14.9558 16.7298 16.5117 15.5303 16.7018C15.3721 16.7268 15.0945 16.5782 14.783 16.2993C14.517 16.9134 14.1497 17.3345 13.6958 17.4064C13.2367 17.4792 12.7537 17.1806 12.3114 16.6624Z" fill="#FFD400"/>
<path d="M12.2555 13.9906C11.7842 12.5928 10.2086 11.8148 10.1596 10.3833C10.15 10.1249 10.2066 9.86837 10.324 9.63883C10.2598 9.6163 10.1943 9.59739 10.128 9.58217C9.85875 9.52066 9.59489 9.52899 9.34751 9.61736C8.88292 9.78323 8.43988 10.1805 8.35565 10.7876C8.17553 12.0835 9.47131 13.0376 9.67658 14.3712C9.93572 16.0548 10.5883 17.4849 11.7369 17.3029C11.8759 17.2809 12.0944 17.0425 12.3114 16.6624C12.7537 17.1806 13.2367 17.4792 13.6958 17.4064C14.0054 17.3574 14.2747 17.1457 14.499 16.8213C13.5384 16.7364 12.761 15.4895 12.2555 13.9906Z" fill="#EDC003"/>
<path d="M14.8129 8.81078C14.4751 8.99028 14.167 9.3067 13.9094 9.72425C13.601 9.5041 13.235 9.38198 12.8581 9.37341L12.8902 9.33203C12.8455 9.0317 12.7845 8.73411 12.7073 8.44064C13.6551 7.9526 14.3392 8.37778 14.8129 8.81078Z" fill="#E5BD41"/>
<path d="M11.8165 9.07238L11.822 9.07198C11.8309 9.22557 11.8399 9.38475 11.8516 9.54772L11.8689 9.58384C11.5978 9.71497 11.3613 9.90957 11.1789 10.1516C10.8359 9.85875 10.4777 9.66149 10.1287 9.58192C10.202 9.02057 11.2197 8.56057 11.8165 9.07238Z" fill="#E5BD41"/>
<g opacity="0.6">
<path opacity="0.6" d="M9.75075 12.6203C9.72147 12.6259 9.69185 12.6233 9.66573 12.6129C9.6396 12.6025 9.61817 12.5846 9.60421 12.5617C9.54349 12.4621 9.47244 12.3441 9.40585 12.2237C9.35383 12.1294 9.30965 12.0434 9.27073 11.9609C9.21935 11.8528 9.17476 11.7416 9.13716 11.6278C9.10482 11.5294 9.07958 11.4285 9.06158 11.3258C9.05551 11.2905 9.06502 11.2531 9.088 11.2218C9.11099 11.1905 9.14558 11.1679 9.18416 11.1589C9.22274 11.15 9.26215 11.1555 9.29373 11.1741C9.3253 11.1927 9.34645 11.223 9.35252 11.2584C9.36852 11.3495 9.39094 11.439 9.41967 11.5263C9.45418 11.6307 9.49511 11.7326 9.54226 11.8317C9.57891 11.9095 9.62082 11.9909 9.67036 12.0807C9.73486 12.1972 9.80422 12.3125 9.86357 12.41C9.87497 12.4287 9.881 12.4501 9.88115 12.4724C9.8813 12.4947 9.87556 12.5172 9.86443 12.538C9.8533 12.5587 9.83712 12.5771 9.8173 12.5914C9.79749 12.6057 9.77464 12.6157 9.75075 12.6203Z" fill="#E9E9E9"/>
</g>
<g opacity="0.6">
<path opacity="0.6" d="M10.2505 13.5344C10.2196 13.5404 10.1885 13.5369 10.1617 13.5246C10.1349 13.5122 10.1139 13.4916 10.1018 13.4658C10.0642 13.3855 10.0215 13.3018 9.9712 13.21C9.96234 13.1948 9.95696 13.1778 9.95539 13.16C9.95381 13.1422 9.95607 13.1239 9.96204 13.1063C9.968 13.0886 9.97755 13.072 9.99011 13.0573C10.0027 13.0426 10.018 13.0302 10.0352 13.0207C10.0524 13.0113 10.0711 13.005 10.0902 13.0023C10.1094 12.9996 10.1285 13.0005 10.1466 13.0049C10.1647 13.0094 10.1812 13.0173 10.1954 13.0282C10.2096 13.0391 10.221 13.0528 10.229 13.0685C10.2816 13.1647 10.3265 13.2526 10.3663 13.3374C10.3751 13.356 10.3789 13.3766 10.3775 13.3977C10.376 13.4188 10.3695 13.4398 10.3582 13.4589C10.3469 13.4781 10.3313 13.4949 10.3126 13.508C10.2939 13.5211 10.2726 13.5302 10.2504 13.5345L10.2505 13.5344Z" fill="#E9E9E9"/>
</g>
</g>
<defs>
<filter id="filter0_d_543_3177" x="0" y="-0.00012207" width="22.9817" height="23.0999" filterUnits="userSpaceOnUse" color-interpolation-filters="sRGB">
<feFlood flood-opacity="0" result="BackgroundImageFix"/>
<feColorMatrix in="SourceAlpha" type="matrix" values="0 0 0 0 0 0 0 0 0 0 0 0 0 0 0 0 0 0 127 0" result="hardAlpha"/>
<feOffset/>
<feGaussianBlur stdDeviation="0.5"/>
<feColorMatrix type="matrix" values="0 0 0 0 0 0 0 0 0 0 0 0 0 0 0 0 0 0 0.25 0"/>
<feBlend mode="normal" in2="BackgroundImageFix" result="effect1_dropShadow_543_3177"/>
<feBlend mode="normal" in="SourceGraphic" in2="effect1_dropShadow_543_3177" result="shape"/>
</filter>
</defs>
</svg>
