<svg width="23" height="24" viewBox="0 0 23 24" fill="none" xmlns="http://www.w3.org/2000/svg">
<g filter="url(#filter0_d_543_3135)">
<ellipse cx="11.4909" cy="11.5498" rx="10.4909" ry="10.55" fill="white"/>
</g>
<g opacity="0.7" clip-path="url(#clip0_543_3135)">
<path d="M8.36095 9.37817H7.92193C5.75938 9.37817 4 7.60888 4 5.43414C4 5.20652 4.18351 5.02197 4.40986 5.02197H4.84888C7.01146 5.02197 8.77081 6.79126 8.77081 8.96599C8.77081 9.19362 8.5873 9.37817 8.36095 9.37817Z" fill="#32B464"/>
<path d="M8.77075 8.96599C8.77075 6.79124 7.01137 5.02197 4.84883 5.02197H4.40981C4.30406 5.02197 4.20796 5.06261 4.13525 5.12873L8.36089 9.37817C8.58724 9.37817 8.77075 9.19362 8.77075 8.96599Z" fill="#28825A"/>
<path d="M17.58 11.5855H17.141C14.4943 11.5855 12.3411 9.42029 12.3411 6.75893C12.3411 6.5313 12.5246 6.34631 12.7509 6.34631H13.1899C15.8366 6.34631 17.9899 8.51167 17.9899 11.1733C17.9899 11.4009 17.8064 11.5855 17.58 11.5855Z" fill="#32B464"/>
<path d="M13.19 6.34631H12.751L17.8546 11.4787C17.9375 11.4033 17.9899 11.2946 17.9899 11.1733C17.9899 8.51167 15.8367 6.34631 13.19 6.34631Z" fill="#28825A"/>
<path d="M10.9951 9.37816C10.7687 9.37816 10.5852 9.19362 10.5852 8.96599V7.64154C10.5852 7.41391 10.7687 7.22937 10.9951 7.22937C11.2214 7.22937 11.4049 7.41391 11.4049 7.64154V8.96599C11.4049 9.19362 11.2214 9.37816 10.9951 9.37816Z" fill="#1E000A"/>
<path d="M6.23843 10.0333C6.13719 9.82965 6.21927 9.5821 6.42172 9.48026L15.2019 5.06546C15.4044 4.96365 15.6506 5.04617 15.7518 5.24978C15.853 5.4534 15.771 5.70095 15.5685 5.80278L6.78833 10.2176C6.58654 10.3191 6.33999 10.2375 6.23843 10.0333Z" fill="#823200"/>
<path d="M13.1636 10.5649C13.1636 10.5649 11.2936 8.6832 11.2848 8.67441C11.2048 8.59403 11.0999 8.55383 10.9951 8.55383C10.8903 8.55383 10.7854 8.59403 10.7054 8.67441C10.6967 8.6832 8.82657 10.5649 8.82657 10.5649C7.96059 11.4341 7.48364 12.5909 7.48364 13.8223C7.48364 15.0537 7.96059 16.2105 8.82657 17.0797C8.82657 17.0797 10.6966 18.9614 10.7054 18.9702C10.7855 19.0506 10.8903 19.0908 10.9951 19.0908C11.1 19.0908 11.2048 19.0506 11.2848 18.9702C11.2936 18.9614 13.1637 17.0797 13.1637 17.0797C14.0297 16.2105 14.5066 15.0537 14.5066 13.8223C14.5066 12.5909 14.0297 11.4341 13.1636 10.5649Z" fill="#823200"/>
<path d="M13.1634 10.5649C13.1634 10.5649 11.2933 8.6832 11.2846 8.67441C11.2045 8.59403 11.0997 8.55383 10.9949 8.55383V19.0908C11.0997 19.0908 11.2045 19.0506 11.2846 18.9702C11.2933 18.9614 13.1634 17.0797 13.1634 17.0797C14.0294 16.2105 14.5063 15.0537 14.5063 13.8223C14.5063 12.5909 14.0294 11.4341 13.1634 10.5649Z" fill="#4B1E0A"/>
<path d="M11.3541 8.7668C11.2843 8.63972 11.1497 8.55371 10.9951 8.55371C10.8405 8.55371 10.7059 8.63972 10.6361 8.7668C8.80716 11.8873 8.8079 15.7606 10.6379 18.8806C10.7082 19.0059 10.8418 19.0907 10.9951 19.0907C11.1484 19.0907 11.282 19.0059 11.3523 18.8806C13.1823 15.7606 13.183 11.8873 11.3541 8.7668Z" fill="#AF6432"/>
<path d="M10.9951 19.0907V8.55371C11.1497 8.55371 11.2843 8.63972 11.3541 8.7668C13.183 11.8873 13.1823 15.7606 11.3523 18.8806C11.282 19.0059 11.1484 19.0907 10.9951 19.0907Z" fill="#823200"/>
<path d="M15.2019 5.06546L10.9951 7.18073V8.10237L15.5685 5.80278C15.771 5.70097 15.853 5.4534 15.7518 5.24978C15.6506 5.04617 15.4044 4.96365 15.2019 5.06546Z" fill="#4B1E0A"/>
</g>
<defs>
<filter id="filter0_d_543_3135" x="0" y="-0.00012207" width="22.9817" height="23.0999" filterUnits="userSpaceOnUse" color-interpolation-filters="sRGB">
<feFlood flood-opacity="0" result="BackgroundImageFix"/>
<feColorMatrix in="SourceAlpha" type="matrix" values="0 0 0 0 0 0 0 0 0 0 0 0 0 0 0 0 0 0 127 0" result="hardAlpha"/>
<feOffset/>
<feGaussianBlur stdDeviation="0.5"/>
<feColorMatrix type="matrix" values="0 0 0 0 0 0 0 0 0 0 0 0 0 0 0 0 0 0 0.25 0"/>
<feBlend mode="normal" in2="BackgroundImageFix" result="effect1_dropShadow_543_3135"/>
<feBlend mode="normal" in="SourceGraphic" in2="effect1_dropShadow_543_3135" result="shape"/>
</filter>
<clipPath id="clip0_543_3135">
<rect width="13.99" height="14.0688" fill="white" transform="translate(4 5.02185)"/>
</clipPath>
</defs>
</svg>
