<svg width="14" height="15" viewBox="0 0 14 15" fill="none" xmlns="http://www.w3.org/2000/svg">
<g opacity="0.9" clip-path="url(#clip0_543_3308)">
<path d="M8.58627 10.1209C8.50366 9.80613 8.3886 9.48272 8.24472 9.15674C7.97927 9.34962 7.71414 9.52211 7.45264 9.67142C7.71435 10.318 7.88641 10.9493 7.83827 11.4398C8.13734 11.4511 8.43684 11.4393 8.73389 11.4058C8.75619 11.0153 8.70784 10.5839 8.58627 10.1209Z" fill="#CD8E50"/>
<g filter="url(#filter0_d_543_3308)">
<circle cx="7.49085" cy="7.50746" r="10.4909" fill="white"/>
</g>
<path d="M11.9132 1.0343C13.1111 2.05539 12.3038 4.86804 10.1796 7.35159C9.31843 8.35841 8.36379 9.15173 7.45312 9.67146C7.71484 10.3181 7.8869 10.9493 7.83876 11.4398C9.58698 11.5058 11.3474 10.8019 12.5715 9.3707C14.6958 6.88726 14.4011 3.15484 11.9132 1.0343Z" fill="#DDA450"/>
<path d="M11.9128 1.03421C10.7149 0.0132274 8.02178 1.25533 5.89753 3.73888C5.27068 4.47177 4.89539 5.32467 4.52246 6.06379C5.10844 6.45331 5.57327 6.83543 6.12072 7.47548C6.74715 8.20794 7.21817 8.98076 7.50913 9.6997C8.41969 9.17998 9.37433 8.38655 10.2356 7.37984C12.3597 4.89629 13.1107 2.0553 11.9128 1.03421Z" fill="#CD8E50"/>
<path d="M8.2678 9.20916C7.93489 8.43891 7.43858 7.65181 6.82068 6.92407C6.24389 6.24484 5.59974 5.66276 4.94364 5.22107C4.79496 5.50959 4.65844 5.79425 4.52246 6.06388C5.10844 6.4534 5.57327 6.83552 6.12071 7.47556C6.74714 8.20803 7.21817 8.98085 7.50913 9.69968C7.75963 9.55682 8.01356 9.39238 8.2678 9.20916Z" fill="#7A4C40"/>
<path d="M11.2903 1.30805C10.2163 0.392681 7.80178 1.45553 5.89731 3.68222C5.2633 4.42338 4.76591 5.20007 4.42383 5.94026C4.99902 6.32764 5.5834 6.84757 6.12038 7.47539C6.58436 8.01776 6.96295 8.58235 7.24644 9.13073C8.09146 8.66661 8.9842 7.93522 9.78652 6.9972C11.6911 4.77061 12.3644 2.22352 11.2903 1.30805Z" fill="#E4EAF8"/>
<path d="M8.00042 8.65337C7.6895 8.06495 7.2902 7.47739 6.82046 6.92407C6.21335 6.2091 5.53163 5.60179 4.83988 5.15259C4.68287 5.4176 4.54369 5.68133 4.42383 5.94044C4.99902 6.32782 5.5834 6.84776 6.12039 7.47557C6.58436 8.01794 6.96295 8.58253 7.24644 9.13081C7.49482 8.99449 7.74735 8.83434 8.00042 8.65337Z" fill="#D8DCE5"/>
<path d="M10.2875 2.0473C9.6008 1.46188 7.85322 2.37972 6.38422 4.0971C5.73346 4.85801 5.24664 5.64801 4.96582 6.34301C5.36085 6.66438 5.75193 7.04446 6.1207 7.47552C6.29926 7.68429 6.46524 7.89639 6.61797 8.10956C7.32627 7.73935 8.13372 7.07891 8.87105 6.21689C10.34 4.4994 10.9743 2.6326 10.2875 2.0473Z" fill="#D8DCE5"/>
<path d="M7.37088 7.63268C7.20054 7.39214 7.01684 7.15514 6.82066 6.92404C6.36864 6.39165 5.8751 5.91905 5.36693 5.52673C5.20565 5.80785 5.07127 6.0822 4.96582 6.34303C5.36085 6.66439 5.75192 7.04447 6.12059 7.47554C6.29916 7.68431 6.46513 7.8964 6.61787 8.10957C6.85962 7.98324 7.11291 7.82309 7.37088 7.63268Z" fill="#C3C8D1"/>
<path d="M1.58587 5.43909C0.671254 6.22436 1.32906 8.32451 2.9509 10.2347C4.57275 12.1448 6.54447 13.1416 7.45908 12.3563C5.55962 13.9873 2.70509 13.761 1.08325 11.8508C-0.53859 9.94067 -0.313592 7.07007 1.58587 5.43909Z" fill="#DDA450"/>
<path d="M1.90437 11.8508C0.729211 10.4668 0.523959 8.57857 1.22243 7.02305C1.09393 6.33621 1.19981 5.77054 1.58587 5.43909C-0.313592 7.07007 -0.53859 9.94067 1.08325 11.8508C2.07386 13.0175 3.52439 13.5559 4.93618 13.4268C3.80084 13.3235 2.70307 12.7915 1.90437 11.8508Z" fill="#CD8E50"/>
<path d="M6.17811 7.47584C4.55638 5.56568 2.50034 4.65386 1.58572 5.43902C0.671215 6.2243 1.24438 8.40935 2.86612 10.3195C4.48785 12.2297 6.54389 13.1416 7.45851 12.3563C8.37312 11.571 7.79984 9.386 6.17811 7.47584Z" fill="#E4EAF8"/>
<path d="M3.71084 10.3195C2.089 8.40944 1.51572 6.22429 2.43023 5.43901C2.55991 5.3276 2.71265 5.25053 2.88375 5.20534C2.35754 5.09854 1.90296 5.16659 1.58574 5.43901C0.671126 6.22429 1.24451 8.40944 2.86635 10.3195C4.25818 11.9588 5.96989 12.8627 7.00544 12.5898C6.01461 12.3886 4.77019 11.5672 3.71084 10.3195Z" fill="#D8DCE5"/>
<path d="M5.80614 7.79507C4.61861 6.39626 3.20586 5.64877 2.65073 6.12545C2.09549 6.60213 2.60814 8.12244 3.79568 9.52115C4.98321 10.92 6.39596 11.6674 6.95109 11.1908C7.50622 10.7141 6.99368 9.19377 5.80614 7.79507Z" fill="#D8DCE5"/>
<path d="M4.64134 9.52086C3.45369 8.12216 2.94104 6.60184 3.49617 6.12516C3.51944 6.10509 3.54442 6.08738 3.57068 6.07171C3.18301 5.94001 2.858 5.94795 2.65168 6.12516C2.09645 6.60184 2.6092 8.12216 3.79685 9.52086C4.93454 10.8609 6.27876 11.6029 6.87787 11.2437C6.22241 11.0212 5.38742 10.3996 4.64134 9.52086Z" fill="#C3C8D1"/>
</g>
<defs>
<filter id="filter0_d_543_3308" x="-4" y="-3.9834" width="22.9817" height="22.9817" filterUnits="userSpaceOnUse" color-interpolation-filters="sRGB">
<feFlood flood-opacity="0" result="BackgroundImageFix"/>
<feColorMatrix in="SourceAlpha" type="matrix" values="0 0 0 0 0 0 0 0 0 0 0 0 0 0 0 0 0 0 127 0" result="hardAlpha"/>
<feOffset/>
<feGaussianBlur stdDeviation="0.5"/>
<feColorMatrix type="matrix" values="0 0 0 0 0 0 0 0 0 0 0 0 0 0 0 0 0 0 0.25 0"/>
<feBlend mode="normal" in2="BackgroundImageFix" result="effect1_dropShadow_543_3308"/>
<feBlend mode="normal" in="SourceGraphic" in2="effect1_dropShadow_543_3308" result="shape"/>
</filter>
<clipPath id="clip0_543_3308">
<rect width="13.99" height="14.0688" fill="white" transform="translate(0 0.0166016)"/>
</clipPath>
</defs>
</svg>
