<svg width="23" height="24" viewBox="0 0 23 24" fill="none" xmlns="http://www.w3.org/2000/svg">
<g filter="url(#filter0_d_543_3104)">
<ellipse cx="11.4909" cy="11.5498" rx="10.4909" ry="10.55" fill="white"/>
</g>
<g opacity="0.9" clip-path="url(#clip0_543_3104)">
<path d="M17.7283 4.25103C16.8078 3.32544 13.4114 5.22108 10.1531 8.49589C6.89481 11.7707 4.99872 15.1825 5.93204 16.1137C6.86536 17.0448 10.258 15.1455 13.5072 11.8688C16.7563 8.59215 18.6542 5.18223 17.7283 4.25103Z" fill="#FCD462"/>
<path d="M13.7559 11.607L13.7835 11.5959C13.8687 11.5631 13.9468 11.514 14.0136 11.4515C14.0881 11.3823 14.1412 11.2929 14.1664 11.1942C14.1826 11.0532 14.1265 10.9137 14.0173 10.8239C14.0662 10.7973 14.1113 10.7643 14.1517 10.7259C14.3276 10.5936 14.3636 10.343 14.232 10.1662C14.2092 10.1355 14.1822 10.1082 14.1517 10.0853C14.1741 10.0742 14.1957 10.0611 14.2161 10.0465L14.229 10.0335C14.2536 10.0174 14.2764 9.99879 14.2971 9.97797L14.3082 9.96684C14.4453 9.83882 14.6596 9.8468 14.7869 9.98462C14.7894 9.98729 14.7919 9.99 14.7942 9.99278L14.7777 10.0021H14.7961L14.82 10.0224C14.914 10.0986 14.9649 10.2161 14.9563 10.3371C14.9346 10.4509 14.8764 10.5543 14.7906 10.6315C14.746 10.6757 14.6951 10.7131 14.6396 10.7425C14.7356 10.7097 14.8234 10.6567 14.8974 10.587C15.0053 10.4958 15.0634 10.3582 15.0539 10.2168C15.0311 10.1092 14.9734 10.0122 14.8901 9.9409C14.9389 9.9143 14.9841 9.88127 15.0244 9.84283C15.2003 9.71057 15.2363 9.46002 15.1048 9.28312C15.082 9.25243 15.055 9.22519 15.0244 9.2023C15.0469 9.19113 15.0685 9.1781 15.0889 9.16345L15.1018 9.15046C15.1264 9.1345 15.1492 9.11587 15.1699 9.09494L15.181 9.08381C15.318 8.95579 15.5323 8.96377 15.6597 9.10159C15.6622 9.10426 15.6646 9.10697 15.667 9.10975H15.6504H15.6688L15.6928 9.13012C15.7375 9.17328 15.7743 9.22401 15.8014 9.28008C15.8272 9.24857 15.8492 9.21714 15.8732 9.18564C15.845 9.14003 15.8116 9.0978 15.7738 9.05977C15.8227 9.03316 15.8679 9.00013 15.9082 8.96169C16.0841 8.82943 16.1201 8.57888 15.9886 8.40198C15.9658 8.37129 15.9387 8.34406 15.9082 8.32116C15.9303 8.30817 15.9524 8.29522 15.9726 8.28045L15.9856 8.26747C16.0102 8.25151 16.033 8.23284 16.0537 8.21195V8.20082C16.1917 8.07231 16.4071 8.08059 16.5349 8.21941C16.5371 8.22182 16.5393 8.22427 16.5415 8.22676L16.5249 8.23604H16.5433L16.6022 8.14531C16.4918 8.00652 16.2954 7.97309 16.1457 8.06753C16.2377 7.90061 16.1929 7.69103 16.0408 7.57695L16.0942 7.54367L16.1089 7.53254C16.1329 7.51435 16.1556 7.49454 16.177 7.47331C16.3105 7.34595 16.5213 7.35152 16.6481 7.48578C16.6494 7.48715 16.6506 7.48856 16.652 7.48997L16.6888 7.52148C16.7658 7.59002 16.8144 7.68516 16.825 7.78806C16.8526 7.7455 16.8802 7.7029 16.9042 7.65848C16.8758 7.57695 16.8277 7.50381 16.7643 7.44559C16.7864 7.4326 16.8084 7.41965 16.8287 7.40488L16.8416 7.39189C16.8667 7.37583 16.8896 7.35653 16.9097 7.33453V7.32525C16.9782 7.26803 17.0638 7.23545 17.1527 7.23266C17.1711 7.20116 17.1877 7.16973 17.2043 7.13822C17.1388 7.13755 17.0745 7.15696 17.0202 7.19374C17.1137 7.02348 17.0663 6.80989 16.9097 6.69578C16.8734 6.66019 16.834 6.62798 16.7919 6.59948L16.8214 6.57911L16.8343 6.56983C16.8545 6.55317 16.8766 6.53655 16.8932 6.51985V6.51057C17.0114 6.39995 17.1962 6.40578 17.3074 6.52356L17.3405 6.55135C17.3808 6.5908 17.4139 6.63719 17.438 6.68836C17.4527 6.65322 17.4711 6.61986 17.4859 6.58471C17.4625 6.54857 17.4353 6.51506 17.4049 6.48478C17.4249 6.4748 17.444 6.46304 17.4619 6.44964L17.473 6.43851C17.4943 6.42326 17.5146 6.40652 17.5337 6.38852C17.5529 6.37349 17.5733 6.35987 17.5945 6.34781L17.6276 6.27004L17.6515 6.22191C17.6972 6.08104 17.6492 5.92649 17.5319 5.83683C17.5022 5.80692 17.4695 5.78021 17.4343 5.7572L17.4638 5.73497L17.4933 5.70532L17.5264 5.68124V5.67196C17.6138 5.58936 17.747 5.58004 17.8449 5.64973L17.867 5.56457C17.7878 5.5115 17.6847 5.5115 17.6056 5.56457C17.6757 5.43398 17.6396 5.27138 17.5209 5.18321L17.5724 5.14992L17.6016 5.12016L17.6347 5.09608V5.0868C17.7206 5.00494 17.8515 4.99421 17.9495 5.06086C17.9512 5.03002 17.9512 4.99911 17.9495 4.96828C17.8714 4.93028 17.779 4.93807 17.7083 4.98865C17.7737 4.86096 17.7379 4.70451 17.6236 4.61842C17.4745 4.46661 17.3549 4.47032 17.2555 4.53697C17.3271 4.40716 17.2907 4.24407 17.1708 4.15746C17.0217 4.0075 16.9039 4.00936 16.8026 4.07786L16.8211 4.0353H16.7529C16.7308 4.10603 16.6909 4.16978 16.637 4.22043L16.5965 4.25557C16.4547 4.12228 16.3406 4.12599 16.2394 4.19078L16.2523 4.15928L16.1787 4.1815C16.1549 4.2391 16.1192 4.29086 16.0737 4.33331L16.0498 4.35369C16.0269 4.31888 16.0003 4.2866 15.9706 4.25739L15.8767 4.29439L15.908 4.32404C15.9336 4.35064 15.9564 4.37977 15.9761 4.41106L15.9595 4.42033L15.9761 4.41106C16.0633 4.56172 16.0218 4.75449 15.8804 4.85535L15.8325 4.89606C15.7377 4.76722 15.5595 4.73483 15.4257 4.82199C15.493 4.71768 15.4878 4.58205 15.4127 4.4832L15.3299 4.5239C15.4385 4.69048 15.3685 4.84047 15.236 4.97377L15.2102 4.996C15.1837 4.95236 15.1522 4.91191 15.1163 4.87569C15.061 4.81687 14.9947 4.76971 14.9212 4.73683L14.7849 4.81275C14.8841 4.82645 14.975 4.87576 15.0408 4.95161C15.073 4.98431 15.1008 5.02097 15.1236 5.06082H15.1052H15.1255C15.2341 5.24596 15.1567 5.41072 15.0095 5.55878C14.993 5.57563 14.9751 5.5911 14.9561 5.60505C14.772 5.43105 14.6229 5.43476 14.4885 5.51989C14.5818 5.35951 14.5425 5.15434 14.3964 5.04041C14.3633 5.05893 14.3339 5.07556 14.3025 5.09593C14.5271 5.32177 14.4479 5.52724 14.2713 5.70502L14.2253 5.74202C14.0412 5.55689 13.892 5.55689 13.7577 5.63467C13.7926 5.57025 13.8055 5.49614 13.7944 5.42359L13.7005 5.48653C13.704 5.58182 13.6718 5.67497 13.6103 5.74755C13.5919 5.76607 13.5735 5.79011 13.5533 5.8142L13.5422 5.829L13.5219 5.84752L13.5477 5.87346L13.5717 5.86789L13.5846 5.85676C13.6085 5.8385 13.6312 5.81869 13.6527 5.79754L13.6637 5.78826C13.8008 5.66023 14.0151 5.66821 14.1425 5.80603C14.145 5.8087 14.1474 5.81141 14.1498 5.8142L14.1737 5.83457C14.3983 6.06041 14.3191 6.26588 14.1425 6.44367L14.0891 6.4918C13.905 6.30666 13.7559 6.31965 13.6215 6.40478C13.7154 6.23497 13.6688 6.02145 13.5129 5.90682C13.4576 5.848 13.3913 5.80084 13.3178 5.76796L13.211 5.84574C13.2981 5.86834 13.3768 5.91598 13.4374 5.98274C13.662 6.20858 13.5829 6.41405 13.4061 6.59184L13.362 6.62884C13.1779 6.4437 13.0269 6.4437 12.8925 6.52148C12.9594 6.38886 12.9366 6.22825 12.8355 6.11975L12.7508 6.18454C12.8559 6.3175 12.8489 6.50775 12.7342 6.63255C12.7158 6.65106 12.6974 6.67511 12.6772 6.69919L12.6661 6.714L12.6458 6.73252L12.6716 6.75846L12.69 6.73808L12.703 6.72695C12.7269 6.70869 12.7496 6.68888 12.7711 6.66773H12.7822C12.9192 6.5397 13.1335 6.54768 13.2609 6.6855C13.2634 6.68817 13.2658 6.69088 13.2682 6.69366L13.2921 6.71404C13.5167 6.93988 13.4375 7.14535 13.2608 7.32313L13.2092 7.36941C13.0251 7.19541 12.8742 7.19912 12.7398 7.28424C12.8293 7.11625 12.7831 6.90763 12.6312 6.79367C12.4471 6.60854 12.298 6.59744 12.1617 6.6678C12.1002 6.70068 12.0443 6.74309 11.9961 6.79367L11.9556 6.83995C11.9405 6.85787 11.9269 6.87705 11.9151 6.89732L11.9336 6.91769L11.952 6.89732C12.1361 6.71218 12.3201 6.63073 12.5576 6.86581C12.795 7.10089 12.703 7.29712 12.5263 7.47491L12.4822 7.5119C12.2981 7.32677 12.1471 7.32677 12.0127 7.40455C12.0952 7.23611 12.0455 7.03235 11.8949 6.9214L11.8765 6.90474C11.8488 6.92696 11.8231 6.95287 11.7936 6.97324L11.8194 6.99732C11.9741 7.11867 12.0017 7.34321 11.881 7.49877C11.8761 7.50519 11.8709 7.51142 11.8654 7.51751L11.8084 7.58601L11.7973 7.60081L11.7771 7.61933L11.8028 7.64527L11.8213 7.6249L11.8342 7.61377C11.8581 7.59551 11.8808 7.57569 11.9023 7.55454L11.9134 7.54341C12.0524 7.41594 12.2678 7.42592 12.3944 7.56571C12.3961 7.56749 12.3977 7.56935 12.3993 7.5712L12.4233 7.59157C12.6478 7.81742 12.5687 8.02288 12.392 8.20067L12.3405 8.24694C12.1564 8.07294 12.0054 8.07665 11.871 8.16178C11.9649 7.99197 11.9183 7.77845 11.7624 7.66382C11.501 7.4028 11.3022 7.48797 11.1273 7.66382C11.0958 7.69641 11.068 7.73244 11.0445 7.77118L11.0629 7.79155L11.0813 7.77118C11.2654 7.58605 11.4495 7.50459 11.6869 7.73975C11.9244 7.9749 11.8323 8.17106 11.6557 8.34884C11.6419 8.36306 11.6264 8.37549 11.6096 8.38584C11.4255 8.20999 11.2764 8.20071 11.142 8.27849C11.2246 8.11005 11.1749 7.90629 11.0242 7.79534C11.0016 7.7711 10.9769 7.7488 10.9506 7.72869L10.8714 7.80276C10.8987 7.82384 10.9245 7.84673 10.9488 7.87126C11.1043 7.99153 11.1334 8.21589 11.0138 8.3723C11.0078 8.3802 11.0014 8.38785 10.9948 8.39519C10.9764 8.41371 10.958 8.43776 10.9377 8.46184L10.9266 8.47665L10.9064 8.49516L10.9322 8.5211L10.9506 8.50073L10.9635 8.4896C10.9874 8.47134 11.0102 8.45152 11.0316 8.43037L11.0427 8.41924C11.1817 8.29177 11.3971 8.30175 11.5238 8.44154C11.5254 8.44332 11.527 8.44518 11.5286 8.44703L11.5526 8.46741C11.7772 8.69325 11.698 8.89872 11.5213 9.07643L11.4698 9.1227C11.2857 8.9487 11.1347 8.95241 11.0003 9.03754C11.0943 8.86773 11.0476 8.65421 10.8917 8.53958C10.6303 8.27856 10.4315 8.36373 10.2566 8.53958C10.2252 8.57216 10.1973 8.60819 10.1738 8.64694L10.1922 8.66731L10.2106 8.64694C10.3947 8.4618 10.5788 8.38035 10.8163 8.6155C11.0538 8.85059 10.9617 9.04681 10.7851 9.22453L10.739 9.26152C10.5549 9.08567 10.4058 9.07639 10.2714 9.15417C10.354 8.98573 10.3043 8.78197 10.1536 8.67102C10.1266 8.64245 10.097 8.61643 10.0652 8.59324L9.9879 8.67102C10.0207 8.69288 10.0509 8.71833 10.0781 8.74694C10.2328 8.86829 10.2604 9.09283 10.1397 9.24839C10.1348 9.25481 10.1296 9.26104 10.1241 9.26713C10.1057 9.28564 10.0873 9.30969 10.0671 9.33377L10.056 9.34858L10.0358 9.3671L10.0616 9.39304L10.08 9.37266L10.0744 9.38565C10.0978 9.36806 10.12 9.34888 10.1407 9.32828L10.1518 9.31715C10.2908 9.18968 10.5062 9.19966 10.6328 9.33945C10.6345 9.34123 10.6361 9.34309 10.6377 9.34494L10.6617 9.36532C10.8862 9.59116 10.8071 9.79663 10.6304 9.97441L10.5789 10.0207C10.3948 9.84669 10.2438 9.8504 10.1094 9.93552C10.2033 9.76572 10.1567 9.55219 10.0008 9.43757C9.73941 9.17655 9.54059 9.26171 9.36572 9.43757C9.33436 9.47026 9.30661 9.50629 9.28288 9.54492L9.30129 9.56344L9.31971 9.54492C9.5038 9.35979 9.68786 9.27833 9.92539 9.51349C10.1628 9.74857 10.0745 9.94109 9.89045 10.1152L9.84628 10.1522C9.66218 9.96703 9.51122 9.96703 9.37683 10.0448C9.45539 9.88001 9.4086 9.68237 9.26454 9.57086C9.24244 9.54863 9.22037 9.5283 9.20011 9.51163L9.12646 9.59309C9.14912 9.60878 9.17008 9.62678 9.18904 9.64675C9.34377 9.76809 9.37133 9.99263 9.25067 10.1482C9.24569 10.1546 9.24048 10.1608 9.23513 10.1669C9.21539 10.188 9.19694 10.2102 9.17993 10.2336L9.16701 10.2484L9.14675 10.2669L9.17255 10.2928L9.19096 10.2725L9.20388 10.2595C9.22819 10.2424 9.25104 10.2232 9.27199 10.2021L9.28306 10.191C9.42207 10.0635 9.63746 10.0735 9.76414 10.2133C9.76576 10.2151 9.76738 10.2169 9.76901 10.2188L9.79296 10.2391C10.0175 10.465 9.93838 10.6705 9.76163 10.8482L9.71008 10.8945C9.52598 10.7205 9.37502 10.7242 9.24063 10.8093C9.3334 10.6382 9.28436 10.4244 9.1265 10.3114C8.88166 10.067 8.69207 10.1263 8.5245 10.2817L8.4914 10.3114C8.46004 10.3441 8.43229 10.3801 8.40856 10.4187L8.42697 10.4373L8.44539 10.4187C8.62948 10.2336 8.81354 10.1522 9.051 10.3872C9.28845 10.6223 9.19642 10.8186 9.01974 10.9963L8.97557 11.0333C8.79148 10.8482 8.64052 10.8482 8.50613 10.926C8.58867 10.7575 8.53897 10.5538 8.3883 10.4428L8.32018 10.5261C8.47114 10.6506 8.49332 10.8745 8.36959 11.0263C8.36613 11.0306 8.36251 11.0348 8.35886 11.0389C8.34044 11.0593 8.32207 11.0833 8.30365 11.1074L8.29074 11.1222L8.27048 11.1407L8.29627 11.1667L8.31469 11.1463L8.3276 11.1333C8.35192 11.1162 8.37476 11.097 8.39572 11.0759L8.40679 11.0648C8.54432 10.9373 8.7586 10.946 8.88543 11.0842C8.88793 11.087 8.89037 11.0897 8.89281 11.0925L8.91675 11.1129C9.14133 11.3387 9.06218 11.5442 8.88543 11.722L8.83388 11.7683C8.64978 11.5943 8.49882 11.598 8.36443 11.6831C8.45834 11.5133 8.41173 11.2998 8.25583 11.1851C8.1741 11.0868 8.05539 11.0271 7.92815 11.0204L7.84716 11.1241C7.97435 11.1083 8.10055 11.1602 8.18037 11.2611C8.40494 11.4869 8.32579 11.6924 8.14904 11.8701L8.10487 11.9071C7.92077 11.722 7.76981 11.722 7.63542 11.7997C7.70136 11.6827 7.69269 11.5377 7.61332 11.4295L7.54336 11.5239C7.60487 11.651 7.58295 11.8029 7.48815 11.9072C7.46974 11.9257 7.45136 11.9497 7.43295 11.972L7.42003 11.9886L7.39978 12.0071L7.42557 12.0331L7.44398 12.0127L7.4569 11.9997C7.48118 11.9825 7.50395 11.9633 7.52502 11.9423L7.53609 11.9312C7.67361 11.8037 7.8879 11.8124 8.01472 11.9507C8.01723 11.9534 8.01967 11.9561 8.0221 11.9589H8.00738H8.02395L8.0479 11.9793C8.27247 12.2051 8.19332 12.4106 8.01664 12.5883L7.96509 12.6346C7.78099 12.4606 7.63003 12.4643 7.49564 12.5494C7.5904 12.3798 7.54372 12.1656 7.38705 12.0515C7.34609 12.0098 7.30033 11.9731 7.25081 11.9423L7.18823 12.0311C7.23369 12.0572 7.2752 12.0896 7.31155 12.1274C7.53612 12.3532 7.45697 12.5587 7.28022 12.7365C7.23583 12.7797 7.18564 12.8165 7.1311 12.8457C7.19634 12.8242 7.25834 12.7937 7.3152 12.7549L7.33361 12.7401C7.35627 12.723 7.37778 12.7044 7.39804 12.6846C7.53697 12.566 7.74476 12.5808 7.86564 12.718L7.90243 12.7513C8.12701 12.9771 8.04786 13.1844 7.87111 13.3603C7.82705 13.4039 7.77682 13.4408 7.72199 13.4695C7.7869 13.448 7.84878 13.4181 7.90609 13.3806L7.919 13.3695C7.94339 13.3517 7.96675 13.3326 7.98897 13.3121L7.99819 13.301C8.13421 13.1735 8.34705 13.1801 8.47498 13.3158L8.51177 13.3473C8.73635 13.5731 8.6572 13.7786 8.48052 13.9563C8.43657 14.0006 8.38627 14.038 8.3314 14.0674C8.39627 14.045 8.45816 14.0145 8.5155 13.9767L8.52841 13.9655C8.5528 13.9477 8.57616 13.9286 8.59838 13.9082L8.6076 13.897C8.74347 13.7692 8.95664 13.7764 9.08377 13.913C9.08399 13.9132 9.08421 13.9134 9.08443 13.9136L9.12122 13.9452C9.3458 14.171 9.26664 14.3765 9.08989 14.5542C9.04502 14.5974 8.99495 14.6347 8.94078 14.6652C9.00565 14.6428 9.06753 14.6124 9.12487 14.5745L9.1396 14.5634C9.16351 14.5451 9.18624 14.5253 9.20771 14.5042C9.34314 14.3758 9.55631 14.3822 9.68391 14.5183C9.68414 14.5185 9.68428 14.5188 9.6845 14.5189L9.7213 14.5504C9.85214 14.6521 9.89373 14.8324 9.82067 14.9817C9.78794 15.0504 9.74373 15.1131 9.68997 15.1668C9.64609 15.2106 9.5958 15.2474 9.54085 15.276C9.62565 15.2411 9.70262 15.1895 9.76724 15.1242C9.82945 15.0657 9.87731 14.9934 9.90716 14.9131C9.95369 14.7547 9.89805 14.5837 9.76724 14.4837C9.78971 14.4725 9.8113 14.4595 9.83166 14.4448L9.84458 14.4318C9.8696 14.4157 9.89248 14.3964 9.9127 14.3745H9.92377C10.0608 14.2464 10.2751 14.2544 10.4025 14.3922C10.405 14.3949 10.4074 14.3976 10.4098 14.4004L10.4337 14.4208C10.4598 14.4461 10.4832 14.474 10.5037 14.5041C10.6344 14.6892 10.5552 14.8743 10.4025 15.0298C10.3589 15.0674 10.3106 15.0991 10.2589 15.1243C10.3533 15.0907 10.4399 15.0377 10.5129 14.9687C10.6866 14.8457 10.7283 14.6043 10.6059 14.4296C10.6021 14.4241 10.598 14.4187 10.5939 14.4134C10.5715 14.3814 10.5462 14.3517 10.5184 14.3245C10.5669 14.2973 10.612 14.2644 10.6528 14.2264C10.8287 14.0942 10.8647 13.8436 10.7331 13.6667C10.7103 13.636 10.6833 13.6088 10.6528 13.5859C10.6752 13.5747 10.6968 13.5617 10.7172 13.5471L10.7301 13.5341C10.7547 13.518 10.7775 13.4994 10.7982 13.4786L10.8093 13.4674C10.9464 13.3394 11.1607 13.3474 11.288 13.4852C11.2905 13.4879 11.293 13.4906 11.2953 13.4934H11.2788H11.2972L11.3211 13.5137C11.3889 13.5748 11.4359 13.6557 11.4555 13.7451C11.4624 13.8877 11.4016 14.025 11.2917 14.1153C11.2478 14.1592 11.1975 14.196 11.1426 14.2245C11.2376 14.1919 11.3248 14.1395 11.3985 14.0709C11.5198 13.9738 11.5767 13.8164 11.5457 13.6636C11.5102 13.5827 11.4552 13.5121 11.3856 13.4581C11.4344 13.4313 11.4796 13.3984 11.52 13.36C11.6959 13.2277 11.7319 12.9772 11.6004 12.8003C11.5776 12.7696 11.5505 12.7424 11.52 12.7195C11.5428 12.7087 11.5643 12.6957 11.5844 12.6806L11.5974 12.6676C11.6219 12.6516 11.6447 12.6329 11.6655 12.6121L11.6765 12.601C11.8136 12.473 12.0279 12.4809 12.1552 12.6188C12.1578 12.6214 12.1602 12.6241 12.1626 12.6269L12.146 12.6362H12.1644L12.1883 12.6566C12.2991 12.7443 12.3482 12.8893 12.3135 13.0268C12.2841 13.1199 12.2308 13.2036 12.1589 13.2693C12.1142 13.3135 12.0634 13.351 12.0079 13.3804C12.1036 13.3469 12.1913 13.2939 12.2656 13.2248C12.3517 13.1482 12.4078 13.0432 12.424 12.9287C12.4248 12.7983 12.3682 12.6742 12.2693 12.5899C12.3181 12.5631 12.3633 12.5302 12.4037 12.4918C12.5796 12.3596 12.6156 12.109 12.4841 11.9321C12.4613 11.9014 12.4342 11.8742 12.4037 11.8513C12.4265 11.8406 12.448 11.8275 12.4681 11.8124V11.7921C12.4931 11.7759 12.516 11.7566 12.5362 11.7347H12.5473C12.6844 11.6067 12.8987 11.6146 13.026 11.7525C13.0285 11.7551 13.031 11.7578 13.0333 11.7606H13.0168H13.0352L13.061 11.781C13.2058 11.8944 13.2395 12.1009 13.1383 12.2549C13.107 12.3038 13.0706 12.349 13.0297 12.3901C12.9874 12.4315 12.9397 12.467 12.8879 12.4956C12.9808 12.4646 13.0656 12.4135 13.1365 12.3456C13.2043 12.2812 13.2555 12.2012 13.2856 12.1124C13.3156 11.9617 13.2595 11.8067 13.1402 11.7107C13.1891 11.6841 13.2342 11.651 13.2746 11.6126C13.4505 11.4803 13.4864 11.2298 13.3549 11.0529C13.3321 11.0222 13.3051 10.995 13.2746 10.9721C13.297 10.9609 13.3186 10.9479 13.339 10.9332L13.3519 10.9202C13.3769 10.9041 13.3998 10.8848 13.42 10.8629H13.4311C13.5681 10.7348 13.7824 10.7428 13.9098 10.8806C13.9123 10.8833 13.9147 10.886 13.9171 10.8888H13.9005H13.9189L13.9429 10.9092C14.0848 11.0171 14.1222 11.2156 14.0294 11.3683C13.9975 11.4232 13.9584 11.4736 13.9134 11.5182C13.8808 11.5509 13.8444 11.5795 13.8048 11.6034L13.7559 11.607ZM14.9524 9.27262C15.177 9.49846 15.0978 9.70393 14.9212 9.88164L14.877 9.92049C14.6929 9.73536 14.5382 9.73536 14.402 9.82427C14.492 9.65669 14.4465 9.44814 14.2953 9.3337L14.3486 9.30041L14.3634 9.28928C14.3874 9.2711 14.4101 9.25128 14.4315 9.23006C14.565 9.1027 14.7758 9.10827 14.9026 9.24252C14.9039 9.2439 14.9051 9.24531 14.9065 9.24672L14.9524 9.27262ZM9.4851 11.7014L9.50904 11.7218C9.73543 11.9476 9.65631 12.1549 9.47956 12.3308C9.46303 12.3476 9.44521 12.3631 9.4262 12.3771C9.24211 12.2031 9.09299 12.2068 8.9586 12.29C9.04144 12.1456 9.0341 11.9809 8.84816 11.7939C8.87115 11.7819 8.89329 11.7683 8.91443 11.7532L8.931 11.7384C8.9545 11.7225 8.97613 11.7038 8.99543 11.6829C9.12904 11.5527 9.34233 11.5561 9.47181 11.6905C9.47642 11.6952 9.48081 11.7001 9.48513 11.7051V11.7014H9.4851V11.7014ZM10.3613 10.8203L10.3853 10.8406C10.6117 11.0665 10.5326 11.2738 10.3558 11.4497C10.3393 11.4666 10.3214 11.482 10.3024 11.496C10.1183 11.322 9.96923 11.3257 9.83484 11.409C9.91768 11.2646 9.91034 11.0998 9.72439 10.9129C9.74738 10.9008 9.76952 10.8872 9.79067 10.8722L9.79805 10.8666C9.82155 10.8507 9.84318 10.832 9.86248 10.8111C9.99609 10.6809 10.2094 10.6843 10.3389 10.8187C10.3435 10.8234 10.3479 10.8283 10.3522 10.8333L10.3613 10.8203ZM11.2376 9.94094L11.2615 9.96131C11.4861 10.1872 11.4088 10.3945 11.232 10.5704C11.2155 10.5873 11.1977 10.6027 11.1787 10.6167C10.9946 10.4427 10.8455 10.4464 10.7111 10.5297C10.7939 10.3852 10.7866 10.2205 10.6006 10.0336C10.6227 10.0206 10.6448 10.0076 10.6651 9.99286L10.6816 9.97805C10.7051 9.96209 10.7268 9.94346 10.7461 9.92253C10.8816 9.79288 11.096 9.7983 11.2249 9.93463C11.2286 9.93857 11.2322 9.94254 11.2357 9.94662L11.2376 9.94094ZM12.1138 9.05969L12.1378 9.08006C12.3624 9.30591 12.2851 9.51323 12.1083 9.68916C12.0918 9.70601 12.074 9.72148 12.055 9.73543C11.8709 9.56143 11.7217 9.56514 11.5874 9.65027C11.6702 9.50403 11.6628 9.33927 11.4769 9.15231C11.4999 9.14025 11.522 9.12664 11.5432 9.11161L11.5597 9.0968C11.5833 9.08084 11.6049 9.06218 11.6242 9.04129C11.7598 8.91163 11.9741 8.91705 12.103 9.05338C12.1067 9.05732 12.1103 9.06129 12.1138 9.06537L12.1138 9.05969ZM12.9901 8.17855L13.014 8.19893C13.2404 8.42477 13.1613 8.63209 12.9845 8.80802C12.9676 8.82442 12.9498 8.8399 12.9312 8.8543C12.7471 8.6803 12.598 8.68401 12.4636 8.76728C12.5568 8.59766 12.5094 8.38462 12.3531 8.27118C12.3761 8.25912 12.3983 8.2455 12.4194 8.23047L12.436 8.21566C12.4595 8.19971 12.4811 8.18104 12.5004 8.16015C12.636 8.03049 12.8504 8.03591 12.9793 8.17225C12.983 8.17618 12.9866 8.18015 12.99 8.18423L12.9901 8.17855ZM13.8663 7.29738L13.8903 7.31775C14.1167 7.54359 14.0375 7.75092 13.8608 7.92685C13.8438 7.94325 13.8261 7.95872 13.8074 7.97312C13.6233 7.79912 13.4742 7.80283 13.3398 7.8861C13.4331 7.71648 13.3857 7.50344 13.2294 7.39C13.252 7.37839 13.2736 7.36473 13.2938 7.34929L13.3104 7.33449C13.3339 7.31853 13.3555 7.29987 13.3748 7.27897C13.5084 7.1488 13.7217 7.15217 13.8512 7.28654C13.8558 7.29129 13.8602 7.29619 13.8645 7.3012L13.8663 7.29738ZM14.7426 6.42359L14.7665 6.44396C14.9911 6.6698 14.9138 6.87713 14.737 7.05306C14.7205 7.06972 14.7021 7.08456 14.6818 7.10119C14.4977 6.91605 14.3505 6.92904 14.2161 7.01231C14.3093 6.84269 14.2619 6.62965 14.1056 6.51621C14.1283 6.5046 14.1498 6.49094 14.1701 6.4755L14.1866 6.4607C14.2101 6.44474 14.2317 6.42608 14.251 6.40518C14.3861 6.27505 14.6006 6.27968 14.73 6.41554C14.7337 6.4194 14.7372 6.42333 14.7408 6.42738L14.7426 6.42359ZM15.663 5.59051C15.8471 5.80525 15.779 6.00334 15.6096 6.17181C15.593 6.18847 15.5747 6.20331 15.5544 6.21994C15.3703 6.03481 15.223 6.04779 15.0887 6.13292C15.1822 5.96267 15.1348 5.74907 14.9782 5.63496C15.0006 5.6229 15.0221 5.60928 15.0426 5.59426L15.0592 5.57945C15.0827 5.56349 15.1043 5.54483 15.1236 5.52394C15.2628 5.39216 15.4818 5.39877 15.6129 5.53863C15.6222 5.54861 15.631 5.55919 15.6391 5.57017L15.6594 5.59426L15.6281 5.61277L15.663 5.59051ZM16.4417 4.86857C16.6147 5.0537 16.5484 5.23879 16.3994 5.37951L16.3533 5.42022C16.2575 5.2932 16.0813 5.26032 15.9465 5.34429C16.0276 5.19683 15.9865 5.01173 15.8508 4.91298L15.9078 4.87784L15.9226 4.86485C15.9422 4.85031 15.9606 4.83417 15.9778 4.81672C16.099 4.70158 16.29 4.70696 16.4046 4.82882C16.4125 4.83732 16.42 4.84626 16.4269 4.85558L16.4398 4.87409L16.4159 4.8889L16.4417 4.86857ZM16.6258 4.75379C16.7302 4.65512 16.8946 4.66028 16.9927 4.7654C16.9931 4.76585 16.9935 4.76633 16.994 4.76678L17.0235 4.79086C17.1466 4.89462 17.1627 5.07908 17.0595 5.20287C17.0422 5.22373 17.0219 5.24206 16.9995 5.25731L16.9848 5.2703C16.8881 5.15786 16.7235 5.13489 16.6001 5.21664C16.6728 5.08847 16.6484 4.92679 16.5412 4.82604L16.5633 4.80752L16.5945 4.77973L16.6276 4.75564L16.6258 4.75379ZM10.3319 12.1438C10.4648 12.0159 10.6757 12.0205 10.803 12.1542C10.8055 12.1569 10.8081 12.1596 10.8105 12.1624L10.8492 12.1938C11.0737 12.4196 10.9946 12.627 10.8178 12.8029L10.7737 12.8417C10.5896 12.6566 10.4349 12.6566 10.2987 12.7473C10.3901 12.5797 10.3454 12.3701 10.1938 12.2549L10.2453 12.2216L10.2582 12.2105C10.2826 12.1927 10.306 12.1736 10.3282 12.1531L10.3319 12.1438ZM10.8989 12.0976C10.7148 11.9236 10.5675 11.9273 10.4331 12.0124C10.5267 11.8422 10.4793 11.6286 10.3227 11.5145L10.3871 11.4738L10.4 11.4626C10.4242 11.4453 10.447 11.4262 10.4682 11.4053L10.4792 11.3923C10.6193 11.2676 10.8333 11.2806 10.9574 11.4214C10.9575 11.4215 10.9577 11.4217 10.9579 11.4219L10.9431 11.4312H10.9597L10.9855 11.4516C11.2083 11.6774 11.1291 11.8829 10.9543 12.0607C10.9375 12.0661 10.9191 12.0828 10.8989 12.0976ZM10.2104 11.5607L10.2472 11.5904C10.4718 11.8162 10.3926 12.0217 10.2159 12.1995L10.1718 12.2383C9.98768 12.0532 9.83118 12.0532 9.69679 12.1439C9.78864 11.976 9.74303 11.7656 9.59004 11.6515L9.64524 11.6182L9.65816 11.6052C9.68292 11.5887 9.70635 11.5701 9.72812 11.5497L9.73919 11.5386C9.87321 11.4118 10.0841 11.4182 10.2102 11.553C10.2109 11.5537 10.2116 11.5545 10.2123 11.5553L10.2104 11.5607ZM11.0866 10.6814L11.1234 10.7128C11.348 10.9387 11.2689 11.1441 11.0922 11.3219L11.048 11.3608C10.8639 11.1756 10.7074 11.1756 10.573 11.2663C10.6649 11.0985 10.6193 10.8881 10.4663 10.7739L10.5215 10.7406L10.5344 10.7276C10.5592 10.7111 10.5826 10.6925 10.6044 10.6721L10.6154 10.661C10.748 10.5341 10.9578 10.5393 11.0839 10.6726C11.0855 10.6743 11.087 10.676 11.0885 10.6777L11.0866 10.6814ZM11.0645 11.3756L11.1179 11.3423L11.1308 11.3312C11.1552 11.3134 11.1786 11.2943 11.2008 11.2738V11.2627C11.3357 11.1354 11.5478 11.1421 11.6743 11.2779C11.6748 11.2784 11.6752 11.2788 11.6757 11.2794L11.7143 11.3109C11.9389 11.5367 11.8598 11.744 11.683 11.9199L11.6388 11.9587C11.4547 11.7736 11.3001 11.7736 11.1638 11.8643C11.2565 11.6981 11.2142 11.4887 11.0645 11.3719V11.3756H11.0645V11.3756ZM11.7769 11.2201C11.5928 11.0461 11.4437 11.0498 11.3093 11.135C11.4029 10.9647 11.3555 10.7511 11.1989 10.637L11.2633 10.5982L11.2762 10.587C11.3006 10.5693 11.324 10.5501 11.3462 10.5297V10.5167C11.4852 10.3892 11.7006 10.3992 11.8273 10.539C11.8289 10.5408 11.8305 10.5426 11.8321 10.5445H11.8174H11.834L11.8598 10.5648C12.0826 10.7907 12.0034 10.9962 11.8285 11.1739L11.7769 11.2201ZM11.961 9.80023L11.9978 9.83173C12.2224 10.0576 12.1433 10.263 11.9666 10.4408L11.9224 10.4797C11.7383 10.2945 11.5818 10.2945 11.4474 10.3852C11.5393 10.2174 11.4937 10.007 11.3407 9.89281L11.3959 9.85952L11.4088 9.84839C11.4332 9.83062 11.4565 9.81151 11.4788 9.79102V9.77989C11.6137 9.65261 11.8257 9.65936 11.9523 9.7951C11.9527 9.79559 11.9532 9.79607 11.9537 9.79659L11.961 9.80023ZM11.9408 10.4963L11.9941 10.463L12.0071 10.4518C12.0314 10.4341 12.0548 10.415 12.077 10.3945V10.3833C12.212 10.2561 12.424 10.2628 12.5506 10.3986C12.551 10.399 12.5515 10.3995 12.5519 10.4L12.5906 10.4315C12.8151 10.6573 12.736 10.8628 12.5593 11.0405L12.5151 11.0793C12.331 10.8942 12.1764 10.8942 12.0402 10.9849C12.1306 10.8196 12.0885 10.6127 11.9408 10.4963ZM12.6513 10.3352C12.4672 10.1612 12.32 10.1649 12.1856 10.25C12.2791 10.0798 12.2317 9.86617 12.0751 9.75206L12.1396 9.71321L12.1525 9.70207C12.1769 9.6843 12.2002 9.66519 12.2224 9.6447L12.2317 9.63172C12.3707 9.50425 12.5861 9.51423 12.7127 9.65402C12.7144 9.6558 12.716 9.65766 12.7176 9.65951H12.7029H12.7195L12.7453 9.67988C12.968 9.90572 12.8889 10.1112 12.714 10.2889C12.69 10.3112 12.6716 10.3204 12.6513 10.3352ZM12.8354 8.91534L12.8722 8.94685C13.0968 9.17269 13.0177 9.37816 12.8409 9.55594L12.7967 9.59479C12.6126 9.40966 12.4561 9.40966 12.3217 9.50035C12.4093 9.33496 12.3657 9.13027 12.2187 9.01535L12.2739 8.98206L12.2868 8.96907C12.3116 8.95252 12.335 8.93393 12.3568 8.91356L12.366 8.90243C12.5009 8.77515 12.713 8.7819 12.8395 8.91764C12.84 8.91812 12.8405 8.91861 12.8409 8.91913L12.8354 8.91534ZM12.8152 9.60956L12.8668 9.57628L12.8797 9.56514C12.9041 9.54737 12.9274 9.52826 12.9496 9.50777L12.9589 9.49664C13.0938 9.36936 13.3058 9.37611 13.4324 9.51186C13.4329 9.51234 13.4333 9.51282 13.4338 9.51334L13.4724 9.54485C13.697 9.77069 13.6178 9.97616 13.4412 10.1539L13.397 10.1927C13.2129 10.0076 13.0582 10.0076 12.922 10.0983C13.0116 9.93203 12.9679 9.7249 12.8189 9.60956C12.8189 9.60956 12.8152 9.60956 12.8152 9.60956ZM13.524 9.45404C13.3399 9.28004 13.1926 9.28375 13.0582 9.36888C13.1517 9.19863 13.1043 8.98503 12.9478 8.87092L13.0196 8.83021L13.0325 8.81908C13.0567 8.80179 13.0795 8.78264 13.1006 8.76171L13.1117 8.74872C13.2492 8.62122 13.4635 8.62994 13.5903 8.76817C13.5928 8.77088 13.5953 8.77366 13.5977 8.77644H13.583H13.5995L13.6253 8.79682C13.8481 9.02266 13.7689 9.22813 13.594 9.40591C13.5734 9.42391 13.5512 9.44001 13.5277 9.45404H13.524ZM13.708 8.03598L13.7448 8.06563C13.9694 8.29147 13.8902 8.49694 13.7136 8.67473L13.6694 8.71358C13.4853 8.52845 13.3288 8.52845 13.1944 8.61914C13.2854 8.45115 13.2399 8.24138 13.0877 8.12675L13.1429 8.09346L13.1558 8.08048C13.181 8.06452 13.2044 8.04586 13.2257 8.02496L13.2368 8.01383C13.3708 7.88703 13.5817 7.89345 13.7078 8.02823C13.7085 8.02901 13.7092 8.02975 13.7099 8.03053L13.708 8.03598ZM14.5843 7.15295L14.621 7.18446C14.8456 7.4103 14.7665 7.61577 14.5898 7.79356L14.5456 7.83241C14.3615 7.64727 14.205 7.64727 14.0706 7.73797C14.1616 7.56998 14.1162 7.3602 13.9639 7.24558L14.0191 7.21229L14.032 7.1993C14.0572 7.18335 14.0807 7.16468 14.102 7.14379L14.113 7.13266C14.2456 7.00578 14.4554 7.01101 14.5815 7.14431C14.5831 7.14594 14.5846 7.14765 14.5861 7.14932L14.5843 7.15295ZM13.8792 7.94344L13.8921 7.9323C13.9164 7.91512 13.9392 7.8959 13.9602 7.87493L13.9713 7.86195C14.1088 7.73444 14.3231 7.74316 14.4499 7.88139C14.4525 7.8841 14.4549 7.88688 14.4573 7.88967H14.4426H14.4592L14.485 7.91004C14.7077 8.13588 14.6286 8.34135 14.4537 8.51906C14.4365 8.53591 14.4181 8.55138 14.3985 8.56533C14.2144 8.39133 14.0671 8.39504 13.9327 8.48017C14.0263 8.30992 13.9789 8.09632 13.8223 7.98221C13.8445 7.97056 13.866 7.95757 13.8867 7.94336L13.8792 7.94344ZM13.6951 8.72839L13.7467 8.6951L13.7596 8.68397C13.7844 8.66679 13.8078 8.64764 13.8296 8.6266V8.61547C13.9667 8.49052 14.1786 8.50103 14.3028 8.63896C14.3047 8.64096 14.3064 8.64304 14.3082 8.64504L14.3468 8.67647C14.5714 8.90232 14.4922 9.10964 14.3155 9.28557L14.2714 9.32442C14.0873 9.13929 13.9326 9.13929 13.7964 9.22998C13.8941 9.06118 13.8505 8.84554 13.6951 8.72839ZM14.4315 8.59138C14.4539 8.58021 14.4755 8.56719 14.4959 8.55253L14.5088 8.5414C14.5333 8.52374 14.5567 8.50455 14.5788 8.48403V8.4729C14.7158 8.34487 14.9301 8.35285 15.0575 8.49067C15.06 8.49334 15.0624 8.49605 15.0648 8.49884H15.0501H15.0666L15.0906 8.51921C15.3151 8.74505 15.2378 8.95237 15.0611 9.12823C15.0441 9.14463 15.0264 9.16011 15.0077 9.1745C14.8236 9.00236 14.6727 9.00421 14.5401 9.08749C14.6318 8.91682 14.5829 8.70423 14.426 8.59138H14.4315ZM15.1568 8.43401C14.9727 8.24887 14.818 8.24887 14.6818 8.33957C14.7728 8.17158 14.7273 7.9618 14.575 7.84718L14.6284 7.81389L14.6413 7.80276C14.6661 7.78558 14.6895 7.76643 14.7113 7.74539V7.73426C14.8462 7.60697 15.0582 7.61373 15.1848 7.74947C15.1853 7.74995 15.1857 7.75044 15.1862 7.75096L15.2248 7.78246C15.4494 8.0083 15.3702 8.21563 15.1936 8.39148L15.1568 8.43401ZM15.2856 7.69355C15.1015 7.51955 14.9543 7.52326 14.8199 7.60838C14.9134 7.43813 14.866 7.22454 14.7094 7.11043C14.7334 7.0993 14.7536 7.08449 14.7757 7.07158L14.7886 7.06044C14.8129 7.04326 14.8357 7.02404 14.8567 7.00307V6.99194C14.9947 6.86344 15.2102 6.87171 15.338 7.01053C15.3402 7.01294 15.3424 7.01539 15.3446 7.01788L15.3298 7.02716H15.3464L15.3722 7.04753C15.595 7.27337 15.5158 7.47884 15.3409 7.65663C15.3215 7.66991 15.3013 7.68164 15.2801 7.69177L15.2856 7.69355ZM15.4697 6.27364L15.5065 6.30514C15.7293 6.53098 15.6519 6.73645 15.4753 6.91424L15.4311 6.95309C15.247 6.76796 15.0905 6.76796 14.9561 6.85865C15.0477 6.69129 15.002 6.48159 14.8494 6.36808L14.9046 6.33293L14.9175 6.3218C14.9423 6.30462 14.9657 6.28547 14.9874 6.26443V6.2533C15.1209 6.12594 15.3318 6.13151 15.4585 6.26577C15.4598 6.26714 15.4611 6.26855 15.4624 6.26996L15.4697 6.27364ZM15.4476 6.96968L15.501 6.93453L15.5139 6.9234C15.5387 6.90622 15.5621 6.88707 15.5839 6.86603V6.8549C15.7188 6.72762 15.9308 6.73437 16.0574 6.87011C16.0578 6.8706 16.0583 6.87108 16.0588 6.8716L16.0974 6.9031C16.322 7.12895 16.2428 7.33441 16.0661 7.5122L16.022 7.55105C15.8379 7.36592 15.6814 7.36592 15.547 7.45661C15.6387 7.29107 15.5956 7.08282 15.4458 6.9679L15.4476 6.96968ZM16.1582 6.8123C15.9741 6.6383 15.8268 6.64201 15.6924 6.72714C15.786 6.55688 15.7385 6.34329 15.582 6.22918L15.6482 6.18847L15.6612 6.17734C15.6857 6.15968 15.709 6.14049 15.7311 6.11997V6.10884C15.8582 5.99009 16.055 5.99009 16.1821 6.10884L16.1563 6.1255L16.1876 6.11069C16.206 6.12921 16.2262 6.1422 16.2465 6.16068C16.4692 6.38652 16.3901 6.59199 16.2151 6.76977C16.1942 6.78521 16.1721 6.79883 16.1489 6.81048L16.1582 6.8123ZM15.8637 5.45354C15.9814 5.3421 16.1666 5.34767 16.2774 5.46601C16.2775 5.46616 16.2777 5.46634 16.2778 5.46649L16.3109 5.49429C16.5079 5.69051 16.438 5.86452 16.2851 6.0256L16.2704 6.03859C16.1594 5.9109 15.9718 5.88485 15.8305 5.97751C15.9109 5.83175 15.8846 5.64984 15.766 5.53321L15.7863 5.51841L15.7974 5.50727C15.8191 5.49321 15.8394 5.47707 15.8581 5.45914L15.8637 5.45354ZM16.3202 6.08112L16.2889 6.05518L16.3074 6.04219L16.3203 6.03291C16.3405 6.01625 16.3626 5.99963 16.3792 5.98293V5.97365C16.4969 5.86222 16.6821 5.86778 16.7929 5.98612C16.793 5.98627 16.7932 5.98645 16.7933 5.9866L16.8246 6.01254C17.0216 6.20877 16.9516 6.38277 16.7988 6.54386L16.7693 6.5698C16.6645 6.49744 16.5262 6.49744 16.4214 6.5698C16.5113 6.40299 16.4676 6.19519 16.3183 6.07922L16.3202 6.08112ZM16.8725 5.93669C16.7123 5.78674 16.5816 5.78859 16.4656 5.86262C16.547 5.71464 16.5059 5.52883 16.3699 5.42946L16.427 5.39432L16.438 5.38504L16.4988 5.33505V5.32578C16.6098 5.22187 16.7818 5.22187 16.8927 5.32578L16.8725 5.33876L16.8964 5.32949L16.9461 5.3702C17.1412 5.56828 17.0731 5.74043 16.9185 5.90151L16.8725 5.93669ZM8.77266 12.5012L8.78557 12.4882C8.81081 12.4715 8.83428 12.4523 8.85554 12.4308C8.98646 12.2993 9.1986 12.2995 9.32938 12.4312C9.33225 12.4341 9.33506 12.4371 9.3379 12.44L9.37469 12.4715C9.59561 12.6973 9.52196 12.9028 9.3379 13.0879L9.29557 13.1249C9.11148 12.9398 8.95314 12.9398 8.81878 13.0323C8.91546 12.8632 8.87026 12.6479 8.71388 12.5325L8.77266 12.5012ZM9.45008 12.3975L9.5145 12.3586L9.52188 12.3475C9.54609 12.3302 9.56886 12.311 9.59 12.2901L9.60107 12.2771C9.7386 12.1496 9.95288 12.1583 10.0797 12.2966C10.0822 12.2993 10.0847 12.3021 10.0871 12.3049H10.0724H10.0889L10.1147 12.3271C10.3375 12.5511 10.2583 12.7565 10.0835 12.9343C10.0663 12.9512 10.0478 12.9666 10.0283 12.9806C9.84417 12.8066 9.6969 12.8103 9.56251 12.8954C9.65598 12.7234 9.60609 12.5082 9.44653 12.3956L9.45008 12.3975ZM9.36912 13.1028L9.38203 13.0917C9.40642 13.0739 9.42978 13.0548 9.452 13.0343V13.0232C9.5855 12.8958 9.79635 12.9014 9.92307 13.0356C9.92436 13.037 9.92565 13.0384 9.92698 13.0398L9.96377 13.0713C10.1883 13.2971 10.1092 13.5026 9.93251 13.6803L9.89019 13.7173C9.70609 13.5321 9.5496 13.5321 9.4134 13.6247C9.5048 13.4571 9.46011 13.2475 9.30849 13.1323L9.36912 13.1028ZM10.0484 12.9991C10.0705 12.9873 10.092 12.9743 10.1128 12.9603L10.1257 12.9492C10.1506 12.932 10.174 12.9128 10.1957 12.8918L10.2049 12.8807C10.342 12.7526 10.5563 12.7606 10.6836 12.8984C10.6861 12.9011 10.6886 12.9038 10.6909 12.9066H10.6761H10.6927L10.7166 12.927C10.9412 13.1528 10.8639 13.3601 10.6872 13.536C10.6702 13.5524 10.6524 13.5679 10.6338 13.5823C10.4497 13.4101 10.3006 13.412 10.1662 13.4953C10.2575 13.3223 10.2052 13.1081 10.0447 12.9973L10.0484 12.9991ZM10.9246 12.118C10.9467 12.1061 10.9682 12.0931 10.989 12.0791L11.002 12.068C11.0268 12.0508 11.0502 12.0316 11.0719 12.0106V11.9995C11.209 11.8715 11.4233 11.8794 11.5506 12.0173C11.5531 12.0199 11.5556 12.0226 11.5579 12.0254L11.5432 12.0347H11.5598L11.5837 12.0551C11.8083 12.2809 11.731 12.4882 11.5543 12.6641C11.5377 12.6809 11.5199 12.6964 11.5009 12.7104C11.3168 12.5382 11.1658 12.5401 11.0333 12.6234C11.1321 12.4505 11.0834 12.2305 10.921 12.1161L10.9246 12.118ZM11.7972 11.2367C11.8193 11.2249 11.8409 11.2119 11.8617 11.1979L11.8746 11.1867C11.8994 11.1696 11.9228 11.1504 11.9445 11.1294V11.1182C12.0816 10.9902 12.2959 10.9982 12.4233 11.136C12.4258 11.1387 12.4282 11.1414 12.4306 11.1442H12.4158H12.4324L12.4564 11.1646C12.6809 11.3904 12.6036 11.5977 12.4269 11.7736C12.4103 11.7904 12.3925 11.8059 12.3735 11.8198C12.1894 11.6477 12.0403 11.6496 11.9059 11.7328C11.9986 11.5635 11.9521 11.3513 11.7972 11.2367ZM12.6734 10.3556C12.6955 10.3437 12.7171 10.3307 12.7379 10.3167L12.7434 10.3112C12.7679 10.2935 12.7913 10.2743 12.8134 10.2538L12.8226 10.2427C12.9596 10.1146 13.174 10.1226 13.3013 10.2604C13.3038 10.2631 13.3062 10.2658 13.3086 10.2686H13.2939H13.3105L13.3344 10.289C13.559 10.5148 13.4817 10.7221 13.3049 10.8981C13.2879 10.9145 13.2702 10.93 13.2516 10.9443C13.0675 10.7722 12.9184 10.7741 12.784 10.8573C12.8809 10.6859 12.8331 10.4684 12.6735 10.3538V10.3556H12.6734ZM13.5497 9.47441C13.572 9.4628 13.5935 9.44985 13.6141 9.43556L13.627 9.42443C13.6515 9.40677 13.6749 9.38758 13.697 9.36706V9.35593C13.834 9.2279 14.0484 9.23588 14.1757 9.3737C14.1782 9.37637 14.1806 9.37908 14.183 9.38187L14.1683 9.39114H14.1848L14.2088 9.41152C14.4334 9.63736 14.3561 9.84468 14.1793 10.0206C14.1623 10.037 14.1446 10.0525 14.126 10.0669C13.9419 9.89474 13.7927 9.8966 13.6584 9.97987C13.7578 9.80794 13.7108 9.58811 13.5498 9.47263L13.5497 9.47441ZM15.825 8.38959C16.0496 8.61543 15.9705 8.8209 15.7938 8.99869L15.7496 9.03754C15.5655 8.8524 15.4109 8.8524 15.2746 8.94132C15.3646 8.77373 15.3192 8.56519 15.1679 8.45074L15.2212 8.41746L15.236 8.40633C15.2604 8.38862 15.2831 8.36877 15.3041 8.3471C15.4376 8.21974 15.6484 8.22531 15.7751 8.35957C15.7764 8.36094 15.7777 8.36235 15.7791 8.36376L15.825 8.38959ZM15.9336 8.24887C15.9171 8.26554 15.8987 8.28038 15.8784 8.297C15.6943 8.123 15.5452 8.12486 15.4127 8.20813C15.5007 8.04014 15.4539 7.83259 15.3022 7.71941C15.3252 7.70735 15.3474 7.69373 15.3685 7.67871L15.3814 7.66757C15.4059 7.64991 15.4293 7.63072 15.4514 7.6102V7.59907C15.5884 7.47105 15.8027 7.47903 15.9301 7.61685C15.9326 7.61952 15.935 7.62223 15.9374 7.62501L15.9227 7.63429H15.9392L15.9632 7.65466C16.1878 7.86388 16.1105 8.0712 15.9338 8.24706V8.24884H15.9336V8.24887ZM16.8393 6.75864C17.0639 6.98448 16.9866 7.19181 16.8098 7.36774C16.7933 7.3844 16.7749 7.39924 16.7546 7.41587C16.5705 7.24187 16.4233 7.24372 16.2889 7.32699C16.3813 7.15718 16.334 6.94481 16.1784 6.83089C16.2011 6.81928 16.2226 6.80562 16.2429 6.79018L16.2558 6.77905C16.2797 6.76053 16.3036 6.74205 16.3257 6.72168V6.71055C16.4201 6.62156 16.5572 6.59555 16.6773 6.6439C16.7376 6.67147 16.7925 6.70973 16.8393 6.75682V6.75868H16.8393V6.75864ZM17.4744 5.89045C17.6585 6.08668 17.5996 6.26068 17.4449 6.41992L17.3989 6.46062C17.3035 6.3326 17.1261 6.30032 16.9921 6.38656C17.0735 6.23857 17.0324 6.05277 16.8964 5.95339C16.9164 5.94341 16.9355 5.93164 16.9534 5.91825H16.9645C16.9859 5.903 17.0061 5.88626 17.0252 5.86826C17.1092 5.78855 17.2322 5.76674 17.3382 5.81275C17.3873 5.83067 17.4332 5.85628 17.4744 5.88867V5.89045ZM17.4744 5.24436C17.597 5.34708 17.6137 5.53036 17.5115 5.6537C17.4939 5.67497 17.4733 5.69359 17.4504 5.70903L17.4228 5.73312C17.3299 5.66806 17.2065 5.66806 17.1135 5.73312C17.1954 5.58479 17.1534 5.39829 17.016 5.29995L16.9921 5.27772L17.0142 5.26106L17.0436 5.23327L17.0767 5.20733C17.1798 5.10858 17.3429 5.11255 17.4411 5.21616C17.4424 5.21753 17.4436 5.21887 17.4449 5.22024L17.4744 5.24436ZM17.1209 4.689L17.1504 4.6612L17.1835 4.63526C17.2907 4.535 17.4584 4.54108 17.5582 4.64888C17.565 4.65631 17.5715 4.66414 17.5775 4.6723C17.7487 4.84444 17.6879 5.00182 17.5535 5.13883L17.5112 5.17397C17.4278 5.06116 17.2721 5.0321 17.1541 5.10732C17.2202 4.97974 17.1843 4.82274 17.0694 4.73709C17.0878 4.72113 17.105 4.7038 17.1209 4.68525V4.689ZM16.6644 4.22804L16.7012 4.2021L16.7288 4.17987C16.8366 4.07868 17.0055 4.08447 17.1061 4.19286C17.1127 4.19995 17.1188 4.20737 17.1246 4.21509C17.2477 4.31884 17.2639 4.50331 17.1607 4.6271C17.1433 4.64796 17.1231 4.66629 17.1007 4.68154L17.0584 4.71668C16.974 4.6055 16.8196 4.57667 16.7013 4.65003C16.7733 4.52071 16.7377 4.35766 16.6184 4.27053C16.6347 4.25602 16.65 4.24054 16.6644 4.22425L16.6644 4.22804ZM16.0625 4.3669L16.0993 4.34096V4.35024L16.1342 4.31695L16.1619 4.29658C16.26 4.19434 16.422 4.19145 16.5237 4.29019C16.5259 4.29227 16.528 4.29446 16.53 4.29658L16.5595 4.32252C16.7325 4.49466 16.6699 4.65204 16.5356 4.78719L16.5208 4.80017L16.4969 4.77424C16.3294 4.60395 16.195 4.6058 16.0717 4.68351C16.1294 4.58368 16.1259 4.45952 16.0625 4.36326V4.36697H16.0625V4.3669ZM15.2286 5.01477L15.2635 4.99069L15.2782 4.97588C15.2984 4.96193 15.3175 4.94646 15.3353 4.92961C15.452 4.81713 15.6373 4.82107 15.7491 4.93837C15.7499 4.93915 15.7506 4.93989 15.7513 4.9407L15.7844 4.9685C15.9814 5.16473 15.9114 5.33873 15.7586 5.49981L15.7439 5.51095L15.7163 5.47766C15.5211 5.28143 15.3647 5.29253 15.2266 5.37402C15.2947 5.26418 15.2954 5.12528 15.2286 5.01477ZM14.2492 5.75531L14.3044 5.72202L14.321 5.70721C14.3447 5.69077 14.3669 5.67218 14.3872 5.6517C14.5212 5.5233 14.7333 5.5285 14.8609 5.6632C14.8619 5.66428 14.863 5.66543 14.864 5.66654L14.9026 5.69805C15.1272 5.92389 15.0481 6.13121 14.8714 6.30714L14.8272 6.346C14.6431 6.16086 14.4866 6.16086 14.3504 6.25156C14.4417 6.08557 14.3978 5.87728 14.2474 5.76284L14.2492 5.75531ZM13.3748 6.63648L13.4282 6.60319L13.4447 6.58839C13.4685 6.57195 13.4906 6.55336 13.511 6.53287C13.645 6.40448 13.8571 6.40967 13.9847 6.54438C13.9857 6.54545 13.9867 6.5466 13.9878 6.54772L14.0264 6.57922C14.251 6.80506 14.1718 7.01239 13.9969 7.18832L13.9509 7.22717C13.7668 7.04204 13.6103 7.04204 13.4741 7.13273C13.565 6.967 13.522 6.75946 13.3729 6.64401L13.3748 6.63648ZM12.4968 7.53432L12.5501 7.50103L12.5685 7.48622C12.5912 7.46915 12.6127 7.45064 12.633 7.43071C12.7669 7.30232 12.979 7.30751 13.1066 7.44221C13.1077 7.44329 13.1087 7.44444 13.1097 7.44555L13.1484 7.47706C13.3729 7.7029 13.2938 7.91022 13.1171 8.08615L13.0729 8.12501C12.8888 7.93987 12.7323 7.93987 12.5961 8.03057C12.6918 7.86347 12.6492 7.65102 12.4968 7.53432ZM11.6205 8.40625L11.6757 8.37111L11.6941 8.3563C11.7168 8.33923 11.7383 8.32072 11.7585 8.30079C11.8924 8.17239 12.1045 8.17759 12.2322 8.31229C12.2332 8.31337 12.2342 8.31452 12.2352 8.31563L12.2739 8.34714C12.4985 8.57298 12.4193 8.7803 12.2426 8.95623L12.1985 8.99509C12.0144 8.80995 11.8579 8.80995 11.7217 8.90065C11.8159 8.73351 11.7726 8.52221 11.6205 8.40625ZM10.7442 9.28743L10.7994 9.25228L10.8178 9.23748C10.8405 9.22041 10.862 9.20189 10.8823 9.18196C11.0161 9.05353 11.2282 9.05847 11.3559 9.19313C11.3582 9.19555 11.3605 9.19799 11.3627 9.20048L11.4013 9.23191C11.6259 9.45775 11.5468 9.66508 11.3701 9.84101L11.3259 9.87986C11.1418 9.69473 10.9853 9.69473 10.8491 9.78542C10.9447 9.61665 10.8996 9.40268 10.7442 9.28743ZM9.86801 10.1686L9.92321 10.1335L9.94163 10.1187C9.96373 10.102 9.9858 10.0817 10.0061 10.0631C10.14 9.93474 10.3521 9.93994 10.4797 10.0746C10.4807 10.0757 10.4818 10.0769 10.4828 10.078L10.5214 10.1094C10.746 10.3353 10.6669 10.5426 10.492 10.7185L10.4423 10.7555C10.2582 10.5704 10.1017 10.5704 9.96547 10.6611C10.0594 10.4953 10.0178 10.2855 9.86801 10.1686ZM8.99177 11.0516L9.04698 11.0165L9.06539 11.0017C9.08808 10.9846 9.1096 10.9661 9.12982 10.9462C9.26377 10.8178 9.47587 10.823 9.60347 10.9577C9.6045 10.9587 9.60554 10.9599 9.60657 10.961L9.64521 10.9924C9.86978 11.2183 9.79063 11.4256 9.61395 11.6015L9.56978 11.6404C9.38569 11.4553 9.22919 11.4553 9.09299 11.5459C9.18712 11.3789 9.1438 11.1676 8.99177 11.0516ZM8.11546 11.9328L8.17066 11.8977L8.18908 11.8829C8.21173 11.8658 8.23325 11.8472 8.2535 11.8274C8.38745 11.699 8.59956 11.7042 8.72716 11.8389C8.72819 11.84 8.72923 11.8411 8.73026 11.8422L8.76889 11.8737C8.99347 12.0995 8.91432 12.3068 8.73764 12.4827L8.69531 12.5215C8.51122 12.3364 8.35288 12.3364 8.21672 12.4271C8.31192 12.2597 8.26856 12.0472 8.1155 11.931V11.9329H8.11546V11.9328ZM8.54996 13.2602C8.44018 13.1135 8.23708 13.0757 8.08236 13.1732C8.1652 13.0287 8.15786 12.864 7.97192 12.677C7.99491 12.665 8.01705 12.6514 8.03819 12.6363L8.05476 12.6215C8.07786 12.605 8.09937 12.5864 8.11919 12.566C8.25476 12.4364 8.46915 12.4418 8.59804 12.5781C8.60173 12.5821 8.60535 12.586 8.60882 12.5901H8.59413H8.6107L8.63465 12.6105C8.85923 12.8363 8.78192 13.0436 8.60517 13.2196C8.58779 13.234 8.5693 13.2469 8.54996 13.2584V13.2602ZM9.15373 13.86C9.04509 13.7126 8.84129 13.6753 8.68797 13.7748C8.78151 13.6046 8.7341 13.391 8.57753 13.2769L8.64196 13.238L8.65487 13.2269C8.67908 13.2096 8.70185 13.1904 8.72299 13.1695L8.73406 13.1565C8.87159 13.029 9.08587 13.0377 9.2127 13.176C9.2152 13.1787 9.21764 13.1815 9.22008 13.1842H9.20535H9.22192L9.24771 13.2046C9.47048 13.4305 9.39133 13.6359 9.21646 13.8136C9.18506 13.8285 9.16664 13.8451 9.15373 13.86ZM9.75388 14.4616C9.64074 14.3137 9.43288 14.2797 9.2789 14.3838C9.37129 14.214 9.32402 14.0016 9.16845 13.8877C9.18915 13.8691 9.20882 13.8493 9.22735 13.8285L9.24026 13.8174C9.26476 13.7997 9.28812 13.7805 9.31022 13.76V13.7488C9.44727 13.6208 9.66159 13.6288 9.78893 13.7666C9.79144 13.7693 9.79388 13.772 9.79624 13.7748H9.78152H9.79808L9.82203 13.7952C10.0466 14.021 9.9693 14.2283 9.79255 14.4043C9.77831 14.4243 9.76296 14.4434 9.74653 14.4616H9.75384V14.4616H9.75388ZM10.5749 13.6748C10.7995 13.9007 10.7203 14.1061 10.5435 14.2838L10.4994 14.3208C10.3153 14.1357 10.1606 14.1357 10.0244 14.2264C10.1144 14.0588 10.0689 13.8503 9.91764 13.7358L9.971 13.7025L9.98572 13.6914C10.0096 13.6731 10.0324 13.6533 10.0538 13.6322C10.1873 13.5048 10.3982 13.5104 10.5249 13.6446C10.5262 13.646 10.5275 13.6474 10.5288 13.6488L10.5749 13.6748ZM11.4511 12.7936C11.6757 13.0195 11.5965 13.225 11.4199 13.4027L11.3757 13.4416C11.1916 13.2565 11.0369 13.2565 10.9007 13.3454C10.9907 13.1778 10.9452 12.9692 10.794 12.8548L10.8473 12.8215L10.862 12.8104C10.8859 12.7921 10.9087 12.7723 10.9302 12.7512H10.9394C11.0729 12.6238 11.2837 12.6294 11.4105 12.7636C11.4117 12.765 11.413 12.7664 11.4144 12.7678L11.4511 12.7936ZM12.3274 11.9125C12.5446 12.1383 12.4673 12.3475 12.2832 12.5216L12.239 12.5604C12.0549 12.3753 11.9003 12.3753 11.764 12.4642C11.853 12.2988 11.8102 12.093 11.6628 11.9773L11.7162 11.944L11.7309 11.9329C11.7548 11.9147 11.7775 11.8948 11.799 11.8737C11.9325 11.7463 12.1434 11.7519 12.2701 11.8862C12.2714 11.8875 12.2727 11.8889 12.274 11.8904L12.3274 11.9125ZM13.2036 11.0313C13.4282 11.2571 13.3491 11.4626 13.1724 11.6403L13.1282 11.6792C12.9441 11.494 12.7895 11.494 12.6514 11.5829C12.7488 11.4169 12.7031 11.2035 12.5465 11.0924L12.5999 11.0591L12.6146 11.048C12.6385 11.0297 12.6612 11.0098 12.6827 10.9887V10.9795C12.8162 10.8521 13.0271 10.8577 13.1538 10.9919C13.1551 10.9933 13.1564 10.9947 13.1577 10.9961L13.2036 11.0313ZM14.0044 10.798C13.8203 10.6129 13.6657 10.6129 13.5295 10.7018C13.6211 10.5344 13.5754 10.3247 13.4227 10.2112L13.4761 10.1779L13.4908 10.1668C13.5147 10.1485 13.5374 10.1287 13.5589 10.1076H13.5681C13.7016 9.9802 13.9125 9.98577 14.0392 10.12C14.0405 10.1214 14.0418 10.1228 14.0431 10.1242L14.0799 10.1557C14.3045 10.3816 14.2253 10.587 14.0486 10.7647L14.0044 10.798Z" fill="#F7BE56"/>
<path d="M6.71819 14.1163C7.47476 12.9019 8.64927 11.8134 9.96732 11.2839C11.2854 10.7545 14.1369 9.79371 15.2745 8.93848C14.8051 9.5901 13.0342 11.1599 12.4985 11.7597C10.8819 13.5416 8.73182 14.7452 6.37402 15.1883C6.68801 14.8714 6.91834 14.4807 7.04406 14.0516" fill="#539642"/>
<path d="M16.4895 10.6304C15.9133 9.29386 10.7829 12.1225 7.85768 14.183C7.74354 14.2644 7.63491 14.3458 7.53185 14.4273C7.61284 14.3218 7.69196 14.2126 7.77299 14.0978C9.82185 11.1655 12.7304 6.08569 11.3903 5.49697C9.46846 4.66578 5.47199 8.17567 5.47199 8.17567C5.47199 8.17567 9.33775 6.33929 9.72617 6.79287C10.0631 7.18903 4.48339 10.6101 5.24184 14.5051C6.00029 18.4001 5.38546 16.21 4.02686 17.3319L4.8497 18.0854C4.8497 18.0854 5.95424 16.758 7.55764 16.8173C7.72122 16.8484 7.88661 16.8688 8.05281 16.8784C8.19011 16.9249 8.33886 16.9249 8.4762 16.8784C11.9462 16.6933 14.8419 11.9912 15.2027 12.304C15.6519 12.689 13.8258 16.5859 13.8258 16.5859C13.8258 16.5859 17.3215 12.5631 16.4895 10.6304Z" fill="#5FA84A"/>
</g>
<defs>
<filter id="filter0_d_543_3104" x="0" y="-0.00012207" width="22.9817" height="23.0999" filterUnits="userSpaceOnUse" color-interpolation-filters="sRGB">
<feFlood flood-opacity="0" result="BackgroundImageFix"/>
<feColorMatrix in="SourceAlpha" type="matrix" values="0 0 0 0 0 0 0 0 0 0 0 0 0 0 0 0 0 0 127 0" result="hardAlpha"/>
<feOffset/>
<feGaussianBlur stdDeviation="0.5"/>
<feColorMatrix type="matrix" values="0 0 0 0 0 0 0 0 0 0 0 0 0 0 0 0 0 0 0.25 0"/>
<feBlend mode="normal" in2="BackgroundImageFix" result="effect1_dropShadow_543_3104"/>
<feBlend mode="normal" in="SourceGraphic" in2="effect1_dropShadow_543_3104" result="shape"/>
</filter>
<clipPath id="clip0_543_3104">
<rect width="13.99" height="14.0688" fill="white" transform="translate(4 4.01648)"/>
</clipPath>
</defs>
</svg>
