<svg width="23" height="24" viewBox="0 0 23 24" fill="none" xmlns="http://www.w3.org/2000/svg">
<g filter="url(#filter0_d_543_3219)">
<ellipse cx="11.4909" cy="11.5498" rx="10.4909" ry="10.55" fill="white"/>
</g>
<g opacity="0.7" clip-path="url(#clip0_543_3219)">
<path d="M15.0255 14.0194C15.3102 14.6064 15.4312 15.0979 15.439 15.1301C15.4811 15.3048 15.4057 15.4854 15.255 15.5785C15.1724 15.6294 13.2147 16.8182 11.5893 16.1436C11.4592 16.0896 11.3323 16.0304 11.209 15.9667C12.5952 15.6188 13.8943 14.8881 15.0255 14.0194Z" fill="#3980FF"/>
<path d="M14.9893 8.70634C14.9862 8.70884 14.8455 8.82343 14.6591 9.00794C13.1447 7.92321 11.3666 7.11479 9.50665 7.11481C9.09629 7.11473 8.68255 7.13955 8.26707 7.18854C8.47992 6.80378 8.83405 6.40223 9.40359 6.02044C10.521 5.27132 11.963 5.84129 13.0961 6.55877C14.1663 7.23639 14.9884 8.05849 15.0228 8.09314C15.1943 8.2656 15.1806 8.55135 14.9893 8.70634Z" fill="#3980FF"/>
<path d="M16.1521 13.0602C16.325 12.8971 16.573 12.6526 16.7315 12.4745C17.15 12.0042 17.15 11.2951 16.7311 10.8244C16.6226 10.7027 16.4057 10.4783 16.1522 10.2391C16.597 9.90044 17.1432 9.37919 17.6577 8.60296C17.801 8.38697 18.1056 8.35595 18.2887 8.54013C18.9005 9.15531 19.237 9.89681 19.2121 10.5744C19.1858 11.2882 19.1858 12.0116 19.2121 12.7248C19.237 13.4025 18.9005 14.144 18.2887 14.7591C18.1059 14.943 17.8011 14.9126 17.6578 14.6963C17.1432 13.9201 16.597 13.3988 16.1521 13.0602Z" fill="#3980FF"/>
<path d="M6.8228 14.7464C8.06357 13.3111 8.06607 9.99857 6.82618 8.55677C6.81182 8.54012 6.82077 8.54981 6.63308 8.36107C7.59738 8.08129 8.56275 7.93924 9.50671 7.93942C11.6058 7.93938 13.6583 9.13275 15.2246 10.5068C15.6171 10.8513 15.9582 11.1923 16.1208 11.3748C16.2601 11.5313 16.2601 11.7681 16.1208 11.9246C15.7718 12.317 15.0483 12.9898 14.2698 13.5577C13.0796 14.425 11.705 15.1245 10.2531 15.3111C10.2465 15.3051 9.99126 15.3538 9.47932 15.3597C8.54795 15.357 7.58681 15.2175 6.65049 14.9464L6.8228 14.7464Z" fill="#3F83FF"/>
<path d="M2.56102 12.5806C2.36741 12.3351 2.19306 12.0187 2.17023 11.7034C2.11929 11.0106 2.88539 10.3012 3.44193 9.88846C4.13336 9.37567 4.96511 8.9545 5.76254 8.65185L6.21497 9.10683C7.17869 10.2465 7.17149 13.0862 6.20345 14.206L5.80631 14.6668C4.70228 14.2532 3.28512 13.5107 2.56102 12.5806ZM5.53943 11.303C5.60473 11.0941 5.48972 10.8573 5.26655 10.7891C5.05513 10.7184 4.79779 10.8488 4.74553 11.1028C4.7246 11.2056 4.74439 11.3166 4.8066 11.4122C5.00714 11.7066 5.44197 11.6277 5.53943 11.303Z" fill="#3F83FF"/>
</g>
<defs>
<filter id="filter0_d_543_3219" x="0" y="-0.00012207" width="22.9817" height="23.0999" filterUnits="userSpaceOnUse" color-interpolation-filters="sRGB">
<feFlood flood-opacity="0" result="BackgroundImageFix"/>
<feColorMatrix in="SourceAlpha" type="matrix" values="0 0 0 0 0 0 0 0 0 0 0 0 0 0 0 0 0 0 127 0" result="hardAlpha"/>
<feOffset/>
<feGaussianBlur stdDeviation="0.5"/>
<feColorMatrix type="matrix" values="0 0 0 0 0 0 0 0 0 0 0 0 0 0 0 0 0 0 0.25 0"/>
<feBlend mode="normal" in2="BackgroundImageFix" result="effect1_dropShadow_543_3219"/>
<feBlend mode="normal" in="SourceGraphic" in2="effect1_dropShadow_543_3219" result="shape"/>
</filter>
<clipPath id="clip0_543_3219">
<rect width="14.0273" height="14.0273" fill="white" transform="matrix(-0.705118 0.70909 0.705118 0.70909 11.4902 1.703)"/>
</clipPath>
</defs>
</svg>
