<svg width="23" height="24" viewBox="0 0 23 24" fill="none" xmlns="http://www.w3.org/2000/svg">
<g filter="url(#filter0_d_543_3277)">
<ellipse cx="11.4909" cy="11.5498" rx="10.4909" ry="10.55" fill="white"/>
</g>
<g clip-path="url(#clip0_543_3277)">
<path d="M10.4982 6.78357C10.4878 7.79806 10.4479 8.88455 10.3331 9.28133C10.273 9.48824 10.1736 9.7894 10.0602 10.1202C9.80169 10.8723 9.4697 11.778 9.35959 12.0794C8.84179 13.4959 8.64615 15.6714 9.35959 16.7661C9.38281 16.8018 9.40668 16.8365 9.43118 16.8702L9.42899 16.8719C8.41499 17.4162 7.02309 16.9895 6.56869 15.7873C6.55284 15.745 6.53809 15.7019 6.52443 15.6579C6.13533 14.3942 6.8974 12.4443 8.28547 11.2048C8.89726 10.6583 9.60578 9.62399 9.91782 9.01644C10.0342 8.78982 10.1317 8.55389 10.2094 8.31108C10.3394 7.9088 10.4419 7.41722 10.4982 6.78357Z" fill="#FFF5CC"/>
<path d="M7.11518 15.7873C7.09933 15.745 7.08457 15.7019 7.07091 15.6579C6.68181 14.3942 7.44389 12.4443 8.83196 11.2048C9.37543 10.7193 9.99501 9.84911 10.3454 9.23487C10.4508 8.80503 10.4882 7.76102 10.4982 6.78357C10.4419 7.41722 10.3394 7.9088 10.2094 8.31108C10.1317 8.55389 10.0342 8.78982 9.91782 9.01644C9.60578 9.62399 8.89726 10.6583 8.28547 11.2048C6.8974 12.4443 6.13533 14.3942 6.52443 15.6579C6.53809 15.7019 6.55284 15.745 6.56869 15.7873C6.92863 16.7396 7.87673 17.2047 8.75938 17.0866C8.05857 16.9931 7.40118 16.544 7.11518 15.7873Z" fill="#EFECB4"/>
<path d="M12.6922 12.0794C13.627 13.6924 13.3942 15.6475 12.6922 16.7661C12.6447 16.8419 12.5949 16.9135 12.543 16.9807C11.6648 18.1246 10.2483 18.0076 9.43132 16.8702C9.40673 16.8364 9.38287 16.8017 9.35973 16.7661C8.6463 15.6714 8.84194 13.4959 9.35973 12.0794C9.46985 11.778 9.80184 10.8723 10.0603 10.1202C10.6554 8.46549 11.2183 8.02419 11.455 5.92871C11.4618 6.15705 11.4689 6.39721 11.476 6.64067C11.5082 7.70765 11.5432 8.83425 11.5626 9.28132C11.6238 10.6956 12.2801 11.3683 12.6922 12.0794Z" fill="#FFF5CC"/>
<path d="M10.5243 16.8702C10.4997 16.8364 10.4758 16.8017 10.4527 16.7661C9.73927 15.6714 9.93491 13.4959 10.4527 12.0794C10.5628 11.778 10.8948 10.8723 11.1533 10.1202C11.2906 9.73828 11.4263 9.42113 11.5566 9.13324C11.5365 8.61698 11.5051 7.60458 11.476 6.64067C11.4689 6.39721 11.4618 6.15705 11.455 5.92871C11.2183 8.02419 10.6554 8.46549 10.0603 10.1202C9.80184 10.8723 9.46985 11.778 9.35973 12.0794C8.84194 13.4959 8.6463 15.6714 9.35973 16.7661C9.38296 16.8018 9.40682 16.8365 9.43132 16.8702C9.99193 17.6506 10.8348 17.9506 11.5924 17.6924C11.1938 17.5594 10.8198 17.2816 10.5243 16.8702Z" fill="#EFECB4"/>
<path d="M10.2095 8.31104C10.1318 8.55385 10.0343 8.78978 9.91791 9.0164C9.60587 9.62394 8.89735 10.6582 8.28556 11.2048C6.89749 12.4443 6.13542 14.3941 6.52451 15.6579C6.53818 15.7018 6.55293 15.745 6.56878 15.7873L6.56331 15.7895C6.32365 15.6301 6.12082 15.4208 5.96851 15.1757C5.8162 14.9307 5.71798 14.6556 5.68047 14.3691C5.49849 13.0593 6.09033 11.6002 7.97598 10.5296C8.58121 10.1859 9.63483 9.51485 10.2095 8.31104Z" fill="#FFF5CC"/>
<g opacity="0.5">
<path opacity="0.5" d="M7.82345 12.921C7.71297 12.1317 7.75088 11.3286 7.9352 10.5533C6.08199 11.6217 5.4998 13.069 5.68046 14.3693C5.71797 14.6558 5.8162 14.9309 5.96851 15.1759C6.12081 15.421 6.32365 15.6303 6.56331 15.7897L6.56877 15.7875C7.02318 16.9897 8.41507 17.4164 9.42907 16.8721L9.43126 16.8704C9.98824 17.6458 10.8238 17.9468 11.5776 17.6975C9.68379 17.1245 8.14724 15.281 7.82345 12.921Z" fill="#B7B391"/>
</g>
<path d="M13.6556 11.321C15.0437 12.5605 15.8055 14.5104 15.4164 15.7741C15.4153 15.7777 15.4142 15.7815 15.4128 15.7851C15.0082 17.0774 13.5898 17.5423 12.543 16.9807C12.5949 16.9136 12.6446 16.8421 12.6922 16.766C13.3941 15.6474 13.6269 13.6923 12.6922 12.0794C12.2801 11.3682 11.6238 10.6956 11.5626 9.28128C11.5432 8.83421 11.5082 7.7076 11.476 6.64062H11.4762C11.5727 7.21052 11.6831 7.80735 11.809 8.31102C11.8664 8.55022 11.938 8.78576 12.0233 9.01639C12.2771 9.67586 13.0435 10.7744 13.6556 11.321Z" fill="#FFF5CC"/>
<path d="M13.0894 16.9806C13.1414 16.9136 13.1911 16.8421 13.2386 16.766C13.9406 15.6474 14.1734 13.6923 13.2386 12.0794C12.8266 11.3682 12.1703 10.6956 12.1091 9.28127C12.1081 9.25904 12.1071 9.23456 12.106 9.20917C12.0745 9.14171 12.0466 9.07728 12.0233 9.01639C11.938 8.78576 11.8664 8.55022 11.809 8.31102C11.6831 7.80735 11.5727 7.21052 11.4762 6.64062H11.476C11.5082 7.7076 11.5432 8.83421 11.5626 9.28127C11.6238 10.6956 12.2801 11.3682 12.6922 12.0794C13.6269 13.6923 13.3941 15.6474 12.6922 16.766C12.6446 16.8419 12.5949 16.9134 12.543 16.9806C12.9152 17.1788 13.34 17.2541 13.7572 17.1962C13.5236 17.1648 13.2975 17.0919 13.0894 16.9806Z" fill="#EFECB4"/>
<path d="M14.014 10.5296C15.8997 11.6002 16.4915 13.0593 16.3095 14.3691C16.272 14.6556 16.1738 14.9307 16.0215 15.1757C15.8692 15.4208 15.6663 15.6301 15.4267 15.7895L15.4128 15.7851C15.4141 15.7815 15.4152 15.7777 15.4163 15.7741C15.8054 14.5104 15.0436 12.5605 13.6555 11.321C13.0435 10.7745 12.277 9.67588 12.0232 9.0164C11.9379 8.78577 11.8663 8.55023 11.809 8.31104C12.3839 9.51485 13.4088 10.1859 14.014 10.5296Z" fill="#FFF5CC"/>
<path d="M11.4548 5.9284V5.92867C11.2182 8.02415 10.6553 8.46545 10.0602 10.1202C10.1736 9.78935 10.273 9.48819 10.3331 9.28128C10.4479 8.88449 10.4878 7.79801 10.4982 6.78352C10.5094 5.70417 10.4873 4.70617 10.4873 4.70617L11.4084 4.31873C11.4084 4.31873 11.4286 5.03206 11.4548 5.9284Z" fill="#50DD5A"/>
</g>
<defs>
<filter id="filter0_d_543_3277" x="0" y="-0.00012207" width="22.9817" height="23.0999" filterUnits="userSpaceOnUse" color-interpolation-filters="sRGB">
<feFlood flood-opacity="0" result="BackgroundImageFix"/>
<feColorMatrix in="SourceAlpha" type="matrix" values="0 0 0 0 0 0 0 0 0 0 0 0 0 0 0 0 0 0 127 0" result="hardAlpha"/>
<feOffset/>
<feGaussianBlur stdDeviation="0.5"/>
<feColorMatrix type="matrix" values="0 0 0 0 0 0 0 0 0 0 0 0 0 0 0 0 0 0 0.25 0"/>
<feBlend mode="normal" in2="BackgroundImageFix" result="effect1_dropShadow_543_3277"/>
<feBlend mode="normal" in="SourceGraphic" in2="effect1_dropShadow_543_3277" result="shape"/>
</filter>
<clipPath id="clip0_543_3277">
<rect width="13.99" height="14.0688" fill="white" transform="translate(4 4.01648)"/>
</clipPath>
</defs>
</svg>
