<svg width="23" height="24" viewBox="0 0 23 24" fill="none" xmlns="http://www.w3.org/2000/svg">
<g filter="url(#filter0_d_543_3210)">
<ellipse cx="11.4909" cy="11.5498" rx="10.4909" ry="10.55" fill="white"/>
</g>
<g opacity="0.7" clip-path="url(#clip0_543_3210)">
<path d="M8.70668 9.80712L10.283 8.22171C10.689 7.81351 11.1708 7.48971 11.7012 7.2688C12.2316 7.04788 12.8 6.93419 13.374 6.9342H14.1133C15.1567 6.9342 16.1573 7.35102 16.8951 8.09296C17.6329 8.8349 18.0474 9.84118 18.0474 10.8904V12.2092C18.0474 13.2584 17.6329 14.2647 16.8951 15.0067C16.1573 15.7486 15.1567 16.1654 14.1133 16.1654H7.11939C6.83237 16.1654 6.54817 16.1086 6.283 15.9981C6.01783 15.8877 5.77689 15.7258 5.57394 15.5217C5.37099 15.3176 5.21 15.0753 5.10016 14.8086C4.99033 14.5419 4.9338 14.2561 4.9338 13.9675V12.6488C4.9338 12.0658 5.16406 11.5068 5.57394 11.0946C5.98382 10.6824 6.53973 10.4509 7.11939 10.4509H7.16119C7.44821 10.4509 7.73243 10.394 7.9976 10.2836C8.26278 10.1731 8.50372 10.0112 8.70668 9.80712Z" fill="#734119"/>
<path d="M8.70668 9.80712L10.283 8.22171C10.689 7.81351 11.1708 7.48971 11.7012 7.2688C12.2316 7.04788 12.8 6.93419 13.374 6.9342H14.1133C15.1567 6.9342 16.1573 7.35102 16.8951 8.09296C17.6329 8.83489 18.0474 9.84118 18.0474 10.8904C18.0474 11.9397 17.6329 12.946 16.8951 13.6879C16.1573 14.4299 15.1567 14.8467 14.1133 14.8467H7.11939C6.53973 14.8467 5.98382 14.6151 5.57394 14.2029C5.16406 13.7907 4.9338 13.2317 4.9338 12.6488C4.9338 12.0658 5.16406 11.5068 5.57394 11.0946C5.98382 10.6824 6.53973 10.4509 7.11939 10.4509H7.16119C7.44821 10.4509 7.73243 10.394 7.9976 10.2836C8.26278 10.1731 8.50372 10.0112 8.70668 9.80712Z" fill="#FAB991"/>
<path d="M14.1133 13.9675C14.9248 13.9675 15.7031 13.6433 16.2769 13.0662C16.8507 12.4892 17.1731 11.7065 17.1731 10.8904C17.1731 10.0743 16.8507 9.29168 16.2769 8.71462C15.7031 8.13756 14.9248 7.81337 14.1133 7.81337H13.374C12.9146 7.8121 12.4595 7.90248 12.0351 8.07928C11.6106 8.25608 11.2253 8.51578 10.9013 8.84336L9.32493 10.4288C9.04143 10.7154 8.70422 10.9426 8.33282 11.0973C7.96141 11.252 7.56318 11.331 7.16119 11.3299H7.11936C6.77157 11.3299 6.43802 11.4688 6.19209 11.7162C5.94617 11.9635 5.808 12.2989 5.808 12.6486C5.808 12.9984 5.94617 13.3338 6.19209 13.5811C6.43802 13.8284 6.77157 13.9674 7.11936 13.9674L14.1133 13.9675Z" fill="#E13741"/>
<path d="M14.1132 12.2091C13.389 12.2091 12.8018 11.6187 12.8018 10.8904C12.8018 10.1621 13.389 9.57166 14.1132 9.57166C14.8374 9.57166 15.4246 10.1621 15.4246 10.8904C15.4246 11.6187 14.8374 12.2091 14.1132 12.2091Z" fill="#FAB991"/>
<path d="M14.1131 11.5498C13.751 11.5498 13.4574 11.2546 13.4574 10.8905C13.4574 10.5263 13.751 10.2311 14.1131 10.2311C14.4752 10.2311 14.7688 10.5263 14.7688 10.8905C14.7688 11.2546 14.4752 11.5498 14.1131 11.5498Z" fill="#E13741"/>
</g>
<defs>
<filter id="filter0_d_543_3210" x="0" y="-0.00012207" width="22.9817" height="23.0999" filterUnits="userSpaceOnUse" color-interpolation-filters="sRGB">
<feFlood flood-opacity="0" result="BackgroundImageFix"/>
<feColorMatrix in="SourceAlpha" type="matrix" values="0 0 0 0 0 0 0 0 0 0 0 0 0 0 0 0 0 0 127 0" result="hardAlpha"/>
<feOffset/>
<feGaussianBlur stdDeviation="0.5"/>
<feColorMatrix type="matrix" values="0 0 0 0 0 0 0 0 0 0 0 0 0 0 0 0 0 0 0.25 0"/>
<feBlend mode="normal" in2="BackgroundImageFix" result="effect1_dropShadow_543_3210"/>
<feBlend mode="normal" in="SourceGraphic" in2="effect1_dropShadow_543_3210" result="shape"/>
</filter>
<clipPath id="clip0_543_3210">
<rect width="13.9878" height="14.0666" fill="white" transform="matrix(-1 0 0 1 18.4844 4.51648)"/>
</clipPath>
</defs>
</svg>
