<svg width="23" height="24" viewBox="0 0 23 24" fill="none" xmlns="http://www.w3.org/2000/svg">
<g filter="url(#filter0_d_543_3151)">
<ellipse cx="11.4909" cy="11.5498" rx="10.4909" ry="10.55" fill="white"/>
</g>
<g opacity="0.9">
<path d="M11.501 12.4488C11.1594 12.4007 10.888 12.346 10.5626 12.2846C10.4643 12.266 10.3958 12.175 10.4043 12.0747C10.4457 11.5899 10.5616 11.0637 10.7387 10.6324C10.2747 10.6324 9.96374 10.6324 9.45246 10.6324L8.65961 15.7642C8.6044 15.9362 8.57422 16.1195 8.57422 16.31C8.57422 17.2904 9.36462 18.0853 10.3396 18.0853C11.5339 18.0853 12.3883 16.9128 12.0196 15.7642L11.501 12.4488Z" fill="#E0B377"/>
<path d="M9.20242 16.31C9.20242 16.1195 9.23257 15.9362 9.28778 15.7642L10.0806 10.6324C9.89107 10.6324 9.6942 10.6324 9.45243 10.6324L8.65958 15.7642C8.60437 15.9362 8.57422 16.1195 8.57422 16.31C8.57422 17.2904 9.36462 18.0853 10.3396 18.0853C10.448 18.0853 10.5536 18.0755 10.6557 18.0571C9.82967 17.9088 9.20242 17.1833 9.20242 16.31Z" fill="#CC9A5E"/>
<path d="M16.2026 16.3882L15.6232 12.6837C15.1539 12.6837 14.7956 12.6837 14.3264 12.6837L13.7469 16.3882C13.4777 17.2269 14.101 18.0846 14.9748 18.0846C15.8476 18.0846 16.4721 17.2277 16.2026 16.3882Z" fill="#E0B377"/>
<path d="M14.3751 16.3882L14.9546 12.6837C14.7544 12.6837 14.5533 12.6837 14.3264 12.6837L13.7469 16.3882C13.4777 17.2269 14.101 18.0846 14.9748 18.0846C15.0837 18.0846 15.1889 18.0712 15.2888 18.0462C14.5876 17.8708 14.1395 17.1222 14.3751 16.3882Z" fill="#CC9A5E"/>
<path d="M16.2237 7.97416C15.2698 5.65113 12.9953 4.01624 10.3408 4.01624C7.01233 4.01624 4.28096 6.58655 4.00196 9.86112C3.99027 9.99827 4.08396 10.1228 4.21852 10.1483C6.32825 10.5467 8.53134 10.7151 10.6771 10.6952C11.5651 8.53344 13.9276 7.33202 16.2237 7.97416Z" fill="#A06E4B"/>
<path d="M4.67938 9.99895C4.94893 6.76099 7.50725 4.19605 10.6815 4.02566C10.5684 4.01964 10.4545 4.01636 10.3398 4.01636C7.01132 4.01636 4.27999 6.58667 4.00098 9.86124C3.98929 9.99839 4.08299 10.123 4.21754 10.1484C4.40993 10.1847 4.60333 10.2185 4.79716 10.251C4.71857 10.1967 4.67087 10.1014 4.67938 9.99895Z" fill="#93603E"/>
<path d="M18.1452 9.03655C15.3151 6.39872 10.6576 8.18068 10.326 12.0729C10.3167 12.182 10.3902 12.2795 10.497 12.2996C13.3432 12.8371 16.6296 12.8358 19.4743 12.2954C19.5679 12.2776 19.6326 12.1917 19.6249 12.0957C19.5308 10.9246 19.0053 9.83819 18.1452 9.03655Z" fill="#93603E"/>
<path d="M10.9708 12.2595C11.1837 9.65205 13.1794 7.95237 15.3298 7.79763C12.9493 7.63012 10.5601 9.32562 10.326 12.0729C10.3167 12.182 10.3902 12.2794 10.497 12.2996C10.6623 12.3308 10.8292 12.36 10.9973 12.3876C10.9771 12.3499 10.967 12.3058 10.9708 12.2595Z" fill="#7F573C"/>
<path d="M7.38586 5.94896C6.291 6.86354 5.71999 8.02402 5.43376 8.83646C5.19254 9.52114 5.10776 10.0731 5.08105 10.2972C5.23615 10.3217 5.3917 10.3448 5.54753 10.367C5.59734 9.94507 5.93341 7.77825 7.68696 6.31345C7.78703 6.22984 7.80076 6.0805 7.71763 5.97984C7.6345 5.87917 7.48596 5.86536 7.38586 5.94896Z" fill="#93603E"/>
<path d="M7.15066 9.04603C7.03362 8.98891 6.89268 9.03808 6.83589 9.15581C6.8267 9.17487 6.61792 9.61537 6.48926 10.4864C6.64545 10.5039 6.8018 10.5203 6.95836 10.5355C7.07482 9.76247 7.25622 9.37027 7.2601 9.36196C7.31644 9.24435 7.26755 9.10302 7.15066 9.04603Z" fill="#93603E"/>
<path d="M18.2225 10.9546C18.1699 10.8351 18.031 10.7811 17.9121 10.8338C17.7931 10.8865 17.7392 11.0262 17.7914 11.1459C17.7941 11.1521 18.0411 11.7268 18.093 12.5115C18.2499 12.4919 18.4058 12.4706 18.5609 12.448C18.4993 11.5937 18.2347 10.9824 18.2225 10.9546Z" fill="#7F573C"/>
</g>
<defs>
<filter id="filter0_d_543_3151" x="0" y="-0.00012207" width="22.9817" height="23.0999" filterUnits="userSpaceOnUse" color-interpolation-filters="sRGB">
<feFlood flood-opacity="0" result="BackgroundImageFix"/>
<feColorMatrix in="SourceAlpha" type="matrix" values="0 0 0 0 0 0 0 0 0 0 0 0 0 0 0 0 0 0 127 0" result="hardAlpha"/>
<feOffset/>
<feGaussianBlur stdDeviation="0.5"/>
<feColorMatrix type="matrix" values="0 0 0 0 0 0 0 0 0 0 0 0 0 0 0 0 0 0 0.25 0"/>
<feBlend mode="normal" in2="BackgroundImageFix" result="effect1_dropShadow_543_3151"/>
<feBlend mode="normal" in="SourceGraphic" in2="effect1_dropShadow_543_3151" result="shape"/>
</filter>
</defs>
</svg>
