<svg width="23" height="24" viewBox="0 0 23 24" fill="none" xmlns="http://www.w3.org/2000/svg">
<g filter="url(#filter0_d_543_3063)">
<ellipse cx="11.4909" cy="11.5498" rx="10.4909" ry="10.55" fill="white"/>
</g>
<g opacity="0.8" clip-path="url(#clip0_543_3063)">
<path d="M12.1993 5.73794H14.2938L14.6856 4.38272C14.7141 4.28391 14.6404 4.18518 14.5381 4.18518H11.9422C11.8394 4.18518 11.7656 4.28493 11.7952 4.38401L12.1993 5.73794Z" fill="#FFBD86"/>
<path d="M12.199 5.73794H13.0908L12.6866 4.38401C12.6571 4.28493 12.7309 4.18518 12.8337 4.18518H11.942C11.8391 4.18518 11.7653 4.28493 11.7949 4.38401L12.199 5.73794Z" fill="#F6A96C"/>
<path d="M14.3491 9.85147C14.5463 9.61783 14.8401 9.46911 15.168 9.46911C15.7601 9.46911 16.2418 9.95355 16.2418 10.549C16.2418 10.854 16.1152 11.1296 15.9124 11.3262C16.1553 11.448 16.385 11.5967 16.5968 11.7697C16.875 11.4407 17.0432 11.0147 17.0432 10.549C17.0432 9.5075 16.2036 8.66321 15.1679 8.66321C14.8743 8.66321 14.5965 8.73119 14.3491 8.85218V9.85147H14.3491Z" fill="#62DBFB"/>
<path d="M14.9659 10.9766C14.6232 10.9116 14.3764 10.6083 14.3764 10.2576V6.65002H12.1542V10.2485C12.1542 10.6026 11.9027 10.9076 11.556 10.9691C10.7527 11.1117 10.0365 11.5167 9.49857 12.092C9.51888 12.326 9.52945 12.5645 9.52945 12.8051C9.52945 13.4054 9.46745 13.9852 9.34523 14.5285L9.33936 14.5546L9.36515 14.5612C9.69124 14.6445 9.99339 14.8191 10.239 15.066C10.5732 15.4022 10.7701 15.8361 10.7933 16.2878C10.8164 16.7384 10.6638 17.1528 10.3636 17.4547C10.3296 17.4889 10.294 17.5212 10.257 17.5516C10.704 17.7846 11.2105 17.9166 11.7462 17.9166H14.7335C16.5245 17.9165 17.9899 16.4429 17.9899 14.6418C17.9899 12.8257 16.6816 11.3019 14.9659 10.9766Z" fill="#C8EFFE"/>
<path d="M9.51531 13.2893C9.62177 13.0771 9.7529 12.8763 9.90815 12.6924C10.3644 12.1522 10.993 11.7876 11.6783 11.666L12.3826 11.6674C12.4027 11.6635 12.4226 11.6591 12.4427 11.6555C12.7894 11.594 13.0409 11.2889 13.0409 10.9349V6.65002H12.1542V10.2485C12.1542 10.6026 11.9027 10.9076 11.556 10.9691C10.7526 11.1117 10.0364 11.5167 9.49854 12.092C9.51884 12.326 9.52941 12.5645 9.52941 12.8051C9.52941 12.9682 9.52444 13.1296 9.51531 13.2893Z" fill="#99E6FC"/>
<path d="M16.5823 12.7052C16.1333 12.1674 15.5129 11.8004 14.8355 11.672L11.6783 11.666C10.993 11.7876 10.3644 12.1521 9.90819 12.6924C9.75296 12.8763 9.62183 13.077 9.51535 13.2892C9.49092 13.7175 9.43425 14.1327 9.34523 14.5284L9.33936 14.5545L9.36515 14.5611C9.69124 14.6445 9.99339 14.819 10.239 15.066C10.5732 15.4021 10.7701 15.836 10.7933 16.2877C10.8058 16.5312 10.7666 16.764 10.6809 16.9743C11.0053 17.1247 11.3661 17.2088 11.7462 17.2088H14.7335C16.1411 17.2088 17.2862 16.0572 17.2862 14.6418C17.2862 13.9366 17.0362 13.2488 16.5823 12.7052Z" fill="#FAC600"/>
<path d="M10.6713 14.6418C10.6713 13.9305 10.9251 13.2382 11.386 12.6924C11.8391 12.1558 12.4625 11.7928 13.1423 11.6688L11.6783 11.666C10.993 11.7876 10.3644 12.1521 9.90819 12.6924C9.75296 12.8763 9.62183 13.077 9.51535 13.2892C9.49092 13.7175 9.43425 14.1327 9.34523 14.5284L9.33936 14.5545L9.36515 14.5611C9.69124 14.6445 9.99339 14.819 10.2389 15.066C10.5732 15.4021 10.7701 15.836 10.7933 16.2877C10.8058 16.5312 10.7666 16.764 10.6809 16.9743C11.0053 17.1247 11.3661 17.2088 11.7461 17.2088H13.224C11.8164 17.2088 10.6713 16.0572 10.6713 14.6418Z" fill="#E8B800"/>
<path d="M14.5821 6.67752H11.8482C11.6095 6.67752 11.3859 6.55988 11.2498 6.36264L10.9584 5.94052C10.8913 5.84336 10.9605 5.71045 11.0781 5.71045H14.5821C14.8477 5.71045 15.0629 5.92695 15.0629 6.19398C15.0629 6.46104 14.8477 6.67752 14.5821 6.67752Z" fill="#99E6FC"/>
<path d="M12.7199 6.36264L12.4285 5.94052C12.3614 5.84336 12.4306 5.71045 12.5482 5.71045H11.0781C10.9605 5.71045 10.8913 5.84336 10.9584 5.94052L11.2497 6.36264C11.3859 6.55988 11.6095 6.67752 11.8482 6.67752H13.3184C13.0796 6.67752 12.856 6.55988 12.7199 6.36264Z" fill="#62DBFB"/>
<path d="M8.18927 14.6955C8.41189 14.5723 8.66748 14.5063 8.93711 14.5063C9.08116 14.5063 9.22522 14.5255 9.36599 14.5617C9.48849 14.0275 9.55691 13.4324 9.55691 12.8052C9.55691 11.425 9.22607 10.2008 8.71562 9.43724C8.68125 9.38583 8.6054 9.38583 8.57102 9.43724C8.06058 10.2008 7.72974 11.4251 7.72974 12.8052C7.72974 13.2861 7.77012 13.748 7.84406 14.1782C7.96937 14.3495 8.08473 14.5225 8.18927 14.6955Z" fill="#09A76D"/>
<path d="M8.19022 14.6955C8.29165 14.6393 8.39991 14.5952 8.51331 14.5637C8.39048 14.029 8.32185 13.4333 8.32185 12.8052C8.32185 11.6384 8.55834 10.5831 8.93986 9.82331C8.87011 9.68438 8.79551 9.55526 8.7166 9.43724C8.68222 9.38583 8.60637 9.38583 8.572 9.43724C8.06155 10.2008 7.73071 11.4251 7.73071 12.8052C7.73071 13.2861 7.7711 13.748 7.84504 14.1782C7.97032 14.3495 8.08568 14.5225 8.19022 14.6955Z" fill="#02905D"/>
<path d="M8.84834 14.509V11.7837C8.84834 11.6699 8.75658 11.5776 8.64341 11.5776C8.53023 11.5776 8.43848 11.6699 8.43848 11.7837V14.5862C8.56859 14.5429 8.70614 14.5167 8.84834 14.509Z" fill="#026841"/>
<path d="M6.08488 14.8239C6.30266 14.7369 6.54311 14.6882 6.79602 14.6882C7.17796 14.6882 7.5317 14.7988 7.82104 14.9859C7.835 14.9706 7.84904 14.9554 7.86372 14.9406C7.96725 14.8365 8.08499 14.7499 8.21325 14.682C7.91782 14.1925 7.53197 13.6962 7.06694 13.2285C6.0965 12.2526 5.00175 11.6222 4.1039 11.4453C4.04344 11.4333 3.9898 11.4873 4.00166 11.5481C4.17762 12.451 4.80452 13.5519 5.77494 14.5278C5.87703 14.6305 5.98048 14.729 6.08488 14.8239Z" fill="#09A76D"/>
<path d="M6.0858 14.8239C6.30358 14.7369 6.54403 14.6882 6.79694 14.6882C6.84881 14.6882 6.90001 14.6906 6.95075 14.6946C6.7221 14.5104 6.4961 14.3073 6.27645 14.0864C5.47494 13.2804 4.90808 12.3892 4.63579 11.5946C4.45318 11.529 4.27547 11.4789 4.10488 11.4453C4.04441 11.4333 3.99077 11.4873 4.00263 11.5481C4.1786 12.451 4.8055 13.5519 5.77592 14.5278C5.87795 14.6305 5.9814 14.729 6.0858 14.8239Z" fill="#02905D"/>
<path d="M6.94251 14.694C7.25783 14.7176 7.5499 14.8161 7.7968 14.9702L5.84763 13.0101C5.76759 12.9296 5.63783 12.9296 5.55783 13.0101C5.47779 13.0906 5.47779 13.221 5.55783 13.3015L6.94251 14.694Z" fill="#026841"/>
<path d="M7.98845 17.3294C7.65419 16.9932 7.45732 16.5594 7.43412 16.1077C7.41158 15.6689 7.55604 15.2648 7.84068 14.9652C7.54634 14.7738 7.18588 14.6608 6.79607 14.6608C5.80466 14.6608 5.00098 15.3896 5.00098 16.2887C5.00098 17.1878 5.80466 17.9166 6.79607 17.9166C7.30247 17.9166 7.75958 17.7261 8.08594 17.4203C8.05266 17.391 8.01992 17.361 7.98845 17.3294Z" fill="#8BC727"/>
<path d="M5.88486 16.2887C5.88486 15.5279 6.46034 14.8892 7.23801 14.7106C7.09661 14.6781 6.94859 14.6608 6.79607 14.6608C5.80466 14.6608 5.00098 15.3896 5.00098 16.2887C5.00098 17.1878 5.80466 17.9166 6.79607 17.9166C6.94859 17.9166 7.09661 17.8992 7.23801 17.8668C6.46034 17.6882 5.88486 17.0494 5.88486 16.2887Z" fill="#81B823"/>
<path d="M5.73838 16.6882C5.6252 16.6882 5.53345 16.5959 5.53345 16.4821V16.0952C5.53345 15.9814 5.6252 15.8892 5.73838 15.8892C5.85155 15.8892 5.94331 15.9814 5.94331 16.0952V16.4821C5.94331 16.5959 5.85155 16.6882 5.73838 16.6882Z" fill="#BBEC6C"/>
<path d="M10.381 17.4732C11.0131 16.8375 10.9573 15.7508 10.2564 15.0459C9.55543 14.3411 8.47481 14.285 7.84273 14.9206C7.21065 15.5562 7.26645 16.6429 7.96737 17.3478C8.66829 18.0527 9.74891 18.1088 10.381 17.4732Z" fill="#8BC727"/>
<path d="M8.84489 17.3487C8.14386 16.6438 8.08804 15.5569 8.72024 14.9212C8.90818 14.7322 9.1359 14.6048 9.38135 14.537C8.82962 14.3929 8.24638 14.5169 7.84444 14.9212C7.21227 15.5569 7.26809 16.6438 7.9691 17.3487C8.46173 17.8441 9.14174 18.0186 9.72197 17.8583C9.40594 17.7757 9.10021 17.6055 8.84489 17.3487Z" fill="#81B823"/>
<path d="M8.22958 15.7882C8.17715 15.7882 8.12469 15.7681 8.08468 15.7279C8.00465 15.6474 8.00465 15.5169 8.08468 15.4364L8.3567 15.1629C8.43673 15.0824 8.56649 15.0824 8.6465 15.1629C8.72653 15.2434 8.72653 15.3739 8.6465 15.4543L8.37448 15.7279C8.33448 15.7681 8.28202 15.7882 8.22958 15.7882Z" fill="#BBEC6C"/>
</g>
<defs>
<filter id="filter0_d_543_3063" x="0" y="-0.00012207" width="22.9817" height="23.0999" filterUnits="userSpaceOnUse" color-interpolation-filters="sRGB">
<feFlood flood-opacity="0" result="BackgroundImageFix"/>
<feColorMatrix in="SourceAlpha" type="matrix" values="0 0 0 0 0 0 0 0 0 0 0 0 0 0 0 0 0 0 127 0" result="hardAlpha"/>
<feOffset/>
<feGaussianBlur stdDeviation="0.5"/>
<feColorMatrix type="matrix" values="0 0 0 0 0 0 0 0 0 0 0 0 0 0 0 0 0 0 0.25 0"/>
<feBlend mode="normal" in2="BackgroundImageFix" result="effect1_dropShadow_543_3063"/>
<feBlend mode="normal" in="SourceGraphic" in2="effect1_dropShadow_543_3063" result="shape"/>
</filter>
<clipPath id="clip0_543_3063">
<rect width="13.99" height="14.0688" fill="white" transform="translate(4 4.01648)"/>
</clipPath>
</defs>
</svg>
