<svg width="23" height="24" viewBox="0 0 23 24" fill="none" xmlns="http://www.w3.org/2000/svg">
<g filter="url(#filter0_d_543_2876)">
<ellipse cx="11.4909" cy="11.5498" rx="10.4909" ry="10.55" fill="white"/>
</g>
<g opacity="0.7" clip-path="url(#clip0_543_2876)">
<path d="M8.92805 8.53558L11.3658 8.31524L10.7657 6.68753L12.4547 4.98901L13.4576 5.15724C14.12 5.2679 14.7571 5.48041 15.3518 5.78787L15.6991 5.96777L15.537 6.32553C15.4882 6.43257 15.4638 6.54727 15.4638 6.66681C15.4638 7.12118 15.8316 7.49103 16.2834 7.49103C16.4651 7.49103 16.6364 7.43267 16.7796 7.32281L17.0902 7.08376L17.3419 7.38479C18.0399 8.21826 18.5486 9.22479 18.7695 10.3758L12.1854 12.2833L4.78173 12.6778L8.92805 8.53558Z" fill="#FEDB41"/>
<path d="M5.05506 14.9557L4.78173 14.8587V12.6779L18.7695 10.3759V16.4874L16.3182 16.9446L16.2806 16.4891C16.2462 16.0653 15.8872 15.7333 15.4638 15.7333C15.012 15.7333 14.6442 16.1031 14.6442 16.5575C14.6442 16.6371 14.6554 16.716 14.6778 16.7909L14.8131 17.2489L10.4635 17.8715L8.90704 16.5575L7.54107 18.2898L4.78173 18.6808V16.6078L5.05506 16.5108C5.24515 16.4432 5.40364 16.3076 5.50087 16.1293C5.56769 16.0069 5.60132 15.8737 5.60132 15.7333C5.60132 15.3847 5.38162 15.072 5.05506 14.9557Z" fill="#FCBF29"/>
<path d="M11.7756 15.7333C12.4535 15.7333 13.005 15.1787 13.005 14.4969C13.005 13.8152 12.4535 13.2606 11.7756 13.2606C11.0977 13.2606 10.5462 13.8152 10.5462 14.4969C10.5462 15.1787 11.0977 15.7333 11.7756 15.7333Z" fill="#FE9923"/>
<path d="M8.90696 15.7333C9.56969 15.7333 10.1632 16.1305 10.4193 16.7454C10.5703 17.1079 10.5746 17.4953 10.4635 17.8715L7.54099 18.2898C7.36912 18.0291 7.26777 17.7174 7.26777 17.3817C7.26777 16.4726 8.00292 15.7333 8.90696 15.7333Z" fill="#FE9923"/>
<path d="M15.4638 12.4364C16.3679 12.4364 17.103 11.6971 17.103 10.788C17.103 9.87882 16.3679 9.13953 15.4638 9.13953C14.5598 9.13953 13.8246 9.87882 13.8246 10.788C13.8246 11.6971 14.5598 12.4364 15.4638 12.4364Z" fill="#FE9923"/>
<path d="M12.1854 8.31534C12.1854 9.22447 11.4503 9.96376 10.5462 9.96376C9.91872 9.96376 9.35565 9.61243 9.07672 9.04658C8.99629 8.88327 8.95116 8.71099 8.92804 8.53568L10.7657 6.68762C10.9399 6.71097 11.1111 6.75655 11.2734 6.83755C11.8361 7.11805 12.1854 7.68429 12.1854 8.31534Z" fill="#FEA832"/>
</g>
<defs>
<filter id="filter0_d_543_2876" x="0" y="-0.00012207" width="22.9817" height="23.0999" filterUnits="userSpaceOnUse" color-interpolation-filters="sRGB">
<feFlood flood-opacity="0" result="BackgroundImageFix"/>
<feColorMatrix in="SourceAlpha" type="matrix" values="0 0 0 0 0 0 0 0 0 0 0 0 0 0 0 0 0 0 127 0" result="hardAlpha"/>
<feOffset/>
<feGaussianBlur stdDeviation="0.5"/>
<feColorMatrix type="matrix" values="0 0 0 0 0 0 0 0 0 0 0 0 0 0 0 0 0 0 0.25 0"/>
<feBlend mode="normal" in2="BackgroundImageFix" result="effect1_dropShadow_543_2876"/>
<feBlend mode="normal" in="SourceGraphic" in2="effect1_dropShadow_543_2876" result="shape"/>
</filter>
<clipPath id="clip0_543_2876">
<rect width="13.9878" height="14.0666" fill="white" transform="matrix(-1 0 0 1 18.7695 4.80164)"/>
</clipPath>
</defs>
</svg>
