<svg width="23" height="24" viewBox="0 0 23 24" fill="none" xmlns="http://www.w3.org/2000/svg">
<g filter="url(#filter0_d_543_2968)">
<ellipse cx="11.4909" cy="11.5498" rx="10.4909" ry="10.55" fill="white"/>
</g>
<g clip-path="url(#clip0_543_2968)">
<path d="M4.05968 7.11047C4.02123 7.17744 4 7.2544 4 7.33442V11.784C4 11.944 4.0849 12.0919 4.22269 12.1719L8.05459 14.3967C8.1235 14.4367 8.20039 14.4567 8.27728 14.4567L8.87453 9.21247L4.05968 7.11047Z" fill="#FDEDA6"/>
<path d="M8.27734 8.64263V14.4567C8.35423 14.4567 8.43112 14.4367 8.50004 14.3967L10.6594 13.143L12.5546 10.0147V7.33442C12.5546 7.2544 12.5334 7.17744 12.4949 7.11047L8.27734 8.64263Z" fill="#FDEDA6"/>
<path d="M12.4947 7.11047C12.4563 7.0435 12.4006 6.98654 12.3317 6.94653L8.49984 4.72173C8.36204 4.64175 8.19228 4.64175 8.05448 4.72173L4.22259 6.94653C4.15367 6.98654 4.09802 7.0435 4.05957 7.11047L8.27717 9.55921L12.4947 7.11047Z" fill="#FDEDA6"/>
<path d="M10.7105 11.1447C10.6776 11.2021 10.6594 11.268 10.6594 11.3366V15.1496C10.6594 15.2867 10.7322 15.4134 10.8503 15.482L14.1339 17.3885C14.193 17.4228 14.2589 17.4399 14.3248 17.4399L14.6393 12.9267L10.7105 11.1447Z" fill="#FDEDA6"/>
<path d="M11.6174 7.61987C11.5591 7.51831 11.4299 7.48352 11.329 7.54216L8.27719 9.31403L5.2254 7.54219C5.12441 7.48352 4.9953 7.51834 4.93702 7.6199C4.87871 7.72145 4.9133 7.85129 5.01429 7.9099L8.06605 9.68177V13.2255C8.06605 13.3428 8.16057 13.4378 8.27716 13.4378C8.39375 13.4378 8.48827 13.3428 8.48827 13.2255V9.68177L11.5401 7.9099C11.641 7.85126 11.6756 7.72143 11.6174 7.61987Z" fill="#B5B5B5"/>
<path d="M5.59098 7.18167C5.51803 7.18167 5.44707 7.14359 5.40797 7.07547C5.34966 6.97391 5.38425 6.84407 5.48524 6.78546L6.73519 6.05974C6.83618 6.0011 6.96528 6.03589 7.02357 6.13745C7.08188 6.23901 7.04728 6.36884 6.94629 6.42745L5.69635 7.15318C5.66312 7.17249 5.62681 7.18167 5.59098 7.18167Z" fill="#B5B5B5"/>
<path d="M14.3247 12.9979V17.4399C14.3906 17.4399 14.4565 17.4227 14.5155 17.3885L17.7992 15.482C17.9173 15.4134 17.9901 15.2867 17.9901 15.1496V11.3366C17.9901 11.268 17.9719 11.2021 17.939 11.1447L14.3247 12.9979Z" fill="#FDEDA6"/>
<path d="M17.9389 11.1447C17.9059 11.0873 17.8582 11.0385 17.7992 11.0042L14.5155 9.09768C14.3974 9.02913 14.2519 9.02913 14.1338 9.09768L10.8501 11.0042C10.7911 11.0385 10.7434 11.0873 10.7104 11.1447L14.3247 13.2431L17.9389 11.1447Z" fill="#FDEDA6"/>
<path d="M13.1176 10.7173C13.0446 10.7173 12.9736 10.6792 12.9346 10.6111C12.8763 10.5096 12.9109 10.3797 13.0118 10.3211L14.2192 9.62016C14.3201 9.56152 14.4493 9.59631 14.5075 9.69787C14.5659 9.79943 14.5312 9.92926 14.4303 9.98787L13.223 10.6888C13.1897 10.7082 13.1534 10.7173 13.1176 10.7173Z" fill="#B5B5B5"/>
<path d="M17.2132 11.566C17.1549 11.4645 17.0257 11.4297 16.9248 11.4883L14.3247 12.9979L11.7247 11.4883C11.6236 11.4297 11.4945 11.4645 11.4363 11.566C11.378 11.6676 11.4126 11.7974 11.5136 11.856L14.1136 13.3657V16.3849C14.1136 16.5021 14.2081 16.5972 14.3247 16.5972C14.4413 16.5972 14.5358 16.5021 14.5358 16.3849V13.3657L17.1359 11.856C17.2369 11.7974 17.2715 11.6676 17.2132 11.566Z" fill="#B5B5B5"/>
</g>
<defs>
<filter id="filter0_d_543_2968" x="0" y="-0.00012207" width="22.9817" height="23.0999" filterUnits="userSpaceOnUse" color-interpolation-filters="sRGB">
<feFlood flood-opacity="0" result="BackgroundImageFix"/>
<feColorMatrix in="SourceAlpha" type="matrix" values="0 0 0 0 0 0 0 0 0 0 0 0 0 0 0 0 0 0 127 0" result="hardAlpha"/>
<feOffset/>
<feGaussianBlur stdDeviation="0.5"/>
<feColorMatrix type="matrix" values="0 0 0 0 0 0 0 0 0 0 0 0 0 0 0 0 0 0 0.25 0"/>
<feBlend mode="normal" in2="BackgroundImageFix" result="effect1_dropShadow_543_2968"/>
<feBlend mode="normal" in="SourceGraphic" in2="effect1_dropShadow_543_2968" result="shape"/>
</filter>
<clipPath id="clip0_543_2968">
<rect width="13.99" height="14.0688" fill="white" transform="translate(4 4.01648)"/>
</clipPath>
</defs>
</svg>
