<svg width="23" height="24" viewBox="0 0 23 24" fill="none" xmlns="http://www.w3.org/2000/svg">
<g filter="url(#filter0_d_543_3326)">
<ellipse cx="11.4909" cy="11.5498" rx="10.4909" ry="10.55" fill="white"/>
</g>
<g opacity="0.8" clip-path="url(#clip0_543_3326)">
<path d="M17.9705 8.22956L15.0075 9.15738L13.1534 9.73777L12.3101 8.76749L13.781 4.01648L14.731 6.00066L17.0265 4.96582L15.9977 7.27419L17.9705 8.22956Z" fill="#58B741"/>
<path d="M15.921 10.2911L12.4353 10.9361L11.8778 9.75118L11.1863 9.05575L11.7315 6.07776L12.803 7.93943L14.7031 7.30252L14.0697 9.21325L15.921 10.2911Z" fill="#70D65B"/>
<path d="M14.4622 9.32823L15.5512 7.296L14.7031 7.30259L17.0267 4.96582L15.998 7.27419L17.9707 8.22956L14.4622 9.32823Z" fill="#70D65B"/>
<path d="M14.703 7.30252L12.676 9.25256L11.8955 8.99091L11.8778 9.75118L11.1021 9.51576L11.7315 6.07776L12.803 7.93943L14.703 7.30252Z" fill="#58B741"/>
<path d="M13.0865 14.2595C12.9703 14.479 12.828 14.6875 12.6585 14.8812C12.6117 14.9351 12.5627 14.9879 12.5116 15.0393L11.7644 15.7907L11.3365 16.2207L10.4404 17.1219C10.3066 17.2564 10.1639 17.3772 10.0145 17.4834C9.7363 17.6816 9.43417 17.8308 9.12007 17.9309C8.97942 17.976 8.83649 18.011 8.69214 18.0359C7.79718 18.1931 6.84974 17.9737 6.10171 17.3781C6.00271 17.2992 5.90714 17.2142 5.81585 17.1222L4.9771 16.2787C4.19455 15.4917 3.89128 14.405 4.06816 13.3859C4.09298 13.2407 4.12807 13.097 4.17258 12.9556C4.27243 12.6397 4.4205 12.3361 4.61763 12.0564C4.72319 11.9061 4.84329 11.7623 4.9771 11.6278L4.97881 11.6261L5.8729 10.7269L6.30055 10.2966L7.04801 9.54492C7.09908 9.49357 7.15157 9.44422 7.20521 9.39717C7.39778 9.22675 7.60518 9.08359 7.82314 8.96682C9.05959 8.30409 10.6304 8.49689 11.6728 9.54521L12.5116 10.3887C12.6032 10.4805 12.6876 10.5766 12.7661 10.6762C13.5809 11.711 13.6876 13.1251 13.0865 14.2595Z" fill="#FFB83B"/>
<path d="M12.5117 15.0392L10.4405 17.122C9.25477 18.3144 7.38489 18.3998 6.10169 17.378C5.0852 16.0872 5.16985 14.2069 6.35583 13.0143L8.42694 10.9315C9.61272 9.73902 11.4824 9.6539 12.766 10.6761C13.7821 11.9665 13.6972 13.847 12.5117 15.0392Z" fill="#FFE239"/>
<path d="M13.0863 12.9617V14.2596C12.9702 14.4791 12.8278 14.6876 12.6584 14.8813V13.1766H10.9934C10.875 13.1766 10.7795 13.0802 10.7795 12.9614V11.2871L9.11424 11.2868C8.99613 11.2868 8.90027 11.1904 8.90027 11.0716V9.39726H7.20508C7.39765 9.22685 7.60505 9.08369 7.82302 8.96692H9.11424C9.23235 8.96692 9.3282 9.06332 9.3282 9.18209V10.8564L10.9934 10.8567C11.1115 10.8567 11.2074 10.9531 11.2074 11.0719V12.7462L12.8724 12.7465C12.9907 12.7465 13.0863 12.8426 13.0863 12.9617Z" fill="#FF933B"/>
<path d="M11.7643 14.2911V15.7907L11.3364 16.2208V14.5063L9.67115 14.506C9.55304 14.506 9.45747 14.4096 9.45747 14.2908V12.6165L7.79223 12.6162C7.67412 12.6162 7.57826 12.5201 7.57826 12.401V10.727H5.8728L6.30045 10.2966H7.79223C7.91034 10.2966 8.0062 10.3927 8.0062 10.5118V12.1859L9.67143 12.1861C9.78954 12.1861 9.8854 12.2825 9.8854 12.4013V14.0756L11.5504 14.0759C11.6685 14.0759 11.7643 14.1721 11.7643 14.2911Z" fill="#FF933B"/>
<path d="M10.4424 15.6207V17.12L10.4404 17.122C10.3066 17.2566 10.164 17.3774 10.0145 17.4835V15.8359L8.34926 15.8356C8.23115 15.8356 8.1353 15.7395 8.1353 15.6204V13.9461H6.47006C6.35195 13.9461 6.25638 13.8497 6.25638 13.7309V12.0566H4.61768C4.72323 11.9062 4.84334 11.7625 4.97714 11.6279L4.97885 11.6262H6.47035C6.58846 11.6262 6.68431 11.7226 6.68431 11.8414V13.5157L8.34926 13.516C8.46737 13.516 8.56323 13.6121 8.56323 13.7312V15.4052L10.2285 15.4055C10.3466 15.4055 10.4424 15.5019 10.4424 15.6207Z" fill="#FF933B"/>
<path d="M9.12002 16.9502V17.9311C8.97937 17.9761 8.83644 18.0111 8.69209 18.0361V17.1653H7.02714C6.90903 17.1653 6.81317 17.0689 6.81317 16.9502V15.2758L5.14794 15.2755C5.02983 15.2755 4.93397 15.1791 4.93397 15.0604V13.386H4.06812C4.09294 13.2409 4.12803 13.0971 4.17253 12.9557H5.14794C5.26605 12.9557 5.3619 13.0521 5.3619 13.1709V14.8452L7.02714 14.8455C7.14525 14.8455 7.24111 14.9419 7.24111 15.0606V16.735H8.90605C9.02445 16.735 9.12002 16.8314 9.12002 16.9502Z" fill="#FF933B"/>
</g>
<defs>
<filter id="filter0_d_543_3326" x="0" y="-0.00012207" width="22.9817" height="23.0999" filterUnits="userSpaceOnUse" color-interpolation-filters="sRGB">
<feFlood flood-opacity="0" result="BackgroundImageFix"/>
<feColorMatrix in="SourceAlpha" type="matrix" values="0 0 0 0 0 0 0 0 0 0 0 0 0 0 0 0 0 0 127 0" result="hardAlpha"/>
<feOffset/>
<feGaussianBlur stdDeviation="0.5"/>
<feColorMatrix type="matrix" values="0 0 0 0 0 0 0 0 0 0 0 0 0 0 0 0 0 0 0.25 0"/>
<feBlend mode="normal" in2="BackgroundImageFix" result="effect1_dropShadow_543_3326"/>
<feBlend mode="normal" in="SourceGraphic" in2="effect1_dropShadow_543_3326" result="shape"/>
</filter>
<clipPath id="clip0_543_3326">
<rect width="13.99" height="14.0688" fill="white" transform="translate(4 4.01648)"/>
</clipPath>
</defs>
</svg>
