<svg width="23" height="24" viewBox="0 0 23 24" fill="none" xmlns="http://www.w3.org/2000/svg">
<g filter="url(#filter0_d_543_3341)">
<ellipse cx="11.4909" cy="11.5498" rx="10.4909" ry="10.55" fill="white"/>
</g>
<g clip-path="url(#clip0_543_3341)">
<path d="M18.9898 9.78918H5V11.8961C5 13.5752 6.09446 15.1223 7.77842 15.6143C10.537 16.4203 13.453 16.4203 16.2115 15.6143C17.8208 15.1442 18.8913 13.7106 18.9833 12.119L18.9898 9.78918Z" fill="#B2785B"/>
<path d="M5 9.78918V11.8961C5 13.5752 6.09446 15.1224 7.77842 15.6143C9.75399 16.1916 11.8102 16.3554 13.8316 16.1058C14.0252 15.107 13.635 14.022 13.635 14.022V9.78918H5Z" fill="#935B45"/>
<path d="M5 9.78913C5 6.65952 7.86296 6.71609 9.92797 7.23098C11.5384 7.63242 12.7098 6.46234 14.062 6.06734C16.1051 5.47034 18.2424 6.65201 18.836 8.70664C19.4296 10.7612 18.2545 12.9106 16.2115 13.5075C13.453 14.3134 10.537 14.3134 7.77853 13.5075C6.09446 13.0155 5 11.4682 5 9.78913Z" fill="#FCE6D4"/>
<path d="M9.92839 7.23108C7.86339 6.71619 5 6.65973 5 9.78945C5 11.4685 6.09446 13.0157 7.77842 13.5077C9.68994 14.0662 11.677 14.2374 13.635 14.0218C12.1394 11.6249 9.46505 12.4606 8.69304 10.2391C7.83265 7.76326 9.92839 7.23108 9.92839 7.23108Z" fill="#EFD4BF"/>
<path d="M11.995 12.9498C7.48237 12.9498 6.15576 10.9867 6.15576 9.78913C6.15576 9.55148 6.15576 8.0434 7.96759 8.12713C8.45922 8.14988 10.2784 8.47576 10.5937 8.47576C11.6612 8.47576 12.5274 8.04212 13.2918 7.65935C13.6784 7.46572 14.5637 7.07458 15.1386 7.07458C16.3294 7.07458 17.3935 7.87907 17.7263 9.03079C17.9273 9.72644 17.8468 10.459 17.4998 11.0938C17.1528 11.7285 15.6238 12.9498 11.995 12.9498Z" fill="#F2B4B1"/>
<path d="M16.3939 9.75607C16.3939 10.3938 15.8798 10.9107 15.2457 10.9107C14.6117 10.9107 14.0977 10.3938 14.0977 9.75607C14.0977 9.11849 14.6117 8.60156 15.2457 8.60156C15.8798 8.60156 16.3939 9.11849 16.3939 9.75607Z" fill="white"/>
<path d="M8.69307 10.2388C8.37372 9.31986 8.46167 8.66897 8.69841 8.21333C8.38567 8.16846 8.11606 8.13401 7.96759 8.12714C6.15576 8.04341 6.15576 9.55149 6.15576 9.78913C6.15576 10.9867 7.48237 12.9498 11.995 12.9498C12.2184 12.9498 12.4335 12.9451 12.6411 12.9362C11.1626 11.835 9.31352 12.0243 8.69307 10.2388Z" fill="#EAA2A2"/>
</g>
<defs>
<filter id="filter0_d_543_3341" x="0" y="-0.00012207" width="22.9817" height="23.0999" filterUnits="userSpaceOnUse" color-interpolation-filters="sRGB">
<feFlood flood-opacity="0" result="BackgroundImageFix"/>
<feColorMatrix in="SourceAlpha" type="matrix" values="0 0 0 0 0 0 0 0 0 0 0 0 0 0 0 0 0 0 127 0" result="hardAlpha"/>
<feOffset/>
<feGaussianBlur stdDeviation="0.5"/>
<feColorMatrix type="matrix" values="0 0 0 0 0 0 0 0 0 0 0 0 0 0 0 0 0 0 0.25 0"/>
<feBlend mode="normal" in2="BackgroundImageFix" result="effect1_dropShadow_543_3341"/>
<feBlend mode="normal" in="SourceGraphic" in2="effect1_dropShadow_543_3341" result="shape"/>
</filter>
<clipPath id="clip0_543_3341">
<rect width="13.99" height="14.0688" fill="white" transform="translate(5 4.01648)"/>
</clipPath>
</defs>
</svg>
