<svg width="23" height="24" viewBox="0 0 23 24" fill="none" xmlns="http://www.w3.org/2000/svg">
<g filter="url(#filter0_d_543_2940)">
<ellipse cx="11.4909" cy="11.5498" rx="10.4909" ry="10.55" fill="white"/>
</g>
<g opacity="0.9" clip-path="url(#clip0_543_2940)">
<path d="M10.7304 4.92332C9.24348 4.91227 7.95251 5.7613 7.32032 7.00512C6.77565 8.07709 6.1236 9.09152 5.32651 9.98961C4.65909 10.7415 4.02786 11.855 4.00139 13.3896C4.00043 13.4229 4 13.4561 4 13.4895C4 15.5523 5.66294 17.2246 7.71417 17.2246C7.71812 17.2246 7.72196 17.2245 7.72591 17.2245C7.75399 17.2244 7.78206 17.2241 7.81002 17.2234C11.5116 17.1718 14.4966 14.1387 14.4966 10.404V8.78744C14.4966 6.68311 12.8228 4.93889 10.7304 4.92332Z" fill="#F0A65F"/>
<path d="M14.4966 10.404V8.78742C14.4966 7.4997 13.8697 6.34691 12.9038 5.64256V5.64246C13.3679 6.28508 13.6415 7.07679 13.6415 7.92744V8.31997C13.6415 9.01207 13.1458 9.60253 12.4679 9.72167C12.1139 9.78393 11.7669 9.8245 11.4232 9.84414C10.3078 9.90779 9.29443 10.3527 8.49242 11.1309C8.47096 11.1514 8.44972 11.1722 8.4287 11.1934C7.77953 11.8461 7.42208 12.714 7.42208 13.6372C7.42208 14.1779 7.57503 14.6678 7.7663 15.0692C8.05053 15.6658 7.62893 16.3615 6.97112 16.3634C6.96578 16.3634 6.96034 16.3634 6.955 16.3634C5.94785 16.3634 5.30466 16.1055 4.69531 15.6655C5.36935 16.6096 6.47032 17.2246 7.71421 17.2246C11.4099 17.2065 14.4966 14.1341 14.4966 10.404Z" fill="#E28540"/>
<path d="M12.5305 10.4851C12.4429 10.4851 12.3609 10.4304 12.3297 10.3429C12.3221 10.3223 12.163 9.90463 11.664 9.72957C11.5528 9.6905 11.4942 9.56824 11.5329 9.45639C11.5717 9.34466 11.6934 9.28541 11.8046 9.32459C12.5048 9.57017 12.7227 10.1738 12.7317 10.1995C12.7707 10.3112 12.7123 10.4336 12.6011 10.4729C12.5778 10.4811 12.554 10.4851 12.5305 10.4851Z" fill="#E28540"/>
<path d="M17.1569 10.6162C16.3509 9.79357 15.1851 9.54841 14.1644 9.8804C13.2851 10.1666 12.3782 10.3626 11.4554 10.4152C10.6826 10.4594 9.73334 10.7206 8.88575 11.544C8.86718 11.5617 8.84893 11.5796 8.83078 11.5979C7.7107 12.7243 7.7107 14.5504 8.83078 15.6768C8.83292 15.6789 8.83505 15.681 8.83719 15.6831C8.85266 15.6986 8.86803 15.7138 8.88372 15.7287C10.9329 17.733 14.2096 17.716 16.2374 15.6768L17.1151 14.7941C18.2577 13.645 18.2908 11.7737 17.1569 10.6162Z" fill="#F0A65F"/>
<path d="M17.157 10.6161C17.0341 10.4907 16.9027 10.3788 16.7649 10.2803C17.5814 11.438 17.4535 13.0616 16.423 14.0978L15.5452 14.9805C13.6339 16.9026 10.6133 17.0279 8.55664 15.3576C8.63904 15.4871 8.8682 15.7138 8.88389 15.7287C10.9331 17.733 14.2098 17.7159 16.2375 15.6767L17.1153 14.794C18.2579 13.645 18.291 11.7736 17.157 10.6161Z" fill="#E28540"/>
<path d="M8.19522 6.10943C8.19981 6.1091 8.65813 6.0784 9.10343 6.23887C9.12723 6.24746 9.15146 6.25143 9.17537 6.25143C9.26289 6.25143 9.34497 6.1969 9.37614 6.10932C9.41584 5.9978 9.35821 5.875 9.24731 5.83507C8.94429 5.7258 8.64073 5.69081 8.43238 5.68115C8.2869 5.79053 8.14954 5.90989 8.02124 6.03858C8.06383 6.08635 8.1268 6.11468 8.19522 6.10943Z" fill="#E28540"/>
<path d="M9.45974 9.68441C9.39229 9.68441 9.32601 9.65231 9.28449 9.59253C8.98595 9.16125 8.32611 9.14107 8.31949 9.14107C8.20176 9.13957 8.10741 9.04243 8.1089 8.92393C8.11029 8.8064 8.2055 8.71216 8.32205 8.71216H8.32472C8.36059 8.71259 9.2071 8.73008 9.63458 9.34737C9.70182 9.44462 9.67802 9.57825 9.58142 9.64587C9.54428 9.67196 9.5018 9.68441 9.45974 9.68441Z" fill="#E28540"/>
<path d="M12.3881 7.68279C12.2921 7.68279 12.2048 7.61688 12.1811 7.51878C12.0641 7.03329 11.5154 6.91115 11.4921 6.9061C11.3771 6.88174 11.3032 6.76839 11.327 6.65268C11.3508 6.53708 11.4626 6.46259 11.5777 6.48599C11.6117 6.49286 12.4141 6.6647 12.5956 7.41767C12.6234 7.53284 12.553 7.64876 12.4386 7.67667C12.4217 7.68075 12.4048 7.68279 12.3881 7.68279Z" fill="#E28540"/>
<path d="M6.8719 12.2007C6.77776 12.2007 6.69173 12.1377 6.66611 12.042C6.5075 11.4495 5.7436 11.3422 5.73591 11.3411C5.61947 11.3257 5.53685 11.2184 5.5518 11.1012C5.56684 10.984 5.67305 10.901 5.78949 10.9156C5.83251 10.921 6.84436 11.0579 7.078 11.9305C7.10853 12.0449 7.04118 12.1625 6.92751 12.1933C6.90883 12.1984 6.89026 12.2007 6.8719 12.2007Z" fill="#E28540"/>
<path d="M14.8886 9.74304C14.6951 9.75506 14.5027 9.78619 14.3142 9.83653C14.3302 9.90061 14.3752 9.95643 14.4407 9.98315C14.4474 9.98594 15.1148 10.2647 15.1907 10.8693C15.2044 10.9777 15.2962 11.0569 15.4021 11.0569C15.411 11.0569 15.42 11.0564 15.4291 11.0552C15.5459 11.0403 15.6287 10.9331 15.6139 10.8155C15.5454 10.2696 15.1636 9.92455 14.8886 9.74304Z" fill="#E28540"/>
<path d="M13.3549 12.6009C13.2452 12.6009 13.1519 12.5163 13.1427 12.4043C13.0973 11.8556 12.4499 11.5558 12.4435 11.5528C12.3364 11.5042 12.2882 11.3774 12.3362 11.2695C12.3843 11.1617 12.5098 11.113 12.6173 11.1611C12.6534 11.1772 13.5012 11.565 13.5678 12.3687C13.5776 12.4867 13.4904 12.5904 13.373 12.6002C13.3669 12.6007 13.3609 12.6009 13.3549 12.6009Z" fill="#E28540"/>
<path d="M15.5728 13.2303C15.466 13.2303 15.3738 13.1497 15.3612 13.0403C15.3183 12.6656 14.9622 12.4623 14.9587 12.4603C14.8561 12.403 14.8184 12.2728 14.8749 12.1694C14.9313 12.066 15.0596 12.0275 15.1627 12.0837C15.1854 12.096 15.7162 12.3916 15.7849 12.9912C15.7984 13.1088 15.7145 13.2152 15.5975 13.2288C15.5893 13.2298 15.5809 13.2303 15.5728 13.2303Z" fill="#E28540"/>
<path d="M9.51618 12.5152C9.40325 12.5152 9.30911 12.4261 9.30335 12.3115C9.2835 11.9113 8.79422 11.8092 8.78921 11.8081C8.67372 11.7851 8.59868 11.6722 8.62153 11.5561C8.64447 11.4398 8.75676 11.3644 8.87225 11.3875C9.15595 11.444 9.7003 11.7055 9.72933 12.29C9.7352 12.4083 9.64458 12.5091 9.52696 12.5149C9.52344 12.5151 9.51981 12.5152 9.51618 12.5152Z" fill="#E28540"/>
<path d="M13.1899 15.814C13.1564 15.7004 13.0377 15.6358 12.9247 15.6696C12.8118 15.7033 12.7476 15.8228 12.7811 15.9362C12.9671 16.5652 12.6083 17.0352 12.5913 17.0567C12.5536 17.1043 12.5394 17.163 12.5468 17.2189C12.7015 17.2185 12.8561 17.2112 13.0102 17.1971C13.147 16.9677 13.3787 16.4521 13.1899 15.814Z" fill="#E28540"/>
</g>
<defs>
<filter id="filter0_d_543_2940" x="0" y="-0.00012207" width="22.9817" height="23.0999" filterUnits="userSpaceOnUse" color-interpolation-filters="sRGB">
<feFlood flood-opacity="0" result="BackgroundImageFix"/>
<feColorMatrix in="SourceAlpha" type="matrix" values="0 0 0 0 0 0 0 0 0 0 0 0 0 0 0 0 0 0 127 0" result="hardAlpha"/>
<feOffset/>
<feGaussianBlur stdDeviation="0.5"/>
<feColorMatrix type="matrix" values="0 0 0 0 0 0 0 0 0 0 0 0 0 0 0 0 0 0 0.25 0"/>
<feBlend mode="normal" in2="BackgroundImageFix" result="effect1_dropShadow_543_2940"/>
<feBlend mode="normal" in="SourceGraphic" in2="effect1_dropShadow_543_2940" result="shape"/>
</filter>
<clipPath id="clip0_543_2940">
<rect width="13.99" height="14.0688" fill="white" transform="translate(4 4.01648)"/>
</clipPath>
</defs>
</svg>
