<svg width="23" height="24" viewBox="0 0 23 24" fill="none" xmlns="http://www.w3.org/2000/svg">
<g filter="url(#filter0_d_543_3237)">
<ellipse cx="11.4909" cy="11.5498" rx="10.4909" ry="10.55" fill="white"/>
</g>
<g clip-path="url(#clip0_543_3237)">
<path d="M10.3901 4.48544C12.1233 4.48544 13.0891 5.03626 13.5951 5.49812C13.7695 5.4529 13.9444 5.4079 14.1228 5.36451C13.6257 4.81724 12.5322 4.01648 10.3901 4.01648C7.02032 4.01648 5.80154 6.3899 5.75122 6.491L6.16837 6.70087C6.17953 6.67831 7.30551 4.48544 10.3901 4.48544Z" fill="#FF8D92"/>
<path d="M11.9767 8.46896C11.4509 8.29264 11.0245 7.89787 10.8062 7.38597L10.6144 6.93579C9.87638 7.22374 9.16288 7.54913 8.51074 7.91653L10.6237 10.3148C11.6123 9.99193 12.5678 9.79386 13.0722 9.70124L12.8294 9.21304C12.6534 8.85846 12.3505 8.59421 11.9767 8.46896Z" fill="#FF8D92"/>
<path d="M10.1462 10.4799L8.10106 8.15906C6.57364 9.10213 5.45881 10.3001 5.28564 11.8103L7.48023 12.3629C7.84114 11.5309 8.96713 10.914 10.1462 10.4799Z" fill="#FF8D92"/>
<path d="M16.7314 6.59133L16.6398 6.13153C17.3395 5.99082 17.9765 5.60956 18.4332 5.05828L18.4617 5.02405C17.939 5.09377 17.0979 5.21846 16.0871 5.41447C16.1721 5.55609 16.2194 5.72005 16.2194 5.89236C16.2194 6.40963 15.8011 6.83028 15.2868 6.83028C14.7724 6.83028 14.3541 6.40963 14.3541 5.89236C14.3541 5.85698 14.359 5.82229 14.3631 5.78725C13.2985 6.04246 12.156 6.36578 11.0513 6.77028L11.235 7.20123C11.4008 7.59028 11.725 7.89036 12.1243 8.0242C12.6163 8.18907 13.015 8.53679 13.2468 9.00346L13.6014 9.71651C13.7548 9.81074 14.3027 10.113 15.0536 10.113C15.8775 10.113 18.2586 7.14891 18.7093 5.44939C18.1915 6.03261 17.4952 6.43757 16.7314 6.59133ZM14.8204 9.64404C14.1775 9.64404 13.6546 9.11806 13.6546 8.47164H14.1209C14.1209 8.85942 14.4347 9.17508 14.8204 9.17508V9.64404Z" fill="#FF8D92"/>
<path d="M15.2866 6.36132C15.5438 6.36132 15.753 6.151 15.753 5.89236C15.753 5.74272 15.6783 5.60796 15.559 5.52026C15.339 5.56572 15.1129 5.61449 14.8818 5.66658C14.8487 5.72475 14.8203 5.79997 14.8203 5.89236C14.8203 6.151 15.0295 6.36132 15.2866 6.36132Z" fill="#777777"/>
<path d="M7.896 16.2057C8.95993 16.7746 10.2908 17.1132 11.7892 17.1448V16.6131C11.3294 16.4543 10.019 15.9652 8.94172 15.2139L7.896 16.2057Z" fill="#FF8D92"/>
<path d="M7.35889 12.9267C7.35889 12.8898 7.36401 12.854 7.36697 12.8177L5.26221 12.2877C5.28532 13.802 6.11301 15.0903 7.4757 15.9595L8.56172 14.9294C7.87531 14.3737 7.35889 13.6988 7.35889 12.9267Z" fill="#FF8D92"/>
<path d="M14.0965 16.2439L14.2426 15.8033L12.2554 16.6026V17.2232L14.3539 18.0853L14.0965 17.5819L14.5399 16.9129L14.0965 16.2439Z" fill="#FF8D92"/>
<path d="M12.009 10.4096C12.5117 10.613 12.955 11.0171 12.955 11.2853H13.4214C13.4214 10.9036 13.1061 10.5268 12.7034 10.2515C12.4998 10.2939 12.2636 10.3472 12.009 10.4096Z" fill="#FF8D92"/>
<path d="M11.1319 10.6469C11.0117 10.683 10.89 10.7209 10.7677 10.7609L10.518 10.8424L10.4072 10.8833C11.2128 11.1308 11.789 11.4915 11.789 11.7543H12.2554C12.2554 11.2518 11.6978 10.8877 11.1319 10.6469Z" fill="#FF8D92"/>
<path d="M10.6232 12.2233H11.0895C11.0895 11.6779 10.4517 11.3062 9.88887 11.084C9.66652 11.1764 9.46079 11.2711 9.27271 11.3679C9.96002 11.5702 10.6232 11.9173 10.6232 12.2233Z" fill="#FF8D92"/>
<path d="M8.32935 11.9956C8.75401 12.1366 9.45749 12.3907 9.45749 12.6923H9.92383C9.92383 12.1598 9.33089 11.8578 8.77655 11.6545C8.60521 11.7665 8.45549 11.8803 8.32935 11.9956Z" fill="#FF8D92"/>
<path d="M12.9253 5.67995C11.4997 4.79217 9.28947 4.55678 8.12671 5.72655L8.45642 6.05812C9.33193 5.17767 11.0291 5.25575 12.2913 5.86485C12.4986 5.80154 12.7105 5.7404 12.9253 5.67995Z" fill="#FF8D92"/>
</g>
<defs>
<filter id="filter0_d_543_3237" x="0" y="-0.00012207" width="22.9817" height="23.0999" filterUnits="userSpaceOnUse" color-interpolation-filters="sRGB">
<feFlood flood-opacity="0" result="BackgroundImageFix"/>
<feColorMatrix in="SourceAlpha" type="matrix" values="0 0 0 0 0 0 0 0 0 0 0 0 0 0 0 0 0 0 127 0" result="hardAlpha"/>
<feOffset/>
<feGaussianBlur stdDeviation="0.5"/>
<feColorMatrix type="matrix" values="0 0 0 0 0 0 0 0 0 0 0 0 0 0 0 0 0 0 0.25 0"/>
<feBlend mode="normal" in2="BackgroundImageFix" result="effect1_dropShadow_543_3237"/>
<feBlend mode="normal" in="SourceGraphic" in2="effect1_dropShadow_543_3237" result="shape"/>
</filter>
<clipPath id="clip0_543_3237">
<rect width="13.99" height="14.0688" fill="white" transform="translate(5 4.01648)"/>
</clipPath>
</defs>
</svg>
