<svg width="23" height="24" viewBox="0 0 23 24" fill="none" xmlns="http://www.w3.org/2000/svg">
<g filter="url(#filter0_d_543_3122)">
<ellipse cx="11.4909" cy="11.5498" rx="10.4909" ry="10.55" fill="white"/>
</g>
<g clip-path="url(#clip0_543_3122)">
<path d="M13.9179 7.87136C13.336 7.29343 12.5895 7.04138 11.6967 7.11944C9.83659 7.28456 8.71185 9.60185 8.26135 10.7647C8.29794 11.0703 8.32958 11.3766 8.35551 11.6831C8.40885 11.6556 8.45167 11.6077 8.47 11.5452C8.47694 11.5216 8.91875 10.0489 9.77022 8.90223C10.0327 8.54875 10.4385 8.32925 10.8772 8.33172C11.2115 8.33362 11.5808 8.41034 11.8977 8.61302C13.7922 9.82461 14.8377 13.3185 14.8481 13.3535C14.8769 13.4514 14.9662 13.5172 15.0658 13.5172C15.0737 13.5172 15.0819 13.5168 15.0899 13.5159C15.199 13.5043 15.2841 13.4159 15.2923 13.306C15.304 13.1514 15.5587 9.50095 13.9179 7.87136Z" fill="#FFC850"/>
<path d="M8.2341 13.0605C8.11234 13.0605 8.01151 12.9634 8.0072 12.8401C8.00455 12.7636 7.94665 10.9462 8.3541 8.9675C8.9045 6.29445 10.0559 4.64233 11.6836 4.18955C13.0066 3.8215 14.2292 4.04479 15.1266 4.81811C16.1867 5.73148 16.6485 7.28905 16.427 9.20392C16.4146 9.31167 16.3286 9.39575 16.2212 9.40512C16.1124 9.41584 16.0146 9.34667 15.9838 9.24275C15.2492 6.76268 12.5531 5.08748 10.7556 5.33582C10.6046 5.35671 10.4618 5.42477 10.3578 5.53696C8.31301 7.74283 8.45906 12.7637 8.46121 12.824C8.46553 12.95 8.36749 13.056 8.24218 13.0602C8.23942 13.0605 8.23675 13.0605 8.2341 13.0605Z" fill="#FFC850"/>
<path d="M6.94622 4.42645C6.65361 5.41295 6.13379 7.81003 6.6444 11.2332L7.5529 15.5729L8.46141 13.2889C7.35721 9.95764 7.15949 5.87664 7.12419 4.448C7.12159 4.34361 6.97593 4.32638 6.94622 4.42645Z" fill="#D4F582"/>
<path d="M9.58642 11.1905C8.01298 11.5139 7.77991 15.1161 7.77991 15.1161L8.68841 17.857C8.68841 17.857 9.3225 12.6094 9.99336 12.4895C10.6529 12.3716 13.4685 14.5589 14.7058 15.5522C14.7901 15.6199 14.9008 15.5101 14.8342 15.4247C13.7681 14.0591 11.0992 10.8795 9.58642 11.1905Z" fill="#AFD755"/>
<path d="M5.5091 7.15664C5.50044 8.84377 5.66304 13.2546 7.36329 17.7899C7.42994 17.9676 7.60118 18.0853 7.79007 18.0853H8.8218C8.9834 18.0853 9.09215 17.921 9.03064 17.7708C7.27575 13.4826 6.09843 8.85787 5.68799 7.1351C5.66296 7.02994 5.50967 7.04852 5.5091 7.15664Z" fill="#BEE86E"/>
<path d="M16.3663 9.33226C16.2876 6.96222 15.4643 4.98069 13.7135 4.55244C12.295 4.20547 10.9975 4.87602 10.4484 5.45757C10.5383 5.39245 10.6445 5.35115 10.7556 5.33579C12.553 5.08744 15.2491 6.76264 15.9837 9.24271C16.0146 9.34666 16.1124 9.4158 16.2212 9.40508C16.2788 9.40008 16.3291 9.37246 16.3663 9.33226Z" fill="#FFDC64"/>
<path d="M12.1663 7.56447C11.1697 7.54441 10.4913 8.00701 9.92578 8.72751C10.1805 8.479 10.517 8.32968 10.8772 8.33172C11.2115 8.33361 11.5808 8.41033 11.8977 8.61301C13.7922 9.8246 14.8378 13.3185 14.8481 13.3535C14.8769 13.4514 14.9662 13.5172 15.0658 13.5172C15.0738 13.5172 15.0819 13.5168 15.09 13.5159C15.1666 13.5077 15.2298 13.4604 15.2644 13.3956C15.1615 8.13547 12.8761 7.57873 12.1663 7.56447Z" fill="#FFDC64"/>
</g>
<defs>
<filter id="filter0_d_543_3122" x="0" y="-0.00012207" width="22.9817" height="23.0999" filterUnits="userSpaceOnUse" color-interpolation-filters="sRGB">
<feFlood flood-opacity="0" result="BackgroundImageFix"/>
<feColorMatrix in="SourceAlpha" type="matrix" values="0 0 0 0 0 0 0 0 0 0 0 0 0 0 0 0 0 0 127 0" result="hardAlpha"/>
<feOffset/>
<feGaussianBlur stdDeviation="0.5"/>
<feColorMatrix type="matrix" values="0 0 0 0 0 0 0 0 0 0 0 0 0 0 0 0 0 0 0.25 0"/>
<feBlend mode="normal" in2="BackgroundImageFix" result="effect1_dropShadow_543_3122"/>
<feBlend mode="normal" in="SourceGraphic" in2="effect1_dropShadow_543_3122" result="shape"/>
</filter>
<clipPath id="clip0_543_3122">
<rect width="13.99" height="14.0688" fill="white" transform="translate(4 4.01648)"/>
</clipPath>
</defs>
</svg>
