<svg width="23" height="24" viewBox="0 0 23 24" fill="none" xmlns="http://www.w3.org/2000/svg">
<g filter="url(#filter0_d_543_3008)">
<ellipse cx="11.4909" cy="11.5498" rx="10.4909" ry="10.55" fill="white"/>
</g>
<g opacity="0.9" clip-path="url(#clip0_543_3008)">
<path d="M4.87741 6.71044C4.76255 6.71044 4.66943 6.6168 4.66943 6.50129V5.34101C4.66943 4.61066 5.26029 4.01648 5.98655 4.01648H11.0668C11.1817 4.01648 11.2748 4.11012 11.2748 4.22563C11.2748 4.34114 11.1817 4.43478 11.0668 4.43478H5.98655C5.48964 4.43478 5.08539 4.84131 5.08539 5.34101V6.50132C5.08539 6.61683 4.99227 6.71044 4.87741 6.71044Z" fill="#FF8086"/>
<path d="M5.98666 7.82595C5.26034 7.82595 4.66943 7.23171 4.66943 6.50128C4.66943 5.77087 5.26034 5.17664 5.98666 5.17664H11.0668C11.1817 5.17664 11.2748 5.27028 11.2748 5.38579C11.2748 5.50129 11.1817 5.59494 11.0668 5.59494H5.98666C5.4897 5.59494 5.08539 6.00152 5.08539 6.50128C5.08539 7.00104 5.4897 7.40765 5.98666 7.40765C6.10152 7.40765 6.19464 7.50129 6.19464 7.6168C6.19464 7.73231 6.10152 7.82595 5.98666 7.82595Z" fill="#E5646E"/>
<path d="M12.4482 6.56555H6.369C6.06691 6.56555 5.82202 6.81182 5.82202 7.11562C5.82202 8.93912 7.29198 10.4174 9.10528 10.4174H10.6551L10.8456 10.3895H10.9737C11.0773 10.3895 11.1791 10.4252 11.2785 10.4403C11.9051 10.5356 12.4373 10.92 12.7365 11.4542C12.7743 11.5217 12.8361 11.5916 12.8662 11.6636C12.8944 11.7311 12.8914 11.8005 12.9123 11.8715C12.9664 12.055 12.9955 12.2494 12.9955 12.4506V13.0517L13.0232 13.3355L12.9955 13.5974V14.9286L12.7182 15.2792L12.9955 16.0374L13.5425 16.0095C14.7977 16.0095 15.8545 15.4218 16.5416 14.4745C16.5935 14.403 16.5875 14.3295 16.6344 14.2543C16.6762 14.1872 16.7715 14.1188 16.8092 14.049C17.1 13.5107 17.2652 12.8937 17.2652 12.238V10.9151C17.2652 10.4792 17.2014 10.0582 17.0827 9.66119C17.0565 9.57346 16.9999 9.4869 16.9684 9.40159C16.9369 9.31629 16.9306 9.23227 16.894 9.14956C16.2208 7.62714 14.7591 6.59347 12.9955 6.59347H12.8641L12.7011 6.68454L12.4482 6.56555Z" fill="#FF8086"/>
<path d="M17.1311 9.63841C17.2542 10.0421 17.3206 10.4708 17.3206 10.9151V12.238C17.3206 12.9173 17.1432 13.5548 16.8326 14.1066C16.7349 14.1622 16.4694 14.2538 16.4229 14.3248C16.3782 14.3931 16.5261 14.4509 16.5597 14.5248C15.87 15.4435 14.7753 16.0374 13.5425 16.0374H12.9955V16.0267C14.949 15.8802 16.4887 14.2399 16.4887 12.2379V10.9151C16.4887 8.51288 14.5523 6.56555 12.1636 6.56555H12.4481L12.7254 6.59344L12.8641 6.56555H12.9955C14.7599 6.56555 16.2765 7.62622 16.9492 9.14964L16.9474 9.54834L17.1311 9.63841Z" fill="#E5646E"/>
<path d="M9.08884 8.10482C8.97398 8.10482 8.88086 8.01118 8.88086 7.89567C8.88086 7.78017 8.97398 7.68652 9.08884 7.68652C9.2037 7.68652 9.29682 7.78017 9.29682 7.89567C9.29682 8.01118 9.2037 8.10482 9.08884 8.10482Z" fill="#5D5360"/>
<path d="M16.3788 9.90809C15.469 10.885 14.1828 11.4543 12.8382 11.4543H12.7358C12.8091 11.5852 12.8684 11.7249 12.9117 11.8715C14.2388 11.8527 15.5085 11.3243 16.4605 10.4183C16.686 10.2036 16.5961 10.0894 16.7824 9.83411L16.3788 9.90809Z" fill="#EDF4FF"/>
<path d="M17.0021 9.27483C17.0006 9.27115 16.9991 9.2675 16.9976 9.26382C16.9819 9.22544 16.9658 9.18732 16.9491 9.14954L16.7649 9.43741L16.7448 9.46493C16.6295 9.62286 16.5053 9.77261 16.3733 9.91391C16.4119 10.0786 16.441 10.2468 16.4603 10.4181C16.6859 10.2034 16.8937 9.96776 17.0801 9.71246L17.104 9.67977C17.1065 9.67632 17.1089 9.67277 17.1113 9.6692L17.131 9.63831C17.1058 9.55548 17.0781 9.47375 17.0481 9.39313C17.0471 9.39051 17.0461 9.38788 17.0451 9.38523C17.0312 9.34815 17.0169 9.31136 17.0021 9.27483Z" fill="#DBEAFF"/>
<path d="M12.8418 6.58069L12.4481 6.56555C12.4481 7.90249 11.9304 9.15943 10.9903 10.1048L10.832 10.264L10.655 10.4174H10.9736C11.067 10.4174 11.1586 10.4243 11.2486 10.4366L11.2844 10.4006C11.7877 9.89444 12.1811 9.30243 12.4535 8.64107C12.7224 7.9883 12.8604 7.29956 12.8639 6.59344C12.864 6.58418 12.8418 6.59001 12.8418 6.58069Z" fill="#EDF4FF"/>
<path d="M12.8634 6.62227C12.8636 6.60336 12.8641 6.58448 12.8641 6.56555H12.4481C12.4481 6.56874 12.448 6.57191 12.448 6.5751C12.5884 6.58423 12.7269 6.60003 12.8634 6.62227Z" fill="#DBEAFF"/>
<path d="M16.0006 14.1065H15.8208C14.8503 14.1065 13.895 13.776 13.1299 13.1758L12.9954 13.0516V13.5973C13.7869 14.1781 14.748 14.5045 15.7282 14.5239C15.7591 14.5245 15.7899 14.5248 15.8208 14.5248L16.3979 14.3655L16.0006 14.1065Z" fill="#EDF4FF"/>
<path d="M15.7283 14.5238C15.7591 14.5244 15.79 14.5248 15.8209 14.5248H16.5596C16.5596 14.5248 16.5596 14.5248 16.5596 14.5247C16.6085 14.4596 16.6552 14.3929 16.6999 14.3246C16.7017 14.322 16.7034 14.3194 16.7051 14.3167C16.7498 14.2481 16.7923 14.178 16.8326 14.1064H16.0007C15.9189 14.2518 15.8278 14.3912 15.7283 14.5238Z" fill="#DBEAFF"/>
<path d="M12.9954 14.9286V16.0374L11.8882 16.3163L11.1457 16.0374C10.63 16.0374 10.2119 15.617 10.2119 15.0983V14.1289C10.2119 14.0519 10.274 13.9895 10.3506 13.9895H12.0616C12.5773 13.9895 12.9954 14.4099 12.9954 14.9286Z" fill="#FF8086"/>
<path d="M12.0616 13.9895H11.2297C11.7455 13.9895 12.1636 14.4099 12.1636 14.9286V16.1901L12.9955 16.0374V14.9286C12.9955 14.4099 12.5774 13.9895 12.0616 13.9895Z" fill="#E5646E"/>
<path d="M12.7181 17.1462V16.0931H11.1457C10.63 16.0931 10.2396 16.4578 10.2396 16.9764L10.2119 17.4505V17.9458C10.2119 18.0228 10.274 18.0853 10.3506 18.0853H11.2297L12.0616 18.0574C12.5773 18.0574 12.7181 17.6648 12.7181 17.1462Z" fill="#FF8086"/>
<path d="M12.9954 16.0374H11.1457C10.63 16.0374 10.2119 16.4578 10.2119 16.9764V17.4505C10.2119 16.9319 10.63 16.5114 11.1457 16.5114H11.7475C11.9773 16.5114 12.1635 16.6987 12.1635 16.9297V17.1462C12.1635 17.6648 11.7454 18.0853 11.2297 18.0853H12.0616C12.5773 18.0853 12.9954 17.6648 12.9954 17.1462" fill="#E5646E"/>
</g>
<defs>
<filter id="filter0_d_543_3008" x="0" y="-0.00012207" width="22.9817" height="23.0999" filterUnits="userSpaceOnUse" color-interpolation-filters="sRGB">
<feFlood flood-opacity="0" result="BackgroundImageFix"/>
<feColorMatrix in="SourceAlpha" type="matrix" values="0 0 0 0 0 0 0 0 0 0 0 0 0 0 0 0 0 0 127 0" result="hardAlpha"/>
<feOffset/>
<feGaussianBlur stdDeviation="0.5"/>
<feColorMatrix type="matrix" values="0 0 0 0 0 0 0 0 0 0 0 0 0 0 0 0 0 0 0.25 0"/>
<feBlend mode="normal" in2="BackgroundImageFix" result="effect1_dropShadow_543_3008"/>
<feBlend mode="normal" in="SourceGraphic" in2="effect1_dropShadow_543_3008" result="shape"/>
</filter>
<clipPath id="clip0_543_3008">
<rect width="13.99" height="14.0688" fill="white" transform="translate(4 4.01648)"/>
</clipPath>
</defs>
</svg>
