<svg width="23" height="24" viewBox="0 0 23 24" fill="none" xmlns="http://www.w3.org/2000/svg">
<g filter="url(#filter0_d_543_3292)">
<ellipse cx="11.4909" cy="11.5498" rx="10.4909" ry="10.55" fill="white"/>
</g>
<g opacity="0.9" clip-path="url(#clip0_543_3292)">
<path d="M12.3366 9.7994L11.8694 11.61L13.581 12.0969C13.767 12.1496 13.9618 12.1631 14.1532 12.1367C14.3446 12.1103 14.5286 12.0444 14.6936 11.9432L16.4851 10.8548C16.8781 10.6121 17.1613 10.2247 17.2744 9.77508C17.5193 8.8261 16.9905 7.84991 16.0935 7.59475C15.8797 7.53422 15.6559 7.51866 15.436 7.54904C15.216 7.57942 15.0046 7.65509 14.815 7.77132L13.0235 8.85979C12.6815 9.071 12.4351 9.40814 12.3366 9.7994Z" fill="#5F8C46"/>
<path d="M12.4581 9.70165L10.6576 10.1715L10.1735 8.4503C10.1211 8.26326 10.1076 8.06736 10.1339 7.87485C10.1602 7.68234 10.2257 7.49736 10.3263 7.33144L11.4086 5.52984C11.65 5.13464 12.0352 4.84983 12.4823 4.7361C13.426 4.48982 14.3967 5.02152 14.6504 5.92365C14.7106 6.13857 14.7261 6.36366 14.6959 6.58487C14.6657 6.80607 14.5904 7.01863 14.4748 7.20927L13.3925 9.01091C13.1824 9.35482 12.8472 9.60266 12.4581 9.70165Z" fill="#5F8C46"/>
<path d="M16.3463 9.84126C16.2072 9.88838 16.0574 9.89379 15.9153 9.85681C15.7731 9.81984 15.6447 9.74209 15.5457 9.63303L16.5014 9.05242L16.2753 8.6761L15.3305 9.25015C15.2485 8.82624 15.6655 8.47642 15.686 8.45949L15.4115 8.11731C15.1307 8.34519 14.7244 8.8912 14.9416 9.48646L11.7562 11.4218L11.9823 11.7981L15.1653 9.86423C15.4567 10.2152 15.8182 10.3192 16.1115 10.3192C16.2446 10.3204 16.3768 10.2977 16.5019 10.2522L16.3463 9.84126Z" fill="#6A9C46"/>
<path d="M12.9623 7.31446C13.558 7.31446 14.1567 6.85338 14.1893 6.82785L13.9214 6.48061C13.7393 6.62217 13.2638 6.91201 12.8956 6.87129L13.575 5.74051L13.2008 5.51318L12.518 6.64971C12.2389 6.31233 12.3035 5.81195 12.3043 5.80613L12.0879 5.77502L11.8716 5.74315C11.8665 5.77854 11.7616 6.55197 12.2836 7.03982L10.4705 10.0579L10.8446 10.2852L12.6569 7.2686C12.7557 7.29974 12.8587 7.31521 12.9623 7.31446Z" fill="#6A9C46"/>
<path d="M16.2467 10.842C17.2356 11.3635 17.6204 12.5992 17.1062 13.6021C16.9846 13.84 16.8175 14.0514 16.6146 14.2243C16.4116 14.3971 16.1767 14.528 15.9234 14.6095L13.5653 15.3647C13.3454 15.4351 13.1138 15.4609 12.8839 15.4406C12.654 15.4204 12.4304 15.3544 12.2261 15.2465L11.1778 14.7659C10.9179 14.6468 10.6255 14.6196 10.3483 14.689L10.3393 14.6912C9.18511 15.0453 8.11302 15.6278 7.18605 16.4047L6.23158 17.2044C6.06084 17.3474 5.84563 17.4258 5.62337 17.4258H5.60569C5.46601 17.4259 5.32802 17.395 5.20159 17.3353C5.07517 17.2756 4.96344 17.1884 4.87439 17.0802L5.53017 16.5465C5.53017 16.5465 5.5575 16.6473 6.65046 15.768C7.46593 15.112 8.75743 14.2565 10.1816 13.8006C10.4084 13.729 10.6007 13.5754 10.7213 13.3695L11.3203 12.3381C11.4262 12.1311 11.5716 11.9471 11.7482 11.7966C11.9248 11.6462 12.1293 11.5323 12.3497 11.4614L14.7078 10.7062C14.9605 10.6253 15.2267 10.5956 15.4908 10.6189C15.755 10.6422 16.0119 10.7181 16.2467 10.842Z" fill="#6A9C46"/>
<path d="M11.2026 5.76954C10.6841 4.77507 9.45532 4.3881 8.45806 4.90521C8.22152 5.02751 8.01127 5.19552 7.83937 5.39963C7.66747 5.60374 7.53729 5.83994 7.45628 6.09471L6.70535 8.46608C6.63532 8.68721 6.60964 8.92013 6.62981 9.15132C6.64998 9.38251 6.71559 9.60737 6.82285 9.81286L7.30075 10.867C7.41924 11.1284 7.44621 11.4224 7.37725 11.7012L7.37501 11.7103C7.023 12.8709 6.44374 13.9491 5.67129 14.8813L4.87597 15.8411C4.73369 16.0128 4.65577 16.2292 4.65576 16.4527V16.4705C4.65562 16.611 4.68636 16.7498 4.74577 16.8769C4.80518 17.004 4.89179 17.1164 4.99942 17.2059L5.53014 16.5465C5.53014 16.5465 5.42988 16.519 6.30426 15.4199C6.95665 14.5998 7.80731 13.301 8.26067 11.8688C8.33182 11.6408 8.48456 11.4474 8.68934 11.3261L9.71495 10.7237C9.92082 10.6173 10.1038 10.471 10.2534 10.2934C10.403 10.1158 10.5163 9.91019 10.5868 9.68847L11.3377 7.3171C11.4182 7.063 11.4477 6.79535 11.4245 6.5297C11.4013 6.26404 11.3259 6.00565 11.2026 5.76954Z" fill="#6A9C46"/>
<path d="M9.29956 7.56847C9.9463 7.56847 10.3809 7.06202 10.5346 6.75264L10.1436 6.55601C10.0717 6.68599 9.97823 6.80268 9.86728 6.90105C9.68563 7.06089 9.48474 7.13649 9.268 7.12783C9.40938 6.26307 9.4599 5.62708 9.46411 5.57205L9.02818 5.53833C9.02719 5.55141 8.97842 6.16387 8.84188 7.00841C8.38412 6.75836 8.3719 6.2388 8.37177 6.21358L8.15326 6.21468H7.93466C7.93466 6.54502 8.11429 7.1879 8.76442 7.45768C8.68843 7.87161 8.59298 8.3203 8.47431 8.76976C8.34217 8.69845 8.22624 8.58134 8.12768 8.41906C8.03738 8.26702 7.97082 8.10196 7.93032 7.92962L7.50171 8.01639C7.57158 8.36764 7.83077 8.9676 8.35376 9.19795C8.24321 9.57397 8.10953 9.94271 7.95349 10.3021L8.35302 10.4807C8.52118 10.0937 8.66497 9.69655 8.78354 9.29146C8.7921 9.29165 8.8004 9.29226 8.80904 9.29226C9.82924 9.29226 10.0984 8.51553 10.1094 8.48248L9.69464 8.34344C9.69303 8.34827 9.53378 8.80488 8.90738 8.84887C9.0235 8.40705 9.11723 7.96885 9.19223 7.5633C9.22855 7.56635 9.26448 7.56847 9.29956 7.56847Z" fill="#79AD54"/>
<path d="M12.2645 7.75354C12.0006 7.75354 11.7393 7.80581 11.4955 7.90736C11.2517 8.00891 11.0302 8.15775 10.8436 8.34539L9.07168 10.1273C8.91911 10.2808 8.79808 10.4629 8.71551 10.6634C8.63294 10.8638 8.59045 11.0787 8.59045 11.2957V12.8095L6.64439 14.7665C6.19412 15.2194 5.70047 15.6263 5.17063 15.9815L4.9728 16.1142C4.87528 16.1796 4.79532 16.2681 4.74001 16.3721C4.6847 16.476 4.65576 16.592 4.65576 16.7099C4.65576 16.8039 4.67417 16.897 4.70995 16.9839C4.74572 17.0707 4.79816 17.1497 4.86427 17.2161C4.93038 17.2826 5.00887 17.3354 5.09524 17.3713C5.18162 17.4073 5.2742 17.4258 5.36769 17.4258C5.48489 17.4259 5.60028 17.3968 5.70361 17.3412C5.80695 17.2856 5.89504 17.2052 5.96006 17.1071L6.09195 16.9082C6.44517 16.3753 6.84987 15.8789 7.30014 15.4261L9.24623 13.469H10.7516C10.9673 13.469 11.181 13.4263 11.3804 13.3432C11.5797 13.2602 11.7608 13.1385 11.9134 12.985L13.6853 11.2031C13.8719 11.0155 14.0199 10.7927 14.1209 10.5476C14.2219 10.3024 14.2739 10.0396 14.2739 9.77426C14.2739 9.23833 14.0622 8.72436 13.6853 8.3454C13.3085 7.96645 12.7974 7.75355 12.2645 7.75354Z" fill="#79AD54"/>
<path d="M13.1417 10.4225C13.1329 10.4277 12.3289 10.9006 11.791 10.5612L13.1169 9.22782L12.8077 8.91693L11.5044 10.2276C11.2701 9.69217 11.6878 8.97353 11.6927 8.96526L11.5051 8.8526L11.3176 8.7395C11.1949 8.9573 11.1035 9.19153 11.0462 9.43517C10.9464 9.87004 10.9937 10.2508 11.1813 10.5526L10.1928 11.5467C9.95852 11.0112 10.3762 10.2926 10.3812 10.2843L10.1935 10.1717L10.0061 10.0586C9.88332 10.2764 9.79192 10.5106 9.73462 10.7542C9.6348 11.1891 9.6821 11.5699 9.86977 11.8717L9.3103 12.4343L9.61945 12.7452L10.1654 12.1962C10.3803 12.3599 10.6415 12.4432 10.9383 12.4432C11.0814 12.4423 11.2238 12.425 11.363 12.3918C11.6052 12.3341 11.8382 12.2422 12.0547 12.1188L11.8301 11.7416C11.8214 11.7468 11.0174 12.2197 10.4795 11.8803L11.4769 10.8774C11.6919 11.041 11.953 11.1244 12.2499 11.1244C12.3929 11.1235 12.5354 11.1062 12.6745 11.0729C12.9168 11.0153 13.1497 10.9234 13.3663 10.8L13.1417 10.4225Z" fill="#89BA66"/>
<path d="M14.7124 12.9558C15.2609 12.7848 15.8058 12.6461 16.2683 12.5879L16.2141 12.1517C15.7534 12.2096 15.2236 12.34 14.69 12.5019C14.7638 12.174 14.9648 11.8459 15.0629 11.7147L14.7143 11.4495C14.605 11.6009 14.5099 11.7622 14.4303 11.9313C14.3086 12.1893 14.241 12.4295 14.2273 12.6494C13.8838 12.7639 13.5469 12.8867 13.2342 13.0066C13.3052 12.6739 13.5105 12.3379 13.6102 12.2048L13.2616 11.9395C13.1522 12.0909 13.0572 12.2522 12.9775 12.4214C12.8468 12.6985 12.7784 12.9553 12.7724 13.1883C12.0933 13.4622 11.6068 13.6869 11.5591 13.709L11.7423 14.1082C11.7535 14.103 12.2089 13.8927 12.8596 13.6287C12.9675 13.8217 13.1946 14.001 13.5482 14.1728C13.7434 14.2665 13.9448 14.3464 14.1511 14.412L14.2779 13.9912C13.8792 13.8697 13.4247 13.6434 13.2739 13.464C13.5912 13.3407 13.9366 13.2129 14.2892 13.0935C14.3855 13.3037 14.6197 13.4976 15.0009 13.6827C15.1961 13.7764 15.3976 13.8563 15.6038 13.9218L15.7306 13.5011C15.3185 13.3755 14.8463 13.1378 14.7124 12.9558Z" fill="#79AD54"/>
</g>
<defs>
<filter id="filter0_d_543_3292" x="0" y="-0.00012207" width="22.9817" height="23.0999" filterUnits="userSpaceOnUse" color-interpolation-filters="sRGB">
<feFlood flood-opacity="0" result="BackgroundImageFix"/>
<feColorMatrix in="SourceAlpha" type="matrix" values="0 0 0 0 0 0 0 0 0 0 0 0 0 0 0 0 0 0 127 0" result="hardAlpha"/>
<feOffset/>
<feGaussianBlur stdDeviation="0.5"/>
<feColorMatrix type="matrix" values="0 0 0 0 0 0 0 0 0 0 0 0 0 0 0 0 0 0 0.25 0"/>
<feBlend mode="normal" in2="BackgroundImageFix" result="effect1_dropShadow_543_3292"/>
<feBlend mode="normal" in="SourceGraphic" in2="effect1_dropShadow_543_3292" result="shape"/>
</filter>
<clipPath id="clip0_543_3292">
<rect width="13.99" height="14.0688" fill="white" transform="translate(4 4.01648)"/>
</clipPath>
</defs>
</svg>
