<svg width="23" height="24" viewBox="0 0 23 24" fill="none" xmlns="http://www.w3.org/2000/svg">
<g filter="url(#filter0_d_543_2888)">
<ellipse cx="11.4909" cy="11.5498" rx="10.4909" ry="10.55" fill="white"/>
</g>
<g opacity="0.8" clip-path="url(#clip0_543_2888)">
<path d="M14.2481 15.7742L10.9989 18.1234C10.7852 18.278 10.5385 18.3803 10.2786 18.422C10.0186 18.4638 9.7525 18.4439 9.50152 18.364C9.25054 18.284 9.02161 18.1462 8.83296 17.9615C8.64431 17.7769 8.50116 17.5504 8.41493 17.3003L7.10346 13.4982C6.82151 12.6809 6.80954 11.7939 7.06935 10.9692C7.38927 9.95396 8.0971 9.10809 9.03716 8.61764C9.97721 8.1272 11.0725 8.03235 12.0821 8.35396L13.1228 8.68548C13.6227 8.84474 14.0866 9.10146 14.4878 9.44099C14.8891 9.78052 15.22 10.1962 15.4615 10.6643C15.703 11.1324 15.8505 11.6438 15.8955 12.1692C15.9405 12.6946 15.8822 13.2238 15.7238 13.7266C15.464 14.5511 14.9464 15.2693 14.2481 15.7742Z" fill="#EF5350"/>
<path d="M10.5829 8.17724C11.0895 8.13945 11.5986 8.19953 12.0828 8.35421L13.1235 8.68573C13.6078 8.8397 14.0584 9.08549 14.4508 9.40984C14.9397 9.25819 15.3848 8.9896 15.7478 8.62709C16.1109 8.26457 16.3812 7.81895 16.5355 7.32839C16.134 7.20001 15.7111 7.15365 15.2916 7.19204C14.8721 7.23043 14.4645 7.35279 14.0927 7.55192C14.1335 6.77763 13.9674 6.00647 13.6115 5.31859C12.9269 5.67482 12.3496 6.20894 11.9396 6.86546C11.7496 6.48746 11.4863 6.15149 11.1652 5.8773C10.8442 5.60311 10.4719 5.39623 10.0702 5.26884C9.91559 5.7592 9.88147 6.27995 9.97077 6.78647C10.0601 7.293 10.2701 7.77021 10.5829 8.17724Z" fill="#77BC4D"/>
<path d="M10.3501 10.0736C10.3018 10.0582 10.2615 10.0241 10.2381 9.97885C10.2148 9.93356 10.2102 9.88081 10.2256 9.83217L10.4071 9.25588C10.4224 9.20724 10.4563 9.16672 10.5013 9.14323C10.5464 9.11973 10.5988 9.11519 10.6472 9.1306C10.6955 9.146 10.7358 9.18009 10.7592 9.22537C10.7826 9.27066 10.7871 9.32342 10.7718 9.37205L10.5902 9.94834C10.5749 9.99698 10.541 10.0375 10.496 10.061C10.451 10.0845 10.3985 10.089 10.3501 10.0736Z" fill="#E53935"/>
<path d="M11.9519 10.584C11.9036 10.5686 11.8633 10.5345 11.8399 10.4892C11.8166 10.4439 11.812 10.3912 11.8274 10.3425L12.0089 9.76625C12.0242 9.71762 12.0581 9.6771 12.1031 9.65361C12.1482 9.63011 12.2006 9.62557 12.249 9.64097C12.2973 9.65638 12.3376 9.69047 12.361 9.73575C12.3844 9.78103 12.3889 9.83379 12.3736 9.88242L12.192 10.4587C12.1767 10.5074 12.1428 10.5479 12.0978 10.5714C12.0528 10.5949 12.0003 10.5994 11.9519 10.584Z" fill="#E53935"/>
<path d="M13.554 11.0944C13.5056 11.079 13.4653 11.0449 13.442 10.9996C13.4186 10.9543 13.4141 10.9016 13.4294 10.8529L13.6109 10.2766C13.6263 10.228 13.6602 10.1875 13.7052 10.164C13.7502 10.1405 13.8027 10.1359 13.851 10.1513C13.8994 10.1668 13.9397 10.2008 13.9631 10.2461C13.9864 10.2914 13.9909 10.3442 13.9756 10.3928L13.7941 10.9691C13.7788 11.0177 13.7449 11.0582 13.6998 11.0817C13.6548 11.1052 13.6023 11.1098 13.554 11.0944Z" fill="#E53935"/>
<path d="M8.10429 11.6071C8.05593 11.5917 8.01563 11.5576 7.99227 11.5123C7.96891 11.467 7.96439 11.4142 7.97971 11.3656L8.16124 10.7893C8.17655 10.7407 8.21046 10.7002 8.25548 10.6767C8.30051 10.6532 8.35297 10.6486 8.40133 10.664C8.44969 10.6794 8.48999 10.7135 8.51335 10.7588C8.53671 10.8041 8.54123 10.8569 8.52591 10.9055L8.34439 11.4818C8.32907 11.5304 8.29516 11.5709 8.25014 11.5944C8.20511 11.6179 8.15265 11.6225 8.10429 11.6071Z" fill="#E53935"/>
<path d="M9.70634 12.1174C9.65798 12.102 9.61768 12.0679 9.59432 12.0227C9.57096 11.9774 9.56644 11.9246 9.58176 11.876L9.76329 11.2997C9.7786 11.2511 9.81251 11.2105 9.85753 11.1871C9.90256 11.1636 9.95503 11.159 10.0034 11.1744C10.0517 11.1898 10.092 11.2239 10.1154 11.2692C10.1388 11.3145 10.1433 11.3672 10.128 11.4159L9.94644 11.9922C9.93112 12.0408 9.89722 12.0813 9.85219 12.1048C9.80716 12.1283 9.7547 12.1328 9.70634 12.1174Z" fill="#E53935"/>
<path d="M11.3084 12.6278C11.26 12.6124 11.2197 12.5783 11.1964 12.533C11.173 12.4878 11.1685 12.435 11.1838 12.3864L11.3653 11.8101C11.3807 11.7614 11.4146 11.7209 11.4596 11.6974C11.5046 11.6739 11.5571 11.6694 11.6054 11.6848C11.6538 11.7002 11.6941 11.7343 11.7175 11.7796C11.7408 11.8249 11.7453 11.8776 11.73 11.9262L11.5485 12.5025C11.5332 12.5512 11.4993 12.5917 11.4542 12.6152C11.4092 12.6387 11.3567 12.6432 11.3084 12.6278Z" fill="#E53935"/>
<path d="M12.9102 13.1381C12.8618 13.1227 12.8215 13.0886 12.7982 13.0433C12.7748 12.998 12.7703 12.9452 12.7856 12.8966L12.9671 12.3203C12.9825 12.2717 13.0164 12.2312 13.0614 12.2077C13.1064 12.1842 13.1589 12.1796 13.2072 12.195C13.2556 12.2105 13.2959 12.2445 13.3193 12.2898C13.3426 12.3351 13.3471 12.3879 13.3318 12.4365L13.1503 13.0128C13.135 13.0614 13.1011 13.1019 13.056 13.1254C13.011 13.1489 12.9586 13.1535 12.9102 13.1381Z" fill="#E53935"/>
<path d="M9.24076 16.3932C9.1924 16.3778 9.1521 16.3437 9.12874 16.2984C9.10538 16.2531 9.10086 16.2004 9.11618 16.1518L9.29771 15.5755C9.31303 15.5268 9.34693 15.4863 9.39196 15.4628C9.43698 15.4393 9.48945 15.4348 9.53781 15.4502C9.58617 15.4656 9.62646 15.4997 9.64983 15.545C9.67319 15.5902 9.67771 15.643 9.66239 15.6916L9.48086 16.2679C9.47328 16.292 9.46106 16.3144 9.4449 16.3337C9.42873 16.353 9.40893 16.369 9.38663 16.3806C9.36433 16.3922 9.33997 16.3993 9.31494 16.4015C9.28991 16.4037 9.2647 16.4008 9.24076 16.3932Z" fill="#E53935"/>
<path d="M10.8426 16.9035C10.7942 16.8881 10.7539 16.854 10.7305 16.8087C10.7072 16.7634 10.7027 16.7106 10.718 16.662L10.8995 16.0857C10.9148 16.0371 10.9487 15.9966 10.9938 15.9731C11.0388 15.9496 11.0913 15.945 11.1396 15.9604C11.188 15.9758 11.2283 16.0099 11.2516 16.0552C11.275 16.1005 11.2795 16.1533 11.2642 16.2019L11.0827 16.7782C11.0751 16.8023 11.0629 16.8246 11.0467 16.844C11.0305 16.8633 11.0107 16.8792 10.9884 16.8909C10.9661 16.9025 10.9418 16.9096 10.9167 16.9118C10.8917 16.9139 10.8665 16.9111 10.8426 16.9035Z" fill="#E53935"/>
<path d="M8.70877 14.192C8.66041 14.1766 8.62012 14.1425 8.59676 14.0973C8.57339 14.052 8.56888 13.9992 8.58419 13.9506L8.76573 13.3743C8.78105 13.3257 8.81495 13.2851 8.85997 13.2616C8.905 13.2381 8.95747 13.2336 9.00583 13.249C9.05419 13.2644 9.09448 13.2985 9.11784 13.3438C9.14121 13.3891 9.14572 13.4418 9.13041 13.4905L8.94887 14.0668C8.93356 14.1154 8.89965 14.1559 8.85463 14.1794C8.8096 14.2029 8.75713 14.2074 8.70877 14.192Z" fill="#E53935"/>
<path d="M10.6233 14.802C10.575 14.7866 10.5347 14.7525 10.5113 14.7072C10.4879 14.662 10.4834 14.6092 10.4987 14.5606L10.6803 13.9843C10.6956 13.9356 10.7295 13.8951 10.7745 13.8716C10.8196 13.8481 10.872 13.8436 10.9204 13.859C10.9687 13.8744 11.009 13.9085 11.0324 13.9538C11.0558 13.999 11.0603 14.0518 11.045 14.1004L10.8634 14.6767C10.8481 14.7254 10.8142 14.7659 10.7692 14.7894C10.7241 14.8129 10.6717 14.8174 10.6233 14.802Z" fill="#E53935"/>
<path d="M12.5379 15.4119C12.4895 15.3965 12.4492 15.3624 12.4259 15.3171C12.4025 15.2718 12.398 15.2191 12.4133 15.1704L12.5948 14.5941C12.6101 14.5455 12.644 14.505 12.6891 14.4815C12.7341 14.458 12.7866 14.4534 12.8349 14.4689C12.8833 14.4843 12.9236 14.5184 12.9469 14.5636C12.9703 14.6089 12.9748 14.6617 12.9595 14.7103L12.778 15.2866C12.7627 15.3352 12.7288 15.3758 12.6837 15.3992C12.6387 15.4227 12.5862 15.4273 12.5379 15.4119Z" fill="#E53935"/>
<path d="M14.5122 13.6483C14.4639 13.6329 14.4236 13.5988 14.4002 13.5535C14.3769 13.5083 14.3723 13.4555 14.3877 13.4069L14.5692 12.8306C14.5845 12.7819 14.6184 12.7414 14.6634 12.7179C14.7085 12.6944 14.7609 12.6899 14.8093 12.7053C14.8577 12.7207 14.8979 12.7548 14.9213 12.8001C14.9447 12.8454 14.9492 12.8981 14.9339 12.9468L14.7523 13.523C14.737 13.5717 14.7031 13.6122 14.6581 13.6357C14.6131 13.6592 14.5606 13.6637 14.5122 13.6483Z" fill="#E53935"/>
</g>
<defs>
<filter id="filter0_d_543_2888" x="0" y="-0.00012207" width="22.9817" height="23.0999" filterUnits="userSpaceOnUse" color-interpolation-filters="sRGB">
<feFlood flood-opacity="0" result="BackgroundImageFix"/>
<feColorMatrix in="SourceAlpha" type="matrix" values="0 0 0 0 0 0 0 0 0 0 0 0 0 0 0 0 0 0 127 0" result="hardAlpha"/>
<feOffset/>
<feGaussianBlur stdDeviation="0.5"/>
<feColorMatrix type="matrix" values="0 0 0 0 0 0 0 0 0 0 0 0 0 0 0 0 0 0 0.25 0"/>
<feBlend mode="normal" in2="BackgroundImageFix" result="effect1_dropShadow_543_2888"/>
<feBlend mode="normal" in="SourceGraphic" in2="effect1_dropShadow_543_2888" result="shape"/>
</filter>
<clipPath id="clip0_543_2888">
<rect width="13.9972" height="14.0616" fill="white" transform="matrix(0.952823 0.303528 -0.300445 0.953799 7 3.01111)"/>
</clipPath>
</defs>
</svg>
