<svg width="23" height="24" viewBox="0 0 23 24" fill="none" xmlns="http://www.w3.org/2000/svg">
<g filter="url(#filter0_d_543_3115)">
<ellipse cx="11.4909" cy="11.5498" rx="10.4909" ry="10.55" fill="white"/>
</g>
<g opacity="0.8" clip-path="url(#clip0_543_3115)">
<path d="M17.5571 11.7281C17.5571 12.4533 17.4317 13.1499 17.2009 13.7993C16.3815 16.1032 14.2338 17.808 11.6442 18.0544C11.4308 18.0748 11.214 18.0853 10.995 18.0853C7.37093 18.0853 4.43298 15.239 4.43298 11.7281C4.43298 10.559 4.75899 9.57947 5.32744 8.79296C5.794 8.1478 6.42371 7.63262 7.17054 7.24916C7.20527 7.23127 7.24054 7.21369 7.27582 7.19638C8.33285 6.67866 9.61427 6.41724 10.995 6.41724C11.214 6.41724 11.4305 6.42378 11.6442 6.4371C12.7382 6.50409 13.7529 6.74365 14.6222 7.15238C14.6575 7.16857 14.6925 7.18561 14.7272 7.20261C16.4371 8.04498 17.5571 9.56042 17.5571 11.7281Z" fill="#CD2A00"/>
<path d="M17.5571 11.7282C17.5571 12.4534 17.4317 13.1499 17.2009 13.7994C16.1461 15.407 14.3665 16.5245 12.3078 16.7204C12.0944 16.7408 11.8776 16.7513 11.6586 16.7513C8.03451 16.7513 5.09656 13.905 5.09656 10.3941C5.09656 9.81339 5.177 9.27949 5.32745 8.79299C5.79401 8.14783 6.42372 7.63265 7.17054 7.24919C8.24731 6.69652 9.56797 6.41724 10.995 6.41724C11.214 6.41724 11.4305 6.42378 11.6442 6.4371C12.7825 6.50693 13.835 6.76324 14.7272 7.20262C16.4371 8.04504 17.5571 9.56048 17.5571 11.7282Z" fill="#FF3501"/>
<path d="M14.7978 9.33649L13.3306 8.01237C13.1432 7.84291 13.216 7.527 13.4576 7.46256L14.5441 7.17308C14.5705 7.16605 14.5738 7.12942 14.549 7.11807C13.7021 6.73085 12.7174 6.46758 11.663 6.40062L11.6673 4.69261C11.6673 4.32072 11.3647 4.01648 10.9949 4.01648C10.6252 4.01648 10.3226 4.32072 10.3226 4.69258L10.3183 6.40095C9.25817 6.46865 8.27611 6.73151 7.42668 7.12436C7.37657 7.14753 7.38428 7.22152 7.438 7.23403L8.36322 7.44973C8.61583 7.50848 8.69177 7.84058 8.49107 8.00891L7.0945 9.18118C6.96608 9.28876 7.07814 9.49938 7.23563 9.44601L9.96245 8.51956C10.131 8.46252 10.3119 8.56185 10.3593 8.73755L10.8397 10.5186C10.8806 10.6699 11.0898 10.6682 11.1282 10.5161L11.5733 8.75288C11.6198 8.56781 11.8129 8.4662 11.9862 8.53517L14.6453 9.5953C14.8008 9.65751 14.9231 9.45 14.7978 9.33649Z" fill="#5EAC24"/>
</g>
<defs>
<filter id="filter0_d_543_3115" x="0" y="-0.00012207" width="22.9817" height="23.0999" filterUnits="userSpaceOnUse" color-interpolation-filters="sRGB">
<feFlood flood-opacity="0" result="BackgroundImageFix"/>
<feColorMatrix in="SourceAlpha" type="matrix" values="0 0 0 0 0 0 0 0 0 0 0 0 0 0 0 0 0 0 127 0" result="hardAlpha"/>
<feOffset/>
<feGaussianBlur stdDeviation="0.5"/>
<feColorMatrix type="matrix" values="0 0 0 0 0 0 0 0 0 0 0 0 0 0 0 0 0 0 0.25 0"/>
<feBlend mode="normal" in2="BackgroundImageFix" result="effect1_dropShadow_543_3115"/>
<feBlend mode="normal" in="SourceGraphic" in2="effect1_dropShadow_543_3115" result="shape"/>
</filter>
<clipPath id="clip0_543_3115">
<rect width="13.99" height="14.0688" fill="white" transform="translate(4 4.01648)"/>
</clipPath>
</defs>
</svg>
