<svg width="23" height="24" viewBox="0 0 23 24" fill="none" xmlns="http://www.w3.org/2000/svg">
<g filter="url(#filter0_d_543_2984)">
<ellipse cx="11.4909" cy="11.5498" rx="10.4909" ry="10.55" fill="white"/>
</g>
<g opacity="0.9" clip-path="url(#clip0_543_2984)">
<path d="M11.7763 15.6673H8.716L8.27881 10.3915H12.2135L11.7763 15.6673Z" fill="#88C791"/>
<path d="M10.6834 13.4689C10.6488 13.4689 10.6147 13.4606 10.5838 13.4447C10.553 13.4288 10.5264 13.4058 10.5061 13.3776C10.4859 13.3493 10.4726 13.3166 10.4674 13.2822C10.4621 13.2478 10.4651 13.2126 10.476 13.1795L10.6946 12.5201C10.7129 12.4647 10.7524 12.419 10.8042 12.393C10.8561 12.3669 10.9161 12.3626 10.9711 12.381C11.0261 12.3995 11.0716 12.4391 11.0975 12.4913C11.1234 12.5434 11.1277 12.6038 11.1094 12.6591L10.8908 13.3186C10.8763 13.3623 10.8484 13.4004 10.8112 13.4274C10.774 13.4544 10.7293 13.4689 10.6834 13.4689Z" fill="#35A872"/>
<path d="M9.809 13.4689C9.76312 13.4689 9.7184 13.4544 9.68118 13.4274C9.64397 13.4004 9.61614 13.3624 9.60164 13.3186L9.38305 12.6591C9.37397 12.6317 9.37034 12.6028 9.37238 12.574C9.37441 12.5452 9.38206 12.5171 9.3949 12.4913C9.42083 12.4391 9.46629 12.3995 9.52129 12.381C9.57629 12.3626 9.63632 12.3669 9.68818 12.393C9.74003 12.419 9.77946 12.4647 9.7978 12.5201L10.0164 13.1795C10.0273 13.2126 10.0303 13.2478 10.0251 13.2822C10.0198 13.3166 10.0065 13.3493 9.98628 13.3776C9.96603 13.4058 9.9394 13.4288 9.90858 13.4447C9.87776 13.4606 9.84363 13.4689 9.809 13.4689Z" fill="#35A872"/>
<path d="M18.3342 15.1413C18.3342 15.3162 18.2651 15.4839 18.1422 15.6076C18.0192 15.7313 17.8524 15.8008 17.6784 15.8008H16.1483V14.4818H17.6784C17.8524 14.4818 18.0192 14.5513 18.1422 14.675C18.2651 14.7986 18.3342 14.9664 18.3342 15.1413Z" fill="#35A872"/>
<path d="M17.1999 17.2327C17.077 17.3564 16.9102 17.4259 16.7363 17.4259C16.5624 17.4259 16.3956 17.3564 16.2727 17.2327L15.1908 16.1448L16.1181 15.2123L17.1999 16.3002C17.3229 16.4239 17.392 16.5916 17.392 16.7665C17.392 16.9414 17.3229 17.1091 17.1999 17.2327Z" fill="#35A872"/>
<path d="M16.0315 14.9879L15.1042 14.0554L16.186 12.9675C16.309 12.8438 16.4758 12.7744 16.6497 12.7744C16.8236 12.7744 16.9904 12.8438 17.1133 12.9675C17.2363 13.0912 17.3054 13.2589 17.3054 13.4337C17.3054 13.6086 17.2363 13.7763 17.1133 13.9L16.0315 14.9879Z" fill="#35A872"/>
<path d="M14.5145 16.8829L7.27805 15.7976C6.97464 15.7521 6.74878 15.4721 6.74878 15.1413C6.74878 14.8106 6.97464 14.5304 7.27805 14.4849L14.5145 13.3997C15.4935 13.2529 16.3669 14.074 16.3669 15.1413C16.3669 16.2085 15.4935 17.0297 14.5145 16.8829Z" fill="#F78A25"/>
<path d="M13.6885 7.67521C13.7328 7.50957 13.7552 7.33879 13.7551 7.16728C13.7551 6.06653 12.8486 5.17418 11.7304 5.17418C11.3959 5.17356 11.0664 5.25524 10.7705 5.41208C10.5785 5.18074 10.3381 4.99482 10.0666 4.86758C9.79495 4.74033 9.49879 4.67489 9.19917 4.67592C8.08087 4.67592 7.17444 5.56824 7.17444 6.66899C7.17426 7.01986 7.26816 7.36429 7.44626 7.666C7.44001 7.666 7.43383 7.66554 7.42755 7.66554C6.4489 7.66554 5.65576 8.44633 5.65576 9.40949C5.65576 10.3727 6.44901 11.1534 7.42752 11.1534C7.74665 11.154 8.06016 11.069 8.33564 10.9069C8.49143 11.2772 8.7527 11.5928 9.08654 11.814C9.42037 12.0352 9.81183 12.1521 10.2116 12.15C11.1818 12.15 11.9922 11.4782 12.1899 10.5814C12.3575 10.7626 12.5606 10.9069 12.7864 11.0054C13.0122 11.1038 13.2558 11.1542 13.5019 11.1534C14.4804 11.1534 15.2737 10.3726 15.2737 9.40949C15.2739 8.50835 14.5794 7.76696 13.6885 7.67521Z" fill="#35A872"/>
<path d="M14.6183 15.887C14.739 15.887 14.8368 15.7886 14.8368 15.6672C14.8368 15.5458 14.739 15.4474 14.6183 15.4474C14.4975 15.4474 14.3997 15.5458 14.3997 15.6672C14.3997 15.7886 14.4975 15.887 14.6183 15.887Z" fill="#D46109"/>
<path d="M14.8368 13.3857V14.7879C14.8368 14.8462 14.8138 14.9022 14.7728 14.9434C14.7318 14.9846 14.6762 15.0078 14.6183 15.0078C14.5603 15.0078 14.5047 14.9846 14.4637 14.9434C14.4227 14.9022 14.3997 14.8462 14.3997 14.7879V13.4171L14.5147 13.3997C14.6213 13.3838 14.7293 13.3791 14.8368 13.3857Z" fill="#D46109"/>
<path d="M13.0883 16.669L12.6509 16.6034V15.4474C12.6509 15.3891 12.6739 15.3331 12.7149 15.2919C12.7559 15.2507 12.8115 15.2275 12.8695 15.2275C12.9274 15.2275 12.983 15.2507 13.024 15.2919C13.065 15.3331 13.0881 15.3891 13.0881 15.4474L13.0883 16.669Z" fill="#D46109"/>
<path d="M9.54728 16.138L9.11255 16.0728L9.1537 15.1318C9.15624 15.0735 9.18168 15.0186 9.22444 14.9793C9.2672 14.9399 9.32376 14.9192 9.38169 14.9217C9.43962 14.9243 9.49417 14.9499 9.53334 14.9929C9.57252 15.0359 9.5931 15.0927 9.59056 15.151L9.54728 16.138Z" fill="#D46109"/>
<path d="M8.05603 15.3612C7.99807 15.3599 7.94295 15.3356 7.90279 15.2936C7.86262 15.2515 7.8407 15.1952 7.84184 15.1369L7.85709 14.3983L8.29569 14.3324L8.27903 15.1459C8.27784 15.2041 8.25369 15.2596 8.21187 15.2999C8.17005 15.3403 8.11399 15.3623 8.05603 15.3612Z" fill="#D46109"/>
<path d="M12.8695 14.7879C12.9902 14.7879 13.0881 14.6895 13.0881 14.5681C13.0881 14.4467 12.9902 14.3483 12.8695 14.3483C12.7487 14.3483 12.6509 14.4467 12.6509 14.5681C12.6509 14.6895 12.7487 14.7879 12.8695 14.7879Z" fill="#D46109"/>
<path d="M7.8417 17.4258C9.04896 17.4258 10.0276 16.4416 10.0276 15.2275C10.0276 14.0135 9.04896 13.0293 7.8417 13.0293C6.63444 13.0293 5.65576 14.0135 5.65576 15.2275C5.65576 16.4416 6.63444 17.4258 7.8417 17.4258Z" fill="#EB423F"/>
<path d="M8.71614 14.3482L8.93474 15.2275L7.84177 14.7879L6.7488 15.2275L6.96739 14.3482C6.7488 13.9086 6.09302 13.9086 6.09302 13.9086V13.9083C6.29668 13.6354 6.56072 13.4139 6.86425 13.2613C7.16777 13.1087 7.50244 13.0293 7.84177 13.0293C8.1811 13.0293 8.51577 13.1087 8.81929 13.2613C9.12281 13.4139 9.38685 13.6354 9.59052 13.9083V13.9086C9.59052 13.9086 8.93474 13.9086 8.71614 14.3482Z" fill="#EB423F"/>
<path d="M8.71614 14.3482L8.93474 15.2275L7.84177 14.7879L6.7488 15.2275L6.96739 14.3482C6.7488 13.9086 6.09302 13.9086 6.09302 13.9086V13.9083C6.29668 13.6354 6.56072 13.4139 6.86425 13.2613C7.16777 13.1087 7.50244 13.0293 7.84177 13.0293C8.1811 13.0293 8.51577 13.1087 8.81929 13.2613C9.12281 13.4139 9.38685 13.6354 9.59052 13.9083V13.9086C9.59052 13.9086 8.93474 13.9086 8.71614 14.3482Z" fill="#35A872"/>
<path d="M7.84177 14.1285C7.78384 14.1285 7.72827 14.1053 7.68729 14.0642C7.6463 14.023 7.62324 13.9671 7.62317 13.9089C7.62317 13.8916 7.60968 12.7579 6.91436 12.5831C6.85835 12.5688 6.81027 12.5327 6.78065 12.4828C6.75102 12.4328 6.74226 12.3732 6.75628 12.3168C6.77031 12.2604 6.80596 12.2119 6.85546 12.1819C6.90496 12.1518 6.96426 12.1428 7.0204 12.1566C7.4562 12.2661 7.77455 12.6121 7.94139 13.157C8.01447 13.401 8.05449 13.6538 8.06036 13.9086C8.06036 13.9669 8.03733 14.0228 7.99634 14.0641C7.95534 14.1053 7.89974 14.1285 7.84177 14.1285Z" fill="#5E3725"/>
<path d="M11.3393 13.8759V15.6672C11.3393 15.7255 11.3163 15.7814 11.2753 15.8226C11.2343 15.8638 11.1787 15.887 11.1207 15.887C11.0627 15.887 11.0071 15.8638 10.9661 15.8226C10.9251 15.7814 10.9021 15.7255 10.9021 15.6672V13.9413L11.3393 13.8759Z" fill="#D46109"/>
</g>
<defs>
<filter id="filter0_d_543_2984" x="0" y="-0.00012207" width="22.9817" height="23.0999" filterUnits="userSpaceOnUse" color-interpolation-filters="sRGB">
<feFlood flood-opacity="0" result="BackgroundImageFix"/>
<feColorMatrix in="SourceAlpha" type="matrix" values="0 0 0 0 0 0 0 0 0 0 0 0 0 0 0 0 0 0 127 0" result="hardAlpha"/>
<feOffset/>
<feGaussianBlur stdDeviation="0.5"/>
<feColorMatrix type="matrix" values="0 0 0 0 0 0 0 0 0 0 0 0 0 0 0 0 0 0 0.25 0"/>
<feBlend mode="normal" in2="BackgroundImageFix" result="effect1_dropShadow_543_2984"/>
<feBlend mode="normal" in="SourceGraphic" in2="effect1_dropShadow_543_2984" result="shape"/>
</filter>
<clipPath id="clip0_543_2984">
<rect width="13.99" height="14.0688" fill="white" transform="translate(5 4.01648)"/>
</clipPath>
</defs>
</svg>
