<svg width="23" height="24" viewBox="0 0 23 24" fill="none" xmlns="http://www.w3.org/2000/svg">
<g filter="url(#filter0_d_543_3352)">
<ellipse cx="11.4909" cy="11.5498" rx="10.4909" ry="10.55" fill="white"/>
</g>
<g clip-path="url(#clip0_543_3352)">
<path d="M11.495 18.0853C15.225 18.0853 18.2488 15.0445 18.2488 11.2934C18.2488 7.5424 15.225 4.50159 11.495 4.50159C7.76499 4.50159 4.74121 7.5424 4.74121 11.2934C4.74121 15.0445 7.76499 18.0853 11.495 18.0853Z" fill="#FFD88A"/>
<path d="M17.1725 11.2935C17.1725 14.3755 14.7439 16.887 11.7063 16.9988C11.6363 17.0013 11.5658 17.0027 11.4951 17.0027C11.4243 17.0027 11.3538 17.0013 11.2838 16.9988C10.9409 16.9862 10.6059 16.943 10.281 16.8719C10.1403 16.8411 10.0012 16.8048 9.86462 16.7636C9.17687 16.5567 8.54404 16.2223 7.99318 15.7876C7.85137 15.6757 7.71502 15.5573 7.58469 15.4325C7.51419 15.3652 7.44561 15.2963 7.37921 15.2256C7.25488 15.0946 7.13711 14.9575 7.0259 14.8148C6.59364 14.2609 6.2611 13.6245 6.05535 12.9331C6.01436 12.7957 5.97857 12.6562 5.94796 12.5144C5.87692 12.1877 5.83402 11.8505 5.82145 11.5056C5.81899 11.4353 5.81763 11.3647 5.81763 11.2935C5.81763 11.2223 5.81899 11.1515 5.82145 11.0811C5.83402 10.7363 5.87692 10.3991 5.94796 10.0724C5.97857 9.93087 6.01436 9.79101 6.05535 9.65362C6.2611 8.96227 6.59364 8.32588 7.0259 7.77192C7.13711 7.6293 7.25516 7.49191 7.37921 7.36084C7.44588 7.29022 7.51446 7.22153 7.58469 7.15448C7.71502 7.02946 7.85137 6.91103 7.99318 6.79919C8.54404 6.36449 9.17687 6.0298 9.86462 5.82317C10.0012 5.78195 10.14 5.74568 10.2808 5.7149C10.6057 5.64373 10.9409 5.60059 11.2838 5.58795C11.3538 5.58548 11.4243 5.58411 11.4951 5.58411C11.5658 5.58411 11.6363 5.58548 11.7063 5.58795C14.7439 5.69979 17.1725 8.21129 17.1725 11.2935Z" fill="#FFC365"/>
<path d="M11.7063 16.873C11.8697 16.9087 12.0358 16.9373 12.2047 16.9584C11.9724 16.9875 11.7355 17.0027 11.4951 17.0027C8.3596 17.0027 5.81763 14.4466 5.81763 11.2935C5.81763 8.14012 8.3596 5.58411 11.4951 5.58411C11.7355 5.58411 11.9724 5.59922 12.2049 5.62835C12.0361 5.6495 11.8697 5.67836 11.7063 5.7138C11.5631 5.74513 11.4224 5.78167 11.2838 5.82344C10.9365 5.92786 10.6029 6.06497 10.287 6.23149C10.1425 6.30706 10.0018 6.38922 9.86462 6.47687C9.70887 6.57717 9.55804 6.68488 9.41295 6.79919C9.2449 6.93163 9.08478 7.07342 8.93259 7.224C8.91073 7.24544 8.88914 7.26714 8.86756 7.2894C8.71809 7.44218 8.5771 7.6032 8.4454 7.77219C8.33145 7.9181 8.22462 8.0695 8.12516 8.22641C8.03772 8.36407 7.95602 8.50586 7.88061 8.65122C7.71529 8.96886 7.57867 9.30437 7.47484 9.65362C7.32019 10.173 7.23712 10.7233 7.23712 11.2935C7.23712 11.8634 7.32019 12.4138 7.47484 12.9331C7.57867 13.2827 7.71529 13.6179 7.88061 13.9355C7.95602 14.0812 8.03772 14.2227 8.12516 14.3604C8.22462 14.5173 8.33118 14.6687 8.4454 14.8146C8.5771 14.9836 8.71809 15.1449 8.86756 15.2976C8.88914 15.3196 8.91073 15.3413 8.93259 15.363C9.08451 15.5133 9.2449 15.6551 9.41267 15.7876C9.55804 15.9022 9.7086 16.0096 9.86462 16.1099C10.0018 16.1975 10.1425 16.2797 10.287 16.3555C10.6029 16.5218 10.9365 16.6592 11.2838 16.7633C11.4224 16.8054 11.5631 16.8416 11.7063 16.873Z" fill="#FEB14A"/>
<path d="M17.1724 11.5057C17.289 11.5057 17.3835 11.4106 17.3835 11.2934C17.3835 11.1761 17.289 11.081 17.1724 11.081H15.9642V10.0784H16.9935C17.1102 10.0784 17.2047 9.98332 17.2047 9.86604C17.2047 9.74877 17.1101 9.65369 16.9935 9.65369H15.9642V7.51707C15.9642 7.3998 15.8697 7.30472 15.7531 7.30472C15.6364 7.30472 15.5419 7.3998 15.5419 7.51707V8.22637H14.5449V7.22374H15.2498C15.3664 7.22374 15.4609 7.12867 15.4609 7.01139C15.4609 6.89412 15.3664 6.79904 15.2498 6.79904H13.1256V5.76394C13.1256 5.64666 13.031 5.55159 12.9144 5.55159C12.7978 5.55159 12.7032 5.64666 12.7032 5.76394V6.79904H11.7062V5.58418C11.7062 5.4669 11.6117 5.37183 11.4951 5.37183C11.3784 5.37183 11.2839 5.4669 11.2839 5.58418V6.79904H10.2869V5.76394C10.2869 5.64666 10.1924 5.55159 10.0757 5.55159C9.95912 5.55159 9.86458 5.64666 9.86458 5.76394V6.79904H7.74037C7.62375 6.79904 7.52921 6.89412 7.52921 7.01139C7.52921 7.12867 7.62375 7.22374 7.74037 7.22374H8.44525V8.22637H7.44825V7.51751C7.44825 7.40024 7.3537 7.30516 7.23708 7.30516C7.12046 7.30516 7.02592 7.40024 7.02592 7.51751V9.65369H5.99662C5.88 9.65369 5.78546 9.74877 5.78546 9.86604C5.78546 9.98332 5.88 10.0784 5.99662 10.0784H7.02592V11.081H5.81773C5.70111 11.081 5.60657 11.1761 5.60657 11.2934C5.60657 11.4106 5.70111 11.5057 5.81773 11.5057H7.02592V12.5083H5.99662C5.88 12.5083 5.78546 12.6034 5.78546 12.7207C5.78546 12.838 5.88 12.933 5.99662 12.933H7.02592V15.0692C7.02592 15.1865 7.12046 15.2816 7.23708 15.2816C7.3537 15.2816 7.44825 15.1865 7.44825 15.0692V14.3604H8.44525V15.363H7.74037C7.62375 15.363 7.52921 15.4581 7.52921 15.5753C7.52921 15.6926 7.62375 15.7877 7.74037 15.7877H9.86458V16.8228C9.86458 16.9401 9.95912 17.0351 10.0757 17.0351C10.1924 17.0351 10.2869 16.9401 10.2869 16.8228V15.7877H11.2839V17.0028C11.2839 17.1201 11.3784 17.2152 11.4951 17.2152C11.6117 17.2152 11.7062 17.1201 11.7062 17.0028V15.7877H12.7032V16.8228C12.7032 16.9401 12.7978 17.0351 12.9144 17.0351C13.031 17.0351 13.1256 16.9401 13.1256 16.8228V15.7877H15.2502C15.3669 15.7877 15.4614 15.6926 15.4614 15.5753C15.4614 15.4581 15.3668 15.363 15.2502 15.363H14.5449V14.3604H15.5419V15.0692C15.5419 15.1865 15.6364 15.2816 15.7531 15.2816C15.8697 15.2816 15.9642 15.1865 15.9642 15.0692V12.933H16.9935C17.1102 12.933 17.2047 12.838 17.2047 12.7207C17.2047 12.6034 17.1101 12.5083 16.9935 12.5083H15.9642V11.5057H17.1724ZM8.44525 13.9357H7.44825V12.9331H8.44525V13.9357ZM8.44525 12.5084H7.44825V11.5057H8.44525V12.5084ZM8.44525 11.081H7.44825V10.0784H8.44525V11.081ZM8.44525 9.65369H7.44825V8.65107H8.44525V9.65369ZM9.86458 15.363H8.86757V14.3604H9.86458V15.363ZM9.86458 13.9357H8.86757V12.9331H9.86458V13.9357ZM9.86458 12.5084H8.86757V11.5057H9.86458V12.5084ZM9.86458 11.081H8.86757V10.0784H9.86458V11.081ZM9.86458 9.65369H8.86757V8.65107H9.86458V9.65369ZM9.86458 8.22637H8.86757V7.22374H9.86458V8.22637ZM11.2839 15.363H10.2869V14.3604H11.2839V15.363ZM11.2839 13.9357H10.2869V12.9331H11.2839V13.9357ZM11.2839 12.5084H10.2869V11.5057H11.2839V12.5084ZM11.2839 11.081H10.2869V10.0784H11.2839V11.081ZM11.2839 9.65369H10.2869V8.65107H11.2839V9.65369ZM12.7032 15.363H11.7062V14.3604H12.7032V15.363ZM12.7032 13.9357H11.7062V12.9331H12.7032V13.9357ZM12.7032 12.5084H11.7062V11.5057H12.7032V12.5084ZM12.7032 11.081H11.7062V10.0784H12.7032V11.081ZM12.7032 9.65369H11.7062V8.65107H12.7032V9.65369ZM12.7032 8.22637H11.7062V8.21766C11.7062 8.10038 11.6117 8.0053 11.4951 8.0053C11.3784 8.0053 11.2839 8.10038 11.2839 8.21766V8.22637H10.2869V7.22374H11.2839V7.29205C11.2839 7.40933 11.3784 7.50441 11.4951 7.50441C11.6117 7.50441 11.7062 7.40933 11.7062 7.29205V7.22374H12.7032V8.22637ZM14.1226 15.363H13.1256V14.3604H14.1226V15.363ZM14.1226 13.9357H13.1256V12.9331H14.1226V13.9357ZM14.1226 12.5084H13.1256V11.5057H14.1226V12.5084ZM14.1226 11.081H13.1256V10.0784H14.1226V11.081ZM14.1226 9.65369H13.1256V8.65107H14.1226V9.65369ZM14.1226 8.22637H13.1256V7.22374H14.1226V8.22637ZM15.5419 13.9357H14.5449V12.9331H15.5419V13.9357ZM15.5419 12.5084H14.5449V11.5057H15.5419V12.5084ZM15.5419 11.081H14.5449V10.0784H15.5419V11.081ZM15.5419 9.65369H14.5449V8.65107H15.5419V9.65369Z" fill="#FFD88A"/>
<path d="M7.99318 6.79919C7.85137 6.91103 7.71502 7.02946 7.58468 7.15448C7.62294 7.19735 7.67868 7.224 7.74016 7.224H8.4454V7.77219C8.5771 7.6032 8.71809 7.44218 8.86756 7.2894V7.224H8.93259C9.08478 7.07342 9.2449 6.93163 9.41295 6.79919H7.99318ZM7.44834 13.9355V12.9331H7.47484C7.32019 12.4138 7.23712 11.8634 7.23712 11.2935C7.23712 10.7233 7.32019 10.173 7.47484 9.65362H7.44834V8.65122H7.88061C7.95602 8.50586 8.03772 8.36407 8.12516 8.22641H7.44834V7.51747C7.44834 7.45537 7.42183 7.39931 7.37921 7.36084C7.25515 7.49191 7.13711 7.6293 7.0259 7.77192V9.65362H6.05535C6.01436 9.79101 5.97857 9.93087 5.94796 10.0724H5.94824C5.96381 10.0765 5.97993 10.0784 5.9966 10.0784H7.0259V11.0811H5.82145C5.81899 11.1515 5.81763 11.2223 5.81763 11.2935C5.81763 11.3647 5.81899 11.4353 5.82145 11.5056H7.0259V12.5083H5.9966C5.97993 12.5083 5.96381 12.5102 5.94824 12.5144H5.94796C5.97857 12.6562 6.01436 12.7957 6.05535 12.9331H7.0259V14.8148C7.13711 14.9575 7.25488 15.0946 7.37921 15.2256C7.42156 15.1874 7.44834 15.1314 7.44834 15.0693V14.3604H8.12516C8.03772 14.2227 7.95602 14.0812 7.88061 13.9355H7.44834ZM8.93259 15.363H8.86756V15.2976C8.71809 15.1449 8.5771 14.9836 8.4454 14.8146V15.363H7.74016C7.67841 15.363 7.62266 15.39 7.58468 15.4325C7.71502 15.5573 7.85137 15.6757 7.99318 15.7876H9.41267C9.2449 15.6551 9.08451 15.5133 8.93259 15.363ZM10.281 5.71545C10.281 5.71518 10.281 5.71518 10.2808 5.7149C10.14 5.74568 10.0012 5.78195 9.86462 5.82317V6.47687C10.0018 6.38922 10.1425 6.30706 10.287 6.23149V5.76409C10.287 5.74733 10.2849 5.73084 10.281 5.71545ZM9.86462 16.1099V16.7636C10.0012 16.8048 10.1403 16.8411 10.281 16.8719C10.2849 16.8562 10.287 16.8397 10.287 16.8227V16.3555C10.1425 16.2797 10.0018 16.1975 9.86462 16.1099ZM11.4951 5.58411C11.4243 5.58411 11.3538 5.58548 11.2838 5.58795V5.82344C11.4224 5.78167 11.5631 5.74513 11.7063 5.7138V5.58795C11.6363 5.58548 11.5658 5.58411 11.4951 5.58411ZM11.2838 16.7633V16.9988C11.3538 17.0013 11.4243 17.0027 11.4951 17.0027C11.5658 17.0027 11.6363 17.0013 11.7063 16.9988V16.873C11.5631 16.8416 11.4224 16.8054 11.2838 16.7633Z" fill="#FFC365"/>
<path d="M5.81768 11.2934C5.81768 7.72461 8.55488 4.79887 12.0333 4.52305C11.8557 4.50898 11.6762 4.50159 11.495 4.50159C7.76499 4.50159 4.74121 7.5424 4.74121 11.2934C4.74121 15.0445 7.76496 18.0853 11.495 18.0853C11.6762 18.0853 11.8556 18.0779 12.0332 18.0638C8.55488 17.788 5.81768 14.8623 5.81768 11.2934Z" fill="#FCCA7A"/>
<path d="M11.4952 11.0207L11.4953 4.56524C11.4953 4.24377 11.7688 3.99243 12.0874 4.01831C13.8532 4.16169 15.4405 4.94078 16.6228 6.12776C16.7935 6.29905 16.8911 6.53042 16.8911 6.77286V9.06327C16.8911 9.52133 16.5218 9.8927 16.0663 9.8927H16.057C15.8453 9.8927 15.6737 10.0653 15.6737 10.2781V10.5931C15.6737 10.9799 15.3619 11.2934 14.9773 11.2934C14.5926 11.2934 14.2808 10.9799 14.2808 10.5931C14.2808 10.2063 13.969 9.8927 13.5844 9.8927C13.1998 9.8927 12.888 10.2063 12.888 10.5931V11.0207C12.888 11.4075 12.5762 11.721 12.1916 11.721C11.807 11.721 11.4952 11.4074 11.4952 11.0207Z" fill="#BE5E2E"/>
<path d="M12.3372 11.0207L12.3373 4.56524C12.3373 4.35503 12.4542 4.17486 12.6242 4.08253C12.4473 4.05472 12.2684 4.03301 12.0874 4.01831C11.7688 3.99243 11.4953 4.24377 11.4953 4.56524L11.4952 11.0207C11.4952 11.4074 11.807 11.7209 12.1916 11.7209C12.3498 11.7209 12.4956 11.6678 12.6126 11.5784C12.4453 11.4505 12.3372 11.2483 12.3372 11.0207Z" fill="#AC4F27"/>
<path d="M15.1228 10.5931C15.1228 10.2063 14.811 9.8927 14.4264 9.8927C14.2681 9.8927 14.1223 9.94584 14.0054 10.0352C14.1727 10.1631 14.2809 10.3654 14.2809 10.5931C14.2809 10.9799 14.5927 11.2935 14.9773 11.2935C15.1355 11.2935 15.2813 11.2403 15.3983 11.1509C15.2309 11.023 15.1228 10.8208 15.1228 10.5931Z" fill="#AC4F27"/>
</g>
<defs>
<filter id="filter0_d_543_3352" x="0" y="-0.00012207" width="22.9817" height="23.0999" filterUnits="userSpaceOnUse" color-interpolation-filters="sRGB">
<feFlood flood-opacity="0" result="BackgroundImageFix"/>
<feColorMatrix in="SourceAlpha" type="matrix" values="0 0 0 0 0 0 0 0 0 0 0 0 0 0 0 0 0 0 127 0" result="hardAlpha"/>
<feOffset/>
<feGaussianBlur stdDeviation="0.5"/>
<feColorMatrix type="matrix" values="0 0 0 0 0 0 0 0 0 0 0 0 0 0 0 0 0 0 0.25 0"/>
<feBlend mode="normal" in2="BackgroundImageFix" result="effect1_dropShadow_543_3352"/>
<feBlend mode="normal" in="SourceGraphic" in2="effect1_dropShadow_543_3352" result="shape"/>
</filter>
<clipPath id="clip0_543_3352">
<rect width="13.99" height="14.0688" fill="white" transform="translate(4.5 4.01648)"/>
</clipPath>
</defs>
</svg>
