<svg width="23" height="24" viewBox="0 0 23 24" fill="none" xmlns="http://www.w3.org/2000/svg">
<g filter="url(#filter0_d_543_2909)">
<ellipse cx="11.4909" cy="11.5498" rx="10.4909" ry="10.55" fill="white"/>
</g>
<g opacity="0.8" clip-path="url(#clip0_543_2909)">
<path d="M6.5601 14.2458C4.47997 12.1539 4.47997 8.76239 6.5601 6.67054L7.63919 5.58537C9.71933 3.49352 13.0919 3.49352 15.172 5.58537C17.2522 7.67723 17.2522 11.0688 15.172 13.1606L14.0929 14.2458C12.0128 16.3376 8.64024 16.3376 6.5601 14.2458Z" fill="#97DE3D"/>
<path d="M15.2047 5.61729C14.4371 4.84604 13.1491 4.48995 11.7775 4.81543C10.4766 5.12423 9.13977 5.91766 8.01338 7.04954C6.88697 8.18144 6.09741 9.52474 5.79009 10.832C5.46614 12.2102 5.8205 13.5047 6.58804 14.2759C7.12119 14.8117 8.05617 15.2535 8.95615 15.2539L9.80375 14.7922L13.7311 12.9624C13.7581 12.9359 13.7882 12.9064 13.8149 12.8795C14.9413 11.7476 15.6678 10.2577 15.9751 8.95047C16.2991 7.57231 15.9722 6.38858 15.2047 5.61729Z" fill="#59C36A"/>
<path d="M12.7842 11.8461C15.1618 9.45505 16.2704 6.6933 15.2603 5.67752C14.2503 4.66175 11.504 5.77661 9.12636 8.16763C6.74873 10.5586 5.64012 13.3204 6.6502 14.3362C7.66028 15.3519 10.4066 14.2371 12.7842 11.8461Z" fill="#97DE3D"/>
<path d="M11.6465 10.7021C14.0242 8.31104 15.6421 6.06147 15.2602 5.67749C14.8784 5.29351 12.6414 6.92053 10.2638 9.31155C7.88618 11.7026 6.26827 13.9521 6.6501 14.3361C7.03193 14.7201 9.26891 13.0931 11.6465 10.7021Z" fill="#59C36A"/>
<path d="M15.2614 5.67773L6.65186 14.3358C8.73825 16.3371 12.0431 16.3072 14.0929 14.2458L15.172 13.1607C17.2218 11.0993 17.2516 7.77588 15.2614 5.67773Z" fill="#59C36A"/>
<path d="M6.65088 14.3367C7.19255 14.8447 8.09046 15.2535 8.95611 15.2539L9.80371 14.7922L13.7311 12.9624C13.7581 12.9359 13.7882 12.9064 13.8149 12.8795C14.9413 11.7476 15.6678 10.2577 15.9751 8.95047C16.2908 7.60729 15.9881 6.44897 15.262 5.677L6.65088 14.3367Z" fill="#00A66C"/>
<path d="M15.2623 5.67688L6.65088 14.3368C7.66111 15.3528 10.4078 14.2378 12.7858 11.8464C15.1638 9.45499 16.2726 6.6928 15.2623 5.67688Z" fill="#59C36A"/>
<path d="M15.2623 5.67688L6.65088 14.3368C7.03276 14.7209 9.27007 13.0936 11.6481 10.7022C14.0261 8.31085 15.6442 6.06091 15.2623 5.67688Z" fill="#00A66C"/>
<path d="M8.31836 12.7049V12.7195C8.31836 15.6782 10.712 18.0854 13.6542 18.0854C16.5964 18.0854 18.9901 15.6782 18.9901 12.7195V12.7048H17.8363L13.5646 13.8537L9.46598 12.7049H8.31836Z" fill="#97DE3D"/>
<path d="M17.8364 12.7049L13.6543 13.8296V18.0854C16.5965 18.0854 18.9901 15.6782 18.9901 12.7195V12.7048H17.8364V12.7049Z" fill="#59C36A"/>
<path d="M9.47192 12.705V12.7164C9.47192 15.0355 11.3481 16.9222 13.6542 16.9222C15.9603 16.9222 17.8364 15.0355 17.8364 12.7164V12.705H9.47192Z" fill="#FC445F"/>
<path d="M13.6541 12.705V16.9222C15.9601 16.9222 17.8363 15.0355 17.8363 12.7164V12.705H13.6541Z" fill="#E1105A"/>
<path d="M12.1491 14.2877C11.9885 14.4492 11.7281 14.4492 11.5675 14.2877C11.4069 14.1262 11.4069 13.8644 11.5675 13.7028C11.7281 13.5413 12.404 13.4465 12.404 13.4465C12.404 13.4465 12.3097 14.1262 12.1491 14.2877Z" fill="#E1105A"/>
<path d="M13.2429 14.7758C13.2429 15.0042 13.4271 15.1894 13.6542 15.1894V13.9998C13.6542 13.9998 13.2429 14.5474 13.2429 14.7758Z" fill="#E1105A"/>
<path d="M13.6541 13.9998V15.1894C13.8812 15.1894 14.0653 15.0042 14.0653 14.7758C14.0653 14.5474 13.6541 13.9998 13.6541 13.9998Z" fill="#A1073D"/>
<path d="M15.1592 14.2877C15.3198 14.4492 15.5802 14.4492 15.7408 14.2877C15.9014 14.1262 15.9014 13.8644 15.7408 13.7028C15.5802 13.5413 14.9043 13.4465 14.9043 13.4465C14.9043 13.4465 14.9986 14.1262 15.1592 14.2877Z" fill="#A1073D"/>
</g>
<defs>
<filter id="filter0_d_543_2909" x="0" y="-0.00012207" width="22.9817" height="23.0999" filterUnits="userSpaceOnUse" color-interpolation-filters="sRGB">
<feFlood flood-opacity="0" result="BackgroundImageFix"/>
<feColorMatrix in="SourceAlpha" type="matrix" values="0 0 0 0 0 0 0 0 0 0 0 0 0 0 0 0 0 0 127 0" result="hardAlpha"/>
<feOffset/>
<feGaussianBlur stdDeviation="0.5"/>
<feColorMatrix type="matrix" values="0 0 0 0 0 0 0 0 0 0 0 0 0 0 0 0 0 0 0.25 0"/>
<feBlend mode="normal" in2="BackgroundImageFix" result="effect1_dropShadow_543_2909"/>
<feBlend mode="normal" in="SourceGraphic" in2="effect1_dropShadow_543_2909" result="shape"/>
</filter>
<clipPath id="clip0_543_2909">
<rect width="13.99" height="14.0688" fill="white" transform="translate(5 4.01648)"/>
</clipPath>
</defs>
</svg>
