<svg width="23" height="24" viewBox="0 0 23 24" fill="none" xmlns="http://www.w3.org/2000/svg">
<g filter="url(#filter0_d_543_3168)">
<ellipse cx="11.4909" cy="11.5498" rx="10.4909" ry="10.55" fill="white"/>
<path d="M21.4817 11.5498C21.4817 17.1029 17.006 21.5998 11.4909 21.5998C5.9757 21.5998 1.5 17.1029 1.5 11.5498C1.5 5.99674 5.9757 1.49988 11.4909 1.49988C17.006 1.49988 21.4817 5.99674 21.4817 11.5498Z" stroke="#67833E"/>
</g>
<g opacity="0.9" clip-path="url(#clip0_543_3168)">
<path d="M17.7584 14.915C17.9559 15.996 17.0941 16.7266 16.543 16.9643C14.3601 17.9052 11.9697 17.2586 9.46191 17.3545C13.8327 16.9278 15.6489 14.7804 16.2747 13.742C16.3633 13.6029 16.4331 13.4527 16.4823 13.2952C16.5336 13.3268 17.5883 13.9849 17.7584 14.915Z" fill="#F8EC7D"/>
<path d="M9.46213 17.3545C8.33364 17.4644 7.03519 17.4597 5.54274 17.2918C3.71202 17.0857 4.18883 15.442 4.49759 15.0996C4.87221 14.6841 5.36432 14.4129 5.41705 14.3849C5.56007 14.4902 5.72183 14.567 5.89359 14.611C8.91428 15.4409 14.7726 12.7392 15.1999 11.3733C16.3757 11.4829 16.5615 12.3081 16.5418 12.8926C16.5391 13.0287 16.5192 13.164 16.4825 13.2951C16.4333 13.4526 16.3635 13.6029 16.2749 13.7419C15.649 14.7804 13.8328 16.9278 9.46213 17.3545Z" fill="#E2D574"/>
<path d="M6.82373 12.1033C6.74496 12.0864 6.67275 12.0469 6.61582 11.9896C6.55889 11.9324 6.51969 11.8597 6.50294 11.7805C6.46742 11.6225 6.44255 11.37 6.45567 11.2298C6.74585 8.18386 10.0524 6.14086 10.1682 6.36206C10.2843 6.58381 10.3073 7.48015 10.6185 8.37099C10.7756 8.82053 11.006 9.26897 11.3587 9.62839C11.623 9.89767 12.0443 9.98643 12.4951 9.9856C12.8375 9.98505 13.1968 9.93285 13.5176 9.86882C14.072 9.75808 14.6445 9.73803 14.9991 10.1804C15.2278 10.4659 15.3617 10.8561 15.1997 11.3732C14.7723 12.7392 8.91403 15.4408 5.89334 14.611C5.72158 14.5669 5.55982 14.4902 5.4168 14.3849C4.54953 13.7257 5.22854 12.2237 6.37124 12.1572C6.50075 12.1499 6.65268 12.1252 6.82373 12.1033Z" fill="#F8EC7D"/>
<path d="M13.353 6.71339C13.3134 6.71334 13.2751 6.69885 13.2453 6.67261C13.2155 6.64637 13.1961 6.61016 13.1908 6.57067C13.0755 5.71662 13.5552 5.27878 14.4228 4.81113C14.4611 4.79092 14.5058 4.78673 14.5471 4.79949C14.5885 4.81224 14.6231 4.84089 14.6435 4.87922C14.664 4.91754 14.6685 4.96242 14.6562 5.0041C14.6439 5.04578 14.6157 5.08087 14.5777 5.10174C13.6817 5.58475 13.4335 5.91759 13.5157 6.52634C13.5215 6.56967 13.51 6.61356 13.4837 6.64836C13.4573 6.68315 13.4183 6.706 13.3753 6.71188C13.3679 6.71288 13.3605 6.71339 13.353 6.71339Z" fill="#E48E66"/>
<path d="M14.3536 8.11412C14.3536 8.60975 14.1578 9.08508 13.8093 9.43554C13.4608 9.78601 12.9881 9.9829 12.4953 9.98291V9.98566C12.0444 9.98648 11.6231 9.89773 11.3589 9.62844C11.0061 9.26903 10.7758 8.82058 10.6187 8.37104L10.6301 8.36692C10.6301 7.33484 11.3127 6.39179 12.53 6.38492C13.5063 6.37942 14.3536 7.08204 14.3536 8.11412Z" fill="#FF4140"/>
</g>
<defs>
<filter id="filter0_d_543_3168" x="0" y="-0.00012207" width="22.9817" height="23.0999" filterUnits="userSpaceOnUse" color-interpolation-filters="sRGB">
<feFlood flood-opacity="0" result="BackgroundImageFix"/>
<feColorMatrix in="SourceAlpha" type="matrix" values="0 0 0 0 0 0 0 0 0 0 0 0 0 0 0 0 0 0 127 0" result="hardAlpha"/>
<feOffset/>
<feGaussianBlur stdDeviation="0.5"/>
<feColorMatrix type="matrix" values="0 0 0 0 0 0 0 0 0 0 0 0 0 0 0 0 0 0 0.25 0"/>
<feBlend mode="normal" in2="BackgroundImageFix" result="effect1_dropShadow_543_3168"/>
<feBlend mode="normal" in="SourceGraphic" in2="effect1_dropShadow_543_3168" result="shape"/>
</filter>
<clipPath id="clip0_543_3168">
<rect width="13.99" height="14.0688" fill="white" transform="translate(4 4.01648)"/>
</clipPath>
</defs>
</svg>
